<?xml version="1.0" encoding="UTF-8" standalone="no"?>
<!-- Created with Inkscape (http://www.inkscape.org/) -->

<svg
   xmlns:dc="http://purl.org/dc/elements/1.1/"
   xmlns:cc="http://creativecommons.org/ns#"
   xmlns:rdf="http://www.w3.org/1999/02/22-rdf-syntax-ns#"
   xmlns:svg="http://www.w3.org/2000/svg"
   xmlns="http://www.w3.org/2000/svg"
   xmlns:sodipodi="http://sodipodi.sourceforge.net/DTD/sodipodi-0.dtd"
   xmlns:inkscape="http://www.inkscape.org/namespaces/inkscape"
   width="600.00012"
   height="760"
   id="svg10110"
   version="1.1"
   inkscape:version="0.91 r13725"
   sodipodi:docname="cressier.svg">
  <defs
     id="defs10112" />
  <sodipodi:namedview
     id="base"
     pagecolor="#ffffff"
     bordercolor="#666666"
     borderopacity="1.0"
     inkscape:pageopacity="0.0"
     inkscape:pageshadow="2"
     inkscape:zoom="0.98994949"
     inkscape:cx="124.18778"
     inkscape:cy="378.52762"
     inkscape:document-units="px"
     inkscape:current-layer="layer1"
     showgrid="false"
     fit-margin-top="0"
     fit-margin-left="0"
     fit-margin-right="0"
     fit-margin-bottom="0"
     inkscape:window-width="1920"
     inkscape:window-height="1017"
     inkscape:window-x="1912"
     inkscape:window-y="-8"
     inkscape:window-maximized="1" />
  <metadata
     id="metadata10115">
    <rdf:RDF>
      <cc:Work
         rdf:about="">
        <dc:format>image/svg+xml</dc:format>
        <dc:type
           rdf:resource="http://purl.org/dc/dcmitype/StillImage" />
        <dc:title />
      </cc:Work>
    </rdf:RDF>
  </metadata>
  <g
     inkscape:label="Layer 1"
     inkscape:groupmode="layer"
     id="layer1"
     transform="translate(-74.999945,-152.36217)">
    <g
       id="g8071"
       transform="matrix(0.99335542,0,0,0.99471923,2.4983432,2.8179406)">
      <path
         sodipodi:nodetypes="ccsssc"
         id="path3033-8"
         d="m 675.00001,553.23447 -600.000025,0 0,58.00266 c 0,166.31066 134.314635,301.12506 300.000025,301.12506 165.68547,0 300,-134.8144 300,-301.12506 z"
         style="fill:#2b5df2;fill-opacity:1;stroke:#000000;stroke-width:4.02399445;stroke-miterlimit:4;stroke-dasharray:none"
         inkscape:connector-curvature="0" />
      <path
         inkscape:connector-curvature="0"
         d="m 74.999945,152.36217 0,458.8679 c 0,166.31063 134.314715,301.13213 300.000115,301.13213 165.68539,0 299.99999,-134.8215 299.99999,-301.13213 l 0,-458.8679 -600.000105,0 z"
         id="path2346-2-8"
         style="fill:#000000;fill-opacity:0;stroke:#000000;stroke-width:4.02399445;stroke-miterlimit:4;stroke-dasharray:none" />
      <rect
         transform="matrix(0,-1,1,0,0,0)"
         y="75.500008"
         x="-554.86218"
         height="599"
         width="402"
         id="rect8099"
         style="opacity:1;fill:#ffffff;fill-opacity:1;stroke:#000000;stroke-width:4.02399445;stroke-linecap:round;stroke-miterlimit:4;stroke-dasharray:none;stroke-dashoffset:0;stroke-opacity:1" />
      <path
         id="path2346-7-2"
         d="m 75.00002,152.36219 0,403 199.5,0 0,-403 -199.5,0 z m 400.49996,0 0,403 199.5,0 0,-403 -199.5,0 z"
         style="fill:#ffff00;fill-opacity:1;stroke:#000000;stroke-width:4.02399445;stroke-miterlimit:4;stroke-dasharray:none"
         inkscape:connector-curvature="0" />
      <path
         inkscape:connector-curvature="0"
         sodipodi:nodetypes="cccccssccsc"
         id="path3475"
         d="m 422.09021,808.59143 c -48.2294,42.55542 -93.62178,5.67406 -93.62178,-56.74043 0,-110.64391 76.59964,-104.96987 99.29583,-45.39238 l 14.18511,0 c -5.6023,-33.09208 2.27524,-64.95872 14.18512,-96.45879 11.34809,17.02214 23.01436,6.61531 25.53321,2.83702 11.3481,-17.02213 -19.85917,-45.39237 -34.04428,-17.02213 -11.3481,22.69618 -19.91554,43.10019 -28.37024,65.25153 -84.86325,-49.37638 -157.18094,22.37575 -153.19927,90.78475 0,65.25152 96.17028,149.75316 175.89546,56.74043 17.02214,-19.85911 -31.20725,-39.71829 -19.85916,0 z"
         style="display:inline;fill:#ffffff;fill-opacity:1;fill-rule:evenodd;stroke:#000000;stroke-width:4.02399445;stroke-miterlimit:4;stroke-dasharray:none" />
      <path
         inkscape:connector-curvature="0"
         id="rect8588"
         d="m 274.50096,152.36217 0,52.57226 96.87499,-52.57226 -96.87499,0 z m 96.87499,0 104.1231,53.57422 0,-53.57422 -104.1231,0 z m 0,66.51562 -96.87499,55.33594 0,71.29102 96.87499,-52.57227 104.1231,53.54297 0,-71.82422 -104.1231,-55.77344 z m 0,140.57032 -96.87499,55.33594 0,71.25976 96.87499,-52.57226 104.1231,53.57617 0,-71.82422 -104.1231,-55.77539 z m 0,140.53906 -96.87499,55.36914 0,0.006 200.19139,0 -103.3164,-55.375 z"
         style="opacity:1;fill:#e20909;fill-opacity:1;stroke:#000000;stroke-width:4.02399445;stroke-linecap:round;stroke-miterlimit:4;stroke-dasharray:none;stroke-dashoffset:0;stroke-opacity:1" />
    </g>
  </g>
</svg>
