<?xml version="1.0" encoding="UTF-8" standalone="no"?>
<!-- Created with Inkscape (http://www.inkscape.org/) -->

<svg
   xmlns:dc="http://purl.org/dc/elements/1.1/"
   xmlns:cc="http://creativecommons.org/ns#"
   xmlns:rdf="http://www.w3.org/1999/02/22-rdf-syntax-ns#"
   xmlns:svg="http://www.w3.org/2000/svg"
   xmlns="http://www.w3.org/2000/svg"
   xmlns:sodipodi="http://sodipodi.sourceforge.net/DTD/sodipodi-0.dtd"
   xmlns:inkscape="http://www.inkscape.org/namespaces/inkscape"
   width="600.00012"
   height="760"
   id="svg10203"
   version="1.1"
   inkscape:version="0.91 r13725"
   sodipodi:docname="le_landeron.svg">
  <defs
     id="defs10205" />
  <sodipodi:namedview
     id="base"
     pagecolor="#ffffff"
     bordercolor="#666666"
     borderopacity="1.0"
     inkscape:pageopacity="0.0"
     inkscape:pageshadow="2"
     inkscape:zoom="0.49497475"
     inkscape:cx="262.52004"
     inkscape:cy="100.94441"
     inkscape:document-units="px"
     inkscape:current-layer="layer1"
     showgrid="false"
     fit-margin-top="0"
     fit-margin-left="0"
     fit-margin-right="0"
     fit-margin-bottom="0"
     inkscape:window-width="1920"
     inkscape:window-height="1017"
     inkscape:window-x="1912"
     inkscape:window-y="-8"
     inkscape:window-maximized="1" />
  <metadata
     id="metadata10208">
    <rdf:RDF>
      <cc:Work
         rdf:about="">
        <dc:format>image/svg+xml</dc:format>
        <dc:type
           rdf:resource="http://purl.org/dc/dcmitype/StillImage" />
        <dc:title />
      </cc:Work>
    </rdf:RDF>
  </metadata>
  <g
     inkscape:label="Layer 1"
     inkscape:groupmode="layer"
     id="layer1"
     transform="translate(-74.999945,-152.36217)">
    <g
       id="g8072"
       transform="matrix(0.99333316,0,0,0.99471917,2.5000127,2.8179992)">
      <path
         sodipodi:nodetypes="ccsssc"
         id="path3033-8"
         d="m 675.00002,553.23447 -600.000035,0 0,58.00266 c 0,166.31066 134.314645,301.12506 300.000035,301.12506 165.68546,0 300,-134.8144 300,-301.12506 z"
         style="fill:#2b5df2;fill-opacity:1;stroke:#000000;stroke-width:4.02403975;stroke-miterlimit:4;stroke-dasharray:none"
         inkscape:connector-curvature="0" />
      <path
         inkscape:connector-curvature="0"
         d="m 74.999945,152.36217 0,458.8679 c 0,166.31063 134.314725,301.13213 300.000115,301.13213 165.6854,0 299.99999,-134.8215 299.99999,-301.13213 l 0,-458.8679 -600.000105,0 z"
         id="path2346-2-8"
         style="fill:#000000;fill-opacity:0;stroke:#000000;stroke-width:4.02403975;stroke-miterlimit:4;stroke-dasharray:none" />
      <path
         id="path2346-7-2"
         d="m 75.00001,152.36219 0,403 199.5,0 0,-403 -199.5,0 z m 400.49996,0 0,403 199.5,0 0,-403 -199.5,0 z"
         style="fill:#ffff00;fill-opacity:1;stroke:#000000;stroke-width:4.02403975;stroke-miterlimit:4;stroke-dasharray:none"
         inkscape:connector-curvature="0" />
      <g
         style="fill:#ffffff;stroke:#000000;stroke-width:4.02403975;stroke-miterlimit:4;stroke-dasharray:none"
         id="g8111">
        <path
           style="opacity:1;fill:#ffffff;fill-opacity:1;stroke:#000000;stroke-width:4.02403975;stroke-linecap:round;stroke-miterlimit:4;stroke-dasharray:none;stroke-dashoffset:0;stroke-opacity:1"
           d="m 360.79133,595.79015 c -94.77622,0 -171.60855,35.3879 -171.60855,35.3879 0,0 76.83233,35.38921 171.60855,35.38921 61.65066,0 115.68291,-14.97051 145.9394,-25.43779 13.68379,4.73054 32.17459,10.37175 54.08651,15.14708 l 0,-50.19569 c -21.91099,4.77512 -40.40142,10.41509 -54.08506,15.14582 -30.25626,-10.46734 -84.28934,-25.43653 -145.94085,-25.43653 z"
           id="path8238"
           inkscape:connector-curvature="0" />
        <path
           style="opacity:1;fill:#ffffff;fill-opacity:1;stroke:#000000;stroke-width:4.02403975;stroke-linecap:round;stroke-miterlimit:4;stroke-dasharray:none;stroke-dashoffset:0;stroke-opacity:1"
           d="m 360.79134,678.98372 c -94.77622,0 -171.60855,35.3879 -171.60855,35.3879 0,0 76.83233,35.38921 171.60855,35.38921 61.65066,0 115.68292,-14.97051 145.93938,-25.43779 13.6838,4.73054 32.1746,10.37175 54.0865,15.14708 l 0,-50.19569 c -21.911,4.77512 -40.4014,10.41509 -54.085,15.14582 -30.25628,-10.46734 -84.28937,-25.43653 -145.94088,-25.43653 z"
           id="path8238-7"
           inkscape:connector-curvature="0" />
      </g>
      <path
         inkscape:connector-curvature="0"
         id="rect8588"
         d="m 274.50096,152.36217 0,52.57226 96.875,-52.57226 -96.875,0 z m 96.875,0 104.1231,53.57422 0,-53.57422 -104.1231,0 z m 0,66.51562 -96.875,55.33594 0,71.29102 96.875,-52.57227 104.1231,53.54297 0,-71.82422 -104.1231,-55.77344 z m 0,140.57032 -96.875,55.33594 0,71.25976 96.875,-52.57226 104.1231,53.57617 0,-71.82422 -104.1231,-55.77539 z m 0,140.53906 -96.875,55.36914 0,0.006 200.1914,0 -103.3164,-55.375 z"
         style="opacity:1;fill:#e20909;fill-opacity:1;stroke:#000000;stroke-width:4.02403975;stroke-linecap:round;stroke-miterlimit:4;stroke-dasharray:none;stroke-dashoffset:0;stroke-opacity:1" />
    </g>
  </g>
</svg>
