<?xml version="1.0" encoding="UTF-8" standalone="no"?>
<!-- Created with Inkscape (http://www.inkscape.org/) -->

<svg
   xmlns:dc="http://purl.org/dc/elements/1.1/"
   xmlns:cc="http://creativecommons.org/ns#"
   xmlns:rdf="http://www.w3.org/1999/02/22-rdf-syntax-ns#"
   xmlns:svg="http://www.w3.org/2000/svg"
   xmlns="http://www.w3.org/2000/svg"
   xmlns:sodipodi="http://sodipodi.sourceforge.net/DTD/sodipodi-0.dtd"
   xmlns:inkscape="http://www.inkscape.org/namespaces/inkscape"
   width="600.00012"
   height="760"
   id="svg10624"
   version="1.1"
   inkscape:version="0.91 r13725"
   sodipodi:docname="neuchatel.svg">
  <defs
     id="defs10626" />
  <sodipodi:namedview
     id="base"
     pagecolor="#ffffff"
     bordercolor="#666666"
     borderopacity="1.0"
     inkscape:pageopacity="0.0"
     inkscape:pageshadow="2"
     inkscape:zoom="0.98994949"
     inkscape:cx="246.57466"
     inkscape:cy="422.85717"
     inkscape:document-units="px"
     inkscape:current-layer="layer1"
     showgrid="false"
     fit-margin-top="0"
     fit-margin-left="0"
     fit-margin-right="0"
     fit-margin-bottom="0"
     inkscape:window-width="1920"
     inkscape:window-height="1017"
     inkscape:window-x="1912"
     inkscape:window-y="-8"
     inkscape:window-maximized="1" />
  <metadata
     id="metadata10629">
    <rdf:RDF>
      <cc:Work
         rdf:about="">
        <dc:format>image/svg+xml</dc:format>
        <dc:type
           rdf:resource="http://purl.org/dc/dcmitype/StillImage" />
        <dc:title />
      </cc:Work>
    </rdf:RDF>
  </metadata>
  <g
     inkscape:label="Layer 1"
     inkscape:groupmode="layer"
     id="layer1"
     transform="translate(-74.999948,-152.36217)">
    <g
       id="g8073"
       transform="matrix(0.99337269,0,0,0.99475056,2.4851765,2.8013065)">
      <path
         inkscape:connector-curvature="0"
         d="m 74.999959,152.36216 0,458.86789 c 0,166.31063 134.314701,301.13213 300.000101,301.13213 165.6854,0 300,-134.8215 300,-301.13213 l 0,-458.86789 -600.000101,0 z"
         id="path2346-2-7"
         style="fill:#ffff00;fill-opacity:1;stroke:#000000;stroke-width:4;stroke-miterlimit:4;stroke-dasharray:none;stroke-opacity:1" />
      <path
         inkscape:connector-curvature="0"
         id="path8381"
         d="m 290.84343,626.71575 -7.48737,4.03145 -42.59841,92.34673 -54.70064,-55.49855 c 0,0 -33.96937,-12.0898 -19.57387,21.87345 l -0.57817,-9.21662 c 0,0 9.78824,-5.74907 10.36511,0.58339 0,0 2.29944,9.21015 10.36248,8.06292 0,0 3.45443,10.93541 11.51096,10.93541 0,0 -0.5758,10.94837 16.70399,15.55027 0,0 7.94787,5.26412 8.57305,12.32196 l -67.87807,5.52788 c 0,0 -26.48356,9.78533 0,23.59748 0,0 -4.03307,-17.27311 12.08651,-8.63322 0,0 2.88541,2.88565 10.3651,-2.29958 0,0 8.63828,4.60838 16.11797,-1.15371 0,0 12.67104,5.76078 23.03501,0.57555 l 6.91181,0.57816 2.62921,7.70451 -22.20569,48.13938 c 0,0 -4.0316,14.38859 2.87773,22.45162 0,0 6.33348,9.7949 17.2743,-1.72927 l -8.0629,-1.14848 c 0,0 -7.48493,-6.90772 1.14847,-13.81055 0,0 4.03152,-2.87762 2.30744,-10.94065 0,0 10.94065,-1.14827 8.63322,-14.39654 0,0 16.12589,-3.45429 12.09435,-20.72759 0,0 3.45436,-15.54386 16.69614,-9.2114 0,0 10.94047,3.44818 19.57388,-3.46113 0,0 2.30081,-5.17863 5.75547,-3.44806 0,0 7.48599,3.44961 13.24808,-5.17732 0,0 9.78022,6.90807 21.29791,-5.76333 0,0 10.36522,-3.1e-4 3.45591,17.84984 0,0 25.91188,-23.02834 0.57555,-30.51451 l -71.9697,11.5188 53.01585,-90.91832 -11.56068,-15.59997 z"
         style="fill:#e20909;fill-opacity:1;stroke:#000000;stroke-width:4;stroke-linecap:butt;stroke-linejoin:miter;stroke-miterlimit:3.90933347;stroke-dasharray:none;stroke-opacity:1" />
      <path
         id="path8381-3"
         d="m 447.10155,626.71575 7.48737,4.03145 42.59842,92.34673 54.70063,-55.49855 c 0,0 33.96938,-12.0898 19.57388,21.87345 l 0.57816,-9.21662 c 0,0 -9.78824,-5.74907 -10.3651,0.58339 0,0 -2.29945,9.21015 -10.36249,8.06292 0,0 -3.45442,10.93541 -11.51095,10.93541 0,0 0.57579,10.94837 -16.70399,15.55027 0,0 -7.94788,5.26412 -8.57306,12.32196 l 67.87808,5.52788 c 0,0 26.48356,9.78533 0,23.59748 0,0 4.03306,-17.27311 -12.08652,-8.63322 0,0 -2.88541,2.88565 -10.3651,-2.29958 0,0 -8.63827,4.60838 -16.11797,-1.15371 0,0 -12.67104,5.76078 -23.035,0.57555 l -6.91182,0.57816 -2.62921,7.70451 22.2057,48.13938 c 0,0 4.03159,14.38859 -2.87774,22.45162 0,0 -6.33347,9.7949 -17.2743,-1.72927 l 8.06291,-1.14848 c 0,0 7.48493,-6.90772 -1.14848,-13.81055 0,0 -4.03152,-2.87762 -2.30743,-10.94065 0,0 -10.94065,-1.14827 -8.63322,-14.39654 0,0 -16.1259,-3.45429 -12.09436,-20.72759 0,0 -3.45435,-15.54386 -16.69614,-9.2114 0,0 -10.94046,3.44818 -19.57387,-3.46113 0,0 -2.30082,-5.17863 -5.75548,-3.44806 0,0 -7.48599,3.44961 -13.24808,-5.17732 0,0 -9.78021,6.90807 -21.2979,-5.76333 0,0 -10.36523,-3.1e-4 -3.45591,17.84984 0,0 -25.91188,-23.02834 -0.57555,-30.51451 l 71.9697,11.5188 -53.01585,-90.91832 11.56067,-15.59997 z"
         style="fill:#e20909;fill-opacity:1;stroke:#000000;stroke-width:4;stroke-linecap:butt;stroke-linejoin:miter;stroke-miterlimit:3.90933347;stroke-dasharray:none;stroke-opacity:1"
         inkscape:connector-curvature="0" />
      <path
         id="path8750"
         transform="translate(74.999948,152.36217)"
         d="m 340.41602,34.498047 c -41.33228,0.24203 -73.25391,25.539062 -73.25391,25.539062 -1.43241,5.76209 -4.89453,7.488282 -4.89453,7.488282 -49.51246,29.07617 -25.6211,45.771489 -25.6211,45.771489 5.18523,4.03152 4.03321,-2.87891 4.03321,-2.87891 1.4389,-13.818651 21.30273,-8.92578 21.30273,-8.92578 19.28907,11.51771 37.71094,11.51953 37.71094,11.51953 14.39551,5.47041 2.30664,10.07617 2.30664,10.07617 -5.18523,4.60188 -8.64063,0 -8.64062,0 -13.52698,-8.92509 -31.37696,-5.47461 -31.37696,-5.47461 -29.07617,10.07879 -44.33412,4.60742 -44.33398,4.60742 -5.75563,0 -1.4375,3.74024 -1.4375,3.74024 13.53346,11.80935 35.11523,6.04687 35.11523,6.04687 23.32056,-10.36398 35.125,-6.33203 35.125,-6.33203 6.62413,1.4389 1.4375,4.31641 1.4375,4.31641 -3.73985,4.03152 -20.72656,7.48828 -20.72656,7.48828 -3.44818,2.30095 -0.28516,4.31641 -0.28516,4.31641 9.50194,1.73056 17.85106,-0.002 24.75391,-2.30274 6.91579,-2.30095 2.88281,6.33398 2.88281,6.33398 -37.4244,36.84754 -32.24609,58.72657 -32.24609,58.72657 -16.82922,-8.64509 -30.63999,-10.07715 -35.75586,-10.30664 -0.98875,0.20616 -2.23828,-0.0547 -2.23828,-0.0547 0,0 0.87973,-0.005 2.23828,0.0547 1.51533,-0.31597 2.41,-1.7404 -2.81445,-6.96485 -8.63989,-8.63341 -20.16016,-4.03125 -20.16016,-4.03125 -12.66492,5.7621 -42.02539,11.51563 -42.02539,11.51563 0,0 -13.2407,1.14829 -16.69531,-6.33789 -3.45469,-7.47969 10.93945,-13.81055 10.93945,-13.81055 l 25.33008,-5.18555 c 33.39289,-8.05656 12.09375,-28.20703 12.09375,-28.20703 0,0 -32.12045,-38.95517 -50.09375,-80.035154 -4.02505,-9.21026 -2.30078,-17.845703 -2.30078,-17.845703 0,0 1.15226,-1.151655 -6.9043,-1.728515 -8.06302,-0.576851 -0.57611,0 -0.57617,0 2e-5,0 -17.84993,2.300996 -23.03516,9.216796 -5.17875,6.90283 -7.48507,10.356902 -6.9082,28.207032 0.36944,11.32326 37.42383,69.085934 37.42383,69.085934 0,0 -37.42615,12.67294 -31.66407,44.91211 5.75561,32.24565 16.69705,36.84721 67.9336,43.17969 0.57685,0.0713 4.03125,1.0295 4.03125,6.33789 0,1.14724 -4.60142,155.44616 -45.48047,249.29883 -0.175,0.40833 -2.11855,4.94559 0.64258,8.07617 l 0.70703,0 c 0.79315,0.65379 1.85389,1.21272 3.2539,1.61133 0.33596,0.0916 9.04301,1.78024 19.43555,-1.61133 l 1.91992,0 c 6.13153,-2.33335 12.6842,-6.52218 18.375,-13.83984 0.49908,-0.63518 7.47914,-1.72191 17.84961,-51.23438 0,0 1.72308,-4.60707 5.17774,-0.58203 3.45466,4.03152 6.33398,9.78516 6.33398,9.78516 0,0 1.15371,0.001 0,8.06445 -1.15372,8.06303 -0.57738,2.30072 -11.51172,23.03516 -0.27223,0.50556 -6.33784,8.63081 2.87891,9.79101 9.21026,1.14075 15.54297,-4.03125 15.54297,-4.03125 0,0 6.7849,10.85146 12.28125,19.01172 l 0.45117,0 c 1.48519,2.18658 2.87415,4.1942 3.96484,5.64258 5.17875,6.90932 5.1789,4.60131 7.48633,-1.1543 0.0563,-0.14605 0.28412,-2.17996 0.53711,-4.47461 l 0.084,0 c 0.69354,-6.30655 1.67774,-16.15234 1.67774,-16.15234 0,0 2.29984,-5.75537 6.9082,-2.87109 0.48612,0.30463 13.24414,5.17382 13.24414,5.17382 0,0 4.6087,2.88248 5.18555,7.48438 0.18797,1.49723 0.31028,3.86265 0.39453,6.35156 l 0.0137,0 c 0.15216,4.96899 0.16211,10.24805 0.16211,10.24805 0,0 -4.02945,18.99414 -21.30273,9.20703 0,0 -11.51088,-8.63926 -14.38867,10.37109 -2.8778,18.99738 12.66197,36.84018 33.96679,22.45117 0.67408,-0.46019 6.91085,-4.03041 6.33399,2.87891 -0.57685,6.90932 6.33008,69.09375 6.33008,69.09375 0,0 -4.02831,20.7208 -18.70899,18.99024 -12.61956,-1.47781 -12.38086,-7.18946 -12.38086,-7.18946 -0.57038,-2.30743 -0.28515,-8.0625 -0.28515,-8.0625 0.2852,-3.73985 -3.7461,-2.88281 -3.7461,-2.88281 -18.13533,2.30095 -27.05664,8.0625 -27.05664,8.0625 -29.07618,19.00386 -15.83984,38.86328 -15.83984,38.86328 9.21674,11.2325 28.21484,1.43945 28.21484,1.43945 3.16948,-0.57685 2.01758,2.00782 2.01758,2.00782 l -6.04102,6.91015 c -4.3167,4.03153 1.14649,4.61524 1.14649,4.61524 11.80289,2.29446 31.09179,-4.89258 31.09179,-4.89258 3.16301,-2.31391 2.30079,2.5918 2.30079,2.5918 -0.57038,15.25105 4.60937,17.26757 4.60937,17.26757 2.58613,6.0408 6.61515,0 6.61524,0 0.57684,-2.29446 4.32421,-1.72461 4.32421,-1.72461 0.86205,14.10383 5.47071,18.9961 5.47071,18.9961 9.49543,12.95011 17.56054,2.01758 17.56054,2.01758 11.80287,-6.63063 10.36133,-21.30664 10.36133,-21.30664 -1.73056,-4.60188 4.31641,0 4.31641,0 5.47041,5.17876 4.89424,6.04727 9.21094,0 4.31671,-6.04078 3.45507,-12.08594 3.45507,-12.08594 -2.58613,-6.33246 5.17969,-4.03125 5.17969,-4.03125 14.97235,7.77137 29.36719,6.9082 29.36719,6.9082 12.9501,0.86205 0.86133,-11.50976 0.86133,-11.50976 -0.57685,-1.73058 2.01758,-1.43946 2.01758,-1.43946 23.89743,11.21954 30.80554,-2.58608 27.92773,-19.85937 -2.88428,-17.27978 -27.92899,-27.35993 -38.29297,-28.79883 -10.36399,-1.43891 -5.4707,5.4707 -5.4707,5.4707 2.59261,8.06303 -1.72531,14.11116 -10.65039,15.53711 -8.92507,1.44538 -22.74344,-6.32738 -23.60547,-17.26172 -0.86205,-10.94732 7.77344,-73.41015 7.77344,-73.41015 -0.57685,-5.76209 5.18554,-2.87891 5.18554,-2.87891 18.13535,10.3575 30.50782,-4.31641 30.50782,-4.31641 11.2325,-13.53345 2.30615,-28.21854 -0.86329,-30.80468 -3.16301,-2.58613 -6.33398,0.58398 -6.33398,0.58398 -15.25753,11.50474 -21.01172,-6.34766 -21.01172,-6.34766 -0.90368,-5.4283 -0.29005,-10.95582 0.60156,-15.69531 l 0.11719,0 c 1.07593,-5.47043 2.46283,-9.73542 2.1582,-11.25195 -0.57685,-2.89078 11.51758,-6.33984 11.51758,-6.33984 4.60837,-1.14724 4.02539,2.60156 4.02539,2.60156 0.76451,0.89611 0.55339,7.90461 0.19336,14.31445 l -0.0312,0 c -0.32407,5.47041 -0.73242,10.33594 -0.73242,10.33594 -0.29167,6.32598 4.60156,2.00391 4.60156,2.00391 3.74633,-1.14076 5.47071,-4.03126 5.47071,-4.03126 0,0 2.35154,-3.57925 4.99609,-7.63281 l 0.44727,0 c 3.31207,-5.04913 7.27376,-11.10922 9.24414,-14.14258 3.73985,-5.75561 9.21093,3.17579 9.21093,3.17579 l 11.51172,1.4375 c 6.33246,0.57037 4.03119,-4.32032 4.03125,-4.32032 -1.7241,-5.17226 -5.4707,-9.78711 -5.4707,-9.78711 -3.16299,-10.3575 -6.61914,-17.26757 -6.61914,-17.26757 -1.15371,-7.48617 0.28516,-6.62305 0.28515,-6.62305 0,0 9.7e-4,0.56838 0.29297,-1.73242 0.28519,-2.30095 6.61719,-8.34766 6.61719,-8.34766 1.72409,-4.03151 4.03125,0.58203 4.03125,0.58203 1.7241,10.35103 8.64063,34.53321 8.64063,34.5332 6.52691,10.95381 13.15494,18.00626 19.29296,22.47852 l 0.98438,0 c 15.03853,10.4069 26.92773,5.64258 26.92773,5.64258 5.38616,0.57038 5.74869,-2.77944 4.72461,-6.31836 l -0.22461,0 c -1.14115,-3.43395 -3.3457,-6.83008 -3.3457,-6.83008 C 421.17756,391.0999 418.875,248.59766 418.875,248.59766 c -2.59262,-7.47969 8.34766,-5.75586 8.34766,-5.75586 16.11959,-3.45466 38.57189,-6.90962 54.12109,-24.75977 15.54273,-17.84367 6.62492,-41.74023 6.625,-41.74023 -7.77789,-17.27329 -25.62305,-23.31446 -25.62305,-23.31446 -3.46115,-1.44538 0.57032,-6.33007 0.57032,-6.33007 27.92895,-33.39937 37.42382,-68.517582 37.42382,-68.517582 6.33894,-29.36134 -27.63672,-30.232422 -27.63672,-30.232422 -11.51121,-2.87779 -9.7871,6.048828 -9.7871,6.048828 0.29167,19.28908 -57.85938,96.148436 -57.85938,96.148436 -2.8778,5.18525 -0.57617,9.78711 -0.57617,9.78711 0.29167,8.63989 16.69531,15.54688 16.69531,15.54688 23.89743,4.60188 25.9082,6.04882 25.9082,6.04882 13.24178,4.60837 9.79297,11.51172 9.79297,11.51172 -0.58335,8.06303 -13.81836,6.33008 -13.81836,6.33008 -25.91319,-6.61764 -38.28711,-10.93945 -38.28711,-10.93945 -27.35209,-4.02503 -29.94531,4.89843 -29.94531,4.89843 0.58336,7.19451 -3.16211,4.02735 -3.16211,4.02735 -8.34821,-1.72409 -22.46094,-0.57031 -22.46094,-0.57031 -7.1945,1.72409 -4.3164,-3.45704 -4.3164,-3.45704 3.74633,-11.51769 8.34961,-36.84374 8.34961,-36.84374 3.74633,1.14722 4.03125,-2.88672 4.03125,-2.88672 2.30095,-9.21026 0,-24.17578 0,-24.17578 5.18523,-0.29168 4.0332,-4.60938 4.0332,-4.60938 0.57685,-8.92508 -1.1543,-16.98633 -1.1543,-16.98633 -1.15372,-2.8778 2.59375,-3.45508 2.59375,-3.45508 2.87779,0 2.87704,-4.0332 2.87696,-4.0332 -0.28516,-15.827909 -4.89453,-19.857421 -4.89453,-19.857421 -2.8778,-4.3167 1.15429,-5.177735 1.15429,-5.177735 4.31672,-2.30745 0.86328,-6.910156 0.86328,-6.910156 -5.47042,-11.80286 -14.68164,-17.558594 -14.68164,-17.558594 -6.04728,-3.74633 1.72852,-5.763651 1.72852,-5.763672 23.60577,-6.90932 3.73429,-9.787109 3.73437,-9.787109 -4.45222,-0.56694 -8.82971,-0.810196 -13.10546,-0.785156 z M 292.20898,56.875 l -6.33203,7.193359 c -4.03151,6.04728 3.73828,4.03125 3.73828,4.03125 17.85015,-10.36397 26.77737,-10.939453 26.77735,-10.939453 l -2.87891,3.746094 c -2.88428,2.30095 -0.57812,4.03125 -0.57812,4.03125 4.60836,2.87781 2.30273,10.072286 2.30273,10.072266 -2.30095,9.78714 -12.37891,6.908203 -12.3789,6.908203 -8.63342,-0.57685 -7.48047,-8.632813 -7.48047,-8.632813 -0.57684,-4.03152 -3.16993,-1.728515 -3.16993,-1.728515 -3.45466,2.59261 -9.20898,1.4375 -9.20898,1.4375 -8.34823,-4.60189 0,-10.939453 0,-10.939453 L 292.20898,56.875 Z M 75.726562,65.798828 c -2.99447,0 -28.212043,3.453252 -31.089843,30.513672 -2.85188,26.79468 47.092712,66.78711 60.451171,66.78711 0,0 8.06469,-12.08931 23.60742,-20.15234 -9.90379,-14.96587 -29.167197,-30.73339 -35.156248,-39.7168 -17.27329,-25.336321 -9.52261,-37.431642 -17.8125,-37.431642 z m 229.871098,0.867188 c -3.42225,0 -6.19141,2.573429 -6.19141,5.755859 0,3.17595 2.76916,5.755859 6.19141,5.755859 3.41578,0 6.18945,-2.579909 6.18945,-5.755859 0,-3.18243 -2.77367,-5.755859 -6.18945,-5.755859 z m -40.24805,6.503906 c 1.18036,-0.009 2.46184,0.220652 3.54101,0.976562 1.8991,1.3352 3.45382,3.170998 22.16602,15.835938 0,0 11.52002,9.207382 13.5293,14.107418 0,0 3.16713,6.61996 -3.74219,4.02735 0,0 -16.69714,-3.16537 -18.71289,-3.45703 -2.01576,-0.29168 -6.90779,-3.45434 -12.95508,-4.60157 0,0 -17.26662,-11.515902 -31.66211,2.30274 0,0 -4.89203,-5.470694 6.33399,-15.257814 0,0 13.81809,-10.941248 17.84961,-13.242188 0,0 1.68509,-0.676536 3.65234,-0.691406 z m 262.37891,0.121094 c -8.28989,0 -3.45654,11.515843 -20.73633,36.845704 -5.98893,8.98341 -24.66981,22.44562 -34.58008,37.41797 13.82512,5.7556 22.46094,21.87695 22.46094,21.87695 13.35845,0 62.75976,-38.11288 62.75976,-65.05664 0,-20.72797 -26.90982,-31.083984 -29.90429,-31.083984 z M 261.11914,123.37109 c 0,0 -0.29248,3.16914 -16.69726,5.47657 l -10.36133,-0.86914 c 0,0 14.67799,-1.43863 20.43359,-4.03125 l 6.625,-0.57618 z M 33.699219,140.07031 c -9.903791,7.60285 -13.244141,26.71521 -13.244141,34.54492 0,23.0289 21.150698,29.95313 52.929688,29.95313 3.2278,0 26.520796,1.71563 27.097654,-0.5918 0,0 -4.599247,-16.1169 -0.574217,-29.93554 -38.22812,-3.2278 -59.299654,-28.2151 -66.208984,-33.97071 z m 534.330081,9.22071 c -13.5853,13.58531 -30.8904,27.85875 -69.125,31.08007 3.99911,16.1131 -1.72461,27.0625 -1.72461,27.0625 4.60188,8.63989 24.75313,6.33215 29.40039,6.35157 31.77898,0.0972 55.26758,-16.12085 55.26758,-39.15625 0,-7.82969 -3.91456,-17.74153 -13.81836,-25.33789 z m -465.85547,62.41992 c -0.0944,-0.006 -0.19688,-0.003 -0.3086,0.01 -6.703076,0.7648 -44.130319,35.40603 -80.832027,34.86524 -4.608365,17.27329 -2.306641,16.92831 -2.306641,21.29687 0,23.72892 18.582009,28.19568 27.636719,24.1836 40.3022,-17.85015 69.118089,-50.68018 73.117189,-61.60157 0.16205,-0.43426 -8.63228,-5.184 -16.69531,-18.42578 -0.12336,-0.20295 -0.32804,-0.30895 -0.61133,-0.32812 z m 395.02148,5.22656 c -0.0888,-0.002 -0.17071,0.006 -0.24414,0.0254 -0.15162,0.0391 -0.27101,0.12587 -0.35547,0.25977 -6.90285,10.93435 -18.57547,17.99214 -18.41992,18.41992 3.99911,10.92788 57.38161,64.51172 71.4336,64.51172 9.90378,0 28.74609,-3.94224 28.74609,-27.65821 0,-4.3815 2.30562,2.88393 -2.30274,-14.40234 -37.33871,0.55628 -73.26115,-41.01383 -78.85742,-41.15625 z m -372.52929,18.13477 c 0,0 -69.093867,121.47585 -104.210942,141.62695 -2.307431,17.2733 12.666413,30.52265 25.908203,32.83008 33.39937,0 93.847549,-147.40548 95.578129,-168.12696 l -17.27539,-6.33007 z m 347.17968,2.87304 -17.84961,6.91602 c 12.61652,44.7389 57.83392,171.75798 91.19727,172.72851 15.12139,-0.48751 28.52293,-15.26226 26.25391,-32.24804 C 542.08591,364.61384 471.8457,237.94531 471.8457,237.94531 Z m 73.34766,179.64453 c -0.25595,0.008 -0.51265,0.0234 -0.76953,0.0234 l 1.15429,0 c -0.12765,0 -0.25673,-0.0196 -0.38476,-0.0234 z M 152.30078,241.97656 c -8.63341,24.75948 -18.8335,60.52393 -36.8457,115.72071 -35.693822,109.40189 -54.123049,115.84646 -54.123049,116.30664 0,0 1.724365,21.88109 34.546875,19.00976 43.108714,-3.7917 71.388404,-201.52452 75.419924,-223.97656 l 1.72851,-23.60547 c -9.7612,-0.58982 -20.72656,-3.45508 -20.72656,-3.45508 z m 293.32617,6.9043 c -0.0908,-0.0121 -0.18339,-0.0109 -0.27343,0.008 -11.9001,2.37873 -9.23686,2.28714 -18.99805,2.87695 l 0,13.81836 c 4.03152,22.45205 21.87593,233.75085 77.75976,233.2129 23.49556,-0.22686 26.45704,-18.46094 26.45704,-18.46094 0,-0.46018 -17.49783,-6.20857 -54.125,-116.29102 -17.90941,-53.74095 -25.10366,-114.38256 -30.82032,-115.16406 z"
         style="fill:#231f20;fill-opacity:1;fill-rule:nonzero;stroke:none"
         inkscape:connector-curvature="0" />
      <path
         sodipodi:nodetypes="csccsccsccccccc"
         inkscape:connector-curvature="0"
         id="path3756-6-8"
         d="m 266.33312,362.44024 0,148.45384 c 0,50.99996 27.72045,94.6274 67.12853,112.99442 l 0,0.40886 c 12.82125,5.72475 26.82549,8.92061 41.50544,8.92061 14.70172,0 28.73439,-3.17941 41.57138,-8.92061 l 0,-0.44603 c 39.39062,-18.37581 67.1285,-61.97143 67.1285,-112.95725 l 0,-148.45384 -67.1285,0 -0.16515,0 -41.37326,0 c -16.88163,0 -19.39734,0 -41.47237,0 l -0.0655,0 z"
         style="fill:#ffffff;fill-opacity:1;stroke:none" />
      <path
         inkscape:connector-curvature="0"
         id="path3756-6"
         d="m 333.45925,362.44091 0,45.79247 41.54077,-45.79247 -41.54077,0 z m 41.54077,0 41.54074,45.82964 0,-45.82964 -41.54074,0 z m 0,46.57303 -41.54077,45.86681 0,37.4294 41.54077,-45.86681 41.54074,45.90398 0,-37.4294 -41.54074,-45.90398 z m 0,84.22544 -41.54077,45.86681 0,37.4294 41.54077,-45.86681 41.54074,45.86681 0,-37.39223 -41.54074,-45.90398 z m 0,84.00243 -41.54077,45.86681 0,1.18941 c 12.82125,5.72475 26.82737,8.92062 41.50707,8.92062 14.70193,0 28.73744,-3.17942 41.57444,-8.92062 l 0,-1.0779 -41.54074,-45.97832 z"
         style="fill:#e20909;fill-opacity:1;stroke:#000000;stroke-width:4;stroke-miterlimit:3.90933347;stroke-dasharray:none" />
      <g
         style="stroke-width:3.5680728;stroke-miterlimit:3.90933347;stroke-dasharray:none"
         transform="matrix(1.0566209,0,0,1.1894149,-693.01759,-42.764664)"
         id="g10532">
        <path
           sodipodi:nodetypes="cccccccccc"
           inkscape:connector-curvature="0"
           style="fill:#ffff00;fill-opacity:1;stroke:#000000;stroke-width:3.5680728;stroke-miterlimit:3.90933347;stroke-dasharray:none;stroke-opacity:1"
           d="m 907.9327,340.67526 0,124.79533 c 0,42.90294 26.26705,79.6272 63.59763,95.0536 l 0,-219.84894 z m 142.0233,0 0,219.84894 c 37.3625,-15.41173 63.6833,-52.12759 63.6833,-95.0536 l 0,-124.79534 z"
           id="path3847" />
      </g>
    </g>
  </g>
</svg>
