<?xml version="1.0" encoding="UTF-8" standalone="no"?>
<!-- Created with Inkscape (http://www.inkscape.org/) -->

<svg
   xmlns:dc="http://purl.org/dc/elements/1.1/"
   xmlns:cc="http://creativecommons.org/ns#"
   xmlns:rdf="http://www.w3.org/1999/02/22-rdf-syntax-ns#"
   xmlns:svg="http://www.w3.org/2000/svg"
   xmlns="http://www.w3.org/2000/svg"
   xmlns:sodipodi="http://sodipodi.sourceforge.net/DTD/sodipodi-0.dtd"
   xmlns:inkscape="http://www.inkscape.org/namespaces/inkscape"
   width="600"
   height="760"
   id="svg7776"
   version="1.1"
   inkscape:version="0.91 r13725"
   sodipodi:docname="valangin.svg">
  <defs
     id="defs7778" />
  <sodipodi:namedview
     id="base"
     pagecolor="#ffffff"
     bordercolor="#666666"
     borderopacity="1.0"
     inkscape:pageopacity="0.0"
     inkscape:pageshadow="2"
     inkscape:zoom="0.35"
     inkscape:cx="-642.14286"
     inkscape:cy="520"
     inkscape:document-units="px"
     inkscape:current-layer="layer1"
     showgrid="false"
     inkscape:window-width="1920"
     inkscape:window-height="1017"
     inkscape:window-x="1912"
     inkscape:window-y="-8"
     inkscape:window-maximized="1" />
  <metadata
     id="metadata7781">
    <rdf:RDF>
      <cc:Work
         rdf:about="">
        <dc:format>image/svg+xml</dc:format>
        <dc:type
           rdf:resource="http://purl.org/dc/dcmitype/StillImage" />
        <dc:title />
      </cc:Work>
    </rdf:RDF>
  </metadata>
  <g
     inkscape:label="Layer 1"
     inkscape:groupmode="layer"
     id="layer1"
     transform="translate(0,-292.36218)">
    <g
       id="g8072"
       transform="matrix(0.9933332,0,0,0.99367206,2.0000417,4.6592618)">
      <path
         inkscape:connector-curvature="0"
         d="m -4.2e-5,292.36216 0,458.8679 c 0,166.31064 134.314722,301.13214 300.000122,301.13214 165.68536,0 299.99996,-134.8215 299.99996,-301.13214 l 0,-458.8679 -600.000082,0 z"
         id="path2346-2-4"
         style="fill:#ffff00;fill-opacity:1;stroke:#000000;stroke-width:4.02615929;stroke-miterlimit:4;stroke-dasharray:none" />
      <path
         sodipodi:nodetypes="cscccscccccccccccccccccccccccccccccc"
         inkscape:connector-curvature="0"
         id="path2346-2-8"
         d="m -2e-6,292.36218 0,458.875 c 0,132.01248 84.636094,244.1607 202.406252,284.81252 l 93.9375,-99.09377 100.5,99.37497 C 515.00799,995.89923 600,883.53229 600,751.23718 l 0,-458.875 -199,0 0,99.34375 -104.65625,-99.34375 -97.34375,97.5 0,-97.5 z M 202.40625,1036.0497 c 1.87954,0.6488 3.76004,1.2941 5.65625,1.9062 -1.89272,-0.6114 -3.78041,-1.2587 -5.65625,-1.9062 z M 296.34375,415.70593 401,519.14343 401,652.29968 296.34375,553.01843 199,650.51843 199,518.29968 Z m 0,260.65625 L 401,779.79968 401,912.95593 296.34375,813.61218 199,911.11218 199,778.95593 Z m -87.6875,361.78122 c 1.72098,0.5516 3.45318,1.0727 5.1875,1.5938 -1.74081,-0.5234 -3.46021,-1.0398 -5.1875,-1.5938 z m 181.9375,0.25 c -1.38576,0.4388 -2.79294,0.8313 -4.1875,1.25 1.39555,-0.4206 2.80059,-0.8095 4.1875,-1.25 z"
         style="fill:#000000;fill-opacity:1;stroke:#000000;stroke-width:4.02615929;stroke-miterlimit:4;stroke-dasharray:none" />
      <path
         inkscape:connector-curvature="0"
         id="path2346-2-6"
         d="m -2.7e-5,292.36218 0,458.875 c 0,131.1106 83.486499,242.5953 199.999997,283.93752 l 0,-742.81252 -199.999997,0 z m 399.999997,0 0,742.81252 C 516.51342,993.83248 600.00002,882.34778 600.00002,751.23718 l 0,-458.875 -200.00005,0 z"
         style="fill:#e20909;fill-opacity:1;stroke:#000000;stroke-width:4.02615929;stroke-miterlimit:4;stroke-dasharray:none" />
    </g>
  </g>
</svg>
