<?xml version="1.0" encoding="UTF-8" standalone="no"?>
<!-- Created with Inkscape (http://www.inkscape.org/) -->

<svg
   xmlns:dc="http://purl.org/dc/elements/1.1/"
   xmlns:cc="http://creativecommons.org/ns#"
   xmlns:rdf="http://www.w3.org/1999/02/22-rdf-syntax-ns#"
   xmlns:svg="http://www.w3.org/2000/svg"
   xmlns="http://www.w3.org/2000/svg"
   xmlns:xlink="http://www.w3.org/1999/xlink"
   xmlns:sodipodi="http://sodipodi.sourceforge.net/DTD/sodipodi-0.dtd"
   xmlns:inkscape="http://www.inkscape.org/namespaces/inkscape"
   width="600"
   height="760"
   id="svg2"
   version="1.1"
   inkscape:version="0.48.4 r9939"
   sodipodi:docname="brot-plamboz.svg">
  <defs
     id="defs4">
    <radialGradient
       cx="858.04236"
       cy="579.93323"
       r="300"
       fx="858.04236"
       fy="579.93323"
       id="radialGradient3236"
       xlink:href="#linearGradient2893"
       gradientUnits="userSpaceOnUse"
       gradientTransform="matrix(1.215027,0,0,1.266667,-839.1924,-490.4894)" />
    <linearGradient
       id="linearGradient2893">
      <stop
         id="stop2895"
         style="stop-color:#ffffff;stop-opacity:0.3137255"
         offset="0" />
      <stop
         id="stop2897"
         style="stop-color:#ffffff;stop-opacity:0.25098041"
         offset="0.19" />
      <stop
         id="stop2901"
         style="stop-color:#6b6b6b;stop-opacity:0.1254902"
         offset="0.60000002" />
      <stop
         id="stop2899"
         style="stop-color:#000000;stop-opacity:0.1254902"
         offset="1" />
    </linearGradient>
    <clipPath
       id="clipPath3983-1">
      <path
         inkscape:connector-curvature="0"
         d="m 1.5,1.5 0,458.86794 C 1.5,626.67854 135.81454,761.5 301.49993,761.5 467.1854,761.5 601.5,626.67854 601.5,460.36794 L 601.5,1.5 1.5,1.5 z"
         id="path3985-7"
         style="fill:none;stroke:#000000;stroke-width:3;stroke-miterlimit:4;stroke-opacity:1;stroke-dasharray:none;display:inline" />
    </clipPath>
    <linearGradient
       inkscape:collect="always"
       xlink:href="#linearGradient3693"
       id="linearGradient3222"
       gradientUnits="userSpaceOnUse"
       gradientTransform="matrix(0.276504,0,-0.518581,0.534815,357.1774,286.9045)"
       x1="251.96013"
       y1="562.48187"
       x2="277.76328"
       y2="590.94122" />
    <linearGradient
       id="linearGradient3693">
      <stop
         style="stop-color:#969aa4;stop-opacity:1"
         offset="0"
         id="stop3695" />
      <stop
         style="stop-color:#cdcdcf;stop-opacity:1"
         offset="1"
         id="stop3697" />
    </linearGradient>
    <linearGradient
       inkscape:collect="always"
       xlink:href="#linearGradient3693"
       id="linearGradient3224"
       gradientUnits="userSpaceOnUse"
       gradientTransform="translate(-4.553496,53.57144)"
       x1="251.96013"
       y1="562.48187"
       x2="277.76328"
       y2="590.94122" />
    <linearGradient
       id="linearGradient4125">
      <stop
         style="stop-color:#969aa4;stop-opacity:1"
         offset="0"
         id="stop4127" />
      <stop
         style="stop-color:#cdcdcf;stop-opacity:1"
         offset="1"
         id="stop4129" />
    </linearGradient>
    <linearGradient
       inkscape:collect="always"
       xlink:href="#linearGradient3693"
       id="linearGradient3226"
       gradientUnits="userSpaceOnUse"
       gradientTransform="translate(0,52.81252)"
       x1="251.96013"
       y1="562.48187"
       x2="277.76328"
       y2="590.94122" />
    <linearGradient
       id="linearGradient4132">
      <stop
         style="stop-color:#969aa4;stop-opacity:1"
         offset="0"
         id="stop4134" />
      <stop
         style="stop-color:#cdcdcf;stop-opacity:1"
         offset="1"
         id="stop4136" />
    </linearGradient>
    <linearGradient
       inkscape:collect="always"
       xlink:href="#linearGradient3368"
       id="linearGradient3228"
       gradientUnits="userSpaceOnUse"
       gradientTransform="matrix(0.999044,0.06415167,-0.03758326,-0.862868,21.30428,985.5672)"
       x1="471.61212"
       y1="495.37201"
       x2="503.05295"
       y2="474.77286" />
    <linearGradient
       id="linearGradient3368">
      <stop
         style="stop-color:#969aa4;stop-opacity:1"
         offset="0"
         id="stop3370" />
      <stop
         style="stop-color:#d6d6d6;stop-opacity:1"
         offset="1"
         id="stop3372" />
    </linearGradient>
    <linearGradient
       inkscape:collect="always"
       xlink:href="#linearGradient3667"
       id="linearGradient3230"
       gradientUnits="userSpaceOnUse"
       gradientTransform="matrix(0.999044,0.06415167,-0.03758326,-0.862868,21.30428,985.5672)"
       x1="472.69629"
       y1="494.5589"
       x2="495.19272"
       y2="473.41766" />
    <linearGradient
       id="linearGradient3667">
      <stop
         style="stop-color:#000000;stop-opacity:1"
         offset="0"
         id="stop3669" />
      <stop
         style="stop-color:#000000;stop-opacity:0"
         offset="1"
         id="stop3671" />
    </linearGradient>
    <linearGradient
       inkscape:collect="always"
       xlink:href="#linearGradient3354"
       id="linearGradient3232"
       gradientUnits="userSpaceOnUse"
       gradientTransform="matrix(1.067377,-0.00225162,-0.163928,-0.974627,45.09665,1076.599)"
       x1="379.72906"
       y1="477.21222"
       x2="410.62778"
       y2="446.58456" />
    <linearGradient
       id="linearGradient3354">
      <stop
         style="stop-color:#969aa4;stop-opacity:1"
         offset="0"
         id="stop3356" />
      <stop
         style="stop-color:#d7d7d7;stop-opacity:1"
         offset="1"
         id="stop3358" />
    </linearGradient>
    <linearGradient
       inkscape:collect="always"
       xlink:href="#linearGradient3631"
       id="linearGradient3234"
       gradientUnits="userSpaceOnUse"
       gradientTransform="matrix(1.067377,-0.00225162,-0.163928,-0.974627,45.09647,1076.598)"
       x1="379.72906"
       y1="473.68869"
       x2="399.24405"
       y2="444.68726" />
    <linearGradient
       id="linearGradient3631">
      <stop
         style="stop-color:#000000;stop-opacity:1"
         offset="0"
         id="stop3633" />
      <stop
         style="stop-color:#000000;stop-opacity:0"
         offset="1"
         id="stop3635" />
    </linearGradient>
    <linearGradient
       inkscape:collect="always"
       xlink:href="#linearGradient3767"
       id="linearGradient3236"
       gradientUnits="userSpaceOnUse"
       gradientTransform="translate(0,52.81252)"
       x1="200.9351"
       y1="499.04086"
       x2="545.82373"
       y2="520.03412" />
    <linearGradient
       id="linearGradient3767">
      <stop
         style="stop-color:#5474ab;stop-opacity:1"
         offset="0"
         id="stop3769" />
      <stop
         style="stop-color:#39527c;stop-opacity:1"
         offset="1"
         id="stop3771" />
    </linearGradient>
    <linearGradient
       inkscape:collect="always"
       xlink:href="#linearGradient3759"
       id="linearGradient3238"
       gradientUnits="userSpaceOnUse"
       gradientTransform="translate(0,52.81252)"
       x1="353.49603"
       y1="577.46967"
       x2="350.81839"
       y2="519.71106" />
    <linearGradient
       id="linearGradient3759">
      <stop
         style="stop-color:#ffffff;stop-opacity:1"
         offset="0"
         id="stop3761" />
      <stop
         style="stop-color:#ffffff;stop-opacity:0"
         offset="1"
         id="stop3763" />
    </linearGradient>
    <linearGradient
       inkscape:collect="always"
       xlink:href="#linearGradient3368"
       id="linearGradient3240"
       gradientUnits="userSpaceOnUse"
       gradientTransform="translate(0,52.81252)"
       x1="471.61212"
       y1="495.37201"
       x2="503.05295"
       y2="474.77286" />
    <linearGradient
       id="linearGradient4163">
      <stop
         style="stop-color:#969aa4;stop-opacity:1"
         offset="0"
         id="stop4165" />
      <stop
         style="stop-color:#d6d6d6;stop-opacity:1"
         offset="1"
         id="stop4167" />
    </linearGradient>
    <linearGradient
       inkscape:collect="always"
       xlink:href="#linearGradient3354"
       id="linearGradient3242"
       gradientUnits="userSpaceOnUse"
       gradientTransform="translate(0,52.81252)"
       x1="379.72906"
       y1="477.21222"
       x2="410.62778"
       y2="446.58456" />
    <linearGradient
       id="linearGradient4170">
      <stop
         style="stop-color:#969aa4;stop-opacity:1"
         offset="0"
         id="stop4172" />
      <stop
         style="stop-color:#d7d7d7;stop-opacity:1"
         offset="1"
         id="stop4174" />
    </linearGradient>
    <linearGradient
       inkscape:collect="always"
       xlink:href="#linearGradient2306"
       id="linearGradient3244"
       gradientUnits="userSpaceOnUse"
       gradientTransform="translate(0,52.81252)"
       x1="278.90164"
       y1="452.0596"
       x2="306.98154"
       y2="423.60025" />
    <linearGradient
       id="linearGradient2306">
      <stop
         style="stop-color:#969aa4;stop-opacity:1"
         offset="0"
         id="stop2308" />
      <stop
         style="stop-color:#d8d8d8;stop-opacity:1"
         offset="1"
         id="stop2310" />
    </linearGradient>
    <linearGradient
       inkscape:collect="always"
       xlink:href="#linearGradient2248"
       id="linearGradient3246"
       gradientUnits="userSpaceOnUse"
       gradientTransform="translate(0,52.81252)"
       x1="246.26826"
       y1="518.84418"
       x2="316.08853"
       y2="508.9783" />
    <linearGradient
       id="linearGradient2248">
      <stop
         style="stop-color:#a8afbb;stop-opacity:1"
         offset="0"
         id="stop2250" />
      <stop
         style="stop-color:#e1e1e1;stop-opacity:1"
         offset="1"
         id="stop2252" />
    </linearGradient>
    <linearGradient
       inkscape:collect="always"
       xlink:href="#linearGradient3724"
       id="linearGradient3248"
       gradientUnits="userSpaceOnUse"
       gradientTransform="matrix(1.087299,0,0,1,-21.09082,52.81252)"
       x1="253.15271"
       y1="508.9241"
       x2="280.27502"
       y2="529.80597" />
    <linearGradient
       id="linearGradient3724">
      <stop
         style="stop-color:#000000;stop-opacity:1"
         offset="0"
         id="stop3726" />
      <stop
         style="stop-color:#000000;stop-opacity:0"
         offset="1"
         id="stop3728" />
    </linearGradient>
    <linearGradient
       inkscape:collect="always"
       xlink:href="#linearGradient3775"
       id="linearGradient3250"
       gradientUnits="userSpaceOnUse"
       gradientTransform="translate(0,52.81252)"
       x1="244.42107"
       y1="486.29498"
       x2="659.78693"
       y2="519.60742" />
    <linearGradient
       id="linearGradient3775">
      <stop
         style="stop-color:#11264a;stop-opacity:1"
         offset="0"
         id="stop3777" />
      <stop
         style="stop-color:#374c72;stop-opacity:1"
         offset="1"
         id="stop3779" />
    </linearGradient>
    <linearGradient
       inkscape:collect="always"
       xlink:href="#linearGradient3567"
       id="linearGradient3252"
       gradientUnits="userSpaceOnUse"
       gradientTransform="translate(0,52.81252)"
       x1="272.83035"
       y1="445.98825"
       x2="316.87064"
       y2="438.13382" />
    <linearGradient
       id="linearGradient3567">
      <stop
         style="stop-color:#000000;stop-opacity:1"
         offset="0"
         id="stop3569" />
      <stop
         style="stop-color:#000000;stop-opacity:0"
         offset="1"
         id="stop3571" />
    </linearGradient>
    <linearGradient
       inkscape:collect="always"
       xlink:href="#linearGradient3631"
       id="linearGradient3254"
       gradientUnits="userSpaceOnUse"
       gradientTransform="translate(0,52.81252)"
       x1="379.72906"
       y1="473.68869"
       x2="399.24405"
       y2="444.68726" />
    <linearGradient
       id="linearGradient4197">
      <stop
         style="stop-color:#000000;stop-opacity:1"
         offset="0"
         id="stop4199" />
      <stop
         style="stop-color:#000000;stop-opacity:0"
         offset="1"
         id="stop4201" />
    </linearGradient>
    <linearGradient
       inkscape:collect="always"
       xlink:href="#linearGradient3667"
       id="linearGradient3256"
       gradientUnits="userSpaceOnUse"
       gradientTransform="translate(0,52.81252)"
       x1="472.69629"
       y1="494.5589"
       x2="495.19272"
       y2="473.41766" />
    <linearGradient
       id="linearGradient4204">
      <stop
         style="stop-color:#000000;stop-opacity:1"
         offset="0"
         id="stop4206" />
      <stop
         style="stop-color:#000000;stop-opacity:0"
         offset="1"
         id="stop4208" />
    </linearGradient>
    <linearGradient
       inkscape:collect="always"
       xlink:href="#linearGradient3445"
       id="linearGradient3258"
       gradientUnits="userSpaceOnUse"
       gradientTransform="translate(0,52.81252)"
       x1="621.021"
       y1="516.32806"
       x2="567.39746"
       y2="516.32806" />
    <linearGradient
       id="linearGradient3445">
      <stop
         style="stop-color:#969aa4;stop-opacity:1"
         offset="0"
         id="stop3447" />
      <stop
         style="stop-color:#d5d5d5;stop-opacity:1"
         offset="1"
         id="stop3449" />
    </linearGradient>
    <linearGradient
       inkscape:collect="always"
       xlink:href="#linearGradient3514"
       id="linearGradient3260"
       gradientUnits="userSpaceOnUse"
       gradientTransform="translate(0,52.81252)"
       x1="613.58362"
       y1="516.10938"
       x2="563.87463"
       y2="516.10938" />
    <linearGradient
       id="linearGradient3514">
      <stop
         style="stop-color:#000000;stop-opacity:0"
         offset="0"
         id="stop3516" />
      <stop
         style="stop-color:#000000;stop-opacity:1"
         offset="1"
         id="stop3518" />
    </linearGradient>
    <linearGradient
       inkscape:collect="always"
       xlink:href="#linearGradient2224"
       id="linearGradient3262"
       gradientUnits="userSpaceOnUse"
       gradientTransform="translate(0,52.81252)"
       x1="144.49762"
       y1="503.59"
       x2="817.58026"
       y2="503.05875" />
    <linearGradient
       id="linearGradient2224">
      <stop
         style="stop-color:#243044;stop-opacity:1"
         offset="0"
         id="stop2226" />
      <stop
         style="stop-color:#3d5f94;stop-opacity:1"
         offset="1"
         id="stop2228" />
    </linearGradient>
    <radialGradient
       inkscape:collect="always"
       xlink:href="#linearGradient2208"
       id="radialGradient3264"
       gradientUnits="userSpaceOnUse"
       gradientTransform="matrix(-0.30774,1.166842,-1.044041,-0.27533,619.6395,374.3587)"
       cx="142.93222"
       cy="425.0593"
       fx="142.93222"
       fy="425.0593"
       r="11.805615" />
    <linearGradient
       id="linearGradient2208">
      <stop
         style="stop-color:#ffff00;stop-opacity:1"
         offset="0"
         id="stop2210" />
      <stop
         style="stop-color:#ffffff;stop-opacity:1"
         offset="1"
         id="stop2212" />
    </linearGradient>
    <linearGradient
       id="linearGradient3693-8">
      <stop
         style="stop-color:#969aa4;stop-opacity:1"
         offset="0"
         id="stop3695-8" />
      <stop
         style="stop-color:#cdcdcf;stop-opacity:1"
         offset="1"
         id="stop3697-2" />
    </linearGradient>
    <linearGradient
       id="linearGradient4116">
      <stop
         style="stop-color:#969aa4;stop-opacity:1"
         offset="0"
         id="stop4118" />
      <stop
         style="stop-color:#cdcdcf;stop-opacity:1"
         offset="1"
         id="stop4120" />
    </linearGradient>
    <linearGradient
       id="linearGradient4123">
      <stop
         style="stop-color:#969aa4;stop-opacity:1"
         offset="0"
         id="stop4125" />
      <stop
         style="stop-color:#cdcdcf;stop-opacity:1"
         offset="1"
         id="stop4127-5" />
    </linearGradient>
    <linearGradient
       id="linearGradient3368-7">
      <stop
         style="stop-color:#969aa4;stop-opacity:1"
         offset="0"
         id="stop3370-1" />
      <stop
         style="stop-color:#d6d6d6;stop-opacity:1"
         offset="1"
         id="stop3372-1" />
    </linearGradient>
    <linearGradient
       id="linearGradient3667-2">
      <stop
         style="stop-color:#000000;stop-opacity:1"
         offset="0"
         id="stop3669-7" />
      <stop
         style="stop-color:#000000;stop-opacity:0"
         offset="1"
         id="stop3671-6" />
    </linearGradient>
    <linearGradient
       id="linearGradient3354-4">
      <stop
         style="stop-color:#969aa4;stop-opacity:1"
         offset="0"
         id="stop3356-2" />
      <stop
         style="stop-color:#d7d7d7;stop-opacity:1"
         offset="1"
         id="stop3358-3" />
    </linearGradient>
    <linearGradient
       id="linearGradient3631-2">
      <stop
         style="stop-color:#000000;stop-opacity:1"
         offset="0"
         id="stop3633-1" />
      <stop
         style="stop-color:#000000;stop-opacity:0"
         offset="1"
         id="stop3635-6" />
    </linearGradient>
    <linearGradient
       id="linearGradient3767-5">
      <stop
         style="stop-color:#5474ab;stop-opacity:1"
         offset="0"
         id="stop3769-7" />
      <stop
         style="stop-color:#39527c;stop-opacity:1"
         offset="1"
         id="stop3771-6" />
    </linearGradient>
    <linearGradient
       id="linearGradient3759-8">
      <stop
         style="stop-color:#ffffff;stop-opacity:1"
         offset="0"
         id="stop3761-9" />
      <stop
         style="stop-color:#ffffff;stop-opacity:0"
         offset="1"
         id="stop3763-2" />
    </linearGradient>
    <linearGradient
       id="linearGradient4154">
      <stop
         style="stop-color:#969aa4;stop-opacity:1"
         offset="0"
         id="stop4156" />
      <stop
         style="stop-color:#d6d6d6;stop-opacity:1"
         offset="1"
         id="stop4158" />
    </linearGradient>
    <linearGradient
       id="linearGradient4161">
      <stop
         style="stop-color:#969aa4;stop-opacity:1"
         offset="0"
         id="stop4163" />
      <stop
         style="stop-color:#d7d7d7;stop-opacity:1"
         offset="1"
         id="stop4165-5" />
    </linearGradient>
    <linearGradient
       id="linearGradient2306-3">
      <stop
         style="stop-color:#969aa4;stop-opacity:1"
         offset="0"
         id="stop2308-1" />
      <stop
         style="stop-color:#d8d8d8;stop-opacity:1"
         offset="1"
         id="stop2310-2" />
    </linearGradient>
    <linearGradient
       id="linearGradient2248-3">
      <stop
         style="stop-color:#a8afbb;stop-opacity:1"
         offset="0"
         id="stop2250-4" />
      <stop
         style="stop-color:#e1e1e1;stop-opacity:1"
         offset="1"
         id="stop2252-1" />
    </linearGradient>
    <linearGradient
       id="linearGradient3724-3">
      <stop
         style="stop-color:#000000;stop-opacity:1"
         offset="0"
         id="stop3726-8" />
      <stop
         style="stop-color:#000000;stop-opacity:0"
         offset="1"
         id="stop3728-7" />
    </linearGradient>
    <linearGradient
       id="linearGradient3775-2">
      <stop
         style="stop-color:#11264a;stop-opacity:1"
         offset="0"
         id="stop3777-7" />
      <stop
         style="stop-color:#374c72;stop-opacity:1"
         offset="1"
         id="stop3779-7" />
    </linearGradient>
    <linearGradient
       id="linearGradient3567-3">
      <stop
         style="stop-color:#000000;stop-opacity:1"
         offset="0"
         id="stop3569-1" />
      <stop
         style="stop-color:#000000;stop-opacity:0"
         offset="1"
         id="stop3571-9" />
    </linearGradient>
    <linearGradient
       id="linearGradient4188">
      <stop
         style="stop-color:#000000;stop-opacity:1"
         offset="0"
         id="stop4190" />
      <stop
         style="stop-color:#000000;stop-opacity:0"
         offset="1"
         id="stop4192" />
    </linearGradient>
    <linearGradient
       id="linearGradient4195">
      <stop
         style="stop-color:#000000;stop-opacity:1"
         offset="0"
         id="stop4197" />
      <stop
         style="stop-color:#000000;stop-opacity:0"
         offset="1"
         id="stop4199-5" />
    </linearGradient>
    <linearGradient
       id="linearGradient3445-2">
      <stop
         style="stop-color:#969aa4;stop-opacity:1"
         offset="0"
         id="stop3447-8" />
      <stop
         style="stop-color:#d5d5d5;stop-opacity:1"
         offset="1"
         id="stop3449-6" />
    </linearGradient>
    <linearGradient
       id="linearGradient3514-2">
      <stop
         style="stop-color:#000000;stop-opacity:0"
         offset="0"
         id="stop3516-4" />
      <stop
         style="stop-color:#000000;stop-opacity:1"
         offset="1"
         id="stop3518-8" />
    </linearGradient>
    <linearGradient
       id="linearGradient2224-5">
      <stop
         style="stop-color:#243044;stop-opacity:1"
         offset="0"
         id="stop2226-0" />
      <stop
         style="stop-color:#3d5f94;stop-opacity:1"
         offset="1"
         id="stop2228-9" />
    </linearGradient>
    <linearGradient
       id="linearGradient2208-0">
      <stop
         style="stop-color:#ffff00;stop-opacity:1"
         offset="0"
         id="stop2210-6" />
      <stop
         style="stop-color:#ffffff;stop-opacity:1"
         offset="1"
         id="stop2212-1" />
    </linearGradient>
  </defs>
  <sodipodi:namedview
     id="base"
     pagecolor="#ffffff"
     bordercolor="#666666"
     borderopacity="1.0"
     inkscape:pageopacity="0.0"
     inkscape:pageshadow="2"
     inkscape:zoom="0.49497475"
     inkscape:cx="64.923022"
     inkscape:cy="344.62098"
     inkscape:document-units="px"
     inkscape:current-layer="layer1"
     showgrid="false"
     fit-margin-top="0"
     fit-margin-left="0"
     fit-margin-right="0"
     fit-margin-bottom="0"
     inkscape:window-width="1600"
     inkscape:window-height="1147"
     inkscape:window-x="1592"
     inkscape:window-y="-8"
     inkscape:window-maximized="1" />
  <metadata
     id="metadata7">
    <rdf:RDF>
      <cc:Work
         rdf:about="">
        <dc:format>image/svg+xml</dc:format>
        <dc:type
           rdf:resource="http://purl.org/dc/dcmitype/StillImage" />
        <dc:title />
      </cc:Work>
    </rdf:RDF>
  </metadata>
  <g
     inkscape:label="Layer 1"
     inkscape:groupmode="layer"
     id="layer1"
     transform="translate(-37.142857,-58.076473)">
    <path
       style="fill:#eeeeee;fill-opacity:1"
       id="path2294"
       d="m -1174.629,619.02491 c 0.1323,-0.87951 0.3364,-1.6083 0.4536,-1.61952 0.3006,-0.0288 -0.045,2.57608 -0.4204,3.16817 -0.3551,0.55997 -0.3545,0.58799 -0.033,-1.54865 z"
       inkscape:connector-curvature="0" />
    <path
       style="fill:#000000;fill-opacity:1"
       id="path2292"
       d="m -1159.6109,603.04809 c 0.1328,0.14842 0.1735,0.56279 0.091,0.92081 -0.092,0.39564 -0.1864,0.2898 -0.2414,-0.26987 -0.05,-0.50644 0.018,-0.79936 0.1508,-0.65094 z"
       inkscape:connector-curvature="0" />
    <path
       style="fill:#000000;fill-opacity:1"
       id="path2290"
       d="m -1149.5089,598.9182 c 0.1241,0.32152 0.1602,0.86363 0.08,1.20468 -0.08,0.34105 -0.1813,0.078 -0.2255,-0.58458 -0.044,-0.66258 0.021,-0.94162 0.1452,-0.6201 z"
       inkscape:connector-curvature="0" />
    <path
       style="fill:#000000;fill-opacity:1"
       id="path2278"
       d="m -1135.008,609.28919 c 0.2225,0.37878 0.4189,0.90553 0.4366,1.17055 0.018,0.26503 -0.1499,0.17197 -0.3723,-0.20681 -0.2225,-0.37877 -0.4189,-0.90552 -0.4366,-1.17055 -0.018,-0.26503 0.1499,-0.17196 0.3723,0.20681 z"
       inkscape:connector-curvature="0" />
    <g
       id="g3209"
       transform="translate(665.67522,-679.00514)">
      <path
         inkscape:connector-curvature="0"
         d="m -628.53237,737.08163 0,458.86787 c 0,166.3107 134.31455,301.1321 299.99994,301.1321 165.68547,0 300.000068,-134.8214 300.000068,-301.1321 l 0,-458.86787 -600.000008,0 z"
         id="path2346"
         style="fill:#2b5df2;fill-opacity:1" />
      <path
         transform="matrix(1.0379747,0,0,1.5229007,-666.34277,627.69005)"
         d="m 543.46205,335.73593 c 0,73.08383 -35.72859,132.32999 -79.80205,132.32999 -44.07345,0 -79.80204,-59.24616 -79.80204,-132.32999 0,-73.08383 35.72859,-132.32999 79.80204,-132.32999 44.07346,0 79.80205,59.24616 79.80205,132.32999 z"
         sodipodi:ry="132.32999"
         sodipodi:rx="79.802048"
         sodipodi:cy="335.73593"
         sodipodi:cx="463.66"
         id="path5067"
         style="fill:#000000;fill-opacity:1;stroke:none"
         sodipodi:type="arc" />
      <g
         id="text4492"
         style="font-size:17.62700272px;font-style:normal;font-variant:normal;font-weight:normal;font-stretch:normal;text-align:start;line-height:100%;letter-spacing:0px;word-spacing:0px;writing-mode:lr-tb;text-anchor:start;fill:#000000;fill-opacity:1;stroke:none;font-family:Sans;-inkscape-font-specification:Sans"
         transform="matrix(0.98261933,0,0,1.0176881,-677.22838,751.73614)">
        <path
           inkscape:connector-curvature="0"
           id="path3180"
           style="font-size:90.65315247px;font-weight:bold;line-height:100%;font-family:Serif;-inkscape-font-specification:Serif Bold"
           d="m 96.850876,195.56713 c 5.695294,1.32795 9.693824,2.93622 11.995614,4.8248 3.30501,2.68539 4.95754,6.1675 4.9576,10.44636 -6e-5,4.51496 -1.81489,8.24791 -5.44451,11.19885 -4.45598,3.57065 -10.933304,5.35597 -19.431994,5.35597 l -30.49806,0 0,-1.63778 c 2.77389,1e-5 4.65511,-0.2582 5.64369,-0.77462 0.98856,-0.51641 1.68203,-1.18775 2.08042,-2.01402 0.39836,-0.82626 0.59755,-2.86242 0.59756,-6.10847 l 0,-38.95252 c -10e-6,-3.24599 -0.1992,-5.28952 -0.59756,-6.1306 -0.39839,-0.84096 -1.09924,-1.5123 -2.10255,-2.01402 -1.00333,-0.50161 -2.87718,-0.75244 -5.62156,-0.75249 l 0,-1.63778 28.77175,0 c 6.87567,6e-5 11.74473,0.61238 14.607204,1.83696 2.86237,1.22471 5.11984,3.05429 6.77243,5.48877 1.65247,2.43458 2.47874,5.02404 2.47879,7.76837 -5e-5,2.89197 -1.04764,5.46668 -3.14276,7.72411 -2.09522,2.25751 -5.7839,4.05021 -11.066064,5.37811 z m -16.11218,-1.19514 c 4.19032,4e-5 7.28144,-0.47212 9.27336,-1.41645 1.99185,-0.94427 3.51897,-2.2722 4.58135,-3.98378 1.0623,-1.71151 1.59347,-3.89521 1.59351,-6.55111 -4e-5,-2.65581 -0.52383,-4.83213 -1.57138,-6.52898 -1.04762,-1.69674 -2.54523,-2.98778 -4.49282,-3.87312 -1.94766,-0.88522 -5.07566,-1.31311 -9.38402,-1.28366 z m 0,3.45261 0,19.25494 -0.0443,2.21322 c -3e-5,1.59352 0.40573,2.79603 1.21726,3.60753 0.81149,0.81152 2.014,1.21727 3.60754,1.21727 2.36073,0 4.53705,-0.52379 6.52897,-1.57138 1.99186,-1.04758 3.51897,-2.56732 4.58135,-4.55922 1.0623,-1.99188 1.59347,-4.21246 1.59351,-6.66177 -4e-5,-2.80338 -0.64925,-5.31906 -1.94762,-7.54705 -1.29846,-2.22794 -3.08378,-3.78456 -5.35597,-4.66987 -2.27227,-0.88526 -5.66585,-1.31315 -10.18078,-1.28367 z" />
      </g>
      <g
         id="text4498"
         style="font-size:92.31658936px;font-style:normal;font-variant:normal;font-weight:normal;font-stretch:normal;text-align:start;line-height:100%;letter-spacing:0px;word-spacing:0px;writing-mode:lr-tb;text-anchor:start;fill:#000000;fill-opacity:1;stroke:none;font-family:Serif;-inkscape-font-specification:Serif"
         transform="matrix(1.0796704,0,0,0.9262086,38.350418,750.72599)">
        <path
           inkscape:connector-curvature="0"
           id="path3192"
           style="font-weight:bold;line-height:100%;font-family:Serif;-inkscape-font-specification:Serif Bold"
           d="m -98.690691,220.85246 0,16.94875 c -2.5e-5,3.30561 0.202819,5.38664 0.608532,6.24309 0.405662,0.85645 1.126885,1.54011 2.16367,2.05097 1.03673,0.51087 2.937452,0.76631 5.702172,0.7663 l 0,1.66783 -31.057683,0 0,-1.66783 c 2.82479,1e-5 4.74054,-0.26294 5.74725,-0.78883 1.0067,-0.52589 1.7129,-1.20955 2.11859,-2.05098 0.40568,-0.84142 0.60853,-2.91494 0.60854,-6.22055 l 0,-39.66729 c -10e-6,-3.30555 -0.20286,-5.38658 -0.60854,-6.24309 -0.40569,-0.85639 -1.1194,-1.54005 -2.14113,-2.05098 -1.02174,-0.5108 -2.92997,-0.76624 -5.72471,-0.7663 l 0,-1.66783 26.64019,0 c 8.774847,7e-5 15.070519,1.56271 18.887037,4.68796 3.816422,3.12535 5.724657,7.03197 5.72471,11.71988 -5.3e-5,3.96676 -1.232142,7.36252 -3.696269,10.18728 -2.464228,2.82482 -5.859984,4.74808 -10.18728,5.76978 -2.914982,0.72125 -7.843336,1.08187 -14.785079,1.08184 z m 0,-29.93077 0,26.4148 c 0.991656,0.0601 1.74293,0.0902 2.253823,0.0902 3.666188,3e-5 6.490976,-1.08932 8.474374,-3.26805 1.983327,-2.17866 2.975008,-5.55187 2.975047,-10.11966 -3.9e-5,-4.53765 -0.99172,-7.85828 -2.975047,-9.9619 -1.983398,-2.10351 -4.943416,-3.15529 -8.880062,-3.15535 z" />
      </g>
      <path
         inkscape:connector-curvature="0"
         id="path5067-4"
         d="m -167.70116,943.45711 0,28.125 -62.34375,0 c -0.49693,0.78897 -1.01054,1.59221 -1.5,2.40625 l 28.71875,0 0,26.90624 -41.75,0 c -0.31382,0.7949 -0.62902,1.5989 -0.9375,2.4063 l 7.5625,0 0,26.875 -16.25,0 c -0.21563,0.8007 -0.41395,1.5976 -0.625,2.4062 l 52,0 0,26.9063 -57.875,0 c -0.1445,0.8002 -0.29717,1.6005 -0.4375,2.4062 l 23.1875,0 0,26.875 -26.96875,0 c -0.0872,0.8012 -0.19804,1.6012 -0.28125,2.4063 l 62.375,0 0,26.9062 -64.34375,0 c -0.0364,0.8018 -0.0924,1.6016 -0.125,2.4063 l 29.34375,0 0,26.875 -29.6875,0 c 0.0111,0.8048 0.0163,1.6037 0.0312,2.4062 l 64.78125,0 0,27.9375 2.40625,0 0,-27.9375 67.875,0 0,27.9375 2.40625,0 0,-27.9375 27.625,0 0,-2.4062 -62.78125,0 0,-26.875 62.78125,0 0,-2.0625 c -0.005,-0.1146 0.005,-0.2293 0,-0.3438 l -27.625,0 0,-26.9062 25.625,0 c -0.0832,-0.8051 -0.19407,-1.6051 -0.28125,-2.4063 l -60.5,0 0,-26.875 56.75,0 c -0.14033,-0.8057 -0.293,-1.606 -0.4375,-2.4062 l -21.15625,0 0,-26.9063 15.25,0 c -0.21105,-0.8086 -0.40937,-1.6055 -0.625,-2.4062 l -49.78125,0 0,-26.875 41.125,0 c -0.30918,-0.8093 -0.62296,-1.6095 -0.9375,-2.4063 l -5.03125,0 0,-11.71874 c -0.78924,-1.69077 -1.59077,-3.35099 -2.40625,-4.96875 l 0,16.68749 -67.875,0 0,-26.90624 62.25,0 c -0.48788,-0.81137 -0.97345,-1.61979 -1.46875,-2.40625 l -25.65625,0 0,-26.96875 c -0.68162,-0.40138 -1.37441,-0.79618 -2.0625,-1.15625 l -0.34375,0 z m -67.84375,59.84379 67.84375,0 0,26.875 -67.84375,0 0,-26.875 z m 35.125,29.2812 67.875,0 0,26.9063 -67.875,0 0,-26.9063 z m -35.125,29.3125 67.84375,0 0,26.875 -67.84375,0 0,-26.875 z m 35.125,29.2813 67.875,0 0,26.9062 -67.875,0 0,-26.9062 z m -35.125,29.3125 67.84375,0 0,26.875 -67.84375,0 0,-26.875 z"
         style="fill:#ffffff;fill-opacity:1;stroke:none" />
      <path
         inkscape:connector-curvature="0"
         id="use4265-5"
         d="m -493.12895,836.79375 c 0,0 -18.08669,25.3952 -25.72824,32.95348 -7.64158,7.55832 -18.6973,13.97829 -18.6973,13.97829 l 7.32312,-2.36781 3.77841,2.36781 7.3231,-4.75197 3.79788,4.75197 7.30364,-7.11978 2.00605,3.77217 c -7.97709,8.6938 -17.72934,18.95079 -23.41055,23.53123 -10.78099,8.69203 -26.37098,16.06849 -26.37098,16.06849 l 10.32246,-2.7271 5.33653,2.7271 10.32246,-5.43784 5.356,5.43784 10.32246,-8.16488 3.13568,4.7846 c -7.90428,8.75009 -16.60018,17.96384 -21.96931,22.4208 -11.83686,9.82577 -28.96132,18.17501 -28.96132,18.17501 l 11.31575,-3.0863 5.88186,3.0863 11.33524,-6.1563 5.86237,6.1563 11.33523,-9.24265 4.09003,6.41762 c -9.60542,10.28615 -20.60383,21.5899 -27.22792,26.87881 -13.72615,10.95955 -33.57722,20.26526 -33.57722,20.26526 l 13.12706,-3.42929 6.81671,3.42929 13.14653,-6.87484 6.81673,6.87484 13.12705,-10.30409 3.64208,5.50311 c -9.65782,10.51058 -20.13516,21.42388 -26.66312,26.76448 -14.78202,12.0933 -36.14808,22.3555 -36.14808,22.3555 l 14.13983,-3.7885 7.34257,3.7885 14.13982,-7.577 7.34259,7.577 14.13982,-11.3656 2.43454,3.7559 c -9.88252,10.924 -20.30513,21.9291 -26.93578,27.4667 -15.83787,13.227 -38.75792,24.462 -38.75792,24.462 l 15.17207,-4.1478 7.84897,4.1478 15.15259,-8.2956 7.86845,8.2956 15.17207,-12.427 7.84896,12.427 11.51051,-16.5747 c 0.27419,18.9716 0.24725,39.736 -0.91538,48.7116 -2.39032,18.4536 -6.36877,24.0701 -6.36877,24.0701 l 37.60883,0 c 0,0 -3.41164,-5.612 -5.47286,-24.0701 -0.9768,-8.747 -1.0347,-28.6769 -0.81801,-47.2419 l 10.49775,15.105 7.86844,-12.427 15.15259,12.427 7.86844,-8.2956 15.1526,8.2956 7.86845,-4.1478 15.15258,4.1478 c 0,0 -22.92003,-11.235 -38.75791,-24.462 -6.62981,-5.5369 -17.03621,-16.5277 -26.9163,-27.4503 l 2.41505,-3.7723 14.1593,11.3656 7.34259,-7.577 14.13983,7.577 7.34258,-3.7885 14.13982,3.7885 c 0,0 -21.38555,-10.2622 -36.16757,-22.3555 -6.52795,-5.3406 -17.00663,-16.2539 -26.6631,-26.76448 l 3.66154,-5.50311 13.12705,10.30409 6.81672,-6.87484 13.12705,6.87484 6.81673,-3.42929 13.14654,3.42929 c 0,0 -19.87054,-9.30571 -33.59669,-20.26526 -6.62407,-5.28891 -17.60438,-16.59266 -27.20846,-26.87881 l 4.07057,-6.41762 11.33522,9.24265 5.88185,-6.1563 11.33523,6.1563 5.86238,-3.0863 11.33523,3.0863 c 0,0 -17.12446,-8.34924 -28.96132,-18.17501 -5.36878,-4.45664 -14.06657,-13.67123 -21.9693,-22.4208 l 3.13569,-4.7846 10.30298,8.16488 5.35599,-5.43784 10.32246,5.43784 5.35599,-2.7271 10.32247,2.7271 c 0,0 -15.60942,-7.37646 -26.39045,-16.06849 -5.68028,-4.57971 -15.43533,-14.83829 -23.41056,-23.53123 l 2.00607,-3.77217 7.3231,7.11978 3.79789,-4.75197 7.30363,4.75197 3.79788,-2.36781 7.30362,2.36781 c 0,0 -11.05574,-6.41997 -18.69728,-13.97829 -7.64157,-7.55828 -25.72825,-32.95348 -25.72825,-32.95348 z"
         style="fill:#33a02c;fill-opacity:1;stroke:none" />
      <path
         inkscape:connector-curvature="0"
         id="path3033-1"
         d="m -628.53237,1140.7959 0,55.875 c 0,108.132 56.79815,202.9258 142.06251,256.0312 21.2459,-66.984 83.92111,-115.5311 157.9375,-115.5311 74.01639,0 136.6916,48.5471 157.9375,115.5311 85.264338,-53.1054 142.062498,-147.8992 142.062498,-256.0312 l 0,-55.875 -600.000008,0 z"
         style="fill:#cccccc;fill-opacity:1" />
      <path
         id="path3986"
         d="m -568.00112,1143.0816 0,43.1875 -60.53125,0 0,4.5313 138.15626,0 0,43.9062 -135.78126,0 c 0.19144,1.5244 0.37967,3.0453 0.59375,4.5625 l 57.5625,0 0,43.875 -47.96875,0 c 0.45541,1.5268 0.92744,3.046 1.40625,4.5625 l 124.18751,0 0,43.875 -106.40626,0 c 0.76188,1.5226 1.52577,3.0548 2.3125,4.5625 l 26.46875,0 0,41.875 c 1.6647,2.2106 3.33903,4.4 5.06251,6.5625 l 72.5625,0 0,43.875 -29.625,0 c 1.84143,1.5339 3.71558,3.0724 5.59375,4.5625 l 35.59375,0 c 0.7162,-1.5389 1.45711,-3.0496 2.21875,-4.5625 l -9.21875,0 0,-43.875 41.25,0 c 1.58233,-1.553 3.20037,-3.0735 4.84375,-4.5625 l -123.71875,0 0,-43.875 75.34375,0 55.15625,38.0938 c 1.1254,-0.9149 2.25666,-1.8331 3.40625,-2.7188 l -51.21875,-35.375 304.4375,0 -51.25,35.375 c 1.15633,0.8906 2.30564,1.7986 3.4375,2.7188 l 55.15625,-38.0938 75.343748,0 0,43.875 -123.718748,0 c 1.64338,1.489 3.26142,3.0095 4.84375,4.5625 l 41.21875,0 0,43.875 -9.1875,0 c 0.76164,1.5129 1.50255,3.0236 2.21875,4.5625 l 35.59375,0 c 1.87817,-1.4901 3.75232,-3.0286 5.59375,-4.5625 l -29.65625,0 0,-43.875 72.593748,0 c 1.72347,-2.1625 3.39779,-4.3519 5.0625,-6.5625 l 0,-41.875 26.46875,0 c 0.78673,-1.5077 1.55062,-3.0399 2.3125,-4.5625 l -106.437498,0 0,-43.875 124.218748,0 c 0.47881,-1.5165 0.95083,-3.0357 1.40625,-4.5625 l -47.96875,0 0,-43.875 57.5625,0 c 0.21408,-1.5172 0.4023,-3.0381 0.59375,-4.5625 l -135.812498,0 0,-43.9062 138.187498,0 0,-4.5313 -60.53125,0 0,-43.1875 -4.5625,0 0,43.1875 -153.562498,0 0,-43.1875 -4.5625,0 0,43.1875 -153.5625,0 0,-43.1875 -4.5625,0 0,43.1875 -153.5625,0 0,-43.1875 -4.56251,0 z m 82.18751,47.7188 155,0 0,43.9062 -155,0 0,-43.9062 z m 159.5625,0 154.96875,0 0,43.9062 -154.96875,0 0,-43.9062 z m -237.1875,48.4687 153.5625,0 0,43.875 -153.5625,0 0,-43.875 z m 158.125,0 153.5625,0 0,43.875 -153.5625,0 0,-43.875 z m 158.125,0 153.562498,0 0,43.875 -153.562498,0 0,-43.875 z m -238.625,48.4375 97.84375,0 27.78125,43.875 -125.625,0 0,-43.875 z m 102.40625,0 109.71875,0 -27.84375,43.875 -54.03125,0 -27.84375,-43.875 z m 114.28125,0 97.84375,0 0,43.875 -125.625,0 27.78125,-43.875 z"
         style="font-size:medium;font-style:normal;font-variant:normal;font-weight:normal;font-stretch:normal;text-indent:0;text-align:start;text-decoration:none;line-height:normal;letter-spacing:normal;word-spacing:normal;text-transform:none;direction:ltr;block-progression:tb;writing-mode:lr-tb;text-anchor:start;baseline-shift:baseline;color:#000000;fill:#ffffff;fill-opacity:1;stroke:none;stroke-width:4.56168556;marker:none;visibility:visible;display:inline;overflow:visible;enable-background:accumulate;font-family:Sans;-inkscape-font-specification:Sans"
         inkscape:connector-curvature="0" />
      <path
         inkscape:connector-curvature="0"
         id="Tjuga"
         d="m -334.52513,782.92538 1.40625,29 -1.375,0.65625 0.0312,16.75 3.65625,0.71875 0.0625,92.5 c -6.98587,-1.27248 -10.92818,-1.82755 -17.03125,2.96875 l -29.90625,-45.25 -2.78125,-21.875 3.28125,1.53125 -0.28125,-6.96875 -4.5625,-6.875 -1.4375,-11.28125 c 1.11753,-0.74399 1.94197,-1.28518 2.96875,-1.96875 l 10.53125,15.90625 5.59375,2.65625 -0.3125,-7 -10.15625,-15.34375 c 2.00896,-1.33753 6.04087,-4.03836 7.25,-4.84375 l 10.5,15.9375 5.625,2.625 -0.3125,-6.96875 -10.15625,-15.34375 c 0.0785,-0.0524 1.16947,-0.77953 1.21875,-0.8125 0.0581,-1.33443 -0.44461,-2.31338 -1.125,-3.34375 -1.01924,-1.5417 -2.48496,-2.33377 -3.3125,-1.78125 l -87.46875,58.40625 c -0.82758,0.55254 -0.70591,2.23899 0.3125,3.78125 0.80852,1.15179 1.16304,1.81045 3.25,1.84375 0.0554,-0.0388 0.78662,-0.53308 0.875,-0.59375 l 10.46875,15.84375 5.625,2.625 -0.3125,-6.96875 -10.09375,-15.3125 c 2.24645,-1.50682 3.40461,-2.28643 7.09375,-4.75 l 10.5,15.84375 5.59375,2.65625 -0.3125,-7 -10.09375,-15.28125 c 0.87231,-0.58197 1.99651,-1.29948 2.90625,-1.90625 l 10.15625,5.90625 4.65625,7.03125 5.59375,2.625 -0.15625,-3.78125 19.34375,11.25 31.0625,47 c -2.24523,2.50363 -4.73509,5.44458 -7.65625,9 -0.45635,4.50986 0.47052,5.80503 3.6875,5.15625 2.70023,-3.79205 4.99425,-6.874 7.125,-9.375 l 18.875,28.53125 -47.375,67.65622 8.6875,7.625 23.96875,-34.25 c 0.41695,2.7503 1.11118,5.6621 2.09375,8.7188 1.84042,2.574 3.20855,1.9288 4.125,-1.9375 -1.47471,-4.5838 -2.27539,-8.5859 -2.5625,-11.9688 l 8.9375,-12.81247 c 1.82936,0.92238 3.75299,2.70655 5.5625,5.375 l 0.0312,42.56247 c 1.84606,10.3041 5.52136,10.2909 7.8125,0.625 l 0.1875,-54.21872 38.375,58.03122 c 1.81585,2.7467 3.92834,4.5172 4.75,3.9688 l 6.625,-4.4063 c 0.82157,-0.5485 0.002,-3.221 -1.8125,-5.9687 l -45.5,-68.84377 40.65625,-58.0625 c 7.63295,2.3049 14.9627,-0.45787 21.40625,-3.34375 7.725,-3.8036 15.17582,-10.86711 21.90625,-18.59375 13.46094,-15.45327 25.1875,-32.53125 25.1875,-32.53125 l 7.15625,-16.90625 -13.21875,12.25 c 0,0 -11.57372,16.71377 -24.5625,31.625 -6.49439,7.45562 -13.7289,14.13339 -20.3125,17.375 -3.29178,1.62083 -6.37755,2.37354 -9,2.1875 -5.18628,-0.60275 -10.62426,-5.43948 -12.40625,-10.90625 -0.78619,-2.80855 -0.87087,-6.34527 -0.25,-10.3125 1.24173,-7.93453 5.30207,-17.40832 10.21875,-26.25 2.85656,-5.13697 5.87506,-10.08937 8.71875,-14.65625 9.17267,9.033 16.7239,18.53163 20.8125,24.25 -0.18529,-7.31368 -5.32531,-20.16637 -14.9375,-33.5 4.092,-6.22936 6.96875,-10.3125 6.96875,-10.3125 l 7.5,-17.28125 -12.9375,11.78125 c 0,0 -2.67002,3.71616 -6.46875,9.4375 -15.38765,-18.64204 -39.36995,-36.70642 -70.75,-40.53125 z m 16.5625,15.4375 c 0,0 5.99299,0.66045 7.84375,17.40625 12.78519,-2.00943 27.27901,6.90203 39.71875,17.96875 -2.97753,4.76202 -6.10864,9.98189 -9.125,15.40625 -5.09539,9.16304 -9.44925,19.00238 -10.90625,28.3125 -0.50797,7.36619 -2.23684,16.7381 2.1875,24.0625 l -34.28125,48.9375 0.4375,-118.65625 3.6875,0.71875 c 1.8254,-18.0394 -0.46614,-21.257 -5.0625,-21.25 l 0,-12.875 5.5,-0.0312 z m -75.34375,43 5.84375,8.8125 4.15625,32.15625 -27.4375,-16.15625 -6.0625,-9.15625 c 3.08331,-2.05495 5.67845,-3.80799 8.875,-5.9375 l 10.46875,15.84375 5.625,2.65625 -0.3125,-7 -10.09375,-15.28125 c 4.27446,-2.84694 4.91775,-3.26098 8.9375,-5.9375 z m 55.5,88.375 c 2.09822,-0.002 4.42551,0.3341 7.09375,0.9375 l 0,20.65625 -13.40625,-20.28125 c 1.96553,-0.89152 4.01726,-1.31079 6.3125,-1.3125 z m 7.125,52.4375 0,5.71875 c -0.74042,-0.98607 -1.50921,-1.81566 -2.28125,-2.5 l 2.28125,-3.21875 z"
         style="fill:#ffffff;stroke:none" />
    </g>
  </g>
</svg>
