<?xml version="1.0" encoding="UTF-8" standalone="no"?>
<!-- Created with Inkscape (http://www.inkscape.org/) -->

<svg
   xmlns:dc="http://purl.org/dc/elements/1.1/"
   xmlns:cc="http://creativecommons.org/ns#"
   xmlns:rdf="http://www.w3.org/1999/02/22-rdf-syntax-ns#"
   xmlns:svg="http://www.w3.org/2000/svg"
   xmlns="http://www.w3.org/2000/svg"
   xmlns:xlink="http://www.w3.org/1999/xlink"
   xmlns:sodipodi="http://sodipodi.sourceforge.net/DTD/sodipodi-0.dtd"
   xmlns:inkscape="http://www.inkscape.org/namespaces/inkscape"
   version="1.2"
   width="600"
   height="760"
   id="svg20"
   inkscape:version="0.48.4 r9939"
   sodipodi:docname="corcelles_cormondreche.svg">
  <sodipodi:namedview
     pagecolor="#ffffff"
     bordercolor="#666666"
     borderopacity="1"
     objecttolerance="10"
     gridtolerance="10"
     guidetolerance="10"
     inkscape:pageopacity="0"
     inkscape:pageshadow="2"
     inkscape:window-width="1600"
     inkscape:window-height="1147"
     id="namedview412"
     showgrid="false"
     inkscape:zoom="0.43742385"
     inkscape:cx="146.34405"
     inkscape:cy="42.029661"
     inkscape:window-x="1592"
     inkscape:window-y="-8"
     inkscape:window-maximized="1"
     inkscape:current-layer="svg20" />
  <desc
     id="desc22">Coat of Arms of Canton of Freiburg (Fribourg)</desc>
  <metadata
     id="metadata31">
    <rdf:RDF>
      <cc:Work
         rdf:about="">
        <dc:format>image/svg+xml</dc:format>
        <dc:type
           rdf:resource="http://purl.org/dc/dcmitype/StillImage" />
        <dc:date>07-AUG-2006</dc:date>
        <dc:creator>
          <cc:Agent>
            <dc:title>Jérôme BLUM (wagner51)</dc:title>
          </cc:Agent>
        </dc:creator>
        <cc:license
           rdf:resource="http://creativecommons.org/licenses/GPL/2.0/" />
        <dc:coverage />
        <dc:description>Gabarit pour le Projet:Blasons de WIkipédia</dc:description>
        <dc:subject>
          <rdf:Bag>
            <rdf:li>blason suisse modèle gabarit projet blasons</rdf:li>
          </rdf:Bag>
        </dc:subject>
        <dc:language>fr</dc:language>
        <dc:title />
      </cc:Work>
      <cc:License
         rdf:about="http://creativecommons.org/licenses/GPL/2.0/">
        <cc:permits
           rdf:resource="http://web.resource.org/cc/Reproduction" />
        <cc:permits
           rdf:resource="http://web.resource.org/cc/Distribution" />
        <cc:requires
           rdf:resource="http://web.resource.org/cc/Notice" />
        <cc:permits
           rdf:resource="http://web.resource.org/cc/DerivativeWorks" />
        <cc:requires
           rdf:resource="http://web.resource.org/cc/ShareAlike" />
        <cc:requires
           rdf:resource="http://web.resource.org/cc/SourceCode" />
      </cc:License>
    </rdf:RDF>
  </metadata>
  <defs
     id="defs29">
    <linearGradient
       id="linearGradient2893">
      <stop
         id="stop2895"
         style="stop-color:#ffffff;stop-opacity:0.3137255"
         offset="0" />
      <stop
         id="stop2897"
         style="stop-color:#ffffff;stop-opacity:0.25098041"
         offset="0.19" />
      <stop
         id="stop2901"
         style="stop-color:#6b6b6b;stop-opacity:0.1254902"
         offset="0.60000002" />
      <stop
         id="stop2899"
         style="stop-color:#000000;stop-opacity:0.1254902"
         offset="1" />
    </linearGradient>
    <radialGradient
       cx="858.04236"
       cy="579.93323"
       r="300"
       fx="858.04236"
       fy="579.93323"
       id="radialGradient3236"
       xlink:href="#linearGradient2893"
       gradientUnits="userSpaceOnUse"
       gradientTransform="matrix(1.215027,0,0,1.266667,-839.1924,-490.4894)" />
    <clipPath
       id="clipPath5237">
      <path
         d="M 448.24498,178.08237 257.87764,438.98278 c -68.99612,94.55989 -33.42905,203.37966 79.44132,243.0557 112.87043,39.67606 260.30242,-4.81613 329.29854,-99.37602 L 856.98483,321.76205 448.24498,178.08237 z"
         id="path5239"
         style="fill:none;stroke:#000000;stroke-width:3;stroke-miterlimit:4;stroke-opacity:1;stroke-dasharray:none;display:inline"
         inkscape:connector-curvature="0" />
    </clipPath>
    <clipPath
       id="clipPath5241">
      <path
         d="m 1.5,1.5 0,458.86794 C 1.5,626.67854 135.81454,761.5 301.49993,761.5 467.1854,761.5 601.5,626.67854 601.5,460.36794 L 601.5,1.5 1.5,1.5 z"
         id="path5243"
         style="fill:none;stroke:#000000;stroke-width:3;stroke-miterlimit:4;stroke-opacity:1;stroke-dasharray:none;display:inline"
         inkscape:connector-curvature="0" />
    </clipPath>
  </defs>
  <path
     style="fill:#ffffff;fill-opacity:1"
     id="path2346-2-72"
     d="m -6.5e-5,-1e-5 0,458.8679 c 0,166.31064 134.314735,301.13213 300.000135,301.13213 165.68539,0 299.99999,-134.82149 299.99999,-301.13213 l 0,-458.8678999999999 -600.000124,0 z"
     inkscape:connector-curvature="0" />
  <path
     inkscape:connector-curvature="0"
     style="fill:#e20909;stroke:none"
     id="path4881"
     d="m 492.69028,247.79552 c -13.36151,-8.2315 -21.11594,-22.42343 -21.03472,-38.49724 0.0771,-15.25798 4.8179,-26.69431 10.83756,-26.14378 5.27714,0.48262 6.3189,8.46159 1.57952,12.09742 -10.875,8.34277 -3.14131,29.08547 11.33789,30.40966 13.50842,1.23541 39.56056,-15.80132 45.92355,-30.03156 6.00711,-13.43431 -4.25012,-26.52517 -20.2813,-25.88416 -8.69952,0.34787 -5.51075,-6.13866 7.16431,-14.57353 12.41393,-8.26105 21.11251,-19.03838 15.7612,-19.52778 -1.59863,-0.14621 -2.25719,-3.19518 -1.46348,-6.77549 1.05465,-4.75737 3.20399,-6.34861 7.98472,-5.91139 9.65379,0.88289 8.92628,9.36803 -2.19497,25.59896 l -9.61756,14.03655 8.11972,8.93904 c 21.30029,23.44956 11.55773,62.65642 -18.90512,76.0796 -15.8894,7.00155 -24.0753,7.04425 -35.21146,0.18368 z m -65.42873,-67.20519 c 7.22442,-24.86341 16.454,-40.3111 33.95471,-56.83057 9.80428,-9.25451 23.13072,-19.22109 29.61433,-22.14796 l 11.78841,-5.32157 2.30007,7.50246 c 2.62067,8.54818 7.21792,11.86482 13.59284,9.80644 3.28168,-1.05964 4.25772,-3.93337 3.85896,-11.36181 -0.45013,-8.38508 0.25711,-9.87109 4.51279,-9.48189 6.94917,0.63553 8.50265,14.30826 2.68772,23.65597 -5.48968,8.82489 -22.29681,10.11829 -28.82694,2.21838 -3.75109,-4.53795 -5.19391,-4.34552 -16.52294,2.20363 -21.00928,12.14521 -37.01829,31.81762 -46.20451,56.77762 -2.49544,6.7804 -6.10285,11.66016 -8.87608,12.00671 -3.98242,0.49767 -4.25982,-0.83478 -1.87936,-9.02741 z m -38.72583,-21.62484 c -3.7235,-6.07746 1.7933,-12.97911 6.34332,-7.93563 4.04763,4.48663 11.13845,2.9653 13.80943,-2.96281 1.85975,-4.12762 -4.18877,-14.53199 -10.08982,-17.35598 -5.15854,-2.46867 8.96825,-24.28796 25.83033,-39.89587 16.38572,-15.16693 39.05827,-26.2296 56.62427,-27.62879 9.22981,-0.73517 11.28058,-0.0553 10.94374,3.62788 -0.25067,2.74088 -3.86891,5.0352 -9.15327,5.80406 -19.87303,2.89154 -44.59493,19.30688 -61.82821,41.0539 -7.70916,9.72838 -8.14774,11.20008 -5.11434,17.16216 5.07225,9.96935 2.74133,24.64093 -4.67093,29.40027 -7.59446,4.87631 -19.3315,4.21995 -22.69452,-1.26919 z m -52.66796,-38.52132 c -7.93563,-4.07721 -19.4147,-22.07662 -21.01713,-32.95532 -4.33635,-29.43838 21.69377,-62.32211 47.46714,-59.96501 11.74503,1.07414 24.6263,8.95904 29.72815,18.19725 l 4.20579,7.61563 13.99561,-10.20776 c 15.33907,-11.1876 22.13426,-11.39103 22.51838,-0.67415 0.33733,9.41079 -4.6476,13.84472 -9.50807,8.45715 -4.79313,-5.31298 -9.70297,-1.76626 -20.43918,14.76464 -9.54922,14.70328 -15.59305,15.37624 -14.33277,1.5959 1.73354,-18.95514 -15.23318,-27.58067 -29.05429,-14.77055 -17.58748,16.30092 -26.78041,45.81692 -17.69374,56.80961 5.62133,6.80048 17.33697,7.87275 21.04251,1.92544 3.2952,-5.28836 11.29535,-2.43678 10.72295,3.82207 -0.74986,8.19925 -25.31611,11.714 -37.6353,5.38463 z" />
  <rect
     style="fill:#000000;fill-opacity:1;stroke:none"
     id="rect9651"
     width="8.2178402"
     height="195.25589"
     x="81.688614"
     y="61.308521"
     rx="5"
     ry="5" />
  <path
     inkscape:connector-curvature="0"
     id="path3183"
     d="m 64.943996,74.805622 c -0.03652,-0.0028 -0.332045,-0.130947 -0.656584,-0.285455 -2.808269,-0.438214 -5.797079,-0.04142 -8.661513,-0.04923 -1.628913,-0.01678 -3.048352,0.01384 -3.154317,0.06805 -0.128803,0.0659 -0.172559,0.636608 -0.132013,1.721734 0.244028,6.531476 0.304077,7.059281 1.123088,9.871669 0.439355,2.019787 0.370422,6.355363 0.370422,6.355363 0,0 -1.158166,-1.41143 -2.674795,-1.146862 -0.617227,0.268324 -1.466399,1.974979 -2.197922,4.417372 -0.394248,1.31631 -0.791091,2.458275 -0.881872,2.537683 -0.10045,0.08787 -0.563257,-0.25797 -1.182446,-0.883683 -0.976022,-0.986243 -1.227856,-1.124247 -2.010579,-1.101781 -0.701502,0.02015 -1.553368,0.797101 -3.101807,2.82908 -0.867649,1.138601 -1.636511,2.066041 -1.708583,2.060971 -0.07205,-0.005 -0.335295,-0.51787 -0.584923,-1.13959 -0.851717,-2.121223 -1.23189,-2.333352 -3.307431,-1.845539 -3.997584,0.866293 -8.104572,1.299474 -12.070843,2.303749 -1.129701,0.29159 -1.902824,1.33017 -2.991142,1.66115 -0.730458,-5.137818 1.41362,-10.932314 4.26415,-15.234457 1.750093,-2.235811 1.771305,-2.908605 0.10087,-3.198568 -2.375215,-0.44884 -4.506875,-1.596033 -6.821979,-2.256282 -1.703167,-0.459753 -2.093833,-0.51501 -2.766225,-0.391272 -1.556074,0.286357 -1.597303,0.190042 -0.560225,-1.309317 0.705049,-1.019324 1.108239,-2.061998 0.887567,-2.295311 -0.05762,-0.06093 -0.433134,-0.04041 -0.83447,0.04562 -0.683111,0.146403 -0.86993,0.100314 -2.926168,-0.722124 C 9.5871628,75.68099 7.1597681,73.715632 4.5598886,72.073086 1.7162679,70.289805 -0.01419796,68.91114 8.3597924e-5,68.440328 0.90455529,68.142863 2.0932305,68.351611 3.1081201,68.18368 c 1.6407164,-0.337918 4.9796216,-1.716221 7.0773759,-2.921529 1.774311,-1.019482 1.929347,-1.150753 1.94438,-1.646362 0.130063,-0.567431 -0.76512,-1.207833 -0.231202,-1.568632 0.182224,-0.112238 1.189237,-0.180522 2.421771,-0.164207 1.730373,0.02286 2.212893,-0.02994 2.682716,-0.293603 3.058126,-1.427053 6.649584,-2.6011 10.065363,-2.442532 3.427468,0.20296 3.612313,0.08116 2.575633,-1.697228 -1.541243,-2.676716 -2.755567,-5.452198 -3.486575,-8.461305 -1.407289,-6.259727 -1.793994,-7.665132 -2.518102,-9.151375 1.840229,-0.222077 4.653575,1.729434 6.405852,2.511023 1.823383,0.706421 3.541743,1.456895 6.167624,2.693585 1.284082,0.604753 1.950553,1.037226 2.582131,1.675536 0.46821,0.473229 0.903081,0.864034 0.966353,0.868496 0.06332,0.0044 0.250221,-0.121087 0.415426,-0.279 0.511621,-0.671972 0.216828,-1.596936 0.459991,-2.355944 0.266131,0.01872 1.237039,0.690783 1.866641,1.292126 1.285643,1.22792 3.706166,3.15846 4.225805,3.370382 0.356004,0.14525 0.620797,0.160508 0.873872,0.05048 1.175732,-0.525004 2.158894,-2.794374 2.158894,-2.794374 2.026044,1.819983 1.836481,7.000486 4.547279,7.806523 1.405537,0.235621 3.242021,-1.891179 3.242021,-1.891179 0.451408,6.250217 -1.083081,13.212858 -4.322389,18.92772 -0.268507,0.509696 -0.493656,1.106774 -0.500339,1.326847 -0.0114,0.376106 0.05004,0.404478 1.024344,0.47299 2.368038,0.559762 9.441977,-1.142042 10.959799,-0.146999 0.279275,0.26839 0.470389,1.456425 0.231585,1.439635 l 0,0 z"
     style="fill:#33a02c;fill-opacity:1;display:inline"
     sodipodi:nodetypes="cccsscccsssssssccccccssssccccsccsccccccsssccsscccccscccc" />
  <path
     inkscape:connector-curvature="0"
     id="path3183-7"
     d="m 104.04553,82.933575 c 0.033,-0.01585 0.35303,-0.05262 0.71134,-0.08108 2.65116,-1.024644 5.04114,-2.862679 7.52572,-4.288131 1.41907,-0.799921 2.63303,-1.536163 2.69769,-1.636084 0.0786,-0.12148 -0.16886,-0.637606 -0.74653,-1.557082 -3.47708,-5.534402 -3.79298,-5.961477 -5.90846,-7.987573 -1.39038,-1.529508 -3.4985,-5.31868 -3.4985,-5.31868 0,0 1.70874,0.643238 2.88989,-0.344191 0.40038,-0.540997 0.28246,-2.443589 -0.30524,-4.924517 -0.31673,-1.337077 -0.54402,-2.524482 -0.5051,-2.638642 0.0431,-0.126322 0.61678,-0.05822 1.46587,0.17407 1.33837,0.366105 1.62546,0.359709 2.29209,-0.05112 0.59745,-0.3682 0.9467,-1.46699 1.27171,-4.000958 0.1821,-1.419881 0.38423,-2.607497 0.4492,-2.639153 0.0649,-0.03157 0.5493,0.280845 1.07635,0.694454 1.79821,1.411186 2.23352,1.404802 3.78707,-0.05542 3.02887,-2.749033 6.36904,-5.17767 9.30178,-8.030538 0.83257,-0.817377 0.98284,-2.103369 1.75986,-2.934165 3.20148,4.084253 4.24191,10.174471 3.92433,15.325502 -0.3977,2.811316 -0.0797,3.404578 1.51196,2.820474 2.2814,-0.798899 4.70108,-0.87123 7.03612,-1.45699 1.70489,-0.453426 2.07082,-0.600904 2.59126,-1.044262 1.20444,-1.026029 1.2883,-0.963233 1.13983,0.853791 -0.10091,1.235283 0.0713,2.33986 0.37901,2.431578 0.0804,0.02398 0.39529,-0.181572 0.69987,-0.456741 0.51839,-0.468344 0.70323,-0.521839 2.89518,-0.837705 3.06043,-0.453357 6.1453,0.03499 9.21815,0.157539 3.35428,0.122558 5.54225,0.451284 5.76528,0.86616 -0.63458,0.709848 -1.76836,1.123404 -2.56333,1.776283 -1.25194,1.113003 -3.45436,3.9761 -4.66842,6.068805 -1.02684,1.770054 -1.09546,1.961254 -0.86069,2.397982 0.17109,0.55644 1.26652,0.663452 0.98453,1.242875 -0.10168,0.188311 -0.93964,0.750953 -2.0152,1.353092 -1.50998,0.845384 -1.90144,1.132374 -2.1765,1.595626 -1.93487,2.764927 -4.45815,5.57741 -7.49559,7.147977 -3.06977,1.53797 -3.16895,1.73587 -1.38197,2.757659 2.67315,1.547482 5.1125,3.343957 7.25013,5.584416 4.34862,4.717439 5.38621,5.741203 6.75643,6.666272 -1.48263,1.112441 -4.89482,0.829053 -6.80315,1.028315 -1.9323,0.299922 -3.7957,0.509174 -6.6881,0.751101 -1.41441,0.118304 -2.20786,0.07702 -3.07397,-0.159986 -0.64211,-0.17572 -1.21408,-0.296745 -1.27112,-0.26897 -0.057,0.02784 -0.15617,0.229976 -0.22028,0.44934 -0.1071,0.837758 0.61069,1.491397 0.77961,2.270304 -0.23984,0.116851 -1.41669,0.02027 -2.26264,-0.185691 -1.72732,-0.420601 -4.78884,-0.882227 -5.34483,-0.805941 -0.38093,0.05222 -0.61786,0.171391 -0.78203,0.393225 -0.7557,1.04252 -0.47248,3.499441 -0.47248,3.499441 -2.66458,-0.563141 -5.09068,-5.144356 -7.84131,-4.487016 -1.33504,0.498715 -1.86208,3.258821 -1.86208,3.258821 -3.51604,-5.187143 -5.66846,-11.984208 -5.72057,-18.553074 -0.0223,-0.575669 -0.12585,-1.205333 -0.23011,-1.399259 -0.17815,-0.331436 -0.24559,-0.325259 -1.1236,0.102545 -2.33066,0.699255 -7.60597,5.710032 -9.41797,5.607213 -0.37605,-0.0928 -1.13557,-1.026115 -0.92038,-1.130968 l 0,0 z"
     style="fill:#33a02c;fill-opacity:1;display:inline"
     sodipodi:nodetypes="cccsscccsssssssccccccssssccccsccsccccccsssccsscccccscccc" />
  <path
     inkscape:connector-curvature="0"
     id="path3183-6"
     d="m 102.25852,122.183 c 0.0288,0.0101 0.23901,0.17701 0.46692,0.37137 2.16583,0.95836 4.65706,1.28358 6.96092,1.90764 1.30747,0.36481 2.45656,0.64629 2.55353,0.62551 0.1179,-0.0252 0.2762,-0.47518 0.4776,-1.35732 1.21221,-5.30974 1.27772,-5.74751 1.22505,-8.1878 0.082,-1.72045 1.07251,-5.19524 1.07251,-5.19524 0,0 0.62779,1.38582 1.90555,1.49996 0.55468,-0.0829 1.60624,-1.27338 2.72177,-3.08146 0.60123,-0.97445 1.16692,-1.80802 1.25712,-1.85235 0.0998,-0.0491 0.39772,0.32911 0.76115,0.96628 0.57288,1.00431 0.74581,1.1697 1.38066,1.32043 0.56898,0.13507 1.42218,-0.30657 3.10674,-1.60813 0.94394,-0.72932 1.76279,-1.30999 1.81971,-1.29036 0.0569,0.0197 0.1582,0.48914 0.22504,1.04339 0.22803,1.89103 0.4883,2.14377 2.26407,2.19876 3.40446,0.16488 6.80351,0.70198 10.21254,0.74904 0.97215,0.009 1.81841,-0.66025 2.76578,-0.69193 -0.52012,4.29289 -3.49558,8.4944 -6.71777,11.34237 -1.89084,1.42213 -2.053,1.95908 -0.77102,2.55273 1.81498,0.87353 3.28333,2.25662 5.00432,3.28734 1.27171,0.73737 1.57424,0.8661 2.14214,0.91152 1.3142,0.10511 1.32662,0.19153 0.16849,1.17467 -0.78731,0.66839 -1.33669,1.42067 -1.20939,1.65605 0.0332,0.0615 0.33992,0.12594 0.68151,0.14325 0.58137,0.0295 0.7218,0.10688 2.19949,1.21231 2.07039,1.53614 3.60027,3.64155 5.33865,5.52432 1.90419,2.04862 2.99971,3.5315 2.88665,3.90737 -0.79212,0.0444 -1.70389,-0.38002 -2.55696,-0.46373 -1.39348,-0.0819 -4.37815,0.30741 -6.32655,0.82513 -1.648,0.4379 -1.80111,0.51013 -1.9201,0.90579 -0.22705,0.42867 0.35537,1.13718 -0.15221,1.31244 -0.17087,0.051 -0.99616,-0.11118 -1.98468,-0.39014 -1.3878,-0.39159 -1.78757,-0.45315 -2.22263,-0.34226 -2.76921,0.48908 -5.91313,0.65949 -8.62823,-0.20482 -2.71495,-0.90256 -2.89002,-0.84439 -2.43914,0.8106 0.66325,2.48685 1.04204,4.98269 0.98145,7.56234 -0.21732,5.34188 -0.20916,6.55647 0.0531,7.9089 -1.52907,-0.21814 -3.37263,-2.39563 -4.61445,-3.40264 -1.31526,-0.96183 -2.53649,-1.93648 -4.38332,-3.49819 -0.90311,-0.7637 -1.34629,-1.25553 -1.71697,-1.90551 -0.27477,-0.48187 -0.54051,-0.89021 -0.59048,-0.90745 -0.05,-0.0172 -0.22752,0.0435 -0.39456,0.13497 -0.5567,0.43052 -0.51892,1.23859 -0.87834,1.79706 -0.21015,-0.0725 -0.84668,-0.82279 -1.22374,-1.44258 -0.76998,-1.26561 -2.30189,-3.34152 -2.67443,-3.62416 -0.2552,-0.19368 -0.46505,-0.26308 -0.69247,-0.2291 -1.05956,0.169 -2.34034,1.78355 -2.34034,1.78355 -1.23821,-1.90184 0.0316,-6.03067 -1.97641,-7.26408 -1.08049,-0.49277 -3.01734,0.82298 -3.01734,0.82298 0.98465,-5.12807 3.72136,-10.40127 7.56115,-14.30247 0.32605,-0.35234 0.63605,-0.78436 0.68889,-0.96005 0.0903,-0.30026 0.0469,-0.33636 -0.72247,-0.60162 -1.78528,-0.96126 -7.84603,-1.11713 -8.85311,-2.24538 -0.1669,-0.27625 -0.0645,-1.2737 0.12408,-1.20869 l 0,0 z"
     style="fill:#33a02c;fill-opacity:1;display:inline"
     sodipodi:nodetypes="cccsscccsssssssccccccssssccccsccsccccccsssccsscccccscccc" />
  <path
     inkscape:connector-curvature="0"
     id="path3183-9"
     d="m 85.558057,215.92524 c 0.01631,-0.014 0.192375,-0.0836 0.391417,-0.1542 1.348924,-0.98477 2.42593,-2.39151 3.619358,-3.57844 0.6838,-0.66986 1.260862,-1.27237 1.282361,-1.33892 0.02614,-0.0809 -0.19281,-0.33621 -0.660539,-0.77023 -2.815246,-2.61247 -3.059509,-2.80682 -4.56837,-3.63507 -1.021786,-0.65668 -2.794593,-2.48677 -2.794593,-2.48677 0,0 1.067674,0.10523 1.587922,-0.63487 0.144963,-0.36795 -0.211328,-1.4299 -0.922195,-2.74868 -0.383124,-0.71074 -0.69273,-1.35012 -0.688002,-1.42084 0.0052,-0.0782 0.341224,-0.12685 0.858484,-0.12414 0.815337,0.004 0.977313,-0.0431 1.29321,-0.37761 0.283107,-0.29985 0.314228,-0.97663 0.11332,-2.46431 -0.112584,-0.83361 -0.178474,-1.53843 -0.146428,-1.56626 0.03207,-0.0278 0.354502,0.0759 0.71654,0.23047 1.235278,0.52748 1.481386,0.45765 2.141087,-0.60743 1.301068,-2.02096 2.82755,-3.90742 4.058273,-5.97271 0.348236,-0.59055 0.237941,-1.34332 0.552618,-1.93304 2.438292,1.83127 3.955057,5.12978 4.55821,8.10175 0.201818,1.65616 0.472552,1.94453 1.287108,1.37093 1.173408,-0.80042 2.535782,-1.20946 3.772052,-1.89706 0.89871,-0.51665 1.08399,-0.65601 1.31196,-0.98681 0.52757,-0.76554 0.58472,-0.74265 0.7768,0.31125 0.13058,0.71649 0.39629,1.31725 0.58492,1.3225 0.0493,0.002 0.19676,-0.16318 0.32778,-0.36568 0.223,-0.34467 0.31977,-0.40314 1.51588,-0.91579 1.66812,-0.72277 3.49333,-0.91475 5.25607,-1.31252 1.9225,-0.44058 3.21435,-0.58675 3.40405,-0.3852 -0.25221,0.49942 -0.83285,0.90658 -1.18477,1.39805 -0.54131,0.82213 -1.35595,2.78215 -1.72677,4.15459 -0.31363,1.16083 -0.32351,1.27979 -0.12383,1.49197 0.18173,0.28981 0.81977,0.18394 0.74784,0.5557 -0.0291,0.12235 -0.41912,0.56914 -0.93802,1.07449 -0.72848,0.70948 -0.90703,0.93191 -0.99269,1.23667 -0.67772,1.86361 -1.68217,3.8437 -3.16732,5.19709 -1.50846,1.33979 -1.53466,1.46721 -0.36498,1.77539 1.75258,0.47179 3.41036,1.12046 4.96439,2.06702 3.18569,2.01621 3.93031,2.43949 4.84871,2.75615 -0.67234,0.8569 -2.65216,1.215 -3.70499,1.61832 -1.05114,0.46411 -2.07696,0.86627 -3.68187,1.44348 -0.78483,0.28227 -1.24144,0.3795 -1.76908,0.3767 -0.39118,-0.002 -0.73425,0.0162 -0.76238,0.0406 -0.0282,0.0245 -0.0537,0.15428 -0.0567,0.28855 0.0666,0.49179 0.57344,0.75362 0.78777,1.17003 -0.11836,0.1028 -0.80102,0.22698 -1.31248,0.23872 -1.0444,0.024 -2.85228,0.22757 -3.15624,0.35542 -0.20828,0.0876 -0.32464,0.19125 -0.38408,0.34213 -0.27038,0.70665 0.26405,2.0581 0.26405,2.0581 -1.59805,0.0856 -3.671807,-2.14567 -5.133059,-1.35423 -0.681908,0.4861 -0.561285,2.13287 -0.561285,2.13287 -2.784554,-2.40943 -5.039979,-5.94002 -6.068579,-9.66053 -0.100212,-0.32334 -0.25476,-0.66498 -0.343412,-0.7592 -0.151526,-0.16103 -0.188862,-0.14727 -0.622159,0.2291 -1.216503,0.75133 -3.448656,4.3977 -4.492764,4.61492 -0.227565,0.005 -0.800607,-0.4097 -0.694401,-0.50195 l 0,0 z"
     style="fill:#33a02c;fill-opacity:1;display:inline"
     sodipodi:nodetypes="cccsscccsssssssccccccssssccccsccsccccccsssccsscccccscccc" />
  <path
     style="font-size:medium;font-style:normal;font-variant:normal;font-weight:normal;font-stretch:normal;text-indent:0;text-align:start;text-decoration:none;line-height:normal;letter-spacing:normal;word-spacing:normal;text-transform:none;direction:ltr;block-progression:tb;writing-mode:lr-tb;text-anchor:start;baseline-shift:baseline;color:#000000;fill:#604100;fill-opacity:1;stroke:none;stroke-width:25;marker:none;visibility:visible;display:inline;overflow:visible;enable-background:accumulate;font-family:Sans;-inkscape-font-specification:Sans"
     d="m 86.583573,67.590501 c -3.843626,-0.196539 -7.495063,0.345421 -10.689151,1.264931 -8.517569,2.452028 -14.493599,7.328876 -14.493599,7.328876 -0.808107,0.628277 -1.348924,1.589581 -1.466347,2.60643 -0.11742,1.016852 0.190069,2.076112 0.833719,2.872032 0.643646,0.795921 1.615132,1.31822 2.634045,1.416139 1.018912,0.09792 2.072089,-0.229815 2.855532,-0.888592 0,0 4.947434,-3.945201 11.770618,-5.909449 6.823184,-1.964249 14.770922,-2.175293 22.5853,5.639082 3.21133,3.211329 3.70585,7.717227 2.05672,14.686719 -1.64914,6.969491 -5.590151,15.692931 -10.167732,25.163441 -9.155163,18.94102 -23.316418,40.8694 -23.316418,61.7885 0,20.72861 10.382999,36.95345 20.585125,47.35011 5.101061,5.19833 8.78843,10.98679 12.627235,15.03849 3.83879,4.0517 5.39526,5.51438 10.11253,9.46645 0.71639,0.72659 1.73026,1.15076 2.75063,1.15076 1.02038,0 2.03424,-0.42417 2.75064,-1.15076 0.71639,-0.7266 1.12618,-1.74637 1.11175,-2.76664 0,-5.93827 -3.19276,-10.91694 -7.18404,-15.49782 -3.99128,-4.58087 -8.99492,-9.00826 -13.865962,-13.97217 -9.742075,-9.92784 -18.838783,-21.53622 -18.838783,-39.61842 0,-17.8917 10.98526,-39.30345 20.229242,-58.42823 4.621993,-9.56239 8.779783,-18.5553 10.718123,-26.747014 1.93833,-8.191714 1.50778,-16.29781 -4.11344,-21.919035 -6.156714,-6.15671 -13.079693,-8.546262 -19.485737,-8.87383 z"
     id="path9607"
     inkscape:connector-curvature="0"
     sodipodi:nodetypes="sscssscsssssszcsscsssssss" />
  <path
     inkscape:connector-curvature="0"
     id="path3183-3"
     d="m 77.534209,199.82321 c -0.03299,0.0159 -0.353031,0.0526 -0.71134,0.0811 -2.651132,1.02463 -5.041117,2.86266 -7.5257,4.28811 -1.419065,0.79993 -2.633028,1.53617 -2.697706,1.6361 -0.07859,0.12147 0.168879,0.63759 0.74655,1.55707 3.477082,5.5344 3.792979,5.96148 5.908457,7.98757 1.390384,1.52951 3.498474,5.3187 3.498474,5.3187 0,0 -1.70871,-0.64325 -2.889858,0.34418 -0.400384,0.54099 -0.282458,2.44358 0.305212,4.92453 0.316731,1.33707 0.544043,2.52446 0.505126,2.63862 -0.04306,0.12633 -0.61678,0.0582 -1.465868,-0.17407 -1.338372,-0.3661 -1.62549,-0.35969 -2.292106,0.0511 -0.597446,0.36819 -0.946705,1.46699 -1.271704,4.00095 -0.182104,1.41989 -0.38424,2.6075 -0.44919,2.63915 -0.06496,0.0316 -0.549308,-0.28084 -1.076354,-0.69445 -1.798221,-1.41118 -2.233524,-1.4048 -3.78709,0.0554 -3.02886,2.74902 -6.369026,5.17766 -9.301778,8.03053 -0.832555,0.81738 -0.982814,2.10337 -1.759833,2.93416 -3.201503,-4.08425 -4.241924,-10.17447 -3.924365,-15.3255 0.397717,-2.81131 0.07969,-3.40458 -1.511929,-2.82047 -2.281415,0.7989 -4.701085,0.87123 -7.036147,1.45699 -1.704863,0.45342 -2.07082,0.6009 -2.591259,1.04426 -1.204421,1.02603 -1.288285,0.96323 -1.139827,-0.85379 0.100929,-1.23528 -0.07123,-2.33986 -0.378999,-2.43158 -0.08036,-0.024 -0.39531,0.18157 -0.699864,0.45674 -0.518388,0.46834 -0.703223,0.52184 -2.895197,0.83771 -3.060434,0.45335 -6.145299,-0.035 -9.218135,-0.15754 -3.354287,-0.12256 -5.542248,-0.45129 -5.765286,-0.86616 0.634565,-0.70985 1.76836,-1.12341 2.563316,-1.77629 1.251941,-1.113 3.454369,-3.9761 4.668422,-6.0688 1.026859,-1.77005 1.095486,-1.96125 0.860703,-2.39798 -0.171079,-0.55644 -1.266532,-0.66346 -0.984544,-1.24287 0.101692,-0.18832 0.939647,-0.75096 2.01521,-1.3531 1.50998,-0.84538 1.901453,-1.13237 2.176501,-1.59563 1.934888,-2.76492 4.458159,-5.57741 7.495594,-7.14797 3.069753,-1.53797 3.168936,-1.73587 1.381949,-2.75766 -2.673113,-1.54748 -5.11249,-3.34396 -7.250113,-5.58442 -4.348613,-4.71744 -5.386214,-5.7412 -6.75643,-6.66627 1.482646,-1.11244 4.894831,-0.82905 6.803143,-1.02832 1.932305,-0.29991 3.795686,-0.50916 6.688112,-0.7511 1.414424,-0.11831 2.207841,-0.077 3.073958,0.16 0.642095,0.17572 1.214108,0.29673 1.271135,0.26896 0.05703,-0.0279 0.156152,-0.22998 0.220267,-0.44933 0.107094,-0.83776 -0.610689,-1.49141 -0.779605,-2.27031 0.239836,-0.11685 1.416698,-0.0203 2.262619,0.1857 1.727361,0.42058 4.788857,0.88222 5.344858,0.80592 0.380918,-0.0522 0.617877,-0.17139 0.782022,-0.3932 0.75572,-1.04254 0.472465,-3.49945 0.472465,-3.49945 2.664604,0.56313 5.090689,5.14436 7.841334,4.487 1.335041,-0.49871 1.862087,-3.25882 1.862087,-3.25882 3.516034,5.18714 5.668458,11.98421 5.720541,18.55309 0.02234,0.57565 0.12588,1.20532 0.230136,1.39924 0.178152,0.33144 0.245562,0.32528 1.123596,-0.10254 2.330668,-0.69926 7.605979,-5.71003 9.417975,-5.60721 0.376045,0.0928 1.135572,1.02611 0.920378,1.13096 l 0,0 z"
     style="fill:#33a02c;fill-opacity:1;display:inline"
     sodipodi:nodetypes="cccsscccsssssssccccccssssccccsccsccccccsssccsscccccscccc" />
  <path
     inkscape:connector-curvature="0"
     id="path3183-5"
     d="m 54.925726,102.32815 c -0.01122,0.0349 -0.204089,0.29283 -0.429361,0.57292 -1.074874,2.63117 -1.378995,5.63083 -2.048072,8.41604 -0.392483,1.581 -0.690471,2.96915 -0.662198,3.08477 0.03437,0.14054 0.579549,0.3149 1.644715,0.52602 6.411293,1.27086 6.9387,1.33431 9.864204,1.18689 2.066651,0.0389 6.269123,1.10721 6.269123,1.10721 0,0 -1.640732,0.80093 -1.733543,2.33766 0.118538,0.6625 1.582969,1.88284 3.790421,3.1586 1.189692,0.68756 2.209148,1.33738 2.265443,1.44405 0.0623,0.11803 -0.381066,0.48846 -1.132853,0.94642 -1.184977,0.7219 -1.377404,0.93505 -1.536296,1.70181 -0.142392,0.68719 0.416841,1.69545 2.036324,3.67127 0.907468,1.10714 1.632287,2.06938 1.610719,2.13834 -0.02157,0.0689 -0.581304,0.20664 -1.243867,0.30595 -2.260577,0.33885 -2.554761,0.65976 -2.55943,2.79185 -0.08027,4.08959 -0.607204,8.1856 -0.545983,12.27658 0.02283,1.16651 0.854801,2.15857 0.925514,3.2939 -5.16763,-0.47574 -10.310384,-3.89996 -13.837983,-7.66692 -1.771244,-2.2191 -2.420952,-2.3951 -3.088824,-0.83678 -0.985208,2.20737 -2.59365,4.0165 -3.77067,6.11656 -0.840631,1.55096 -0.984608,1.91831 -1.019487,2.6011 -0.08072,1.58015 -0.183955,1.59802 -1.403304,0.24273 -0.828957,-0.92138 -1.750343,-1.55446 -2.028305,-1.39362 -0.07259,0.042 -0.139352,0.41208 -0.148312,0.82245 -0.0153,0.69845 -0.10329,0.86958 -1.378334,2.68032 -1.77125,2.53662 -4.244035,4.44456 -6.442563,6.59486 -2.391747,2.35496 -4.132756,3.72028 -4.587547,3.59766 -0.08056,-0.94871 0.397044,-2.05706 0.468019,-3.0833 0.0501,-1.6744 -0.519914,-5.24134 -1.208219,-7.56073 -0.582191,-1.96178 -0.674112,-2.14294 -1.152857,-2.27202 -0.522064,-0.25757 -1.351871,0.46552 -1.579622,-0.13728 -0.06713,-0.20322 0.09898,-1.19878 0.399478,-2.39424 0.421838,-1.67832 0.481884,-2.15999 0.333843,-2.678 -0.682279,-3.30501 -0.995237,-7.07052 -0.05216,-10.35736 0.988959,-3.28796 0.913145,-3.49593 -1.056573,-2.89795 -2.960283,0.88146 -5.941167,1.42204 -9.037749,1.43841 -6.415514,-0.0763 -7.872233,-0.0246 -9.48552,0.33675 0.208881,-1.84177 2.757323,-4.12842 3.922431,-5.65285 1.108393,-1.61097 2.235394,-3.10958 4.045045,-5.3789 0.884934,-1.10972 1.459623,-1.65831 2.226529,-2.12542 0.568558,-0.34627 1.049221,-0.67915 1.068175,-0.73968 0.01903,-0.0605 -0.06003,-0.27141 -0.175525,-0.46862 -0.535664,-0.65297 -1.503704,-0.57974 -2.186039,-0.99162 0.07981,-0.25457 0.957776,-1.04408 1.688258,-1.5178 1.491619,-0.96733 3.928941,-2.87663 4.255134,-3.33328 0.223533,-0.31284 0.299523,-0.56695 0.250922,-0.83859 -0.239308,-1.2652 -2.220306,-2.74584 -2.220306,-2.74584 2.238663,-1.551 7.235365,-0.17025 8.645609,-2.62164 0.553819,-1.31314 -1.091396,-3.59112 -1.091396,-3.59112 6.185523,1.00413 12.605623,4.105 17.417981,8.57646 0.433913,0.37895 0.962859,0.7359 1.175438,0.79322 0.363309,0.0979 0.405106,0.0447 0.696756,-0.88743 1.091473,-2.17477 1.069223,-9.45051 2.387872,-10.69752 0.32563,-0.20975 1.525685,-0.12135 1.454203,0.10712 l 0,0 z"
     style="fill:#33a02c;fill-opacity:1;display:inline"
     sodipodi:nodetypes="cccsscccsssssssccccccssssccccsccsccccccsssccsscccccscccc"
     inkscape:transform-center-y="-97.985014"
     inkscape:transform-center-x="-35.37315" />
  <path
     style="fill:#e20909;fill-opacity:1;stroke:none"
     d="m 53.353846,72.983281 c -4.485842,0 -8.133076,3.597005 -8.217224,8.062728 -1.164413,-0.632547 -2.502013,-0.984908 -3.92032,-0.984908 -4.538587,0 -8.217225,3.678638 -8.217225,8.217224 0,3.846661 2.649405,7.070912 6.21844,7.966169 -0.23076,0.758146 -0.35727,1.561084 -0.35727,2.394679 0,4.274847 3.263276,7.784817 7.435091,8.178597 0.0049,0.85173 0.140906,1.67134 0.386238,2.44296 -1.527554,1.4922 -2.481582,3.57636 -2.481582,5.88048 0,2.49421 1.113492,4.73063 2.867821,6.23775 -0.924182,1.32918 -1.467707,2.94157 -1.467707,4.68315 0,3.30327 1.949624,6.14874 4.76039,7.4544 -0.0755,0.44762 -0.115872,0.9117 -0.115872,1.3808 0,4.53859 3.678638,8.21723 8.217225,8.21723 2.474738,0 4.692528,-1.09856 6.199127,-2.8292 4.139362,-0.42519 7.3675,-3.92691 7.3675,-8.1786 0,-3.81864 -2.601984,-7.02445 -6.131536,-7.94686 0.604089,-0.71355 1.094946,-1.52251 1.429082,-2.41399 3.627929,-0.85353 6.334312,-4.11636 6.334312,-8.00479 0,-3.35407 -2.014939,-6.23503 -4.895573,-7.51234 0.556202,-0.61812 1.011938,-1.32932 1.36149,-2.09534 0.794499,0.25584 1.640633,0.39589 2.520206,0.39589 4.538587,0 8.217225,-3.67864 8.217225,-8.217224 0,-4.538587 -3.678638,-8.217224 -8.217225,-8.217224 -0.861568,0 -1.691582,0.130703 -2.471926,0.376582 0.147274,-0.615645 0.231743,-1.260759 0.231743,-1.921536 0,-4.538587 -3.688293,-8.217224 -8.22688,-8.217224 -0.374908,0 -0.739189,0.02864 -1.10078,0.07725 -1.144196,-3.16174 -4.168177,-5.426651 -7.72477,-5.426651 z"
     id="path9468"
     inkscape:connector-curvature="0" />
  <path
     style="fill:#e20909;fill-opacity:1;stroke:none"
     d="m 106.8207,119.41575 c -4.48584,0 -8.133074,3.59701 -8.217221,8.06273 -1.164413,-0.63254 -2.502013,-0.9849 -3.920321,-0.9849 -4.538587,0 -8.217224,3.67863 -8.217224,8.21722 0,3.84666 2.649404,7.07091 6.21844,7.96617 -0.230761,0.75814 -0.357271,1.56108 -0.357271,2.39468 0,4.27485 3.263277,7.78481 7.435091,8.1786 0.0049,0.85173 0.140906,1.67134 0.386236,2.44296 -1.527552,1.49219 -2.48158,3.57636 -2.48158,5.88048 0,2.4942 1.113492,4.73063 2.86782,6.23775 -0.924181,1.32918 -1.467705,2.94156 -1.467705,4.68314 0,3.30328 1.949625,6.14874 4.760385,7.4544 -0.0755,0.44763 -0.11587,0.91171 -0.11587,1.38081 0,4.53858 3.67864,8.21722 8.21722,8.21722 2.47474,0 4.69252,-1.09855 6.19913,-2.8292 4.13937,-0.42519 7.36753,-3.92691 7.36753,-8.1786 0,-3.81864 -2.60199,-7.02445 -6.13156,-7.94685 0.6041,-0.71356 1.09494,-1.52252 1.42908,-2.41399 3.62793,-0.85353 6.33432,-4.11636 6.33432,-8.0048 0,-3.35407 -2.01493,-6.23502 -4.89557,-7.51234 0.55619,-0.61812 1.01192,-1.32932 1.36148,-2.09534 0.79452,0.25584 1.64066,0.39589 2.52023,0.39589 4.53858,0 8.21721,-3.67863 8.21721,-8.21722 0,-4.53859 -3.67863,-8.21722 -8.21721,-8.21722 -0.86159,0 -1.6916,0.1307 -2.47193,0.37658 0.14726,-0.61565 0.23175,-1.26076 0.23175,-1.92154 0,-4.53858 -3.68831,-8.21722 -8.2269,-8.21722 -0.37492,0 -0.73919,0.0286 -1.10078,0.0773 -1.14419,-3.16174 -4.16819,-5.42666 -7.72478,-5.42666 z"
     id="path9468-9"
     inkscape:connector-curvature="0" />
  <path
     style="fill:#e20909;fill-opacity:1;stroke:none"
     d="m 56.310919,159.3246 c -4.485842,0 -8.133076,3.59701 -8.217224,8.06273 -1.164413,-0.63254 -2.502013,-0.9849 -3.920321,-0.9849 -4.538586,0 -8.217224,3.67863 -8.217224,8.21722 0,3.84666 2.649405,7.07091 6.21844,7.96617 -0.23076,0.75814 -0.35727,1.56108 -0.35727,2.39468 0,4.27485 3.263276,7.78481 7.435091,8.1786 0.0049,0.85173 0.140906,1.67134 0.386238,2.44296 -1.527555,1.49219 -2.481582,3.57636 -2.481582,5.88048 0,2.4942 1.113491,4.73063 2.867821,6.23775 -0.924183,1.32918 -1.467707,2.94156 -1.467707,4.68314 0,3.30328 1.949624,6.14874 4.76039,7.4544 -0.0755,0.44763 -0.115872,0.91171 -0.115872,1.38081 0,4.53858 3.678638,8.21722 8.217224,8.21722 2.474739,0 4.692529,-1.09855 6.199128,-2.8292 4.139362,-0.42519 7.3675,-3.92691 7.3675,-8.1786 0,-3.81864 -2.601984,-7.02445 -6.131536,-7.94685 0.604089,-0.71356 1.094946,-1.52252 1.429082,-2.41399 3.627929,-0.85353 6.334311,-4.11636 6.334311,-8.0048 0,-3.35407 -2.014938,-6.23502 -4.895573,-7.51234 0.556202,-0.61812 1.011939,-1.32932 1.361491,-2.09534 0.794499,0.25584 1.640633,0.39589 2.520206,0.39589 4.538587,0 8.217224,-3.67863 8.217224,-8.21722 0,-4.53859 -3.678637,-8.21722 -8.217224,-8.21722 -0.861568,0 -1.691582,0.1307 -2.471926,0.37658 0.147274,-0.61565 0.231743,-1.26076 0.231743,-1.92154 0,-4.53858 -3.688293,-8.21722 -8.22688,-8.21722 -0.374908,0 -0.739189,0.0286 -1.10078,0.0772 -1.144196,-3.16174 -4.168178,-5.42666 -7.72477,-5.42666 z"
     id="path9468-6"
     inkscape:connector-curvature="0" />
  <rect
     style="fill:#000000;fill-opacity:1;stroke:none"
     id="rect9651-1"
     width="8.2178402"
     height="195.25589"
     x="210.60081"
     y="116.20591"
     rx="5"
     ry="5" />
  <path
     inkscape:connector-curvature="0"
     id="path3183-4"
     d="m 193.8562,129.70301 c -0.0365,-0.003 -0.33204,-0.13095 -0.65658,-0.28545 -2.80827,-0.43822 -5.79708,-0.0414 -8.66152,-0.0492 -1.62891,-0.0168 -3.04835,0.0138 -3.15431,0.068 -0.12881,0.0659 -0.17256,0.63661 -0.13202,1.72174 0.24403,6.53147 0.30408,7.05928 1.12309,9.87167 0.43936,2.01978 0.37042,6.35536 0.37042,6.35536 0,0 -1.15816,-1.41143 -2.67479,-1.14686 -0.61723,0.26832 -1.4664,1.97498 -2.19792,4.41737 -0.39425,1.31631 -0.79109,2.45828 -0.88188,2.53768 -0.10045,0.0879 -0.56325,-0.25797 -1.18244,-0.88368 -0.97602,-0.98624 -1.22786,-1.12425 -2.01058,-1.10178 -0.7015,0.0201 -1.55337,0.7971 -3.10181,2.82908 -0.86765,1.1386 -1.63651,2.06604 -1.70858,2.06097 -0.072,-0.005 -0.3353,-0.51787 -0.58492,-1.13959 -0.85172,-2.12122 -1.23189,-2.33335 -3.30743,-1.84554 -3.99759,0.86629 -8.10458,1.29947 -12.07085,2.30375 -1.1297,0.29159 -1.90282,1.33017 -2.99114,1.66115 -0.73046,-5.13782 1.41362,-10.93231 4.26415,-15.23446 1.75009,-2.23581 1.77131,-2.9086 0.10087,-3.19857 -2.37521,-0.44884 -4.50687,-1.59603 -6.82198,-2.25628 -1.70316,-0.45975 -2.09383,-0.51501 -2.76622,-0.39127 -1.55608,0.28636 -1.59731,0.19004 -0.56023,-1.30932 0.70505,-1.01932 1.10824,-2.06199 0.88757,-2.29531 -0.0576,-0.0609 -0.43314,-0.0404 -0.83447,0.0456 -0.68311,0.14641 -0.86993,0.10032 -2.92617,-0.72212 -2.87709,-1.1376 -5.30449,-3.10296 -7.90437,-4.7455 -2.84362,-1.78329 -4.57408,-3.16195 -4.5598,-3.63276 0.90447,-0.29747 2.09315,-0.0887 3.10804,-0.25665 1.64071,-0.33792 4.97962,-1.71622 7.07737,-2.92153 1.77431,-1.01948 1.92935,-1.15075 1.94438,-1.64636 0.13006,-0.56743 -0.76512,-1.20783 -0.2312,-1.56863 0.18222,-0.11224 1.18924,-0.18052 2.42177,-0.16421 1.73037,0.0229 2.21289,-0.0299 2.68272,-0.2936 3.05812,-1.42706 6.64958,-2.6011 10.06536,-2.44254 3.42747,0.20297 3.61231,0.0812 2.57563,-1.69722 -1.54124,-2.67672 -2.75557,-5.4522 -3.48657,-8.46131 -1.40729,-6.259725 -1.794,-7.66513 -2.5181,-9.151373 1.84022,-0.222077 4.65357,1.729434 6.40585,2.511023 1.82338,0.706421 3.54174,1.456895 6.16762,2.693585 1.28408,0.604755 1.95055,1.037225 2.58213,1.675535 0.46821,0.47323 0.90308,0.86404 0.96635,0.8685 0.0633,0.004 0.25023,-0.12109 0.41543,-0.279 0.51162,-0.67197 0.21683,-1.59694 0.45999,-2.355947 0.26613,0.01873 1.23704,0.690787 1.86664,1.292127 1.28565,1.22792 3.70617,3.15846 4.22581,3.37038 0.356,0.14525 0.62079,0.16051 0.87387,0.0505 1.17573,-0.525 2.15889,-2.79437 2.15889,-2.79437 2.02605,1.81998 1.83648,7.00049 4.54728,7.80652 1.40554,0.23562 3.24202,-1.89118 3.24202,-1.89118 0.45141,6.25022 -1.08308,13.21286 -4.32238,18.92772 -0.26851,0.5097 -0.49366,1.10678 -0.50034,1.32685 -0.0114,0.37611 0.05,0.40448 1.02434,0.47299 2.36804,0.55976 9.44198,-1.14204 10.9598,-0.147 0.27927,0.26839 0.47039,1.45643 0.23158,1.43964 l 0,0 z"
     style="fill:#33a02c;fill-opacity:1;display:inline"
     sodipodi:nodetypes="cccsscccsssssssccccccssssccccsccsccccccsssccsscccccscccc" />
  <path
     inkscape:connector-curvature="0"
     id="path3183-7-6"
     d="m 232.95773,137.83097 c 0.033,-0.0159 0.35303,-0.0526 0.71134,-0.0811 2.65116,-1.02465 5.04115,-2.86268 7.52573,-4.28813 1.41906,-0.79992 2.63303,-1.53616 2.69768,-1.63609 0.0786,-0.12148 -0.16885,-0.6376 -0.74652,-1.55708 -3.47709,-5.5344 -3.79298,-5.96148 -5.90846,-7.98757 -1.39039,-1.52951 -3.4985,-5.31868 -3.4985,-5.31868 0,0 1.70873,0.64324 2.88988,-0.34419 0.40039,-0.541 0.28246,-2.44359 -0.30523,-4.92452 -0.31674,-1.33708 -0.54402,-2.52448 -0.50511,-2.63864 0.0431,-0.12632 0.61678,-0.0582 1.46587,0.17407 1.33837,0.3661 1.62546,0.35971 2.2921,-0.0511 0.59745,-0.3682 0.9467,-1.46699 1.2717,-4.00096 0.1821,-1.41988 0.38424,-2.60749 0.4492,-2.63915 0.0649,-0.0316 0.5493,0.28085 1.07635,0.69446 1.79821,1.41118 2.23352,1.4048 3.78707,-0.0554 3.02888,-2.74903 6.36904,-5.177671 9.30178,-8.030539 0.83258,-0.817377 0.98284,-2.103369 1.75986,-2.934165 3.20148,4.084253 4.24192,10.174474 3.92434,15.325504 -0.3977,2.81131 -0.0797,3.40458 1.51195,2.82047 2.2814,-0.7989 4.70108,-0.87123 7.03612,-1.45699 1.70489,-0.45342 2.07083,-0.6009 2.59126,-1.04426 1.20445,-1.02603 1.28831,-0.96323 1.13984,0.85379 -0.10092,1.23528 0.0713,2.33986 0.37901,2.43158 0.0804,0.024 0.39529,-0.18157 0.69986,-0.45674 0.51839,-0.46835 0.70323,-0.52184 2.89518,-0.83771 3.06043,-0.45335 6.1453,0.035 9.21816,0.15754 3.35428,0.12256 5.54224,0.45129 5.76527,0.86616 -0.63457,0.70985 -1.76835,1.12341 -2.56333,1.77628 -1.25193,1.11301 -3.45436,3.9761 -4.66841,6.06881 -1.02684,1.77005 -1.09547,1.96125 -0.8607,2.39798 0.17109,0.55644 1.26652,0.66345 0.98454,1.24288 -0.10169,0.18831 -0.93964,0.75095 -2.01521,1.35309 -1.50997,0.84538 -1.90143,1.13237 -2.1765,1.59562 -1.93487,2.76493 -4.45815,5.57742 -7.49559,7.14798 -3.06976,1.53797 -3.16895,1.73587 -1.38196,2.75766 2.67314,1.54748 5.1125,3.34396 7.25013,5.58442 4.34861,4.71744 5.3862,5.7412 6.75642,6.66627 -1.48263,1.11244 -4.89481,0.82905 -6.80314,1.02831 -1.93231,0.29993 -3.79571,0.50918 -6.68811,0.75111 -1.4144,0.1183 -2.20786,0.077 -3.07396,-0.15999 -0.64211,-0.17572 -1.21409,-0.29675 -1.27113,-0.26897 -0.057,0.0278 -0.15616,0.22997 -0.22028,0.44934 -0.10709,0.83776 0.61069,1.4914 0.77962,2.2703 -0.23984,0.11685 -1.41669,0.0203 -2.26265,-0.18569 -1.72732,-0.4206 -4.78883,-0.88223 -5.34483,-0.80594 -0.38092,0.0522 -0.61786,0.17139 -0.78202,0.39323 -0.7557,1.04252 -0.47248,3.49944 -0.47248,3.49944 -2.66458,-0.56314 -5.09069,-5.14436 -7.84131,-4.48702 -1.33504,0.49872 -1.86209,3.25882 -1.86209,3.25882 -3.51603,-5.18714 -5.66846,-11.98421 -5.72057,-18.55307 -0.0223,-0.57567 -0.12585,-1.20534 -0.23011,-1.39926 -0.17815,-0.33144 -0.24558,-0.32526 -1.12359,0.10254 -2.33067,0.69926 -7.60598,5.71004 -9.41798,5.60722 -0.37604,-0.0928 -1.13557,-1.02612 -0.92037,-1.13097 l 0,0 z"
     style="fill:#33a02c;fill-opacity:1;display:inline"
     sodipodi:nodetypes="cccsscccsssssssccccccssssccccsccsccccccsssccsscccccscccc" />
  <path
     inkscape:connector-curvature="0"
     id="path3183-6-2"
     d="m 231.17072,177.08039 c 0.0288,0.0101 0.23901,0.17701 0.46693,0.37137 2.16583,0.95836 4.65705,1.28358 6.96092,1.90764 1.30746,0.36481 2.45656,0.64629 2.55353,0.62551 0.1179,-0.0252 0.2762,-0.47518 0.47759,-1.35732 1.21222,-5.30974 1.27772,-5.74751 1.22506,-8.1878 0.082,-1.72045 1.07251,-5.19524 1.07251,-5.19524 0,0 0.62778,1.38582 1.90555,1.49996 0.55468,-0.0828 1.60623,-1.27338 2.72176,-3.08146 0.60123,-0.97445 1.16693,-1.80802 1.25712,-1.85235 0.0998,-0.0491 0.39773,0.32911 0.76116,0.96628 0.57287,1.00431 0.7458,1.1697 1.38066,1.32043 0.56898,0.13507 1.42218,-0.30657 3.10674,-1.60813 0.94393,-0.72932 1.76279,-1.30999 1.8197,-1.29036 0.0569,0.0197 0.15821,0.48914 0.22504,1.04339 0.22804,1.89103 0.4883,2.14377 2.26407,2.19876 3.40446,0.16488 6.80351,0.70198 10.21255,0.74904 0.97214,0.009 1.81841,-0.66025 2.76577,-0.69193 -0.52012,4.29289 -3.49558,8.4944 -6.71776,11.34237 -1.89084,1.42213 -2.053,1.95908 -0.77103,2.55273 1.81498,0.87353 3.28334,2.25662 5.00432,3.28734 1.27172,0.73737 1.57425,0.8661 2.14214,0.91152 1.3142,0.10511 1.32662,0.19153 0.1685,1.17467 -0.78731,0.66839 -1.3367,1.42067 -1.20939,1.65605 0.0332,0.0615 0.33992,0.12594 0.68151,0.14325 0.58136,0.0295 0.7218,0.10688 2.19949,1.21231 2.07039,1.53614 3.60026,3.64155 5.33865,5.52432 1.90418,2.04862 2.99971,3.5315 2.88665,3.90737 -0.79213,0.0444 -1.7039,-0.38002 -2.55696,-0.46373 -1.39349,-0.0819 -4.37815,0.30741 -6.32656,0.82513 -1.648,0.4379 -1.8011,0.51013 -1.9201,0.90579 -0.22704,0.42867 0.35537,1.13718 -0.15221,1.31244 -0.17087,0.051 -0.99615,-0.11118 -1.98467,-0.39014 -1.38781,-0.39159 -1.78758,-0.45315 -2.22264,-0.34226 -2.7692,0.48908 -5.91312,0.65949 -8.62822,-0.20482 -2.71495,-0.90256 -2.89003,-0.84439 -2.43915,0.8106 0.66325,2.48685 1.04204,4.98269 0.98145,7.56234 -0.21731,5.34188 -0.20916,6.55647 0.0532,7.9089 -1.52908,-0.21814 -3.37264,-2.39563 -4.61445,-3.40264 -1.31527,-0.96183 -2.5365,-1.93648 -4.38332,-3.49819 -0.90312,-0.7637 -1.34629,-1.25553 -1.71697,-1.90551 -0.27478,-0.48187 -0.54052,-0.89021 -0.59049,-0.90745 -0.05,-0.0172 -0.22752,0.0435 -0.39455,0.13497 -0.5567,0.43052 -0.51893,1.23859 -0.87835,1.79706 -0.21014,-0.0725 -0.84667,-0.82279 -1.22374,-1.44258 -0.76998,-1.26561 -2.30188,-3.34152 -2.67443,-3.62416 -0.2552,-0.19368 -0.46504,-0.26308 -0.69246,-0.2291 -1.05957,0.169 -2.34035,1.78355 -2.34035,1.78355 -1.2382,-1.90184 0.0316,-6.03067 -1.9764,-7.26408 -1.08049,-0.49277 -3.01734,0.82298 -3.01734,0.82298 0.98465,-5.12807 3.72136,-10.40127 7.56115,-14.30247 0.32605,-0.35234 0.63605,-0.78436 0.68888,-0.96005 0.0903,-0.30026 0.0469,-0.33636 -0.72246,-0.60162 -1.78529,-0.96126 -7.84604,-1.11713 -8.85312,-2.24538 -0.16689,-0.27625 -0.0645,-1.2737 0.12409,-1.20869 l 0,0 z"
     style="fill:#33a02c;fill-opacity:1;display:inline"
     sodipodi:nodetypes="cccsscccsssssssccccccssssccccsccsccccccsssccsscccccscccc" />
  <path
     inkscape:connector-curvature="0"
     id="path3183-9-9"
     d="m 214.47026,270.82263 c 0.0163,-0.014 0.19238,-0.0836 0.39142,-0.1542 1.34892,-0.98477 2.42593,-2.39151 3.61936,-3.57844 0.6838,-0.66986 1.26086,-1.27237 1.28236,-1.33892 0.0261,-0.0809 -0.19281,-0.33621 -0.66054,-0.77023 -2.81525,-2.61247 -3.05951,-2.80682 -4.56837,-3.63507 -1.02179,-0.65668 -2.79459,-2.48677 -2.79459,-2.48677 0,0 1.06767,0.10523 1.58792,-0.63487 0.14496,-0.36795 -0.21133,-1.4299 -0.9222,-2.74868 -0.38312,-0.71074 -0.69273,-1.35012 -0.688,-1.42084 0.005,-0.0782 0.34123,-0.12685 0.85849,-0.12414 0.81533,0.004 0.97731,-0.0431 1.29321,-0.37761 0.2831,-0.29985 0.31422,-0.97663 0.11331,-2.46431 -0.11258,-0.83361 -0.17847,-1.53843 -0.14642,-1.56626 0.0321,-0.0278 0.3545,0.0759 0.71654,0.23047 1.23527,0.52748 1.48138,0.45765 2.14108,-0.60743 1.30107,-2.02096 2.82755,-3.90742 4.05828,-5.97271 0.34823,-0.59055 0.23794,-1.34332 0.55261,-1.93304 2.4383,1.83127 3.95506,5.12978 4.55822,8.10175 0.20181,1.65616 0.47255,1.94453 1.2871,1.37093 1.17341,-0.80042 2.53579,-1.20946 3.77206,-1.89706 0.8987,-0.51665 1.08398,-0.65601 1.31195,-0.98681 0.52757,-0.76554 0.58473,-0.74265 0.77681,0.31125 0.13058,0.71649 0.39629,1.31725 0.58492,1.3225 0.0493,0.002 0.19676,-0.16318 0.32777,-0.36568 0.22301,-0.34467 0.31978,-0.40314 1.51588,-0.91579 1.66813,-0.72277 3.49333,-0.91475 5.25608,-1.31252 1.92249,-0.44058 3.21435,-0.58675 3.40405,-0.3852 -0.25222,0.49942 -0.83285,0.90658 -1.18477,1.39805 -0.54132,0.82213 -1.35596,2.78215 -1.72677,4.15459 -0.31364,1.16083 -0.32351,1.27979 -0.12383,1.49197 0.18173,0.28981 0.81977,0.18394 0.74784,0.5557 -0.0291,0.12235 -0.41913,0.56914 -0.93803,1.07449 -0.72848,0.70948 -0.90703,0.93191 -0.99269,1.23667 -0.67772,1.86361 -1.68216,3.8437 -3.16732,5.19709 -1.50846,1.33979 -1.53465,1.46721 -0.36498,1.77539 1.75258,0.47179 3.41037,1.12046 4.9644,2.06702 3.18568,2.01621 3.93031,2.43949 4.84871,2.75615 -0.67234,0.8569 -2.65216,1.215 -3.70499,1.61832 -1.05115,0.46411 -2.07696,0.86627 -3.68187,1.44348 -0.78483,0.28227 -1.24144,0.3795 -1.76908,0.3767 -0.39118,-0.002 -0.73425,0.0162 -0.76239,0.0406 -0.0281,0.0245 -0.0536,0.15428 -0.0567,0.28855 0.0666,0.49179 0.57345,0.75362 0.78778,1.17003 -0.11836,0.1028 -0.80102,0.22698 -1.31249,0.23872 -1.0444,0.024 -2.85228,0.22757 -3.15624,0.35542 -0.20828,0.0876 -0.32463,0.19125 -0.38408,0.34213 -0.27037,0.70665 0.26405,2.0581 0.26405,2.0581 -1.59804,0.0856 -3.6718,-2.14567 -5.13305,-1.35423 -0.68191,0.4861 -0.56129,2.13287 -0.56129,2.13287 -2.78455,-2.40943 -5.03998,-5.94002 -6.06858,-9.66053 -0.10021,-0.32334 -0.25476,-0.66498 -0.34341,-0.7592 -0.15153,-0.16103 -0.18886,-0.14727 -0.62216,0.2291 -1.2165,0.75133 -3.44865,4.3977 -4.49276,4.61492 -0.22757,0.005 -0.80061,-0.4097 -0.6944,-0.50195 l 0,0 z"
     style="fill:#33a02c;fill-opacity:1;display:inline"
     sodipodi:nodetypes="cccsscccsssssssccccccssssccccsccsccccccsssccsscccccscccc" />
  <path
     style="font-size:medium;font-style:normal;font-variant:normal;font-weight:normal;font-stretch:normal;text-indent:0;text-align:start;text-decoration:none;line-height:normal;letter-spacing:normal;word-spacing:normal;text-transform:none;direction:ltr;block-progression:tb;writing-mode:lr-tb;text-anchor:start;baseline-shift:baseline;color:#000000;fill:#604100;fill-opacity:1;stroke:none;stroke-width:25;marker:none;visibility:visible;display:inline;overflow:visible;enable-background:accumulate;font-family:Sans;-inkscape-font-specification:Sans"
     d="m 215.49578,122.48789 c -3.84363,-0.19654 -7.49507,0.34542 -10.68915,1.26493 -8.51757,2.45203 -14.4936,7.32888 -14.4936,7.32888 -0.80811,0.62828 -1.34893,1.58958 -1.46635,2.60643 -0.11742,1.01685 0.19007,2.07611 0.83372,2.87203 0.64365,0.79592 1.61513,1.31822 2.63404,1.41614 1.01892,0.0979 2.07209,-0.22982 2.85554,-0.88859 0,0 4.94743,-3.9452 11.77062,-5.90945 6.82318,-1.96425 14.77092,-2.17529 22.58529,5.63908 3.21133,3.21133 3.70585,7.71723 2.05672,14.68672 -1.64913,6.96949 -5.59015,15.69293 -10.16773,25.16344 -9.15516,18.94102 -23.31642,40.8694 -23.31642,61.7885 0,20.72861 10.383,36.95345 20.58513,47.35011 5.10106,5.19833 8.78843,10.98679 12.62723,15.03849 3.8388,4.0517 5.39526,5.51438 10.11253,9.46645 0.7164,0.72659 1.73026,1.15076 2.75064,1.15076 1.02037,0 2.03424,-0.42417 2.75063,-1.15076 0.7164,-0.7266 1.12618,-1.74637 1.11175,-2.76664 0,-5.93827 -3.19275,-10.91694 -7.18403,-15.49782 -3.99129,-4.58087 -8.99493,-9.00826 -13.86597,-13.97217 -9.74207,-9.92784 -18.83878,-21.53622 -18.83878,-39.61842 0,-17.8917 10.98526,-39.30345 20.22924,-58.42823 4.62199,-9.56239 8.77978,-18.5553 10.71812,-26.74701 1.93834,-8.19172 1.50779,-16.29781 -4.11344,-21.91904 -6.15671,-6.15671 -13.07969,-8.54626 -19.48573,-8.87383 z"
     id="path9607-1"
     inkscape:connector-curvature="0"
     sodipodi:nodetypes="sscssscsssssszcsscsssssss" />
  <path
     inkscape:connector-curvature="0"
     id="path3183-3-5"
     d="m 206.44641,254.7206 c -0.033,0.0159 -0.35303,0.0526 -0.71134,0.0811 -2.65113,1.02463 -5.04111,2.86266 -7.5257,4.28811 -1.41906,0.79993 -2.63302,1.53617 -2.6977,1.6361 -0.0786,0.12147 0.16888,0.63759 0.74655,1.55707 3.47708,5.5344 3.79298,5.96148 5.90845,7.98757 1.39039,1.52951 3.49848,5.3187 3.49848,5.3187 0,0 -1.70871,-0.64325 -2.88986,0.34418 -0.40038,0.54099 -0.28246,2.44358 0.30521,4.92453 0.31673,1.33707 0.54405,2.52446 0.50513,2.63862 -0.0431,0.12633 -0.61678,0.0582 -1.46587,-0.17407 -1.33837,-0.3661 -1.62549,-0.35969 -2.29211,0.0511 -0.59744,0.36819 -0.9467,1.46699 -1.2717,4.00095 -0.1821,1.41989 -0.38424,2.6075 -0.44919,2.63915 -0.065,0.0316 -0.54931,-0.28084 -1.07635,-0.69445 -1.79822,-1.41118 -2.23353,-1.4048 -3.78709,0.0554 -3.02886,2.74902 -6.36903,5.17766 -9.30178,8.03053 -0.83256,0.81738 -0.98281,2.10337 -1.75983,2.93416 -3.20151,-4.08425 -4.24193,-10.17447 -3.92437,-15.3255 0.39772,-2.81131 0.0797,-3.40458 -1.51193,-2.82047 -2.28141,0.7989 -4.70108,0.87123 -7.03615,1.45699 -1.70486,0.45342 -2.07081,0.6009 -2.59125,1.04426 -1.20443,1.02603 -1.28829,0.96323 -1.13983,-0.85379 0.10093,-1.23528 -0.0712,-2.33986 -0.379,-2.43158 -0.0804,-0.0239 -0.39531,0.18157 -0.69986,0.45674 -0.51839,0.46834 -0.70323,0.52184 -2.8952,0.83771 -3.06043,0.45335 -6.1453,-0.035 -9.21814,-0.15754 -3.35428,-0.12256 -5.54224,-0.45129 -5.76528,-0.86616 0.63456,-0.70985 1.76836,-1.12341 2.56331,-1.77629 1.25195,-1.113 3.45437,-3.9761 4.66843,-6.0688 1.02686,-1.77005 1.09548,-1.96125 0.8607,-2.39798 -0.17108,-0.55644 -1.26653,-0.66346 -0.98454,-1.24287 0.10169,-0.18832 0.93964,-0.75096 2.01521,-1.3531 1.50997,-0.84538 1.90145,-1.13237 2.1765,-1.59563 1.93488,-2.76492 4.45816,-5.57741 7.49559,-7.14797 3.06975,-1.53797 3.16894,-1.73587 1.38195,-2.75766 -2.67311,-1.54748 -5.11249,-3.34396 -7.25011,-5.58442 -4.34862,-4.71744 -5.38622,-5.7412 -6.75643,-6.66627 1.48264,-1.11244 4.89483,-0.82905 6.80314,-1.02832 1.9323,-0.29991 3.79568,-0.50916 6.68811,-0.7511 1.41442,-0.11831 2.20784,-0.077 3.07396,0.16 0.64209,0.17572 1.21411,0.29673 1.27113,0.26896 0.057,-0.0279 0.15616,-0.22998 0.22027,-0.44933 0.10709,-0.83776 -0.61069,-1.49141 -0.7796,-2.27031 0.23983,-0.11685 1.41669,-0.0203 2.26262,0.1857 1.72736,0.42058 4.78885,0.88222 5.34485,0.80592 0.38092,-0.0522 0.61788,-0.17139 0.78202,-0.3932 0.75573,-1.04254 0.47247,-3.49945 0.47247,-3.49945 2.6646,0.56313 5.09069,5.14436 7.84133,4.487 1.33505,-0.49871 1.86209,-3.25882 1.86209,-3.25882 3.51603,5.18714 5.66846,11.98421 5.72054,18.55309 0.0223,0.57565 0.12588,1.20532 0.23014,1.39924 0.17815,0.33144 0.24556,0.32528 1.12359,-0.10254 2.33067,-0.69926 7.60598,-5.71003 9.41798,-5.60721 0.37604,0.0928 1.13557,1.02611 0.92038,1.13096 l 0,0 z"
     style="fill:#33a02c;fill-opacity:1;display:inline"
     sodipodi:nodetypes="cccsscccsssssssccccccssssccccsccsccccccsssccsscccccscccc" />
  <path
     inkscape:connector-curvature="0"
     id="path3183-5-0"
     d="m 183.83793,157.22554 c -0.0112,0.0349 -0.20409,0.29283 -0.42936,0.57292 -1.07487,2.63117 -1.379,5.63083 -2.04807,8.41604 -0.39248,1.581 -0.69047,2.96915 -0.6622,3.08477 0.0344,0.14054 0.57955,0.3149 1.64471,0.52602 6.4113,1.27086 6.93871,1.33431 9.86421,1.18689 2.06665,0.0389 6.26912,1.10721 6.26912,1.10721 0,0 -1.64073,0.80093 -1.73354,2.33766 0.11854,0.6625 1.58297,1.88284 3.79042,3.1586 1.18969,0.68756 2.20915,1.33738 2.26544,1.44405 0.0623,0.11803 -0.38106,0.48846 -1.13285,0.94642 -1.18498,0.7219 -1.3774,0.93505 -1.5363,1.70181 -0.14239,0.68719 0.41684,1.69545 2.03633,3.67127 0.90747,1.10714 1.63228,2.06938 1.61072,2.13834 -0.0216,0.0689 -0.58131,0.20664 -1.24387,0.30595 -2.26058,0.33885 -2.55476,0.65976 -2.55943,2.79185 -0.0803,4.08959 -0.6072,8.1856 -0.54598,12.27658 0.0228,1.16651 0.8548,2.15857 0.92551,3.2939 -5.16763,-0.47574 -10.31038,-3.89996 -13.83798,-7.66692 -1.77125,-2.2191 -2.42095,-2.3951 -3.08883,-0.83678 -0.9852,2.20737 -2.59365,4.0165 -3.77067,6.11656 -0.84063,1.55096 -0.9846,1.91831 -1.01948,2.6011 -0.0807,1.58015 -0.18396,1.59802 -1.40331,0.24273 -0.82895,-0.92138 -1.75034,-1.55446 -2.0283,-1.39362 -0.0726,0.042 -0.13935,0.41208 -0.14831,0.82245 -0.0153,0.69845 -0.10329,0.86958 -1.37834,2.68032 -1.77125,2.53662 -4.24403,4.44456 -6.44256,6.59486 -2.39175,2.35496 -4.13276,3.72028 -4.58755,3.59766 -0.0806,-0.94871 0.39705,-2.05706 0.46802,-3.0833 0.0501,-1.6744 -0.51991,-5.24134 -1.20822,-7.56073 -0.58219,-1.96178 -0.67411,-2.14294 -1.15285,-2.27202 -0.52207,-0.25757 -1.35188,0.46552 -1.57963,-0.13728 -0.0671,-0.20322 0.099,-1.19878 0.39948,-2.39424 0.42184,-1.67832 0.48188,-2.15999 0.33384,-2.678 -0.68228,-3.30501 -0.99523,-7.07052 -0.0522,-10.35736 0.98896,-3.28796 0.91315,-3.49593 -1.05657,-2.89795 -2.96029,0.88146 -5.94117,1.42204 -9.03775,1.43841 -6.41552,-0.0763 -7.87223,-0.0246 -9.48552,0.33675 0.20888,-1.84177 2.75732,-4.12842 3.92243,-5.65285 1.10839,-1.61097 2.23539,-3.10958 4.04504,-5.3789 0.88494,-1.10972 1.45963,-1.65831 2.22653,-2.12542 0.56856,-0.34627 1.04923,-0.67915 1.06818,-0.73968 0.019,-0.0606 -0.06,-0.27141 -0.17553,-0.46862 -0.53566,-0.65297 -1.5037,-0.57974 -2.18604,-0.99162 0.0798,-0.25457 0.95778,-1.04408 1.68826,-1.5178 1.49162,-0.96733 3.92894,-2.87663 4.25514,-3.33328 0.22353,-0.31284 0.29952,-0.56695 0.25092,-0.83859 -0.23931,-1.2652 -2.22031,-2.74584 -2.22031,-2.74584 2.23867,-1.551 7.23537,-0.17025 8.64561,-2.62164 0.55382,-1.31314 -1.09139,-3.59112 -1.09139,-3.59112 6.18552,1.00413 12.60562,4.105 17.41798,8.57646 0.43391,0.37895 0.96286,0.7359 1.17544,0.79322 0.3633,0.0979 0.4051,0.0447 0.69675,-0.88743 1.09147,-2.17477 1.06922,-9.45051 2.38787,-10.69752 0.32563,-0.20975 1.52569,-0.12135 1.45421,0.10712 l 0,0 z"
     style="fill:#33a02c;fill-opacity:1;display:inline"
     sodipodi:nodetypes="cccsscccsssssssccccccssssccccsccsccccccsssccsscccccscccc"
     inkscape:transform-center-y="-97.985014"
     inkscape:transform-center-x="-35.37315" />
  <path
     style="fill:#e20909;fill-opacity:1;stroke:none"
     d="m 182.26605,127.88067 c -4.48584,0 -8.13308,3.59701 -8.21722,8.06273 -1.16442,-0.63255 -2.50202,-0.98491 -3.92032,-0.98491 -4.53859,0 -8.21723,3.67864 -8.21723,8.21723 0,3.84666 2.64941,7.07091 6.21844,7.96616 -0.23076,0.75815 -0.35727,1.56109 -0.35727,2.39468 0,4.27485 3.26328,7.78482 7.43509,8.1786 0.005,0.85173 0.14091,1.67134 0.38624,2.44296 -1.52755,1.4922 -2.48158,3.57636 -2.48158,5.88048 0,2.49421 1.11349,4.73063 2.86782,6.23775 -0.92418,1.32918 -1.46771,2.94157 -1.46771,4.68315 0,3.30327 1.94963,6.14874 4.76039,7.4544 -0.0755,0.44762 -0.11587,0.9117 -0.11587,1.3808 0,4.53859 3.67864,8.21723 8.21723,8.21723 2.47473,0 4.69252,-1.09856 6.19912,-2.8292 4.13936,-0.42519 7.3675,-3.92691 7.3675,-8.1786 0,-3.81864 -2.60198,-7.02445 -6.13153,-7.94686 0.60409,-0.71355 1.09494,-1.52251 1.42908,-2.41399 3.62793,-0.85353 6.33431,-4.11636 6.33431,-8.00479 0,-3.35407 -2.01494,-6.23503 -4.89557,-7.51234 0.5562,-0.61812 1.01194,-1.32932 1.36149,-2.09534 0.7945,0.25584 1.64063,0.39589 2.5202,0.39589 4.53859,0 8.21723,-3.67864 8.21723,-8.21722 0,-4.53859 -3.67864,-8.21723 -8.21723,-8.21723 -0.86156,0 -1.69158,0.13071 -2.47192,0.37658 0.14727,-0.61564 0.23174,-1.26076 0.23174,-1.92153 0,-4.53859 -3.68829,-8.21723 -8.22688,-8.21723 -0.37491,0 -0.73919,0.0286 -1.10078,0.0772 -1.14419,-3.16174 -4.16818,-5.42665 -7.72477,-5.42665 z"
     id="path9468-3"
     inkscape:connector-curvature="0" />
  <path
     style="fill:#e20909;fill-opacity:1;stroke:none"
     d="m 235.73291,174.31314 c -4.48584,0 -8.13308,3.59701 -8.21723,8.06273 -1.16441,-0.63254 -2.50201,-0.9849 -3.92032,-0.9849 -4.53858,0 -8.21722,3.67863 -8.21722,8.21722 0,3.84666 2.6494,7.07091 6.21844,7.96617 -0.23076,0.75814 -0.35727,1.56108 -0.35727,2.39468 0,4.27485 3.26327,7.78481 7.43509,8.1786 0.005,0.85173 0.14091,1.67134 0.38624,2.44296 -1.52756,1.49219 -2.48158,3.57636 -2.48158,5.88048 0,2.4942 1.11349,4.73063 2.86782,6.23775 -0.92419,1.32918 -1.46771,2.94156 -1.46771,4.68314 0,3.30328 1.94962,6.14874 4.76039,7.4544 -0.0755,0.44763 -0.11587,0.91171 -0.11587,1.38081 0,4.53858 3.67864,8.21722 8.21722,8.21722 2.47473,0 4.69252,-1.09855 6.19913,-2.8292 4.13936,-0.42519 7.36752,-3.92691 7.36752,-8.1786 0,-3.81864 -2.60199,-7.02445 -6.13156,-7.94685 0.60411,-0.71356 1.09494,-1.52252 1.42909,-2.41399 3.62793,-0.85353 6.33432,-4.11636 6.33432,-8.0048 0,-3.35407 -2.01493,-6.23502 -4.89557,-7.51234 0.55618,-0.61812 1.01191,-1.32932 1.36147,-2.09534 0.79452,0.25584 1.64066,0.39589 2.52024,0.39589 4.53858,0 8.2172,-3.67863 8.2172,-8.21722 0,-4.53859 -3.67862,-8.21722 -8.2172,-8.21722 -0.86159,0 -1.69161,0.1307 -2.47194,0.37658 0.14727,-0.61565 0.23175,-1.26076 0.23175,-1.92154 0,-4.53858 -3.68831,-8.21722 -8.22689,-8.21722 -0.37493,0 -0.7392,0.0286 -1.10078,0.0772 -1.1442,-3.16174 -4.1682,-5.42666 -7.72478,-5.42666 z"
     id="path9468-9-6"
     inkscape:connector-curvature="0" />
  <path
     style="fill:#e20909;fill-opacity:1;stroke:none"
     d="m 185.22312,214.22199 c -4.48584,0 -8.13307,3.59701 -8.21722,8.06273 -1.16441,-0.63254 -2.50201,-0.9849 -3.92032,-0.9849 -4.53859,0 -8.21722,3.67863 -8.21722,8.21722 0,3.84666 2.6494,7.07091 6.21844,7.96617 -0.23077,0.75814 -0.35728,1.56108 -0.35728,2.39468 0,4.27485 3.26328,7.78481 7.4351,8.1786 0.005,0.85173 0.1409,1.67134 0.38623,2.44296 -1.52755,1.49219 -2.48158,3.57636 -2.48158,5.88048 0,2.4942 1.11349,4.73063 2.86782,6.23775 -0.92418,1.32918 -1.4677,2.94156 -1.4677,4.68314 0,3.30328 1.94962,6.14874 4.76039,7.4544 -0.0755,0.44763 -0.11588,0.91171 -0.11588,1.38081 0,4.53858 3.67864,8.21722 8.21723,8.21722 2.47474,0 4.69253,-1.09855 6.19913,-2.8292 4.13936,-0.42519 7.3675,-3.92691 7.3675,-8.1786 0,-3.81864 -2.60199,-7.02445 -6.13154,-7.94685 0.60409,-0.71356 1.09495,-1.52252 1.42908,-2.41399 3.62793,-0.85353 6.33431,-4.11636 6.33431,-8.0048 0,-3.35407 -2.01493,-6.23502 -4.89557,-7.51234 0.5562,-0.61812 1.01194,-1.32932 1.36149,-2.09534 0.7945,0.25584 1.64063,0.39589 2.52021,0.39589 4.53858,0 8.21722,-3.67863 8.21722,-8.21722 0,-4.53859 -3.67864,-8.21722 -8.21722,-8.21722 -0.86157,0 -1.69159,0.1307 -2.47193,0.37658 0.14728,-0.61565 0.23174,-1.26076 0.23174,-1.92154 0,-4.53858 -3.68829,-8.21722 -8.22688,-8.21722 -0.3749,0 -0.73919,0.0286 -1.10078,0.0772 -1.14419,-3.16174 -4.16817,-5.42666 -7.72477,-5.42666 z"
     id="path9468-6-4"
     inkscape:connector-curvature="0" />
  <rect
     style="fill:#000000;fill-opacity:1;stroke:none"
     id="rect9651-2"
     width="8.2178402"
     height="195.25589"
     x="323.41675"
     y="232.05109"
     rx="5"
     ry="5" />
  <path
     inkscape:connector-curvature="0"
     id="path3183-93"
     d="m 306.67214,245.54818 c -0.0365,-0.003 -0.33205,-0.13095 -0.65659,-0.28545 -2.80827,-0.43822 -5.79708,-0.0414 -8.66151,-0.0492 -1.62891,-0.0168 -3.04835,0.0138 -3.15432,0.068 -0.1288,0.0659 -0.17256,0.63661 -0.13201,1.72174 0.24403,6.53147 0.30408,7.05928 1.12309,9.87167 0.43935,2.01978 0.37042,6.35536 0.37042,6.35536 0,0 -1.15817,-1.41143 -2.67479,-1.14686 -0.61723,0.26832 -1.4664,1.97498 -2.19793,4.41737 -0.39424,1.31631 -0.79109,2.45828 -0.88187,2.53768 -0.10045,0.0879 -0.56326,-0.25797 -1.18245,-0.88368 -0.97602,-0.98624 -1.22785,-1.12425 -2.01057,-1.10178 -0.70151,0.0202 -1.55337,0.7971 -3.10181,2.82908 -0.86765,1.1386 -1.63651,2.06604 -1.70858,2.06097 -0.072,-0.005 -0.3353,-0.51787 -0.58493,-1.13959 -0.85171,-2.12122 -1.23189,-2.33335 -3.30743,-1.84554 -3.99758,0.86629 -8.10457,1.29947 -12.07084,2.30375 -1.1297,0.29159 -1.90283,1.33017 -2.99114,1.66115 -0.73046,-5.13782 1.41362,-10.93231 4.26415,-15.23446 1.75009,-2.23581 1.7713,-2.9086 0.10087,-3.19857 -2.37522,-0.44884 -4.50688,-1.59603 -6.82198,-2.25628 -1.70317,-0.45975 -2.09384,-0.51501 -2.76623,-0.39127 -1.55607,0.28636 -1.5973,0.19004 -0.56022,-1.30932 0.70505,-1.01932 1.10824,-2.06199 0.88756,-2.29531 -0.0576,-0.0609 -0.43313,-0.0404 -0.83446,0.0456 -0.68312,0.14641 -0.86993,0.10032 -2.92617,-0.72212 -2.8771,-1.1376 -5.30449,-3.10296 -7.90437,-4.7455 -2.84362,-1.78329 -4.57409,-3.16195 -4.55981,-3.63276 0.90448,-0.29747 2.09315,-0.0887 3.10804,-0.25665 1.64072,-0.33792 4.97962,-1.71622 7.07738,-2.92153 1.77431,-1.01948 1.92934,-1.15075 1.94438,-1.64636 0.13006,-0.56743 -0.76512,-1.20783 -0.23121,-1.56863 0.18223,-0.11224 1.18924,-0.18052 2.42178,-0.16421 1.73037,0.0229 2.21289,-0.0299 2.68271,-0.2936 3.05813,-1.42706 6.64959,-2.6011 10.06537,-2.44254 3.42746,0.20297 3.61231,0.0812 2.57563,-1.69722 -1.54124,-2.67672 -2.75557,-5.4522 -3.48658,-8.46131 -1.40729,-6.25973 -1.79399,-7.66513 -2.5181,-9.15137 1.84023,-0.22208 4.65358,1.72943 6.40585,2.51102 1.82339,0.70642 3.54175,1.4569 6.16763,2.69358 1.28408,0.60476 1.95055,1.03723 2.58213,1.67554 0.46821,0.47323 0.90308,0.86404 0.96635,0.8685 0.0633,0.004 0.25022,-0.12109 0.41543,-0.279 0.51162,-0.67197 0.21682,-1.59694 0.45999,-2.35595 0.26613,0.0187 1.23704,0.69079 1.86664,1.29213 1.28564,1.22792 3.70616,3.15846 4.2258,3.37038 0.35601,0.14525 0.6208,0.16051 0.87388,0.0505 1.17573,-0.525 2.15889,-2.79437 2.15889,-2.79437 2.02604,1.81998 1.83648,7.00049 4.54728,7.80652 1.40554,0.23562 3.24202,-1.89118 3.24202,-1.89118 0.45141,6.25022 -1.08308,13.21286 -4.32239,18.92772 -0.26851,0.5097 -0.49365,1.10678 -0.50034,1.32685 -0.0114,0.37611 0.05,0.40448 1.02435,0.47299 2.36803,0.55976 9.44197,-1.14204 10.95979,-0.147 0.27928,0.26839 0.47039,1.45643 0.23159,1.43964 l 0,0 z"
     style="fill:#33a02c;fill-opacity:1;display:inline"
     sodipodi:nodetypes="cccsscccsssssssccccccssssccccsccsccccccsssccsscccccscccc" />
  <path
     inkscape:connector-curvature="0"
     id="path3183-7-4"
     d="m 345.77367,253.67614 c 0.033,-0.0159 0.35303,-0.0526 0.71134,-0.0811 2.65116,-1.02465 5.04114,-2.86268 7.52573,-4.28813 1.41906,-0.79992 2.63302,-1.53616 2.69768,-1.63609 0.0786,-0.12148 -0.16886,-0.6376 -0.74653,-1.55708 -3.47708,-5.5344 -3.79298,-5.96148 -5.90846,-7.98757 -1.39038,-1.52951 -3.4985,-5.31868 -3.4985,-5.31868 0,0 1.70874,0.64324 2.88989,-0.34419 0.40038,-0.541 0.28246,-2.44359 -0.30524,-4.92452 -0.31673,-1.33708 -0.54402,-2.52448 -0.5051,-2.63864 0.0431,-0.12632 0.61678,-0.0582 1.46587,0.17407 1.33837,0.3661 1.62546,0.35971 2.2921,-0.0511 0.59744,-0.3682 0.94669,-1.46699 1.2717,-4.00096 0.1821,-1.41988 0.38424,-2.60749 0.4492,-2.63915 0.0649,-0.0316 0.5493,0.28085 1.07635,0.69446 1.79821,1.41118 2.23352,1.4048 3.78707,-0.0554 3.02887,-2.74903 6.36904,-5.17767 9.30178,-8.03054 0.83257,-0.81738 0.98284,-2.10337 1.75986,-2.93416 3.20148,4.08425 4.24191,10.17447 3.92433,15.3255 -0.3977,2.81131 -0.0797,3.40458 1.51196,2.82047 2.2814,-0.7989 4.70108,-0.87123 7.03612,-1.45699 1.70489,-0.45342 2.07083,-0.6009 2.59126,-1.04426 1.20444,-1.02603 1.2883,-0.96323 1.13983,0.85379 -0.10091,1.23528 0.0713,2.33986 0.37901,2.43158 0.0804,0.024 0.39529,-0.18157 0.69987,-0.45674 0.51839,-0.46835 0.70323,-0.52184 2.89518,-0.83771 3.06043,-0.45335 6.1453,0.035 9.21815,0.15754 3.35428,0.12256 5.54225,0.45129 5.76528,0.86616 -0.63458,0.70985 -1.76836,1.12341 -2.56333,1.77628 -1.25194,1.11301 -3.45436,3.9761 -4.66842,6.06881 -1.02684,1.77005 -1.09546,1.96125 -0.86069,2.39798 0.17109,0.55644 1.26652,0.66345 0.98454,1.24288 -0.10169,0.18831 -0.93965,0.75095 -2.01521,1.35309 -1.50998,0.84538 -1.90144,1.13237 -2.1765,1.59562 -1.93487,2.76493 -4.45815,5.57742 -7.49559,7.14798 -3.06977,1.53797 -3.16895,1.73587 -1.38196,2.75766 2.67314,1.54748 5.1125,3.34396 7.25012,5.58442 4.34862,4.71744 5.38621,5.7412 6.75643,6.66627 -1.48263,1.11244 -4.89482,0.82905 -6.80314,1.02831 -1.93231,0.29993 -3.79571,0.50918 -6.68811,0.75111 -1.41441,0.1183 -2.20786,0.077 -3.07396,-0.15999 -0.64212,-0.17572 -1.21409,-0.29675 -1.27113,-0.26897 -0.057,0.0278 -0.15617,0.22997 -0.22028,0.44934 -0.1071,0.83776 0.61069,1.4914 0.77961,2.2703 -0.23983,0.11685 -1.41669,0.0203 -2.26264,-0.18569 -1.72732,-0.4206 -4.78884,-0.88223 -5.34483,-0.80594 -0.38093,0.0522 -0.61786,0.17139 -0.78203,0.39323 -0.7557,1.04252 -0.47248,3.49944 -0.47248,3.49944 -2.66458,-0.56314 -5.09068,-5.14436 -7.8413,-4.48702 -1.33505,0.49872 -1.86209,3.25882 -1.86209,3.25882 -3.51604,-5.18714 -5.66846,-11.98421 -5.72057,-18.55307 -0.0223,-0.57567 -0.12585,-1.20534 -0.23011,-1.39926 -0.17815,-0.33144 -0.24559,-0.32526 -1.12359,0.10254 -2.33067,0.69926 -7.60598,5.71004 -9.41798,5.60722 -0.37605,-0.0928 -1.13557,-1.02612 -0.92038,-1.13097 l 0,0 z"
     style="fill:#33a02c;fill-opacity:1;display:inline"
     sodipodi:nodetypes="cccsscccsssssssccccccssssccccsccsccccccsssccsscccccscccc" />
  <path
     inkscape:connector-curvature="0"
     id="path3183-6-4"
     d="m 343.98666,292.92556 c 0.0288,0.0101 0.23901,0.17701 0.46692,0.37137 2.16583,0.95836 4.65706,1.28358 6.96092,1.90764 1.30747,0.36481 2.45657,0.64629 2.55354,0.62551 0.11789,-0.0252 0.27619,-0.47518 0.47759,-1.35732 1.21221,-5.30974 1.27772,-5.74751 1.22505,-8.1878 0.082,-1.72045 1.07251,-5.19524 1.07251,-5.19524 0,0 0.62779,1.38582 1.90556,1.49996 0.55467,-0.0829 1.60623,-1.27338 2.72176,-3.08146 0.60123,-0.97445 1.16693,-1.80802 1.25712,-1.85235 0.0998,-0.0491 0.39772,0.32911 0.76115,0.96628 0.57288,1.00431 0.74581,1.1697 1.38067,1.32043 0.56897,0.13507 1.42218,-0.30657 3.10673,-1.60813 0.94394,-0.72932 1.76279,-1.30999 1.81971,-1.29036 0.0569,0.0197 0.1582,0.48914 0.22504,1.04339 0.22803,1.89103 0.4883,2.14377 2.26407,2.19876 3.40446,0.16488 6.80351,0.70198 10.21254,0.74904 0.97215,0.009 1.81841,-0.66025 2.76578,-0.69193 -0.52012,4.29289 -3.49558,8.4944 -6.71777,11.34237 -1.89084,1.42213 -2.053,1.95908 -0.77102,2.55273 1.81498,0.87353 3.28333,2.25662 5.00432,3.28734 1.27171,0.73737 1.57425,0.8661 2.14214,0.91152 1.3142,0.10511 1.32662,0.19153 0.16849,1.17467 -0.78731,0.66839 -1.33669,1.42067 -1.20939,1.65605 0.0332,0.0615 0.33992,0.12594 0.68151,0.14325 0.58137,0.0295 0.7218,0.10688 2.19949,1.21231 2.07039,1.53614 3.60027,3.64155 5.33865,5.52432 1.90419,2.04862 2.99972,3.5315 2.88666,3.90737 -0.79213,0.0444 -1.7039,-0.38002 -2.55696,-0.46373 -1.39349,-0.0819 -4.37816,0.30741 -6.32656,0.82513 -1.648,0.4379 -1.80111,0.51013 -1.9201,0.90579 -0.22705,0.42867 0.35537,1.13718 -0.15221,1.31244 -0.17087,0.051 -0.99615,-0.11118 -1.98468,-0.39014 -1.3878,-0.39159 -1.78757,-0.45315 -2.22263,-0.34226 -2.76921,0.48908 -5.91313,0.65949 -8.62823,-0.20482 -2.71495,-0.90256 -2.89002,-0.84439 -2.43914,0.8106 0.66325,2.48685 1.04204,4.98269 0.98145,7.56234 -0.21732,5.34188 -0.20916,6.55647 0.0531,7.9089 -1.52907,-0.21814 -3.37263,-2.39563 -4.61444,-3.40264 -1.31527,-0.96183 -2.5365,-1.93648 -4.38333,-3.49819 -0.90311,-0.7637 -1.34628,-1.25553 -1.71697,-1.90551 -0.27477,-0.48187 -0.54051,-0.89021 -0.59048,-0.90745 -0.05,-0.0172 -0.22752,0.0435 -0.39456,0.13497 -0.5567,0.43052 -0.51892,1.23859 -0.87834,1.79706 -0.21015,-0.0725 -0.84668,-0.82279 -1.22374,-1.44258 -0.76998,-1.26561 -2.30189,-3.34152 -2.67443,-3.62416 -0.2552,-0.19368 -0.46505,-0.26308 -0.69247,-0.2291 -1.05956,0.169 -2.34034,1.78355 -2.34034,1.78355 -1.23821,-1.90184 0.0317,-6.03067 -1.97641,-7.26408 -1.08048,-0.49277 -3.01733,0.82298 -3.01733,0.82298 0.98464,-5.12807 3.72135,-10.40127 7.56115,-14.30247 0.32604,-0.35234 0.63604,-0.78436 0.68888,-0.96005 0.0903,-0.30026 0.0469,-0.33636 -0.72247,-0.60162 -1.78528,-0.96126 -7.84603,-1.11713 -8.85311,-2.24538 -0.1669,-0.27625 -0.0645,-1.2737 0.12408,-1.20869 l 0,0 z"
     style="fill:#33a02c;fill-opacity:1;display:inline"
     sodipodi:nodetypes="cccsscccsssssssccccccssssccccsccsccccccsssccsscccccscccc" />
  <path
     inkscape:connector-curvature="0"
     id="path3183-9-0"
     d="m 327.2862,386.6678 c 0.0163,-0.014 0.19237,-0.0836 0.39142,-0.1542 1.34892,-0.98477 2.42593,-2.39151 3.61935,-3.57844 0.6838,-0.66986 1.26086,-1.27237 1.28236,-1.33892 0.0261,-0.0809 -0.19281,-0.33621 -0.66053,-0.77023 -2.81525,-2.61247 -3.05951,-2.80682 -4.56837,-3.63507 -1.02179,-0.65668 -2.7946,-2.48677 -2.7946,-2.48677 0,0 1.06768,0.10523 1.58792,-0.63487 0.14497,-0.36795 -0.21132,-1.4299 -0.92219,-2.74868 -0.38313,-0.71074 -0.69273,-1.35012 -0.688,-1.42084 0.005,-0.0783 0.34122,-0.12685 0.85848,-0.12414 0.81534,0.004 0.97731,-0.043 1.29321,-0.37761 0.28311,-0.29985 0.31423,-0.97663 0.11332,-2.46431 -0.11258,-0.83361 -0.17847,-1.53843 -0.14643,-1.56626 0.0321,-0.0278 0.3545,0.0759 0.71654,0.23047 1.23528,0.52748 1.48139,0.45765 2.14109,-0.60743 1.30107,-2.02096 2.82755,-3.90742 4.05827,-5.97271 0.34824,-0.59055 0.23794,-1.34332 0.55262,-1.93304 2.43829,1.83127 3.95506,5.12978 4.55821,8.10175 0.20182,1.65616 0.47255,1.94453 1.28711,1.37093 1.17341,-0.80042 2.53578,-1.20946 3.77205,-1.89706 0.89871,-0.51665 1.08399,-0.65601 1.31196,-0.98681 0.52757,-0.76554 0.58472,-0.74265 0.7768,0.31125 0.13059,0.71649 0.39629,1.31725 0.58493,1.3225 0.0492,0.002 0.19675,-0.16318 0.32777,-0.36568 0.223,-0.34467 0.31977,-0.40314 1.51588,-0.91579 1.66812,-0.72277 3.49333,-0.91475 5.25607,-1.31252 1.9225,-0.44058 3.21435,-0.58675 3.40405,-0.3852 -0.25221,0.49942 -0.83285,0.90658 -1.18477,1.39805 -0.54131,0.82213 -1.35595,2.78215 -1.72677,4.15459 -0.31363,1.16083 -0.32351,1.27979 -0.12383,1.49197 0.18173,0.28981 0.81978,0.18394 0.74785,0.5557 -0.0291,0.12235 -0.41913,0.56914 -0.93803,1.07449 -0.72848,0.70948 -0.90703,0.93191 -0.99269,1.23667 -0.67772,1.86361 -1.68217,3.8437 -3.16732,5.19709 -1.50846,1.33979 -1.53466,1.46721 -0.36498,1.77539 1.75258,0.47179 3.41036,1.12046 4.96439,2.06702 3.18569,2.01621 3.93031,2.43949 4.84872,2.75615 -0.67235,0.8569 -2.65217,1.215 -3.705,1.61832 -1.05114,0.46411 -2.07696,0.86627 -3.68186,1.44348 -0.78484,0.28227 -1.24145,0.3795 -1.76909,0.3767 -0.39117,-0.002 -0.73425,0.0162 -0.76238,0.0406 -0.0281,0.0245 -0.0537,0.15428 -0.0567,0.28855 0.0666,0.49179 0.57344,0.75362 0.78777,1.17003 -0.11836,0.1028 -0.80102,0.22698 -1.31248,0.23872 -1.0444,0.024 -2.85228,0.22757 -3.15624,0.35542 -0.20828,0.0876 -0.32463,0.19125 -0.38408,0.34213 -0.27037,0.70665 0.26405,2.0581 0.26405,2.0581 -1.59805,0.0856 -3.67181,-2.14567 -5.13306,-1.35423 -0.68191,0.4861 -0.56128,2.13287 -0.56128,2.13287 -2.78456,-2.40943 -5.03998,-5.94002 -6.06858,-9.66053 -0.10021,-0.32334 -0.25476,-0.66498 -0.34341,-0.7592 -0.15153,-0.16103 -0.18887,-0.14727 -0.62216,0.2291 -1.21651,0.75133 -3.44866,4.3977 -4.49277,4.61492 -0.22756,0.005 -0.8006,-0.4097 -0.6944,-0.50195 l 0,0 z"
     style="fill:#33a02c;fill-opacity:1;display:inline"
     sodipodi:nodetypes="cccsscccsssssssccccccssssccccsccsccccccsssccsscccccscccc" />
  <path
     style="font-size:medium;font-style:normal;font-variant:normal;font-weight:normal;font-stretch:normal;text-indent:0;text-align:start;text-decoration:none;line-height:normal;letter-spacing:normal;word-spacing:normal;text-transform:none;direction:ltr;block-progression:tb;writing-mode:lr-tb;text-anchor:start;baseline-shift:baseline;color:#000000;fill:#604100;fill-opacity:1;stroke:none;stroke-width:25;marker:none;visibility:visible;display:inline;overflow:visible;enable-background:accumulate;font-family:Sans;-inkscape-font-specification:Sans"
     d="m 328.31171,238.33306 c -3.84362,-0.19654 -7.49506,0.34542 -10.68915,1.26493 -8.51757,2.45203 -14.4936,7.32888 -14.4936,7.32888 -0.8081,0.62828 -1.34892,1.58958 -1.46634,2.60643 -0.11742,1.01685 0.19007,2.07611 0.83372,2.87203 0.64364,0.79592 1.61513,1.31822 2.63404,1.41614 1.01891,0.0979 2.07209,-0.22982 2.85553,-0.88859 0,0 4.94744,-3.9452 11.77062,-5.90945 6.82319,-1.96425 14.77092,-2.17529 22.5853,5.63908 3.21133,3.21133 3.70585,7.71723 2.05672,14.68672 -1.64914,6.96949 -5.59015,15.69293 -10.16773,25.16344 -9.15516,18.94102 -23.31642,40.8694 -23.31642,61.7885 0,20.72861 10.383,36.95345 20.58513,47.35011 5.10106,5.19833 8.78843,10.98679 12.62723,15.03849 3.8388,4.0517 5.39526,5.51438 10.11253,9.46645 0.71639,0.72659 1.73026,1.15076 2.75063,1.15076 1.02038,0 2.03424,-0.42417 2.75064,-1.15076 0.71639,-0.7266 1.12618,-1.74637 1.11175,-2.76664 0,-5.93827 -3.19276,-10.91694 -7.18404,-15.49782 -3.99128,-4.58087 -8.99492,-9.00826 -13.86596,-13.97217 -9.74208,-9.92784 -18.83878,-21.53622 -18.83878,-39.61842 0,-17.8917 10.98526,-39.30345 20.22924,-58.42823 4.62199,-9.56239 8.77978,-18.5553 10.71812,-26.74701 1.93833,-8.19172 1.50778,-16.29781 -4.11344,-21.91904 -6.15671,-6.15671 -13.07969,-8.54626 -19.48574,-8.87383 z"
     id="path9607-5"
     inkscape:connector-curvature="0"
     sodipodi:nodetypes="sscssscsssssszcsscsssssss" />
  <path
     inkscape:connector-curvature="0"
     id="path3183-3-9"
     d="m 319.26235,370.56577 c -0.033,0.0159 -0.35303,0.0526 -0.71134,0.0811 -2.65113,1.02463 -5.04112,2.86266 -7.5257,4.28811 -1.41906,0.79993 -2.63303,1.53617 -2.69771,1.6361 -0.0786,0.12147 0.16888,0.63759 0.74655,1.55707 3.47709,5.5344 3.79298,5.96148 5.90846,7.98757 1.39039,1.52951 3.49848,5.3187 3.49848,5.3187 0,0 -1.70871,-0.64325 -2.88986,0.34418 -0.40039,0.54099 -0.28246,2.44358 0.30521,4.92453 0.31673,1.33707 0.54404,2.52446 0.50512,2.63862 -0.0431,0.12633 -0.61677,0.0582 -1.46586,-0.17407 -1.33838,-0.3661 -1.62549,-0.35969 -2.29211,0.0511 -0.59745,0.36819 -0.9467,1.46699 -1.2717,4.00095 -0.18211,1.41989 -0.38424,2.6075 -0.44919,2.63915 -0.065,0.0316 -0.54931,-0.28084 -1.07636,-0.69445 -1.79822,-1.41118 -2.23352,-1.4048 -3.78709,0.0554 -3.02886,2.74902 -6.36902,5.17766 -9.30178,8.03053 -0.83255,0.81738 -0.98281,2.10337 -1.75983,2.93416 -3.2015,-4.08425 -4.24192,-10.17447 -3.92436,-15.3255 0.39771,-2.81131 0.0797,-3.40458 -1.51193,-2.82047 -2.28142,0.7989 -4.70109,0.87123 -7.03615,1.45699 -1.70486,0.45342 -2.07082,0.6009 -2.59126,1.04426 -1.20442,1.02603 -1.28828,0.96323 -1.13982,-0.85379 0.10092,-1.23528 -0.0712,-2.33986 -0.379,-2.43158 -0.0804,-0.024 -0.39531,0.18157 -0.69987,0.45674 -0.51839,0.46834 -0.70322,0.52184 -2.8952,0.83771 -3.06043,0.45335 -6.14529,-0.035 -9.21813,-0.15754 -3.35429,-0.12256 -5.54225,-0.45129 -5.76529,-0.86616 0.63457,-0.70985 1.76836,-1.12341 2.56332,-1.77629 1.25194,-1.113 3.45437,-3.9761 4.66842,-6.0688 1.02686,-1.77005 1.09549,-1.96125 0.8607,-2.39798 -0.17107,-0.55644 -1.26653,-0.66346 -0.98454,-1.24287 0.10169,-0.18832 0.93965,-0.75096 2.01521,-1.3531 1.50998,-0.84538 1.90145,-1.13237 2.1765,-1.59563 1.93489,-2.76492 4.45816,-5.57741 7.4956,-7.14797 3.06975,-1.53797 3.16893,-1.73587 1.38195,-2.75766 -2.67312,-1.54748 -5.1125,-3.34396 -7.25012,-5.58442 -4.34861,-4.71744 -5.38621,-5.7412 -6.75643,-6.66627 1.48265,-1.11244 4.89483,-0.82905 6.80314,-1.02832 1.93231,-0.29991 3.79569,-0.50916 6.68812,-0.7511 1.41442,-0.11831 2.20784,-0.077 3.07395,0.16 0.6421,0.17572 1.21411,0.29673 1.27114,0.26896 0.057,-0.0279 0.15615,-0.22998 0.22027,-0.44933 0.10709,-0.83776 -0.61069,-1.49141 -0.77961,-2.27031 0.23984,-0.11685 1.4167,-0.0203 2.26262,0.1857 1.72736,0.42058 4.78886,0.88222 5.34486,0.80592 0.38092,-0.0522 0.61788,-0.17139 0.78202,-0.3932 0.75572,-1.04254 0.47247,-3.49945 0.47247,-3.49945 2.6646,0.56313 5.09068,5.14436 7.84133,4.487 1.33504,-0.49871 1.86209,-3.25882 1.86209,-3.25882 3.51603,5.18714 5.66845,11.98421 5.72054,18.55309 0.0223,0.57565 0.12588,1.20532 0.23013,1.39924 0.17816,0.33144 0.24557,0.32528 1.1236,-0.10254 2.33067,-0.69926 7.60598,-5.71003 9.41797,-5.60721 0.37605,0.0928 1.13558,1.02611 0.92038,1.13096 l 0,0 z"
     style="fill:#33a02c;fill-opacity:1;display:inline"
     sodipodi:nodetypes="cccsscccsssssssccccccssssccccsccsccccccsssccsscccccscccc" />
  <path
     inkscape:connector-curvature="0"
     id="path3183-5-6"
     d="m 296.65387,273.07071 c -0.0112,0.0349 -0.20409,0.29283 -0.42936,0.57292 -1.07488,2.63117 -1.379,5.63083 -2.04808,8.41604 -0.39248,1.581 -0.69047,2.96915 -0.66219,3.08477 0.0344,0.14054 0.57955,0.3149 1.64471,0.52602 6.41129,1.27086 6.9387,1.33431 9.8642,1.18689 2.06666,0.0389 6.26913,1.10721 6.26913,1.10721 0,0 -1.64073,0.80093 -1.73355,2.33766 0.11854,0.6625 1.58297,1.88284 3.79043,3.1586 1.18969,0.68756 2.20914,1.33738 2.26544,1.44405 0.0623,0.11803 -0.38107,0.48846 -1.13285,0.94642 -1.18498,0.7219 -1.37741,0.93505 -1.5363,1.70181 -0.14239,0.68719 0.41684,1.69545 2.03632,3.67127 0.90747,1.10714 1.63229,2.06938 1.61072,2.13834 -0.0216,0.0689 -0.5813,0.20664 -1.24386,0.30595 -2.26058,0.33885 -2.55476,0.65976 -2.55943,2.79185 -0.0803,4.08959 -0.60721,8.1856 -0.54599,12.27658 0.0228,1.16651 0.8548,2.15857 0.92552,3.2939 -5.16763,-0.47574 -10.31039,-3.89996 -13.83799,-7.66692 -1.77124,-2.2191 -2.42095,-2.3951 -3.08882,-0.83678 -0.98521,2.20737 -2.59365,4.0165 -3.77067,6.11656 -0.84063,1.55096 -0.98461,1.91831 -1.01949,2.6011 -0.0807,1.58015 -0.18395,1.59802 -1.4033,0.24273 -0.82896,-0.92138 -1.75034,-1.55446 -2.02831,-1.39362 -0.0726,0.042 -0.13935,0.41208 -0.14831,0.82245 -0.0153,0.69845 -0.10329,0.86958 -1.37833,2.68032 -1.77125,2.53662 -4.24404,4.44456 -6.44257,6.59486 -2.39174,2.35496 -4.13275,3.72028 -4.58754,3.59766 -0.0806,-0.94871 0.39704,-2.05706 0.46802,-3.0833 0.0501,-1.6744 -0.51992,-5.24134 -1.20822,-7.56073 -0.58219,-1.96178 -0.67411,-2.14294 -1.15286,-2.27202 -0.52206,-0.25757 -1.35187,0.46552 -1.57962,-0.13728 -0.0671,-0.20322 0.099,-1.19878 0.39948,-2.39424 0.42183,-1.67832 0.48188,-2.15999 0.33384,-2.678 -0.68228,-3.30501 -0.99524,-7.07052 -0.0522,-10.35736 0.98896,-3.28796 0.91314,-3.49593 -1.05658,-2.89795 -2.96028,0.88146 -5.94116,1.42204 -9.03775,1.43841 -6.41551,-0.0763 -7.87223,-0.0246 -9.48552,0.33675 0.20889,-1.84177 2.75733,-4.12842 3.92244,-5.65285 1.10839,-1.61097 2.23539,-3.10958 4.04504,-5.3789 0.88494,-1.10972 1.45962,-1.65831 2.22653,-2.12542 0.56856,-0.34627 1.04922,-0.67915 1.06817,-0.73968 0.019,-0.0606 -0.06,-0.27141 -0.17552,-0.46862 -0.53566,-0.65297 -1.5037,-0.57974 -2.18604,-0.99162 0.0798,-0.25457 0.95778,-1.04408 1.68826,-1.5178 1.49162,-0.96733 3.92894,-2.87663 4.25513,-3.33328 0.22354,-0.31284 0.29953,-0.56695 0.25092,-0.83859 -0.2393,-1.2652 -2.2203,-2.74584 -2.2203,-2.74584 2.23866,-1.551 7.23536,-0.17025 8.64561,-2.62164 0.55382,-1.31314 -1.0914,-3.59112 -1.0914,-3.59112 6.18553,1.00413 12.60562,4.105 17.41798,8.57646 0.43392,0.37895 0.96286,0.7359 1.17544,0.79322 0.36331,0.0979 0.40511,0.0447 0.69676,-0.88743 1.09147,-2.17477 1.06922,-9.45051 2.38787,-10.69752 0.32563,-0.20975 1.52568,-0.12135 1.4542,0.10712 l 0,0 z"
     style="fill:#33a02c;fill-opacity:1;display:inline"
     sodipodi:nodetypes="cccsscccsssssssccccccssssccccsccsccccccsssccsscccccscccc"
     inkscape:transform-center-y="-97.985014"
     inkscape:transform-center-x="-35.37315" />
  <path
     style="fill:#e20909;fill-opacity:1;stroke:none"
     d="m 295.08199,243.72584 c -4.48584,0 -8.13308,3.59701 -8.21723,8.06273 -1.16441,-0.63255 -2.50201,-0.98491 -3.92032,-0.98491 -4.53858,0 -8.21722,3.67864 -8.21722,8.21723 0,3.84666 2.6494,7.07091 6.21844,7.96616 -0.23076,0.75815 -0.35727,1.56109 -0.35727,2.39468 0,4.27485 3.26327,7.78482 7.43509,8.1786 0.005,0.85173 0.1409,1.67134 0.38624,2.44296 -1.52756,1.4922 -2.48159,3.57636 -2.48159,5.88048 0,2.49421 1.1135,4.73063 2.86783,6.23775 -0.92419,1.32918 -1.46771,2.94157 -1.46771,4.68315 0,3.30327 1.94962,6.14874 4.76039,7.4544 -0.0755,0.44762 -0.11587,0.9117 -0.11587,1.3808 0,4.53859 3.67863,8.21723 8.21722,8.21723 2.47474,0 4.69253,-1.09856 6.19913,-2.8292 4.13936,-0.42519 7.3675,-3.92691 7.3675,-8.1786 0,-3.81864 -2.60198,-7.02445 -6.13154,-7.94686 0.60409,-0.71355 1.09495,-1.52251 1.42909,-2.41399 3.62792,-0.85353 6.33431,-4.11636 6.33431,-8.00479 0,-3.35407 -2.01494,-6.23503 -4.89558,-7.51234 0.55621,-0.61812 1.01194,-1.32932 1.36149,-2.09534 0.7945,0.25584 1.64064,0.39589 2.52021,0.39589 4.53859,0 8.21722,-3.67864 8.21722,-8.21722 0,-4.53859 -3.67863,-8.21723 -8.21722,-8.21723 -0.86157,0 -1.69158,0.13071 -2.47193,0.37658 0.14728,-0.61564 0.23175,-1.26076 0.23175,-1.92153 0,-4.53859 -3.6883,-8.21723 -8.22688,-8.21723 -0.37491,0 -0.73919,0.0286 -1.10078,0.0772 -1.1442,-3.16174 -4.16818,-5.42665 -7.72477,-5.42665 z"
     id="path9468-34"
     inkscape:connector-curvature="0" />
  <path
     style="fill:#e20909;fill-opacity:1;stroke:none"
     d="m 348.54884,290.15831 c -4.48584,0 -8.13307,3.59701 -8.21722,8.06273 -1.16441,-0.63254 -2.50201,-0.9849 -3.92032,-0.9849 -4.53859,0 -8.21723,3.67863 -8.21723,8.21722 0,3.84666 2.64941,7.07091 6.21844,7.96617 -0.23076,0.75814 -0.35727,1.56108 -0.35727,2.39468 0,4.27485 3.26328,7.78481 7.4351,8.1786 0.005,0.85173 0.1409,1.67134 0.38623,2.44296 -1.52755,1.49219 -2.48158,3.57636 -2.48158,5.88048 0,2.4942 1.11349,4.73063 2.86782,6.23775 -0.92418,1.32918 -1.4677,2.94156 -1.4677,4.68314 0,3.30328 1.94962,6.14874 4.76039,7.4544 -0.0755,0.44763 -0.11588,0.91171 -0.11588,1.38081 0,4.53858 3.67864,8.21722 8.21722,8.21722 2.47474,0 4.69252,-1.09855 6.19913,-2.8292 4.13937,-0.42519 7.36753,-3.92691 7.36753,-8.1786 0,-3.81864 -2.60199,-7.02445 -6.13156,-7.94685 0.6041,-0.71356 1.09494,-1.52252 1.42908,-2.41399 3.62793,-0.85353 6.33432,-4.11636 6.33432,-8.0048 0,-3.35407 -2.01493,-6.23502 -4.89556,-7.51234 0.55618,-0.61812 1.01191,-1.32932 1.36147,-2.09534 0.79452,0.25584 1.64066,0.39589 2.52023,0.39589 4.53858,0 8.21721,-3.67863 8.21721,-8.21722 0,-4.53859 -3.67863,-8.21722 -8.21721,-8.21722 -0.86159,0 -1.6916,0.1307 -2.47193,0.37658 0.14726,-0.61565 0.23175,-1.26076 0.23175,-1.92154 0,-4.53858 -3.68831,-8.21722 -8.22689,-8.21722 -0.37493,0 -0.7392,0.0286 -1.10079,0.0772 -1.14419,-3.16174 -4.16819,-5.42666 -7.72478,-5.42666 z"
     id="path9468-9-2"
     inkscape:connector-curvature="0" />
  <path
     style="fill:#e20909;fill-opacity:1;stroke:none"
     d="m 298.03906,330.06716 c -4.48584,0 -8.13308,3.59701 -8.21722,8.06273 -1.16442,-0.63254 -2.50202,-0.9849 -3.92032,-0.9849 -4.53859,0 -8.21723,3.67863 -8.21723,8.21722 0,3.84666 2.64941,7.07091 6.21844,7.96617 -0.23076,0.75814 -0.35727,1.56108 -0.35727,2.39468 0,4.27485 3.26328,7.78481 7.43509,8.1786 0.005,0.85173 0.14091,1.67134 0.38624,2.44296 -1.52755,1.49219 -2.48158,3.57636 -2.48158,5.88048 0,2.4942 1.11349,4.73063 2.86782,6.23775 -0.92418,1.32918 -1.46771,2.94156 -1.46771,4.68314 0,3.30328 1.94963,6.14874 4.76039,7.4544 -0.0755,0.44763 -0.11587,0.91171 -0.11587,1.38081 0,4.53858 3.67864,8.21722 8.21722,8.21722 2.47474,0 4.69253,-1.09855 6.19913,-2.8292 4.13936,-0.42519 7.3675,-3.92691 7.3675,-8.1786 0,-3.81864 -2.60198,-7.02445 -6.13153,-7.94685 0.60408,-0.71356 1.09494,-1.52252 1.42908,-2.41399 3.62793,-0.85353 6.33431,-4.11636 6.33431,-8.0048 0,-3.35407 -2.01494,-6.23502 -4.89557,-7.51234 0.5562,-0.61812 1.01194,-1.32932 1.36149,-2.09534 0.7945,0.25584 1.64063,0.39589 2.5202,0.39589 4.53859,0 8.21723,-3.67863 8.21723,-8.21722 0,-4.53859 -3.67864,-8.21722 -8.21723,-8.21722 -0.86157,0 -1.69158,0.1307 -2.47192,0.37658 0.14727,-0.61565 0.23174,-1.26076 0.23174,-1.92154 0,-4.53858 -3.68829,-8.21722 -8.22688,-8.21722 -0.37491,0 -0.73919,0.0286 -1.10078,0.0773 -1.1442,-3.16174 -4.16818,-5.42666 -7.72477,-5.42666 z"
     id="path9468-6-8"
     inkscape:connector-curvature="0" />
  <path
     style="fill:#2b5df2;fill-opacity:1"
     d="m 381.125,513.25 c 21.96473,55.01977 34.125,115.52997 34.125,179.0625 0,15.37074 -0.73576,30.54867 -2.125,45.53125 93.47472,-38.22939 163.43586,-122.40475 182,-224.59375 z m 32,224.59375 c -275.41667,14.77083 -137.70833,7.38542 0,0 z"
     id="path2346-2-7-1"
     inkscape:connector-curvature="0"
     sodipodi:nodetypes="csccccc" />
  <path
     style="fill:#ffff00;fill-opacity:1"
     d="M 0,233.78128 0,458.87503 C 0,625.18566 134.3146,760 300,760 c 40.02547,0 78.21234,-7.877 113.12502,-22.1562 1.3892,-14.9826 2.125,-30.1605 2.125,-45.5313 C 415.25002,444.7713 230.80622,243.01688 0,233.78128 z"
     id="path2346-2-6-7"
     inkscape:connector-curvature="0" />
</svg>
