<?xml version="1.0" encoding="UTF-8" standalone="no"?>
<!-- Created with Inkscape (http://www.inkscape.org/) -->

<svg
   xmlns:dc="http://purl.org/dc/elements/1.1/"
   xmlns:cc="http://creativecommons.org/ns#"
   xmlns:rdf="http://www.w3.org/1999/02/22-rdf-syntax-ns#"
   xmlns:svg="http://www.w3.org/2000/svg"
   xmlns="http://www.w3.org/2000/svg"
   xmlns:xlink="http://www.w3.org/1999/xlink"
   xmlns:sodipodi="http://sodipodi.sourceforge.net/DTD/sodipodi-0.dtd"
   xmlns:inkscape="http://www.inkscape.org/namespaces/inkscape"
   width="600"
   height="760"
   id="svg2"
   version="1.1"
   inkscape:version="0.48.4 r9939"
   sodipodi:docname="base.svg">
  <defs
     id="defs4">
    <radialGradient
       cx="858.04236"
       cy="579.93323"
       r="300"
       fx="858.04236"
       fy="579.93323"
       id="radialGradient3236"
       xlink:href="#linearGradient2893"
       gradientUnits="userSpaceOnUse"
       gradientTransform="matrix(1.215027,0,0,1.266667,-839.1924,-490.4894)" />
    <linearGradient
       id="linearGradient2893">
      <stop
         id="stop2895"
         style="stop-color:#ffffff;stop-opacity:0.3137255"
         offset="0" />
      <stop
         id="stop2897"
         style="stop-color:#ffffff;stop-opacity:0.25098041"
         offset="0.19" />
      <stop
         id="stop2901"
         style="stop-color:#6b6b6b;stop-opacity:0.1254902"
         offset="0.60000002" />
      <stop
         id="stop2899"
         style="stop-color:#000000;stop-opacity:0.1254902"
         offset="1" />
    </linearGradient>
    <clipPath
       id="clipPath3983-1">
      <path
         inkscape:connector-curvature="0"
         d="m 1.5,1.5 0,458.86794 C 1.5,626.67854 135.81454,761.5 301.49993,761.5 467.1854,761.5 601.5,626.67854 601.5,460.36794 L 601.5,1.5 1.5,1.5 z"
         id="path3985-7"
         style="fill:none;stroke:#000000;stroke-width:3;stroke-miterlimit:4;stroke-opacity:1;stroke-dasharray:none;display:inline" />
    </clipPath>
    <linearGradient
       inkscape:collect="always"
       xlink:href="#linearGradient3693"
       id="linearGradient3222"
       gradientUnits="userSpaceOnUse"
       gradientTransform="matrix(0.276504,0,-0.518581,0.534815,357.1774,286.9045)"
       x1="251.96013"
       y1="562.48187"
       x2="277.76328"
       y2="590.94122" />
    <linearGradient
       id="linearGradient3693">
      <stop
         style="stop-color:#969aa4;stop-opacity:1"
         offset="0"
         id="stop3695" />
      <stop
         style="stop-color:#cdcdcf;stop-opacity:1"
         offset="1"
         id="stop3697" />
    </linearGradient>
    <linearGradient
       inkscape:collect="always"
       xlink:href="#linearGradient3693"
       id="linearGradient3224"
       gradientUnits="userSpaceOnUse"
       gradientTransform="translate(-4.553496,53.57144)"
       x1="251.96013"
       y1="562.48187"
       x2="277.76328"
       y2="590.94122" />
    <linearGradient
       id="linearGradient4125">
      <stop
         style="stop-color:#969aa4;stop-opacity:1"
         offset="0"
         id="stop4127" />
      <stop
         style="stop-color:#cdcdcf;stop-opacity:1"
         offset="1"
         id="stop4129" />
    </linearGradient>
    <linearGradient
       inkscape:collect="always"
       xlink:href="#linearGradient3693"
       id="linearGradient3226"
       gradientUnits="userSpaceOnUse"
       gradientTransform="translate(0,52.81252)"
       x1="251.96013"
       y1="562.48187"
       x2="277.76328"
       y2="590.94122" />
    <linearGradient
       id="linearGradient4132">
      <stop
         style="stop-color:#969aa4;stop-opacity:1"
         offset="0"
         id="stop4134" />
      <stop
         style="stop-color:#cdcdcf;stop-opacity:1"
         offset="1"
         id="stop4136" />
    </linearGradient>
    <linearGradient
       inkscape:collect="always"
       xlink:href="#linearGradient3368"
       id="linearGradient3228"
       gradientUnits="userSpaceOnUse"
       gradientTransform="matrix(0.999044,0.06415167,-0.03758326,-0.862868,21.30428,985.5672)"
       x1="471.61212"
       y1="495.37201"
       x2="503.05295"
       y2="474.77286" />
    <linearGradient
       id="linearGradient3368">
      <stop
         style="stop-color:#969aa4;stop-opacity:1"
         offset="0"
         id="stop3370" />
      <stop
         style="stop-color:#d6d6d6;stop-opacity:1"
         offset="1"
         id="stop3372" />
    </linearGradient>
    <linearGradient
       inkscape:collect="always"
       xlink:href="#linearGradient3667"
       id="linearGradient3230"
       gradientUnits="userSpaceOnUse"
       gradientTransform="matrix(0.999044,0.06415167,-0.03758326,-0.862868,21.30428,985.5672)"
       x1="472.69629"
       y1="494.5589"
       x2="495.19272"
       y2="473.41766" />
    <linearGradient
       id="linearGradient3667">
      <stop
         style="stop-color:#000000;stop-opacity:1"
         offset="0"
         id="stop3669" />
      <stop
         style="stop-color:#000000;stop-opacity:0"
         offset="1"
         id="stop3671" />
    </linearGradient>
    <linearGradient
       inkscape:collect="always"
       xlink:href="#linearGradient3354"
       id="linearGradient3232"
       gradientUnits="userSpaceOnUse"
       gradientTransform="matrix(1.067377,-0.00225162,-0.163928,-0.974627,45.09665,1076.599)"
       x1="379.72906"
       y1="477.21222"
       x2="410.62778"
       y2="446.58456" />
    <linearGradient
       id="linearGradient3354">
      <stop
         style="stop-color:#969aa4;stop-opacity:1"
         offset="0"
         id="stop3356" />
      <stop
         style="stop-color:#d7d7d7;stop-opacity:1"
         offset="1"
         id="stop3358" />
    </linearGradient>
    <linearGradient
       inkscape:collect="always"
       xlink:href="#linearGradient3631"
       id="linearGradient3234"
       gradientUnits="userSpaceOnUse"
       gradientTransform="matrix(1.067377,-0.00225162,-0.163928,-0.974627,45.09647,1076.598)"
       x1="379.72906"
       y1="473.68869"
       x2="399.24405"
       y2="444.68726" />
    <linearGradient
       id="linearGradient3631">
      <stop
         style="stop-color:#000000;stop-opacity:1"
         offset="0"
         id="stop3633" />
      <stop
         style="stop-color:#000000;stop-opacity:0"
         offset="1"
         id="stop3635" />
    </linearGradient>
    <linearGradient
       inkscape:collect="always"
       xlink:href="#linearGradient3767"
       id="linearGradient3236"
       gradientUnits="userSpaceOnUse"
       gradientTransform="translate(0,52.81252)"
       x1="200.9351"
       y1="499.04086"
       x2="545.82373"
       y2="520.03412" />
    <linearGradient
       id="linearGradient3767">
      <stop
         style="stop-color:#5474ab;stop-opacity:1"
         offset="0"
         id="stop3769" />
      <stop
         style="stop-color:#39527c;stop-opacity:1"
         offset="1"
         id="stop3771" />
    </linearGradient>
    <linearGradient
       inkscape:collect="always"
       xlink:href="#linearGradient3759"
       id="linearGradient3238"
       gradientUnits="userSpaceOnUse"
       gradientTransform="translate(0,52.81252)"
       x1="353.49603"
       y1="577.46967"
       x2="350.81839"
       y2="519.71106" />
    <linearGradient
       id="linearGradient3759">
      <stop
         style="stop-color:#ffffff;stop-opacity:1"
         offset="0"
         id="stop3761" />
      <stop
         style="stop-color:#ffffff;stop-opacity:0"
         offset="1"
         id="stop3763" />
    </linearGradient>
    <linearGradient
       inkscape:collect="always"
       xlink:href="#linearGradient3368"
       id="linearGradient3240"
       gradientUnits="userSpaceOnUse"
       gradientTransform="translate(0,52.81252)"
       x1="471.61212"
       y1="495.37201"
       x2="503.05295"
       y2="474.77286" />
    <linearGradient
       id="linearGradient4163">
      <stop
         style="stop-color:#969aa4;stop-opacity:1"
         offset="0"
         id="stop4165" />
      <stop
         style="stop-color:#d6d6d6;stop-opacity:1"
         offset="1"
         id="stop4167" />
    </linearGradient>
    <linearGradient
       inkscape:collect="always"
       xlink:href="#linearGradient3354"
       id="linearGradient3242"
       gradientUnits="userSpaceOnUse"
       gradientTransform="translate(0,52.81252)"
       x1="379.72906"
       y1="477.21222"
       x2="410.62778"
       y2="446.58456" />
    <linearGradient
       id="linearGradient4170">
      <stop
         style="stop-color:#969aa4;stop-opacity:1"
         offset="0"
         id="stop4172" />
      <stop
         style="stop-color:#d7d7d7;stop-opacity:1"
         offset="1"
         id="stop4174" />
    </linearGradient>
    <linearGradient
       inkscape:collect="always"
       xlink:href="#linearGradient2306"
       id="linearGradient3244"
       gradientUnits="userSpaceOnUse"
       gradientTransform="translate(0,52.81252)"
       x1="278.90164"
       y1="452.0596"
       x2="306.98154"
       y2="423.60025" />
    <linearGradient
       id="linearGradient2306">
      <stop
         style="stop-color:#969aa4;stop-opacity:1"
         offset="0"
         id="stop2308" />
      <stop
         style="stop-color:#d8d8d8;stop-opacity:1"
         offset="1"
         id="stop2310" />
    </linearGradient>
    <linearGradient
       inkscape:collect="always"
       xlink:href="#linearGradient2248"
       id="linearGradient3246"
       gradientUnits="userSpaceOnUse"
       gradientTransform="translate(0,52.81252)"
       x1="246.26826"
       y1="518.84418"
       x2="316.08853"
       y2="508.9783" />
    <linearGradient
       id="linearGradient2248">
      <stop
         style="stop-color:#a8afbb;stop-opacity:1"
         offset="0"
         id="stop2250" />
      <stop
         style="stop-color:#e1e1e1;stop-opacity:1"
         offset="1"
         id="stop2252" />
    </linearGradient>
    <linearGradient
       inkscape:collect="always"
       xlink:href="#linearGradient3724"
       id="linearGradient3248"
       gradientUnits="userSpaceOnUse"
       gradientTransform="matrix(1.087299,0,0,1,-21.09082,52.81252)"
       x1="253.15271"
       y1="508.9241"
       x2="280.27502"
       y2="529.80597" />
    <linearGradient
       id="linearGradient3724">
      <stop
         style="stop-color:#000000;stop-opacity:1"
         offset="0"
         id="stop3726" />
      <stop
         style="stop-color:#000000;stop-opacity:0"
         offset="1"
         id="stop3728" />
    </linearGradient>
    <linearGradient
       inkscape:collect="always"
       xlink:href="#linearGradient3775"
       id="linearGradient3250"
       gradientUnits="userSpaceOnUse"
       gradientTransform="translate(0,52.81252)"
       x1="244.42107"
       y1="486.29498"
       x2="659.78693"
       y2="519.60742" />
    <linearGradient
       id="linearGradient3775">
      <stop
         style="stop-color:#11264a;stop-opacity:1"
         offset="0"
         id="stop3777" />
      <stop
         style="stop-color:#374c72;stop-opacity:1"
         offset="1"
         id="stop3779" />
    </linearGradient>
    <linearGradient
       inkscape:collect="always"
       xlink:href="#linearGradient3567"
       id="linearGradient3252"
       gradientUnits="userSpaceOnUse"
       gradientTransform="translate(0,52.81252)"
       x1="272.83035"
       y1="445.98825"
       x2="316.87064"
       y2="438.13382" />
    <linearGradient
       id="linearGradient3567">
      <stop
         style="stop-color:#000000;stop-opacity:1"
         offset="0"
         id="stop3569" />
      <stop
         style="stop-color:#000000;stop-opacity:0"
         offset="1"
         id="stop3571" />
    </linearGradient>
    <linearGradient
       inkscape:collect="always"
       xlink:href="#linearGradient3631"
       id="linearGradient3254"
       gradientUnits="userSpaceOnUse"
       gradientTransform="translate(0,52.81252)"
       x1="379.72906"
       y1="473.68869"
       x2="399.24405"
       y2="444.68726" />
    <linearGradient
       id="linearGradient4197">
      <stop
         style="stop-color:#000000;stop-opacity:1"
         offset="0"
         id="stop4199" />
      <stop
         style="stop-color:#000000;stop-opacity:0"
         offset="1"
         id="stop4201" />
    </linearGradient>
    <linearGradient
       inkscape:collect="always"
       xlink:href="#linearGradient3667"
       id="linearGradient3256"
       gradientUnits="userSpaceOnUse"
       gradientTransform="translate(0,52.81252)"
       x1="472.69629"
       y1="494.5589"
       x2="495.19272"
       y2="473.41766" />
    <linearGradient
       id="linearGradient4204">
      <stop
         style="stop-color:#000000;stop-opacity:1"
         offset="0"
         id="stop4206" />
      <stop
         style="stop-color:#000000;stop-opacity:0"
         offset="1"
         id="stop4208" />
    </linearGradient>
    <linearGradient
       inkscape:collect="always"
       xlink:href="#linearGradient3445"
       id="linearGradient3258"
       gradientUnits="userSpaceOnUse"
       gradientTransform="translate(0,52.81252)"
       x1="621.021"
       y1="516.32806"
       x2="567.39746"
       y2="516.32806" />
    <linearGradient
       id="linearGradient3445">
      <stop
         style="stop-color:#969aa4;stop-opacity:1"
         offset="0"
         id="stop3447" />
      <stop
         style="stop-color:#d5d5d5;stop-opacity:1"
         offset="1"
         id="stop3449" />
    </linearGradient>
    <linearGradient
       inkscape:collect="always"
       xlink:href="#linearGradient3514"
       id="linearGradient3260"
       gradientUnits="userSpaceOnUse"
       gradientTransform="translate(0,52.81252)"
       x1="613.58362"
       y1="516.10938"
       x2="563.87463"
       y2="516.10938" />
    <linearGradient
       id="linearGradient3514">
      <stop
         style="stop-color:#000000;stop-opacity:0"
         offset="0"
         id="stop3516" />
      <stop
         style="stop-color:#000000;stop-opacity:1"
         offset="1"
         id="stop3518" />
    </linearGradient>
    <linearGradient
       inkscape:collect="always"
       xlink:href="#linearGradient2224"
       id="linearGradient3262"
       gradientUnits="userSpaceOnUse"
       gradientTransform="translate(0,52.81252)"
       x1="144.49762"
       y1="503.59"
       x2="817.58026"
       y2="503.05875" />
    <linearGradient
       id="linearGradient2224">
      <stop
         style="stop-color:#243044;stop-opacity:1"
         offset="0"
         id="stop2226" />
      <stop
         style="stop-color:#3d5f94;stop-opacity:1"
         offset="1"
         id="stop2228" />
    </linearGradient>
    <radialGradient
       inkscape:collect="always"
       xlink:href="#linearGradient2208"
       id="radialGradient3264"
       gradientUnits="userSpaceOnUse"
       gradientTransform="matrix(-0.30774,1.166842,-1.044041,-0.27533,619.6395,374.3587)"
       cx="142.93222"
       cy="425.0593"
       fx="142.93222"
       fy="425.0593"
       r="11.805615" />
    <linearGradient
       id="linearGradient2208">
      <stop
         style="stop-color:#ffff00;stop-opacity:1"
         offset="0"
         id="stop2210" />
      <stop
         style="stop-color:#ffffff;stop-opacity:1"
         offset="1"
         id="stop2212" />
    </linearGradient>
    <linearGradient
       id="linearGradient3693-8">
      <stop
         style="stop-color:#969aa4;stop-opacity:1"
         offset="0"
         id="stop3695-8" />
      <stop
         style="stop-color:#cdcdcf;stop-opacity:1"
         offset="1"
         id="stop3697-2" />
    </linearGradient>
    <linearGradient
       id="linearGradient4116">
      <stop
         style="stop-color:#969aa4;stop-opacity:1"
         offset="0"
         id="stop4118" />
      <stop
         style="stop-color:#cdcdcf;stop-opacity:1"
         offset="1"
         id="stop4120" />
    </linearGradient>
    <linearGradient
       id="linearGradient4123">
      <stop
         style="stop-color:#969aa4;stop-opacity:1"
         offset="0"
         id="stop4125" />
      <stop
         style="stop-color:#cdcdcf;stop-opacity:1"
         offset="1"
         id="stop4127-5" />
    </linearGradient>
    <linearGradient
       id="linearGradient3368-7">
      <stop
         style="stop-color:#969aa4;stop-opacity:1"
         offset="0"
         id="stop3370-1" />
      <stop
         style="stop-color:#d6d6d6;stop-opacity:1"
         offset="1"
         id="stop3372-1" />
    </linearGradient>
    <linearGradient
       id="linearGradient3667-2">
      <stop
         style="stop-color:#000000;stop-opacity:1"
         offset="0"
         id="stop3669-7" />
      <stop
         style="stop-color:#000000;stop-opacity:0"
         offset="1"
         id="stop3671-6" />
    </linearGradient>
    <linearGradient
       id="linearGradient3354-4">
      <stop
         style="stop-color:#969aa4;stop-opacity:1"
         offset="0"
         id="stop3356-2" />
      <stop
         style="stop-color:#d7d7d7;stop-opacity:1"
         offset="1"
         id="stop3358-3" />
    </linearGradient>
    <linearGradient
       id="linearGradient3631-2">
      <stop
         style="stop-color:#000000;stop-opacity:1"
         offset="0"
         id="stop3633-1" />
      <stop
         style="stop-color:#000000;stop-opacity:0"
         offset="1"
         id="stop3635-6" />
    </linearGradient>
    <linearGradient
       id="linearGradient3767-5">
      <stop
         style="stop-color:#5474ab;stop-opacity:1"
         offset="0"
         id="stop3769-7" />
      <stop
         style="stop-color:#39527c;stop-opacity:1"
         offset="1"
         id="stop3771-6" />
    </linearGradient>
    <linearGradient
       id="linearGradient3759-8">
      <stop
         style="stop-color:#ffffff;stop-opacity:1"
         offset="0"
         id="stop3761-9" />
      <stop
         style="stop-color:#ffffff;stop-opacity:0"
         offset="1"
         id="stop3763-2" />
    </linearGradient>
    <linearGradient
       id="linearGradient4154">
      <stop
         style="stop-color:#969aa4;stop-opacity:1"
         offset="0"
         id="stop4156" />
      <stop
         style="stop-color:#d6d6d6;stop-opacity:1"
         offset="1"
         id="stop4158" />
    </linearGradient>
    <linearGradient
       id="linearGradient4161">
      <stop
         style="stop-color:#969aa4;stop-opacity:1"
         offset="0"
         id="stop4163" />
      <stop
         style="stop-color:#d7d7d7;stop-opacity:1"
         offset="1"
         id="stop4165-5" />
    </linearGradient>
    <linearGradient
       id="linearGradient2306-3">
      <stop
         style="stop-color:#969aa4;stop-opacity:1"
         offset="0"
         id="stop2308-1" />
      <stop
         style="stop-color:#d8d8d8;stop-opacity:1"
         offset="1"
         id="stop2310-2" />
    </linearGradient>
    <linearGradient
       id="linearGradient2248-3">
      <stop
         style="stop-color:#a8afbb;stop-opacity:1"
         offset="0"
         id="stop2250-4" />
      <stop
         style="stop-color:#e1e1e1;stop-opacity:1"
         offset="1"
         id="stop2252-1" />
    </linearGradient>
    <linearGradient
       id="linearGradient3724-3">
      <stop
         style="stop-color:#000000;stop-opacity:1"
         offset="0"
         id="stop3726-8" />
      <stop
         style="stop-color:#000000;stop-opacity:0"
         offset="1"
         id="stop3728-7" />
    </linearGradient>
    <linearGradient
       id="linearGradient3775-2">
      <stop
         style="stop-color:#11264a;stop-opacity:1"
         offset="0"
         id="stop3777-7" />
      <stop
         style="stop-color:#374c72;stop-opacity:1"
         offset="1"
         id="stop3779-7" />
    </linearGradient>
    <linearGradient
       id="linearGradient3567-3">
      <stop
         style="stop-color:#000000;stop-opacity:1"
         offset="0"
         id="stop3569-1" />
      <stop
         style="stop-color:#000000;stop-opacity:0"
         offset="1"
         id="stop3571-9" />
    </linearGradient>
    <linearGradient
       id="linearGradient4188">
      <stop
         style="stop-color:#000000;stop-opacity:1"
         offset="0"
         id="stop4190" />
      <stop
         style="stop-color:#000000;stop-opacity:0"
         offset="1"
         id="stop4192" />
    </linearGradient>
    <linearGradient
       id="linearGradient4195">
      <stop
         style="stop-color:#000000;stop-opacity:1"
         offset="0"
         id="stop4197" />
      <stop
         style="stop-color:#000000;stop-opacity:0"
         offset="1"
         id="stop4199-5" />
    </linearGradient>
    <linearGradient
       id="linearGradient3445-2">
      <stop
         style="stop-color:#969aa4;stop-opacity:1"
         offset="0"
         id="stop3447-8" />
      <stop
         style="stop-color:#d5d5d5;stop-opacity:1"
         offset="1"
         id="stop3449-6" />
    </linearGradient>
    <linearGradient
       id="linearGradient3514-2">
      <stop
         style="stop-color:#000000;stop-opacity:0"
         offset="0"
         id="stop3516-4" />
      <stop
         style="stop-color:#000000;stop-opacity:1"
         offset="1"
         id="stop3518-8" />
    </linearGradient>
    <linearGradient
       id="linearGradient2224-5">
      <stop
         style="stop-color:#243044;stop-opacity:1"
         offset="0"
         id="stop2226-0" />
      <stop
         style="stop-color:#3d5f94;stop-opacity:1"
         offset="1"
         id="stop2228-9" />
    </linearGradient>
    <linearGradient
       id="linearGradient2208-0">
      <stop
         style="stop-color:#ffff00;stop-opacity:1"
         offset="0"
         id="stop2210-6" />
      <stop
         style="stop-color:#ffffff;stop-opacity:1"
         offset="1"
         id="stop2212-1" />
    </linearGradient>
  </defs>
  <sodipodi:namedview
     id="base"
     pagecolor="#ffffff"
     bordercolor="#666666"
     borderopacity="1.0"
     inkscape:pageopacity="0.0"
     inkscape:pageshadow="2"
     inkscape:zoom="0.7"
     inkscape:cx="135.63519"
     inkscape:cy="487.47812"
     inkscape:document-units="px"
     inkscape:current-layer="layer1"
     showgrid="false"
     fit-margin-top="0"
     fit-margin-left="0"
     fit-margin-right="0"
     fit-margin-bottom="0"
     inkscape:window-width="1600"
     inkscape:window-height="1147"
     inkscape:window-x="-8"
     inkscape:window-y="-8"
     inkscape:window-maximized="1" />
  <metadata
     id="metadata7">
    <rdf:RDF>
      <cc:Work
         rdf:about="">
        <dc:format>image/svg+xml</dc:format>
        <dc:type
           rdf:resource="http://purl.org/dc/dcmitype/StillImage" />
        <dc:title></dc:title>
      </cc:Work>
    </rdf:RDF>
  </metadata>
  <g
     inkscape:label="Layer 1"
     inkscape:groupmode="layer"
     id="layer1"
     transform="translate(-37.142857,-58.076473)">
    <path
       style="fill:#2b5df2;fill-opacity:1"
       id="path2346"
       d="m 37.142857,58.076473 0,458.867897 c 0,166.31064 134.314543,301.1321 299.999933,301.1321 165.68547,0 300.00007,-134.82146 300.00007,-301.1321 l 0,-458.867897 -600.000003,0 z"
       inkscape:connector-curvature="0" />
    <path
       style="fill:#eeeeee;fill-opacity:1"
       id="path2294"
       d="m -1174.629,619.02491 c 0.1323,-0.87951 0.3364,-1.6083 0.4536,-1.61952 0.3006,-0.0288 -0.045,2.57608 -0.4204,3.16817 -0.3551,0.55997 -0.3545,0.58799 -0.033,-1.54865 z"
       inkscape:connector-curvature="0" />
    <path
       style="fill:#000000;fill-opacity:1"
       id="path2292"
       d="m -1159.6109,603.04809 c 0.1328,0.14842 0.1735,0.56279 0.091,0.92081 -0.092,0.39564 -0.1864,0.2898 -0.2414,-0.26987 -0.05,-0.50644 0.018,-0.79936 0.1508,-0.65094 z"
       inkscape:connector-curvature="0" />
    <path
       style="fill:#000000;fill-opacity:1"
       id="path2290"
       d="m -1149.5089,598.9182 c 0.1241,0.32152 0.1602,0.86363 0.08,1.20468 -0.08,0.34105 -0.1813,0.078 -0.2255,-0.58458 -0.044,-0.66258 0.021,-0.94162 0.1452,-0.6201 z"
       inkscape:connector-curvature="0" />
    <path
       style="fill:#000000;fill-opacity:1"
       id="path2278"
       d="m -1135.008,609.28919 c 0.2225,0.37878 0.4189,0.90553 0.4366,1.17055 0.018,0.26503 -0.1499,0.17197 -0.3723,-0.20681 -0.2225,-0.37877 -0.4189,-0.90552 -0.4366,-1.17055 -0.018,-0.26503 0.1499,-0.17196 0.3723,0.20681 z"
       inkscape:connector-curvature="0" />
    <path
       style="fill:#fcef3c;fill-opacity:1;fill-rule:nonzero;stroke:none;stroke-width:3;stroke-linecap:butt;stroke-linejoin:miter;stroke-miterlimit:4;stroke-opacity:1;stroke-dasharray:none;stroke-dashoffset:0;marker:none;visibility:visible;display:inline;overflow:visible"
       d="M 300.03125 216.09375 L 280.6875 316.875 C 278.95443 317.15186 277.23019 317.48983 275.5 317.84375 C 269.16131 301.08284 259.36533 289.17946 247.03125 280.84375 C 229.60199 269.06453 220.32437 253.66368 215.09375 233 C 209.54054 254.71802 215.66767 272.59125 226.28125 289.4375 C 234.48846 302.46427 239.88156 316.33441 239.625 331.25 C 235.89166 333.35519 232.34273 335.6206 228.90625 338.0625 L 143.125 281.09375 L 200.71875 365.9375 C 199.68416 367.36598 198.65802 368.84344 197.6875 370.3125 C 181.35459 362.95485 166.01641 361.48629 151.40625 364.3125 C 130.75273 368.30771 113.2163 363.9753 94.90625 353.0625 C 106.33652 372.34618 123.3955 380.65532 142.8125 385.0625 C 157.85722 388.47728 171.46585 394.48055 181.84375 405.25 C 180.71453 409.30806 179.77163 413.42713 179.0625 417.59375 L 78.09375 438.0625 L 178.84375 457.3125 C 179.12062 459.04556 179.45862 460.76984 179.8125 462.5 C 163.05604 468.83982 151.14688 478.6365 142.8125 490.96875 C 131.03329 508.398 115.66365 517.73813 95 522.96875 C 116.71802 528.52202 134.56001 522.33235 151.40625 511.71875 C 164.43304 503.51157 178.3032 498.11843 193.21875 498.375 C 195.32394 502.10833 197.58935 505.65729 200.03125 509.09375 L 143.09375 594.9375 L 227.96875 537.25 C 229.38621 538.27588 230.82389 539.34972 232.28125 540.3125 C 224.92362 556.64545 223.4863 572.04608 226.3125 586.65625 C 230.30768 607.30983 225.94411 624.78381 215.03125 643.09375 C 234.31497 631.66363 242.62413 614.6046 247.03125 595.1875 C 250.44603 580.14275 256.44931 566.53415 267.21875 556.15625 C 271.28499 557.2887 275.38722 558.22689 279.5625 558.9375 L 300.03125 659.90625 L 319.28125 559.15625 C 321.01436 558.8794 322.73856 558.54139 324.46875 558.1875 C 330.80496 574.94895 340.60815 586.855 352.9375 595.1875 C 370.3668 606.96668 379.70686 622.33643 384.9375 643 C 390.49075 621.28206 384.30107 603.43997 373.6875 586.59375 C 365.46432 573.54153 360.12167 559.71227 360.40625 544.75 C 364.11513 542.65549 367.64692 540.39582 371.0625 537.96875 L 456.90625 594.90625 L 399.3125 510 C 400.32484 508.59976 401.33049 507.15789 402.28125 505.71875 C 418.61882 513.09764 434.00739 514.51512 448.625 511.6875 C 469.27849 507.69214 486.75254 512.05603 505.0625 522.96875 C 493.63226 503.68506 476.60458 495.43843 457.1875 491.03125 C 442.1597 487.62035 428.55539 481.5102 418.1875 470.75 C 419.31395 466.69891 420.19838 462.59675 420.90625 458.4375 L 521.90625 438.0625 L 421.125 418.71875 C 420.84815 416.98565 420.51014 415.26146 420.15625 413.53125 C 436.9281 407.19728 448.82067 397.39635 457.15625 385.0625 C 468.93543 367.63323 484.33639 358.3556 505 353.125 C 483.28197 347.57175 465.40869 353.69893 448.5625 364.3125 C 435.5104 372.53566 421.68101 377.87833 406.71875 377.59375 C 404.62418 373.88486 402.36453 370.35307 399.9375 366.9375 L 456.90625 281.15625 L 371.96875 338.6875 C 370.56846 337.67518 369.12664 336.66952 367.6875 335.71875 C 375.05649 319.39055 376.51371 304.04763 373.6875 289.4375 C 369.69224 268.78395 374.02471 251.24749 384.9375 232.9375 C 365.65381 244.36774 357.40715 261.39548 353 280.8125 C 349.5814 295.87409 343.49318 309.52952 332.6875 319.90625 C 328.64878 318.7846 324.5523 317.79939 320.40625 317.09375 L 300.03125 216.09375 z M 300 332 C 328.12122 332 355.99335 343.54975 375.875 363.4375 C 395.75665 383.32525 407.3215 411.22253 407.3125 439.34375 C 407.32114 467.46497 395.75665 495.36225 375.875 515.25 C 355.99335 535.13775 328.12122 546.71875 300 546.71875 C 271.87878 546.71875 243.9754 535.13775 224.09375 515.25 C 204.2121 495.36225 192.64725 467.46497 192.65625 439.34375 C 192.64761 411.22253 204.2121 383.32525 224.09375 363.4375 C 243.9754 343.54975 271.87878 332 300 332 z M 300 335 C 272.70228 335 245.51819 346.25714 226.21875 365.5625 C 206.91931 384.86786 195.64825 412.04603 195.65625 439.34375 C 195.64786 466.64147 206.91931 493.85089 226.21875 513.15625 C 245.51819 532.46161 272.70228 543.71875 300 543.71875 C 327.29772 543.71875 354.45056 532.46161 373.75 513.15625 C 393.04944 493.85089 404.3205 466.64147 404.3125 439.34375 C 404.32089 412.04603 393.04944 384.86786 373.75 365.5625 C 354.45056 346.25714 327.29772 335 300 335 z M 344.1875 388.90625 C 350.19449 388.91134 354.65699 391.21315 354.4375 394.0625 C 338.70985 389.01583 331.95063 396.81597 322.375 400.28125 C 328.57999 391.84367 337.37958 388.90048 344.1875 388.90625 z M 259.40625 389.5 C 269.98657 389.13604 278.28436 395.07521 276.65625 398.9375 C 263.33458 389.17223 254.4614 394.43122 244.28125 394.6875 C 249.31456 391.13468 254.59702 389.66544 259.40625 389.5 z M 256.375 405.21875 C 261.61749 405.06899 266.97612 406.45296 272.40625 409 C 276.87439 410.03272 276.678 416.106 266.03125 417.5 C 259.10529 415.26035 266.95521 430.52866 250.65625 424.40625 C 253.53494 415.71688 243.33462 412.94222 240.03125 419.625 L 234.1875 416.96875 C 241.2856 408.95011 248.71289 405.43763 256.375 405.21875 z M 344.5625 405.5625 C 354.59299 405.71671 357.76297 411.1235 365.8125 414.84375 L 354.125 416.4375 C 352.19621 430.1244 338.28413 424.69094 337.6875 417.5 C 334.67997 414.12776 331.66378 415.7868 328.65625 416.4375 C 324.86847 406.46813 334.51339 408.02436 339.8125 405.84375 C 341.55952 405.63031 343.12957 405.54047 344.5625 405.5625 z M 311.21875 453.53125 C 311.41646 453.52041 311.6209 453.5244 311.8125 453.53125 C 317.56042 453.7367 320.08396 460.94874 313.28125 463.15625 C 302.65553 462.8892 304.52963 457.3947 310.625 453.59375 C 310.83005 453.56776 311.02104 453.54209 311.21875 453.53125 z M 293.9375 454.09375 C 299.68541 454.2992 302.17771 461.51124 295.375 463.71875 C 284.74929 463.4517 286.62337 457.95718 292.71875 454.15625 C 293.12885 454.10426 293.55431 454.08005 293.9375 454.09375 z M 301.46875 472.03125 C 307.25549 471.89732 312.9754 474.86235 319.875 480.78125 C 306.5328 493.00192 296.04735 492.20688 282.625 481.84375 C 289.81854 475.38345 295.68201 472.16518 301.46875 472.03125 z "
       transform="translate(37.142857,58.076473)"
       id="path2140" />
    <g
       id="g3568"
       transform="translate(788.62309,59.982682)"
       style="stroke:none">
      <g
         style="fill:#ffffff;fill-opacity:1;stroke:none;stroke-width:8.90151501000000070;stroke-miterlimit:4;stroke-opacity:1;stroke-dasharray:none"
         id="layer7"
         transform="matrix(0.3319535,0.05822556,-0.05822556,0.3319535,-717.78753,-30.260919)">
        <path
           inkscape:connector-curvature="0"
           style="fill:#ffffff;fill-opacity:1;fill-rule:evenodd;stroke:none;stroke-width:8.90151501000000070;stroke-linecap:butt;stroke-linejoin:miter;stroke-miterlimit:4;stroke-opacity:1;stroke-dasharray:none"
           id="path9999"
           d="m 319.28572,347.71933 c -89.40908,-129.80855 177.69191,-131.78431 91.78571,-0.35714 145.89265,-33.77357 104.76794,169.93468 -8.21429,97.85714 -57.6211,76.16771 45.79531,110.20956 -45.71428,177.14285 51.95697,-110.0058 -30.1799,-70.11229 -15.71429,-168.57143 -103.02334,61.95537 -164.66655,-94.1837 -22.14285,-106.07142 z" />
      </g>
      <g
         style="fill:#ffffff;fill-opacity:1;stroke:none;stroke-width:8.90151501000000070;stroke-miterlimit:4;stroke-opacity:1;stroke-dasharray:none;display:inline"
         id="g3564"
         transform="matrix(-0.3319535,0.05822556,0.05822556,0.3319535,-185.17294,-30.260919)">
        <path
           inkscape:connector-curvature="0"
           style="fill:#ffffff;fill-opacity:1;fill-rule:evenodd;stroke:none;stroke-width:8.90151501000000070;stroke-linecap:butt;stroke-linejoin:miter;stroke-miterlimit:4;stroke-opacity:1;stroke-dasharray:none"
           id="path3566"
           d="m 319.28572,347.71933 c -89.40908,-129.80855 177.69191,-131.78431 91.78571,-0.35714 145.89265,-33.77357 104.76794,169.93468 -8.21429,97.85714 -57.6211,76.16771 45.79531,110.20956 -45.71428,177.14285 51.95697,-110.0058 -30.1799,-70.11229 -15.71429,-168.57143 -103.02334,61.95537 -164.66655,-94.1837 -22.14285,-106.07142 z" />
      </g>
    </g>
  </g>
</svg>
