<?xml version="1.0" encoding="UTF-8" standalone="no"?>
<!-- Created with Inkscape (http://www.inkscape.org/) -->

<svg
   xmlns:dc="http://purl.org/dc/elements/1.1/"
   xmlns:cc="http://creativecommons.org/ns#"
   xmlns:rdf="http://www.w3.org/1999/02/22-rdf-syntax-ns#"
   xmlns:svg="http://www.w3.org/2000/svg"
   xmlns="http://www.w3.org/2000/svg"
   xmlns:sodipodi="http://sodipodi.sourceforge.net/DTD/sodipodi-0.dtd"
   xmlns:inkscape="http://www.inkscape.org/namespaces/inkscape"
   width="600.00012"
   height="760"
   id="svg10110"
   version="1.1"
   inkscape:version="0.48.4 r9939"
   sodipodi:docname="New document 204">
  <defs
     id="defs10112" />
  <sodipodi:namedview
     id="base"
     pagecolor="#ffffff"
     bordercolor="#666666"
     borderopacity="1.0"
     inkscape:pageopacity="0.0"
     inkscape:pageshadow="2"
     inkscape:zoom="0.35"
     inkscape:cx="300.00005"
     inkscape:cy="380.00002"
     inkscape:document-units="px"
     inkscape:current-layer="layer1"
     showgrid="false"
     fit-margin-top="0"
     fit-margin-left="0"
     fit-margin-right="0"
     fit-margin-bottom="0"
     inkscape:window-width="1365"
     inkscape:window-height="1043"
     inkscape:window-x="1626"
     inkscape:window-y="26"
     inkscape:window-maximized="0" />
  <metadata
     id="metadata10115">
    <rdf:RDF>
      <cc:Work
         rdf:about="">
        <dc:format>image/svg+xml</dc:format>
        <dc:type
           rdf:resource="http://purl.org/dc/dcmitype/StillImage" />
        <dc:title></dc:title>
      </cc:Work>
    </rdf:RDF>
  </metadata>
  <g
     inkscape:label="Layer 1"
     inkscape:groupmode="layer"
     id="layer1"
     transform="translate(-74.999945,-152.36217)">
    <g
       transform="translate(37.857164,-73.345452)"
       id="g10085">
      <path
         sodipodi:nodetypes="ccsssc"
         id="path3033-8"
         d="m 637.14285,626.57992 -600.000029,0 0,58.00266 c 0,166.31066 134.314639,301.12506 300.000029,301.12506 165.68547,0 300,-134.8144 300,-301.12506 z"
         style="fill:#2b5df2;fill-opacity:1"
         inkscape:connector-curvature="0" />
      <path
         inkscape:connector-curvature="0"
         d="m 37.142781,225.70762 0,458.8679 c 0,166.31063 134.314719,301.13213 300.000119,301.13213 165.68539,0 299.99999,-134.8215 299.99999,-301.13213 l 0,-458.8679 -600.000109,0 z"
         id="path2346-2-8"
         style="fill:#000000;fill-opacity:0" />
      <g
         transform="translate(-741.10188,-74.11144)"
         id="g10038">
        <path
           style="fill:#e20909;fill-opacity:1"
           d="m 977.74474,299.81908 0,52.3125 96.87496,-52.3125 -96.87496,0 z m 96.87496,0 104.125,53.3125 0,-53.3125 -104.125,0 z m 0,66.1875 -96.87496,55.0625 0,70.9375 96.87496,-52.3125 104.125,53.28125 0,-71.46875 -104.125,-55.5 z m 0,139.875 -96.87496,55.0625 0,70.90625 96.87496,-52.3125 104.125,53.3125 0,-71.46875 -104.125,-55.5 z m 0,139.84375 -96.87496,55.09375 0,2 200.99996,0 0,-1.5625 -104.125,-55.53125 z"
           id="path2346-1"
           inkscape:connector-curvature="0" />
        <path
           inkscape:connector-curvature="0"
           style="fill:#ffff00;fill-opacity:1"
           d="m 778.24474,299.81908 0,403 199.5,0 0,-403 -199.5,0 z m 400.49996,0 0,403 199.5,0 0,-403 -199.5,0 z"
           id="path2346-7-2" />
      </g>
      <path
         inkscape:connector-curvature="0"
         sodipodi:nodetypes="cccccssccsc"
         id="path3475"
         d="m 384.23305,881.93688 c -48.2294,42.55542 -93.62178,5.67406 -93.62178,-56.74043 0,-110.64391 76.59964,-104.96987 99.29583,-45.39238 l 14.18511,0 c -5.6023,-33.09208 2.27524,-64.95872 14.18512,-96.45879 11.34809,17.02214 23.01436,6.61531 25.53321,2.83702 11.3481,-17.02213 -19.85917,-45.39237 -34.04428,-17.02213 -11.3481,22.69618 -19.91554,43.10019 -28.37024,65.25153 -84.86325,-49.37638 -157.18094,22.37575 -153.19927,90.78475 0,65.25152 96.17028,149.75316 175.89546,56.74043 17.02214,-19.85911 -31.20725,-39.71829 -19.85916,0 z"
         style="fill:#ffffff;fill-opacity:1;fill-rule:evenodd;stroke:none;display:inline" />
    </g>
  </g>
</svg>
