<?xml version="1.0" encoding="UTF-8" standalone="no"?>
<!-- Created with Inkscape (http://www.inkscape.org/) -->

<svg
   xmlns:dc="http://purl.org/dc/elements/1.1/"
   xmlns:cc="http://creativecommons.org/ns#"
   xmlns:rdf="http://www.w3.org/1999/02/22-rdf-syntax-ns#"
   xmlns:svg="http://www.w3.org/2000/svg"
   xmlns="http://www.w3.org/2000/svg"
   xmlns:sodipodi="http://sodipodi.sourceforge.net/DTD/sodipodi-0.dtd"
   xmlns:inkscape="http://www.inkscape.org/namespaces/inkscape"
   width="600.00012"
   height="760"
   id="svg8569"
   version="1.1"
   inkscape:version="0.48.4 r9939"
   sodipodi:docname="New document 155">
  <defs
     id="defs8571" />
  <sodipodi:namedview
     id="base"
     pagecolor="#ffffff"
     bordercolor="#666666"
     borderopacity="1.0"
     inkscape:pageopacity="0.0"
     inkscape:pageshadow="2"
     inkscape:zoom="0.35"
     inkscape:cx="300.00005"
     inkscape:cy="380.00001"
     inkscape:document-units="px"
     inkscape:current-layer="layer1"
     showgrid="false"
     fit-margin-top="0"
     fit-margin-left="0"
     fit-margin-right="0"
     fit-margin-bottom="0"
     inkscape:window-width="1229"
     inkscape:window-height="901"
     inkscape:window-x="1730"
     inkscape:window-y="130"
     inkscape:window-maximized="0" />
  <metadata
     id="metadata8574">
    <rdf:RDF>
      <cc:Work
         rdf:about="">
        <dc:format>image/svg+xml</dc:format>
        <dc:type
           rdf:resource="http://purl.org/dc/dcmitype/StillImage" />
        <dc:title></dc:title>
      </cc:Work>
    </rdf:RDF>
  </metadata>
  <g
     inkscape:label="Layer 1"
     inkscape:groupmode="layer"
     id="layer1"
     transform="translate(-74.999948,-152.36217)">
    <g
       transform="translate(37.857162,-73.345457)"
       id="g8548">
      <path
         inkscape:connector-curvature="0"
         d="m 37.142786,225.70763 0,458.8679 c 0,166.31062 134.314704,301.13212 300.000114,301.13212 165.68539,0 299.99999,-134.8215 299.99999,-301.13212 l 0,-458.8679 -600.000103,0 z"
         id="path2346-2-3"
         style="fill:#ffffff;fill-opacity:1" />
      <g
         transform="translate(-170,31.59375)"
         id="g8513">
        <path
           inkscape:connector-curvature="0"
           style="fill:#e20909;fill-opacity:1"
           d="m 170,-31.59375 0,380 133.15625,0 c 2.64241,-15.00728 17.0066,-35.08119 22.25,-51.21875 6.88402,-21.18691 5.03225,-57.15666 20.625,-63.5625 6.83333,-2.80728 16.45982,-1.41447 27.3125,2.5 L 367.5,207.65625 394.28125,221.1875 c -0.15469,-10.75225 1.555,-19.65451 6.09375,-25 3.58007,-4.21645 9.60451,-5.67425 16.875,-5.71875 14.88739,-0.0907 34.96999,5.71875 49.9375,5.71875 22.27718,0 55.93303,-12.85016 66.84375,0 4.53963,5.34644 6.25057,14.24586 6.09375,25 l 23.84375,-13.53125 -4.90625,31.5 c 13.91198,-6.09505 26.51749,-8.97753 34.90625,-5.53125 15.59275,6.40584 13.77229,42.37559 20.65625,63.5625 5.24345,16.13756 19.60761,36.21147 22.25,51.21875 l 133.125,0 0,-380 -600,0 z m 298.03125,294.3125 -3.25,34.03125 c -21.01669,1.28965 -38.66619,14.97736 -45.75,33.84375 l -34.21875,-7.40625 32.21875,13.96875 c -0.83578,3.61647 -1.26975,7.3897 -1.3125,11.25 l 104.65625,0 c -0.0429,-3.79375 -0.47234,-7.50345 -1.28125,-11.0625 L 551.25,323.1875 l -34.125,7.59375 c -7.02038,-18.90107 -24.65562,-32.63861 -45.65625,-34 l -3.4375,-34.0625 z"
           transform="translate(37.142836,225.70764)"
           id="path2346-2-1" />
        <path
           style="fill:#e20909;fill-opacity:1;stroke:none"
           d="m 340.28348,574.11389 c -0.82679,4.69569 -0.5153,8.89313 1.59375,12.3125 3.70542,6.0074 11.72202,10.3815 22.09375,13.5625 l -20.03125,20.1875 31.28125,3.53125 c -9.09403,10.6342 -14.92572,20.9343 -14.28125,29.4375 1.27385,16.8092 36.03984,26.18715 54.0625,39.28125 18.02265,13.0943 37.68239,43.26395 54.0625,39.28125 7.56869,-1.8403 14.87981,-9.3162 21.65625,-19.6875 l 12.15625,23.65625 12.53125,-27.65625 c 7.46679,12.4481 15.67011,21.6165 24.18751,23.6875 16.3801,3.9827 36.0399,-26.18695 54.0625,-39.28125 18.0226,-13.0942 52.7887,-22.47205 54.0624,-39.28125 0.6254,-8.2517 -4.8337,-18.2006 -13.4687,-28.5 l 27.5625,-4.46875 -19.75,-18 c 14.2886,-3.2544 25.7093,-8.2363 30.3438,-15.75 2.109,-3.41937 2.4205,-7.61681 1.5937,-12.3125 l -116.5,0 c 0,0.19751 0,0.39572 0,0.59375 0,16.4256 -7.5693,31.05965 -19.4062,40.65625 l 18.5,31.34375 -24.3125,-27.21875 c -7.9079,4.7979 -17.19986,7.53125 -27.12501,7.53125 -9.99466,0 -19.33739,-2.79615 -27.28125,-7.65625 l -24.15625,27.34375 18.34375,-31.46875 c -11.74631,-9.5987 -19.25,-24.17865 -19.25,-40.53125 0,-0.19944 0.029,-0.39484 0.0312,-0.59375 l -112.5625,0 z"
           id="path6875-4-5"
           inkscape:connector-curvature="0" />
      </g>
    </g>
  </g>
</svg>
