<?xml version="1.0" encoding="UTF-8" standalone="no"?>
<!-- Created with Inkscape (http://www.inkscape.org/) -->

<svg
   xmlns:dc="http://purl.org/dc/elements/1.1/"
   xmlns:cc="http://creativecommons.org/ns#"
   xmlns:rdf="http://www.w3.org/1999/02/22-rdf-syntax-ns#"
   xmlns:svg="http://www.w3.org/2000/svg"
   xmlns="http://www.w3.org/2000/svg"
   xmlns:sodipodi="http://sodipodi.sourceforge.net/DTD/sodipodi-0.dtd"
   xmlns:inkscape="http://www.inkscape.org/namespaces/inkscape"
   width="600.00012"
   height="760.00006"
   id="svg8696"
   version="1.1"
   inkscape:version="0.48.4 r9939"
   sodipodi:docname="New document 161">
  <defs
     id="defs8698" />
  <sodipodi:namedview
     id="base"
     pagecolor="#ffffff"
     bordercolor="#666666"
     borderopacity="1.0"
     inkscape:pageopacity="0.0"
     inkscape:pageshadow="2"
     inkscape:zoom="0.35"
     inkscape:cx="1197.8572"
     inkscape:cy="-371.42855"
     inkscape:document-units="px"
     inkscape:current-layer="layer1"
     showgrid="false"
     fit-margin-top="0"
     fit-margin-left="0"
     fit-margin-right="0"
     fit-margin-bottom="0"
     inkscape:window-width="1600"
     inkscape:window-height="1147"
     inkscape:window-x="1592"
     inkscape:window-y="-8"
     inkscape:window-maximized="1" />
  <metadata
     id="metadata8701">
    <rdf:RDF>
      <cc:Work
         rdf:about="">
        <dc:format>image/svg+xml</dc:format>
        <dc:type
           rdf:resource="http://purl.org/dc/dcmitype/StillImage" />
        <dc:title></dc:title>
      </cc:Work>
    </rdf:RDF>
  </metadata>
  <g
     inkscape:label="Layer 1"
     inkscape:groupmode="layer"
     id="layer1"
     transform="translate(822.85721,599.06641)">
    <g
       transform="translate(-859.99998,-824.77403)"
       id="g8675">
      <path
         inkscape:connector-curvature="0"
         d="m 37.142766,225.70762 0,458.8679 c 0,166.31064 134.314704,301.13214 300.000154,301.13214 165.68539,0 299.99999,-134.8215 299.99999,-301.13214 l 0,-458.8679 -600.000144,0 z"
         id="path2346-2-6"
         style="fill:#ffffff;fill-opacity:1" />
      <path
         inkscape:connector-curvature="0"
         id="path6875-4-5"
         d="m 336.99295,717.50952 c 4.69569,0.82679 8.89313,0.5153 12.3125,-1.59375 6.0074,-3.70542 10.3815,-11.72202 13.5625,-22.09375 l 20.1875,20.03125 3.53125,-31.28125 c 10.6342,9.09403 20.9343,14.92572 29.4375,14.28125 16.8092,-1.27385 26.18715,-36.03984 39.28125,-54.0625 13.0943,-18.02265 43.26395,-37.68239 39.28125,-54.0625 -1.8403,-7.56869 -9.3162,-14.87981 -19.6875,-21.65625 l 23.65625,-12.15625 -27.65625,-12.53125 c 12.4481,-7.46679 21.6165,-15.67011 23.6875,-24.18751 3.9827,-16.3801 -26.18695,-36.0399 -39.28125,-54.0625 -13.0942,-18.0226 -22.47205,-52.7887 -39.28125,-54.0624 -8.2517,-0.6254 -18.2006,4.8337 -28.5,13.4687 l -4.46875,-27.5625 -18,19.75 c -3.2544,-14.2886 -8.2363,-25.7093 -15.75,-30.3438 -3.41937,-2.109 -7.61681,-2.4205 -12.3125,-1.5937 l 0,116.5 c 0.19751,0 0.39572,0 0.59375,0 16.4256,0 31.05965,7.5693 40.65625,19.4062 l 31.34375,-18.5 -27.21875,24.3125 c 4.7979,7.9079 7.53125,17.19986 7.53125,27.12501 0,9.99466 -2.79615,19.33739 -7.65625,27.28125 l 27.34375,24.15625 -31.46875,-18.34375 c -9.5987,11.74631 -24.17865,19.25 -40.53125,19.25 -0.19944,0 -0.39484,-0.029 -0.59375,-0.0312 l 0,112.5625 z"
         style="fill:#e20909;fill-opacity:1;stroke:none" />
      <path
         id="rect3029-4-9"
         d="m 37.142836,225.70768 0,458.87497 c 0,166.31065 134.314804,301.12495 300.000104,301.12495 l 0,-759.99992 -300.000104,0 z"
         style="fill:#e20909;fill-opacity:1;stroke:none"
         inkscape:connector-curvature="0" />
      <path
         inkscape:connector-curvature="0"
         id="path6875-4-5-4"
         d="m 336.99295,717.50952 c -4.69569,0.82679 -8.89313,0.5153 -12.3125,-1.59375 -6.0074,-3.70542 -10.3815,-11.72202 -13.5625,-22.09375 l -20.1875,20.03125 -3.53125,-31.28125 c -10.6342,9.09403 -20.93431,14.92572 -29.43751,14.28125 -16.8092,-1.27385 -26.18715,-36.03984 -39.28125,-54.0625 -13.0943,-18.02265 -43.26395,-37.68239 -39.28125,-54.0625 1.8403,-7.56869 9.3162,-14.87981 19.6875,-21.65625 l -23.65625,-12.15625 27.65625,-12.53125 c -12.4481,-7.46679 -21.6165,-15.67011 -23.6875,-24.18751 -3.9827,-16.3801 26.18695,-36.0399 39.28125,-54.0625 13.0942,-18.0226 22.47205,-52.7887 39.28125,-54.0624 8.2517,-0.6254 18.20061,4.8337 28.50001,13.4687 l 4.46875,-27.5625 18,19.75 c 3.2544,-14.2886 8.2363,-25.7093 15.75,-30.3438 3.41937,-2.109 7.61681,-2.4205 12.3125,-1.5937 l 0,116.5 c -0.19751,0 -0.39572,0 -0.59375,0 -16.4256,0 -31.05965,7.5693 -40.65625,19.4062 l -31.34376,-18.5 27.21876,24.3125 c -4.7979,7.9079 -7.53125,17.19986 -7.53125,27.12501 0,9.99466 2.79615,19.33739 7.65625,27.28125 l -27.34376,24.15625 31.46876,-18.34375 c 9.5987,11.74631 24.17865,19.25 40.53125,19.25 0.19944,0 0.39484,-0.029 0.59375,-0.0312 l 0,112.5625 z"
         style="fill:#ffffff;fill-opacity:1;stroke:none" />
    </g>
  </g>
</svg>
