<?xml version="1.0" encoding="UTF-8" standalone="no"?>
<!-- Created with Inkscape (http://www.inkscape.org/) -->

<svg
   xmlns:dc="http://purl.org/dc/elements/1.1/"
   xmlns:cc="http://creativecommons.org/ns#"
   xmlns:rdf="http://www.w3.org/1999/02/22-rdf-syntax-ns#"
   xmlns:svg="http://www.w3.org/2000/svg"
   xmlns="http://www.w3.org/2000/svg"
   xmlns:xlink="http://www.w3.org/1999/xlink"
   xmlns:sodipodi="http://sodipodi.sourceforge.net/DTD/sodipodi-0.dtd"
   xmlns:inkscape="http://www.inkscape.org/namespaces/inkscape"
   width="600"
   height="760"
   id="svg2"
   version="1.1"
   inkscape:version="0.48.4 r9939"
   sodipodi:docname="base.svg">
  <defs
     id="defs4">
    <radialGradient
       cx="858.04236"
       cy="579.93323"
       r="300"
       fx="858.04236"
       fy="579.93323"
       id="radialGradient3236"
       xlink:href="#linearGradient2893"
       gradientUnits="userSpaceOnUse"
       gradientTransform="matrix(1.215027,0,0,1.266667,-839.1924,-490.4894)" />
    <linearGradient
       id="linearGradient2893">
      <stop
         id="stop2895"
         style="stop-color:#ffffff;stop-opacity:0.3137255"
         offset="0" />
      <stop
         id="stop2897"
         style="stop-color:#ffffff;stop-opacity:0.25098041"
         offset="0.19" />
      <stop
         id="stop2901"
         style="stop-color:#6b6b6b;stop-opacity:0.1254902"
         offset="0.60000002" />
      <stop
         id="stop2899"
         style="stop-color:#000000;stop-opacity:0.1254902"
         offset="1" />
    </linearGradient>
    <clipPath
       id="clipPath3983-1">
      <path
         inkscape:connector-curvature="0"
         d="m 1.5,1.5 0,458.86794 C 1.5,626.67854 135.81454,761.5 301.49993,761.5 467.1854,761.5 601.5,626.67854 601.5,460.36794 L 601.5,1.5 1.5,1.5 z"
         id="path3985-7"
         style="fill:none;stroke:#000000;stroke-width:3;stroke-miterlimit:4;stroke-opacity:1;stroke-dasharray:none;display:inline" />
    </clipPath>
    <linearGradient
       inkscape:collect="always"
       xlink:href="#linearGradient3693"
       id="linearGradient3222"
       gradientUnits="userSpaceOnUse"
       gradientTransform="matrix(0.276504,0,-0.518581,0.534815,357.1774,286.9045)"
       x1="251.96013"
       y1="562.48187"
       x2="277.76328"
       y2="590.94122" />
    <linearGradient
       id="linearGradient3693">
      <stop
         style="stop-color:#969aa4;stop-opacity:1"
         offset="0"
         id="stop3695" />
      <stop
         style="stop-color:#cdcdcf;stop-opacity:1"
         offset="1"
         id="stop3697" />
    </linearGradient>
    <linearGradient
       inkscape:collect="always"
       xlink:href="#linearGradient3693"
       id="linearGradient3224"
       gradientUnits="userSpaceOnUse"
       gradientTransform="translate(-4.553496,53.57144)"
       x1="251.96013"
       y1="562.48187"
       x2="277.76328"
       y2="590.94122" />
    <linearGradient
       id="linearGradient4125">
      <stop
         style="stop-color:#969aa4;stop-opacity:1"
         offset="0"
         id="stop4127" />
      <stop
         style="stop-color:#cdcdcf;stop-opacity:1"
         offset="1"
         id="stop4129" />
    </linearGradient>
    <linearGradient
       inkscape:collect="always"
       xlink:href="#linearGradient3693"
       id="linearGradient3226"
       gradientUnits="userSpaceOnUse"
       gradientTransform="translate(0,52.81252)"
       x1="251.96013"
       y1="562.48187"
       x2="277.76328"
       y2="590.94122" />
    <linearGradient
       id="linearGradient4132">
      <stop
         style="stop-color:#969aa4;stop-opacity:1"
         offset="0"
         id="stop4134" />
      <stop
         style="stop-color:#cdcdcf;stop-opacity:1"
         offset="1"
         id="stop4136" />
    </linearGradient>
    <linearGradient
       inkscape:collect="always"
       xlink:href="#linearGradient3368"
       id="linearGradient3228"
       gradientUnits="userSpaceOnUse"
       gradientTransform="matrix(0.999044,0.06415167,-0.03758326,-0.862868,21.30428,985.5672)"
       x1="471.61212"
       y1="495.37201"
       x2="503.05295"
       y2="474.77286" />
    <linearGradient
       id="linearGradient3368">
      <stop
         style="stop-color:#969aa4;stop-opacity:1"
         offset="0"
         id="stop3370" />
      <stop
         style="stop-color:#d6d6d6;stop-opacity:1"
         offset="1"
         id="stop3372" />
    </linearGradient>
    <linearGradient
       inkscape:collect="always"
       xlink:href="#linearGradient3667"
       id="linearGradient3230"
       gradientUnits="userSpaceOnUse"
       gradientTransform="matrix(0.999044,0.06415167,-0.03758326,-0.862868,21.30428,985.5672)"
       x1="472.69629"
       y1="494.5589"
       x2="495.19272"
       y2="473.41766" />
    <linearGradient
       id="linearGradient3667">
      <stop
         style="stop-color:#000000;stop-opacity:1"
         offset="0"
         id="stop3669" />
      <stop
         style="stop-color:#000000;stop-opacity:0"
         offset="1"
         id="stop3671" />
    </linearGradient>
    <linearGradient
       inkscape:collect="always"
       xlink:href="#linearGradient3354"
       id="linearGradient3232"
       gradientUnits="userSpaceOnUse"
       gradientTransform="matrix(1.067377,-0.00225162,-0.163928,-0.974627,45.09665,1076.599)"
       x1="379.72906"
       y1="477.21222"
       x2="410.62778"
       y2="446.58456" />
    <linearGradient
       id="linearGradient3354">
      <stop
         style="stop-color:#969aa4;stop-opacity:1"
         offset="0"
         id="stop3356" />
      <stop
         style="stop-color:#d7d7d7;stop-opacity:1"
         offset="1"
         id="stop3358" />
    </linearGradient>
    <linearGradient
       inkscape:collect="always"
       xlink:href="#linearGradient3631"
       id="linearGradient3234"
       gradientUnits="userSpaceOnUse"
       gradientTransform="matrix(1.067377,-0.00225162,-0.163928,-0.974627,45.09647,1076.598)"
       x1="379.72906"
       y1="473.68869"
       x2="399.24405"
       y2="444.68726" />
    <linearGradient
       id="linearGradient3631">
      <stop
         style="stop-color:#000000;stop-opacity:1"
         offset="0"
         id="stop3633" />
      <stop
         style="stop-color:#000000;stop-opacity:0"
         offset="1"
         id="stop3635" />
    </linearGradient>
    <linearGradient
       inkscape:collect="always"
       xlink:href="#linearGradient3767"
       id="linearGradient3236"
       gradientUnits="userSpaceOnUse"
       gradientTransform="translate(0,52.81252)"
       x1="200.9351"
       y1="499.04086"
       x2="545.82373"
       y2="520.03412" />
    <linearGradient
       id="linearGradient3767">
      <stop
         style="stop-color:#5474ab;stop-opacity:1"
         offset="0"
         id="stop3769" />
      <stop
         style="stop-color:#39527c;stop-opacity:1"
         offset="1"
         id="stop3771" />
    </linearGradient>
    <linearGradient
       inkscape:collect="always"
       xlink:href="#linearGradient3759"
       id="linearGradient3238"
       gradientUnits="userSpaceOnUse"
       gradientTransform="translate(0,52.81252)"
       x1="353.49603"
       y1="577.46967"
       x2="350.81839"
       y2="519.71106" />
    <linearGradient
       id="linearGradient3759">
      <stop
         style="stop-color:#ffffff;stop-opacity:1"
         offset="0"
         id="stop3761" />
      <stop
         style="stop-color:#ffffff;stop-opacity:0"
         offset="1"
         id="stop3763" />
    </linearGradient>
    <linearGradient
       inkscape:collect="always"
       xlink:href="#linearGradient3368"
       id="linearGradient3240"
       gradientUnits="userSpaceOnUse"
       gradientTransform="translate(0,52.81252)"
       x1="471.61212"
       y1="495.37201"
       x2="503.05295"
       y2="474.77286" />
    <linearGradient
       id="linearGradient4163">
      <stop
         style="stop-color:#969aa4;stop-opacity:1"
         offset="0"
         id="stop4165" />
      <stop
         style="stop-color:#d6d6d6;stop-opacity:1"
         offset="1"
         id="stop4167" />
    </linearGradient>
    <linearGradient
       inkscape:collect="always"
       xlink:href="#linearGradient3354"
       id="linearGradient3242"
       gradientUnits="userSpaceOnUse"
       gradientTransform="translate(0,52.81252)"
       x1="379.72906"
       y1="477.21222"
       x2="410.62778"
       y2="446.58456" />
    <linearGradient
       id="linearGradient4170">
      <stop
         style="stop-color:#969aa4;stop-opacity:1"
         offset="0"
         id="stop4172" />
      <stop
         style="stop-color:#d7d7d7;stop-opacity:1"
         offset="1"
         id="stop4174" />
    </linearGradient>
    <linearGradient
       inkscape:collect="always"
       xlink:href="#linearGradient2306"
       id="linearGradient3244"
       gradientUnits="userSpaceOnUse"
       gradientTransform="translate(0,52.81252)"
       x1="278.90164"
       y1="452.0596"
       x2="306.98154"
       y2="423.60025" />
    <linearGradient
       id="linearGradient2306">
      <stop
         style="stop-color:#969aa4;stop-opacity:1"
         offset="0"
         id="stop2308" />
      <stop
         style="stop-color:#d8d8d8;stop-opacity:1"
         offset="1"
         id="stop2310" />
    </linearGradient>
    <linearGradient
       inkscape:collect="always"
       xlink:href="#linearGradient2248"
       id="linearGradient3246"
       gradientUnits="userSpaceOnUse"
       gradientTransform="translate(0,52.81252)"
       x1="246.26826"
       y1="518.84418"
       x2="316.08853"
       y2="508.9783" />
    <linearGradient
       id="linearGradient2248">
      <stop
         style="stop-color:#a8afbb;stop-opacity:1"
         offset="0"
         id="stop2250" />
      <stop
         style="stop-color:#e1e1e1;stop-opacity:1"
         offset="1"
         id="stop2252" />
    </linearGradient>
    <linearGradient
       inkscape:collect="always"
       xlink:href="#linearGradient3724"
       id="linearGradient3248"
       gradientUnits="userSpaceOnUse"
       gradientTransform="matrix(1.087299,0,0,1,-21.09082,52.81252)"
       x1="253.15271"
       y1="508.9241"
       x2="280.27502"
       y2="529.80597" />
    <linearGradient
       id="linearGradient3724">
      <stop
         style="stop-color:#000000;stop-opacity:1"
         offset="0"
         id="stop3726" />
      <stop
         style="stop-color:#000000;stop-opacity:0"
         offset="1"
         id="stop3728" />
    </linearGradient>
    <linearGradient
       inkscape:collect="always"
       xlink:href="#linearGradient3775"
       id="linearGradient3250"
       gradientUnits="userSpaceOnUse"
       gradientTransform="translate(0,52.81252)"
       x1="244.42107"
       y1="486.29498"
       x2="659.78693"
       y2="519.60742" />
    <linearGradient
       id="linearGradient3775">
      <stop
         style="stop-color:#11264a;stop-opacity:1"
         offset="0"
         id="stop3777" />
      <stop
         style="stop-color:#374c72;stop-opacity:1"
         offset="1"
         id="stop3779" />
    </linearGradient>
    <linearGradient
       inkscape:collect="always"
       xlink:href="#linearGradient3567"
       id="linearGradient3252"
       gradientUnits="userSpaceOnUse"
       gradientTransform="translate(0,52.81252)"
       x1="272.83035"
       y1="445.98825"
       x2="316.87064"
       y2="438.13382" />
    <linearGradient
       id="linearGradient3567">
      <stop
         style="stop-color:#000000;stop-opacity:1"
         offset="0"
         id="stop3569" />
      <stop
         style="stop-color:#000000;stop-opacity:0"
         offset="1"
         id="stop3571" />
    </linearGradient>
    <linearGradient
       inkscape:collect="always"
       xlink:href="#linearGradient3631"
       id="linearGradient3254"
       gradientUnits="userSpaceOnUse"
       gradientTransform="translate(0,52.81252)"
       x1="379.72906"
       y1="473.68869"
       x2="399.24405"
       y2="444.68726" />
    <linearGradient
       id="linearGradient4197">
      <stop
         style="stop-color:#000000;stop-opacity:1"
         offset="0"
         id="stop4199" />
      <stop
         style="stop-color:#000000;stop-opacity:0"
         offset="1"
         id="stop4201" />
    </linearGradient>
    <linearGradient
       inkscape:collect="always"
       xlink:href="#linearGradient3667"
       id="linearGradient3256"
       gradientUnits="userSpaceOnUse"
       gradientTransform="translate(0,52.81252)"
       x1="472.69629"
       y1="494.5589"
       x2="495.19272"
       y2="473.41766" />
    <linearGradient
       id="linearGradient4204">
      <stop
         style="stop-color:#000000;stop-opacity:1"
         offset="0"
         id="stop4206" />
      <stop
         style="stop-color:#000000;stop-opacity:0"
         offset="1"
         id="stop4208" />
    </linearGradient>
    <linearGradient
       inkscape:collect="always"
       xlink:href="#linearGradient3445"
       id="linearGradient3258"
       gradientUnits="userSpaceOnUse"
       gradientTransform="translate(0,52.81252)"
       x1="621.021"
       y1="516.32806"
       x2="567.39746"
       y2="516.32806" />
    <linearGradient
       id="linearGradient3445">
      <stop
         style="stop-color:#969aa4;stop-opacity:1"
         offset="0"
         id="stop3447" />
      <stop
         style="stop-color:#d5d5d5;stop-opacity:1"
         offset="1"
         id="stop3449" />
    </linearGradient>
    <linearGradient
       inkscape:collect="always"
       xlink:href="#linearGradient3514"
       id="linearGradient3260"
       gradientUnits="userSpaceOnUse"
       gradientTransform="translate(0,52.81252)"
       x1="613.58362"
       y1="516.10938"
       x2="563.87463"
       y2="516.10938" />
    <linearGradient
       id="linearGradient3514">
      <stop
         style="stop-color:#000000;stop-opacity:0"
         offset="0"
         id="stop3516" />
      <stop
         style="stop-color:#000000;stop-opacity:1"
         offset="1"
         id="stop3518" />
    </linearGradient>
    <linearGradient
       inkscape:collect="always"
       xlink:href="#linearGradient2224"
       id="linearGradient3262"
       gradientUnits="userSpaceOnUse"
       gradientTransform="translate(0,52.81252)"
       x1="144.49762"
       y1="503.59"
       x2="817.58026"
       y2="503.05875" />
    <linearGradient
       id="linearGradient2224">
      <stop
         style="stop-color:#243044;stop-opacity:1"
         offset="0"
         id="stop2226" />
      <stop
         style="stop-color:#3d5f94;stop-opacity:1"
         offset="1"
         id="stop2228" />
    </linearGradient>
    <radialGradient
       inkscape:collect="always"
       xlink:href="#linearGradient2208"
       id="radialGradient3264"
       gradientUnits="userSpaceOnUse"
       gradientTransform="matrix(-0.30774,1.166842,-1.044041,-0.27533,619.6395,374.3587)"
       cx="142.93222"
       cy="425.0593"
       fx="142.93222"
       fy="425.0593"
       r="11.805615" />
    <linearGradient
       id="linearGradient2208">
      <stop
         style="stop-color:#ffff00;stop-opacity:1"
         offset="0"
         id="stop2210" />
      <stop
         style="stop-color:#ffffff;stop-opacity:1"
         offset="1"
         id="stop2212" />
    </linearGradient>
    <linearGradient
       id="linearGradient3693-8">
      <stop
         style="stop-color:#969aa4;stop-opacity:1"
         offset="0"
         id="stop3695-8" />
      <stop
         style="stop-color:#cdcdcf;stop-opacity:1"
         offset="1"
         id="stop3697-2" />
    </linearGradient>
    <linearGradient
       id="linearGradient4116">
      <stop
         style="stop-color:#969aa4;stop-opacity:1"
         offset="0"
         id="stop4118" />
      <stop
         style="stop-color:#cdcdcf;stop-opacity:1"
         offset="1"
         id="stop4120" />
    </linearGradient>
    <linearGradient
       id="linearGradient4123">
      <stop
         style="stop-color:#969aa4;stop-opacity:1"
         offset="0"
         id="stop4125" />
      <stop
         style="stop-color:#cdcdcf;stop-opacity:1"
         offset="1"
         id="stop4127-5" />
    </linearGradient>
    <linearGradient
       id="linearGradient3368-7">
      <stop
         style="stop-color:#969aa4;stop-opacity:1"
         offset="0"
         id="stop3370-1" />
      <stop
         style="stop-color:#d6d6d6;stop-opacity:1"
         offset="1"
         id="stop3372-1" />
    </linearGradient>
    <linearGradient
       id="linearGradient3667-2">
      <stop
         style="stop-color:#000000;stop-opacity:1"
         offset="0"
         id="stop3669-7" />
      <stop
         style="stop-color:#000000;stop-opacity:0"
         offset="1"
         id="stop3671-6" />
    </linearGradient>
    <linearGradient
       id="linearGradient3354-4">
      <stop
         style="stop-color:#969aa4;stop-opacity:1"
         offset="0"
         id="stop3356-2" />
      <stop
         style="stop-color:#d7d7d7;stop-opacity:1"
         offset="1"
         id="stop3358-3" />
    </linearGradient>
    <linearGradient
       id="linearGradient3631-2">
      <stop
         style="stop-color:#000000;stop-opacity:1"
         offset="0"
         id="stop3633-1" />
      <stop
         style="stop-color:#000000;stop-opacity:0"
         offset="1"
         id="stop3635-6" />
    </linearGradient>
    <linearGradient
       id="linearGradient3767-5">
      <stop
         style="stop-color:#5474ab;stop-opacity:1"
         offset="0"
         id="stop3769-7" />
      <stop
         style="stop-color:#39527c;stop-opacity:1"
         offset="1"
         id="stop3771-6" />
    </linearGradient>
    <linearGradient
       id="linearGradient3759-8">
      <stop
         style="stop-color:#ffffff;stop-opacity:1"
         offset="0"
         id="stop3761-9" />
      <stop
         style="stop-color:#ffffff;stop-opacity:0"
         offset="1"
         id="stop3763-2" />
    </linearGradient>
    <linearGradient
       id="linearGradient4154">
      <stop
         style="stop-color:#969aa4;stop-opacity:1"
         offset="0"
         id="stop4156" />
      <stop
         style="stop-color:#d6d6d6;stop-opacity:1"
         offset="1"
         id="stop4158" />
    </linearGradient>
    <linearGradient
       id="linearGradient4161">
      <stop
         style="stop-color:#969aa4;stop-opacity:1"
         offset="0"
         id="stop4163" />
      <stop
         style="stop-color:#d7d7d7;stop-opacity:1"
         offset="1"
         id="stop4165-5" />
    </linearGradient>
    <linearGradient
       id="linearGradient2306-3">
      <stop
         style="stop-color:#969aa4;stop-opacity:1"
         offset="0"
         id="stop2308-1" />
      <stop
         style="stop-color:#d8d8d8;stop-opacity:1"
         offset="1"
         id="stop2310-2" />
    </linearGradient>
    <linearGradient
       id="linearGradient2248-3">
      <stop
         style="stop-color:#a8afbb;stop-opacity:1"
         offset="0"
         id="stop2250-4" />
      <stop
         style="stop-color:#e1e1e1;stop-opacity:1"
         offset="1"
         id="stop2252-1" />
    </linearGradient>
    <linearGradient
       id="linearGradient3724-3">
      <stop
         style="stop-color:#000000;stop-opacity:1"
         offset="0"
         id="stop3726-8" />
      <stop
         style="stop-color:#000000;stop-opacity:0"
         offset="1"
         id="stop3728-7" />
    </linearGradient>
    <linearGradient
       id="linearGradient3775-2">
      <stop
         style="stop-color:#11264a;stop-opacity:1"
         offset="0"
         id="stop3777-7" />
      <stop
         style="stop-color:#374c72;stop-opacity:1"
         offset="1"
         id="stop3779-7" />
    </linearGradient>
    <linearGradient
       id="linearGradient3567-3">
      <stop
         style="stop-color:#000000;stop-opacity:1"
         offset="0"
         id="stop3569-1" />
      <stop
         style="stop-color:#000000;stop-opacity:0"
         offset="1"
         id="stop3571-9" />
    </linearGradient>
    <linearGradient
       id="linearGradient4188">
      <stop
         style="stop-color:#000000;stop-opacity:1"
         offset="0"
         id="stop4190" />
      <stop
         style="stop-color:#000000;stop-opacity:0"
         offset="1"
         id="stop4192" />
    </linearGradient>
    <linearGradient
       id="linearGradient4195">
      <stop
         style="stop-color:#000000;stop-opacity:1"
         offset="0"
         id="stop4197" />
      <stop
         style="stop-color:#000000;stop-opacity:0"
         offset="1"
         id="stop4199-5" />
    </linearGradient>
    <linearGradient
       id="linearGradient3445-2">
      <stop
         style="stop-color:#969aa4;stop-opacity:1"
         offset="0"
         id="stop3447-8" />
      <stop
         style="stop-color:#d5d5d5;stop-opacity:1"
         offset="1"
         id="stop3449-6" />
    </linearGradient>
    <linearGradient
       id="linearGradient3514-2">
      <stop
         style="stop-color:#000000;stop-opacity:0"
         offset="0"
         id="stop3516-4" />
      <stop
         style="stop-color:#000000;stop-opacity:1"
         offset="1"
         id="stop3518-8" />
    </linearGradient>
    <linearGradient
       id="linearGradient2224-5">
      <stop
         style="stop-color:#243044;stop-opacity:1"
         offset="0"
         id="stop2226-0" />
      <stop
         style="stop-color:#3d5f94;stop-opacity:1"
         offset="1"
         id="stop2228-9" />
    </linearGradient>
    <linearGradient
       id="linearGradient2208-0">
      <stop
         style="stop-color:#ffff00;stop-opacity:1"
         offset="0"
         id="stop2210-6" />
      <stop
         style="stop-color:#ffffff;stop-opacity:1"
         offset="1"
         id="stop2212-1" />
    </linearGradient>
    <linearGradient
       id="linearGradient2208-0-3">
      <stop
         id="stop2210-6-5"
         offset="0"
         style="stop-color:#ffff00;stop-opacity:1" />
      <stop
         id="stop2212-1-1"
         offset="1"
         style="stop-color:#ffffff;stop-opacity:1" />
    </linearGradient>
    <linearGradient
       id="linearGradient2224-5-4">
      <stop
         id="stop2226-0-7"
         offset="0"
         style="stop-color:#243044;stop-opacity:1" />
      <stop
         id="stop2228-9-8"
         offset="1"
         style="stop-color:#3d5f94;stop-opacity:1" />
    </linearGradient>
    <linearGradient
       id="linearGradient3514-2-5">
      <stop
         id="stop3516-4-0"
         offset="0"
         style="stop-color:#000000;stop-opacity:0" />
      <stop
         id="stop3518-8-9"
         offset="1"
         style="stop-color:#000000;stop-opacity:1" />
    </linearGradient>
    <linearGradient
       id="linearGradient3445-2-0">
      <stop
         id="stop3447-8-1"
         offset="0"
         style="stop-color:#969aa4;stop-opacity:1" />
      <stop
         id="stop3449-6-2"
         offset="1"
         style="stop-color:#d5d5d5;stop-opacity:1" />
    </linearGradient>
    <linearGradient
       id="linearGradient4195-0">
      <stop
         id="stop4197-3"
         offset="0"
         style="stop-color:#000000;stop-opacity:1" />
      <stop
         id="stop4199-5-8"
         offset="1"
         style="stop-color:#000000;stop-opacity:0" />
    </linearGradient>
    <linearGradient
       id="linearGradient4188-2">
      <stop
         id="stop4190-6"
         offset="0"
         style="stop-color:#000000;stop-opacity:1" />
      <stop
         id="stop4192-6"
         offset="1"
         style="stop-color:#000000;stop-opacity:0" />
    </linearGradient>
    <linearGradient
       id="linearGradient3567-3-8">
      <stop
         id="stop3569-1-1"
         offset="0"
         style="stop-color:#000000;stop-opacity:1" />
      <stop
         id="stop3571-9-8"
         offset="1"
         style="stop-color:#000000;stop-opacity:0" />
    </linearGradient>
    <linearGradient
       id="linearGradient3775-2-5">
      <stop
         id="stop3777-7-9"
         offset="0"
         style="stop-color:#11264a;stop-opacity:1" />
      <stop
         id="stop3779-7-9"
         offset="1"
         style="stop-color:#374c72;stop-opacity:1" />
    </linearGradient>
    <linearGradient
       id="linearGradient3724-3-7">
      <stop
         id="stop3726-8-3"
         offset="0"
         style="stop-color:#000000;stop-opacity:1" />
      <stop
         id="stop3728-7-3"
         offset="1"
         style="stop-color:#000000;stop-opacity:0" />
    </linearGradient>
    <linearGradient
       id="linearGradient2248-3-7">
      <stop
         id="stop2250-4-7"
         offset="0"
         style="stop-color:#a8afbb;stop-opacity:1" />
      <stop
         id="stop2252-1-7"
         offset="1"
         style="stop-color:#e1e1e1;stop-opacity:1" />
    </linearGradient>
    <linearGradient
       id="linearGradient2306-3-0">
      <stop
         id="stop2308-1-7"
         offset="0"
         style="stop-color:#969aa4;stop-opacity:1" />
      <stop
         id="stop2310-2-1"
         offset="1"
         style="stop-color:#d8d8d8;stop-opacity:1" />
    </linearGradient>
    <linearGradient
       id="linearGradient4161-1">
      <stop
         id="stop4163-4"
         offset="0"
         style="stop-color:#969aa4;stop-opacity:1" />
      <stop
         id="stop4165-5-6"
         offset="1"
         style="stop-color:#d7d7d7;stop-opacity:1" />
    </linearGradient>
    <linearGradient
       id="linearGradient4154-2">
      <stop
         id="stop4156-0"
         offset="0"
         style="stop-color:#969aa4;stop-opacity:1" />
      <stop
         id="stop4158-0"
         offset="1"
         style="stop-color:#d6d6d6;stop-opacity:1" />
    </linearGradient>
    <linearGradient
       id="linearGradient3759-8-5">
      <stop
         id="stop3761-9-4"
         offset="0"
         style="stop-color:#ffffff;stop-opacity:1" />
      <stop
         id="stop3763-2-1"
         offset="1"
         style="stop-color:#ffffff;stop-opacity:0" />
    </linearGradient>
    <linearGradient
       id="linearGradient3767-5-6">
      <stop
         id="stop3769-7-5"
         offset="0"
         style="stop-color:#5474ab;stop-opacity:1" />
      <stop
         id="stop3771-6-7"
         offset="1"
         style="stop-color:#39527c;stop-opacity:1" />
    </linearGradient>
    <linearGradient
       id="linearGradient3631-2-6">
      <stop
         id="stop3633-1-0"
         offset="0"
         style="stop-color:#000000;stop-opacity:1" />
      <stop
         id="stop3635-6-1"
         offset="1"
         style="stop-color:#000000;stop-opacity:0" />
    </linearGradient>
    <linearGradient
       id="linearGradient3354-4-3">
      <stop
         id="stop3356-2-7"
         offset="0"
         style="stop-color:#969aa4;stop-opacity:1" />
      <stop
         id="stop3358-3-2"
         offset="1"
         style="stop-color:#d7d7d7;stop-opacity:1" />
    </linearGradient>
    <linearGradient
       id="linearGradient3667-2-0">
      <stop
         id="stop3669-7-9"
         offset="0"
         style="stop-color:#000000;stop-opacity:1" />
      <stop
         id="stop3671-6-7"
         offset="1"
         style="stop-color:#000000;stop-opacity:0" />
    </linearGradient>
    <linearGradient
       id="linearGradient3368-7-5">
      <stop
         id="stop3370-1-4"
         offset="0"
         style="stop-color:#969aa4;stop-opacity:1" />
      <stop
         id="stop3372-1-2"
         offset="1"
         style="stop-color:#d6d6d6;stop-opacity:1" />
    </linearGradient>
    <linearGradient
       id="linearGradient4123-3">
      <stop
         id="stop4125-6"
         offset="0"
         style="stop-color:#969aa4;stop-opacity:1" />
      <stop
         id="stop4127-5-1"
         offset="1"
         style="stop-color:#cdcdcf;stop-opacity:1" />
    </linearGradient>
    <linearGradient
       id="linearGradient4116-0">
      <stop
         id="stop4118-7"
         offset="0"
         style="stop-color:#969aa4;stop-opacity:1" />
      <stop
         id="stop4120-6"
         offset="1"
         style="stop-color:#cdcdcf;stop-opacity:1" />
    </linearGradient>
    <linearGradient
       id="linearGradient3693-8-9">
      <stop
         id="stop3695-8-8"
         offset="0"
         style="stop-color:#969aa4;stop-opacity:1" />
      <stop
         id="stop3697-2-4"
         offset="1"
         style="stop-color:#cdcdcf;stop-opacity:1" />
    </linearGradient>
    <linearGradient
       id="linearGradient2208-1">
      <stop
         id="stop2210-3"
         offset="0"
         style="stop-color:#ffff00;stop-opacity:1" />
      <stop
         id="stop2212-5"
         offset="1"
         style="stop-color:#ffffff;stop-opacity:1" />
    </linearGradient>
    <radialGradient
       r="11.805615"
       fy="425.0593"
       fx="142.93222"
       cy="425.0593"
       cx="142.93222"
       gradientTransform="matrix(-0.30774,1.166842,-1.044041,-0.27533,619.6395,374.3587)"
       gradientUnits="userSpaceOnUse"
       id="radialGradient3264-9"
       xlink:href="#linearGradient2208-1"
       inkscape:collect="always" />
    <linearGradient
       id="linearGradient2224-8">
      <stop
         id="stop2226-8"
         offset="0"
         style="stop-color:#243044;stop-opacity:1" />
      <stop
         id="stop2228-2"
         offset="1"
         style="stop-color:#3d5f94;stop-opacity:1" />
    </linearGradient>
    <linearGradient
       y2="503.05875"
       x2="817.58026"
       y1="503.59"
       x1="144.49762"
       gradientTransform="translate(0,52.81252)"
       gradientUnits="userSpaceOnUse"
       id="linearGradient3262-7"
       xlink:href="#linearGradient2224-8"
       inkscape:collect="always" />
    <linearGradient
       id="linearGradient3514-9">
      <stop
         id="stop3516-6"
         offset="0"
         style="stop-color:#000000;stop-opacity:0" />
      <stop
         id="stop3518-3"
         offset="1"
         style="stop-color:#000000;stop-opacity:1" />
    </linearGradient>
    <linearGradient
       y2="516.10938"
       x2="563.87463"
       y1="516.10938"
       x1="613.58362"
       gradientTransform="translate(0,52.81252)"
       gradientUnits="userSpaceOnUse"
       id="linearGradient3260-4"
       xlink:href="#linearGradient3514-9"
       inkscape:collect="always" />
    <linearGradient
       id="linearGradient3445-6">
      <stop
         id="stop3447-1"
         offset="0"
         style="stop-color:#969aa4;stop-opacity:1" />
      <stop
         id="stop3449-8"
         offset="1"
         style="stop-color:#d5d5d5;stop-opacity:1" />
    </linearGradient>
    <linearGradient
       y2="516.32806"
       x2="567.39746"
       y1="516.32806"
       x1="621.021"
       gradientTransform="translate(0,52.81252)"
       gradientUnits="userSpaceOnUse"
       id="linearGradient3258-6"
       xlink:href="#linearGradient3445-6"
       inkscape:collect="always" />
    <linearGradient
       id="linearGradient4204-4">
      <stop
         id="stop4206-6"
         offset="0"
         style="stop-color:#000000;stop-opacity:1" />
      <stop
         id="stop4208-0"
         offset="1"
         style="stop-color:#000000;stop-opacity:0" />
    </linearGradient>
    <linearGradient
       y2="473.41766"
       x2="495.19272"
       y1="494.5589"
       x1="472.69629"
       gradientTransform="translate(0,52.81252)"
       gradientUnits="userSpaceOnUse"
       id="linearGradient3256-4"
       xlink:href="#linearGradient3667-5"
       inkscape:collect="always" />
    <linearGradient
       id="linearGradient4197-8">
      <stop
         id="stop4199-9"
         offset="0"
         style="stop-color:#000000;stop-opacity:1" />
      <stop
         id="stop4201-3"
         offset="1"
         style="stop-color:#000000;stop-opacity:0" />
    </linearGradient>
    <linearGradient
       y2="444.68726"
       x2="399.24405"
       y1="473.68869"
       x1="379.72906"
       gradientTransform="translate(0,52.81252)"
       gradientUnits="userSpaceOnUse"
       id="linearGradient3254-3"
       xlink:href="#linearGradient3631-4"
       inkscape:collect="always" />
    <linearGradient
       id="linearGradient3567-0">
      <stop
         id="stop3569-6"
         offset="0"
         style="stop-color:#000000;stop-opacity:1" />
      <stop
         id="stop3571-1"
         offset="1"
         style="stop-color:#000000;stop-opacity:0" />
    </linearGradient>
    <linearGradient
       y2="438.13382"
       x2="316.87064"
       y1="445.98825"
       x1="272.83035"
       gradientTransform="translate(0,52.81252)"
       gradientUnits="userSpaceOnUse"
       id="linearGradient3252-0"
       xlink:href="#linearGradient3567-0"
       inkscape:collect="always" />
    <linearGradient
       id="linearGradient3775-5">
      <stop
         id="stop3777-0"
         offset="0"
         style="stop-color:#11264a;stop-opacity:1" />
      <stop
         id="stop3779-9"
         offset="1"
         style="stop-color:#374c72;stop-opacity:1" />
    </linearGradient>
    <linearGradient
       y2="519.60742"
       x2="659.78693"
       y1="486.29498"
       x1="244.42107"
       gradientTransform="translate(0,52.81252)"
       gradientUnits="userSpaceOnUse"
       id="linearGradient3250-6"
       xlink:href="#linearGradient3775-5"
       inkscape:collect="always" />
    <linearGradient
       id="linearGradient3724-2">
      <stop
         id="stop3726-4"
         offset="0"
         style="stop-color:#000000;stop-opacity:1" />
      <stop
         id="stop3728-8"
         offset="1"
         style="stop-color:#000000;stop-opacity:0" />
    </linearGradient>
    <linearGradient
       y2="529.80597"
       x2="280.27502"
       y1="508.9241"
       x1="253.15271"
       gradientTransform="matrix(1.087299,0,0,1,-21.09082,52.81252)"
       gradientUnits="userSpaceOnUse"
       id="linearGradient3248-0"
       xlink:href="#linearGradient3724-2"
       inkscape:collect="always" />
    <linearGradient
       id="linearGradient2248-2">
      <stop
         id="stop2250-8"
         offset="0"
         style="stop-color:#a8afbb;stop-opacity:1" />
      <stop
         id="stop2252-6"
         offset="1"
         style="stop-color:#e1e1e1;stop-opacity:1" />
    </linearGradient>
    <linearGradient
       y2="508.9783"
       x2="316.08853"
       y1="518.84418"
       x1="246.26826"
       gradientTransform="translate(0,52.81252)"
       gradientUnits="userSpaceOnUse"
       id="linearGradient3246-0"
       xlink:href="#linearGradient2248-2"
       inkscape:collect="always" />
    <linearGradient
       id="linearGradient2306-8">
      <stop
         id="stop2308-6"
         offset="0"
         style="stop-color:#969aa4;stop-opacity:1" />
      <stop
         id="stop2310-5"
         offset="1"
         style="stop-color:#d8d8d8;stop-opacity:1" />
    </linearGradient>
    <linearGradient
       y2="423.60025"
       x2="306.98154"
       y1="452.0596"
       x1="278.90164"
       gradientTransform="translate(0,52.81252)"
       gradientUnits="userSpaceOnUse"
       id="linearGradient3244-9"
       xlink:href="#linearGradient2306-8"
       inkscape:collect="always" />
    <linearGradient
       id="linearGradient4170-9">
      <stop
         id="stop4172-3"
         offset="0"
         style="stop-color:#969aa4;stop-opacity:1" />
      <stop
         id="stop4174-1"
         offset="1"
         style="stop-color:#d7d7d7;stop-opacity:1" />
    </linearGradient>
    <linearGradient
       y2="446.58456"
       x2="410.62778"
       y1="477.21222"
       x1="379.72906"
       gradientTransform="translate(0,52.81252)"
       gradientUnits="userSpaceOnUse"
       id="linearGradient3242-7"
       xlink:href="#linearGradient3354-9"
       inkscape:collect="always" />
    <linearGradient
       id="linearGradient4163-4">
      <stop
         id="stop4165-2"
         offset="0"
         style="stop-color:#969aa4;stop-opacity:1" />
      <stop
         id="stop4167-7"
         offset="1"
         style="stop-color:#d6d6d6;stop-opacity:1" />
    </linearGradient>
    <linearGradient
       y2="474.77286"
       x2="503.05295"
       y1="495.37201"
       x1="471.61212"
       gradientTransform="translate(0,52.81252)"
       gradientUnits="userSpaceOnUse"
       id="linearGradient3240-7"
       xlink:href="#linearGradient3368-2"
       inkscape:collect="always" />
    <linearGradient
       id="linearGradient3759-1">
      <stop
         id="stop3761-3"
         offset="0"
         style="stop-color:#ffffff;stop-opacity:1" />
      <stop
         id="stop3763-8"
         offset="1"
         style="stop-color:#ffffff;stop-opacity:0" />
    </linearGradient>
    <linearGradient
       y2="519.71106"
       x2="350.81839"
       y1="577.46967"
       x1="353.49603"
       gradientTransform="translate(0,52.81252)"
       gradientUnits="userSpaceOnUse"
       id="linearGradient3238-1"
       xlink:href="#linearGradient3759-1"
       inkscape:collect="always" />
    <linearGradient
       id="linearGradient3767-3">
      <stop
         id="stop3769-3"
         offset="0"
         style="stop-color:#5474ab;stop-opacity:1" />
      <stop
         id="stop3771-4"
         offset="1"
         style="stop-color:#39527c;stop-opacity:1" />
    </linearGradient>
    <linearGradient
       y2="520.03412"
       x2="545.82373"
       y1="499.04086"
       x1="200.9351"
       gradientTransform="translate(0,52.81252)"
       gradientUnits="userSpaceOnUse"
       id="linearGradient3236-2"
       xlink:href="#linearGradient3767-3"
       inkscape:collect="always" />
    <linearGradient
       id="linearGradient3631-4">
      <stop
         id="stop3633-3"
         offset="0"
         style="stop-color:#000000;stop-opacity:1" />
      <stop
         id="stop3635-1"
         offset="1"
         style="stop-color:#000000;stop-opacity:0" />
    </linearGradient>
    <linearGradient
       y2="444.68726"
       x2="399.24405"
       y1="473.68869"
       x1="379.72906"
       gradientTransform="matrix(1.067377,-0.00225162,-0.163928,-0.974627,45.09647,1076.598)"
       gradientUnits="userSpaceOnUse"
       id="linearGradient3234-5"
       xlink:href="#linearGradient3631-4"
       inkscape:collect="always" />
    <linearGradient
       id="linearGradient3354-9">
      <stop
         id="stop3356-27"
         offset="0"
         style="stop-color:#969aa4;stop-opacity:1" />
      <stop
         id="stop3358-9"
         offset="1"
         style="stop-color:#d7d7d7;stop-opacity:1" />
    </linearGradient>
    <linearGradient
       y2="446.58456"
       x2="410.62778"
       y1="477.21222"
       x1="379.72906"
       gradientTransform="matrix(1.067377,-0.00225162,-0.163928,-0.974627,45.09665,1076.599)"
       gradientUnits="userSpaceOnUse"
       id="linearGradient3232-8"
       xlink:href="#linearGradient3354-9"
       inkscape:collect="always" />
    <linearGradient
       id="linearGradient3667-5">
      <stop
         id="stop3669-76"
         offset="0"
         style="stop-color:#000000;stop-opacity:1" />
      <stop
         id="stop3671-1"
         offset="1"
         style="stop-color:#000000;stop-opacity:0" />
    </linearGradient>
    <linearGradient
       y2="473.41766"
       x2="495.19272"
       y1="494.5589"
       x1="472.69629"
       gradientTransform="matrix(0.999044,0.06415167,-0.03758326,-0.862868,21.30428,985.5672)"
       gradientUnits="userSpaceOnUse"
       id="linearGradient3230-8"
       xlink:href="#linearGradient3667-5"
       inkscape:collect="always" />
    <linearGradient
       id="linearGradient3368-2">
      <stop
         id="stop3370-2"
         offset="0"
         style="stop-color:#969aa4;stop-opacity:1" />
      <stop
         id="stop3372-16"
         offset="1"
         style="stop-color:#d6d6d6;stop-opacity:1" />
    </linearGradient>
    <linearGradient
       y2="474.77286"
       x2="503.05295"
       y1="495.37201"
       x1="471.61212"
       gradientTransform="matrix(0.999044,0.06415167,-0.03758326,-0.862868,21.30428,985.5672)"
       gradientUnits="userSpaceOnUse"
       id="linearGradient3228-3"
       xlink:href="#linearGradient3368-2"
       inkscape:collect="always" />
    <linearGradient
       id="linearGradient4132-1">
      <stop
         id="stop4134-4"
         offset="0"
         style="stop-color:#969aa4;stop-opacity:1" />
      <stop
         id="stop4136-2"
         offset="1"
         style="stop-color:#cdcdcf;stop-opacity:1" />
    </linearGradient>
    <linearGradient
       y2="590.94122"
       x2="277.76328"
       y1="562.48187"
       x1="251.96013"
       gradientTransform="translate(0,52.81252)"
       gradientUnits="userSpaceOnUse"
       id="linearGradient3226-6"
       xlink:href="#linearGradient3693-5"
       inkscape:collect="always" />
    <linearGradient
       id="linearGradient4125-1">
      <stop
         id="stop4127-52"
         offset="0"
         style="stop-color:#969aa4;stop-opacity:1" />
      <stop
         id="stop4129-7"
         offset="1"
         style="stop-color:#cdcdcf;stop-opacity:1" />
    </linearGradient>
    <linearGradient
       y2="590.94122"
       x2="277.76328"
       y1="562.48187"
       x1="251.96013"
       gradientTransform="translate(-4.553496,53.57144)"
       gradientUnits="userSpaceOnUse"
       id="linearGradient3224-1"
       xlink:href="#linearGradient3693-5"
       inkscape:collect="always" />
    <linearGradient
       id="linearGradient3693-5">
      <stop
         id="stop3695-1"
         offset="0"
         style="stop-color:#969aa4;stop-opacity:1" />
      <stop
         id="stop3697-7"
         offset="1"
         style="stop-color:#cdcdcf;stop-opacity:1" />
    </linearGradient>
    <linearGradient
       y2="590.94122"
       x2="277.76328"
       y1="562.48187"
       x1="251.96013"
       gradientTransform="matrix(0.276504,0,-0.518581,0.534815,357.1774,286.9045)"
       gradientUnits="userSpaceOnUse"
       id="linearGradient3222-5"
       xlink:href="#linearGradient3693-5"
       inkscape:collect="always" />
    <clipPath
       id="clipPath3983-1-2">
      <path
         style="fill:none;stroke:#000000;stroke-width:3;stroke-miterlimit:4;stroke-opacity:1;stroke-dasharray:none;display:inline"
         id="path3985-7-4"
         d="m 1.5,1.5 0,458.86794 C 1.5,626.67854 135.81454,761.5 301.49993,761.5 467.1854,761.5 601.5,626.67854 601.5,460.36794 L 601.5,1.5 1.5,1.5 z"
         inkscape:connector-curvature="0" />
    </clipPath>
    <linearGradient
       id="linearGradient2893-0">
      <stop
         offset="0"
         style="stop-color:#ffffff;stop-opacity:0.3137255"
         id="stop2895-9" />
      <stop
         offset="0.19"
         style="stop-color:#ffffff;stop-opacity:0.25098041"
         id="stop2897-4" />
      <stop
         offset="0.60000002"
         style="stop-color:#6b6b6b;stop-opacity:0.1254902"
         id="stop2901-8" />
      <stop
         offset="1"
         style="stop-color:#000000;stop-opacity:0.1254902"
         id="stop2899-8" />
    </linearGradient>
    <radialGradient
       gradientTransform="matrix(1.215027,0,0,1.266667,-839.1924,-490.4894)"
       gradientUnits="userSpaceOnUse"
       xlink:href="#linearGradient2893-0"
       id="radialGradient3236-4"
       fy="579.93323"
       fx="858.04236"
       r="300"
       cy="579.93323"
       cx="858.04236" />
  </defs>
  <sodipodi:namedview
     id="base"
     pagecolor="#ffffff"
     bordercolor="#666666"
     borderopacity="1.0"
     inkscape:pageopacity="0.0"
     inkscape:pageshadow="2"
     inkscape:zoom="0.98994948"
     inkscape:cx="495.67902"
     inkscape:cy="384.6787"
     inkscape:document-units="px"
     inkscape:current-layer="layer1"
     showgrid="false"
     fit-margin-top="0"
     fit-margin-left="0"
     fit-margin-right="0"
     fit-margin-bottom="0"
     inkscape:window-width="1600"
     inkscape:window-height="1147"
     inkscape:window-x="-8"
     inkscape:window-y="-8"
     inkscape:window-maximized="1" />
  <metadata
     id="metadata7">
    <rdf:RDF>
      <cc:Work
         rdf:about="">
        <dc:format>image/svg+xml</dc:format>
        <dc:type
           rdf:resource="http://purl.org/dc/dcmitype/StillImage" />
        <dc:title></dc:title>
      </cc:Work>
    </rdf:RDF>
  </metadata>
  <g
     inkscape:label="Layer 1"
     inkscape:groupmode="layer"
     id="layer1"
     transform="translate(-37.142857,-58.076473)">
    <path
       style="fill:#ffffff;fill-opacity:1;stroke:none"
       id="path2346-6"
       d="m 37.142858,58.076474 0,458.867896 c 0,166.31064 134.314552,301.1321 299.999942,301.1321 165.68546,0 300.00006,-134.82146 300.00006,-301.1321 l 0,-458.867896 -600.000002,0 z"
       inkscape:connector-curvature="0" />
    <path
       d="M 511.98478,502.55513"
       id="path285-1"
       inkscape:connector-curvature="0"
       style="fill:none;stroke:#000000;stroke-width:4;stroke-miterlimit:4;stroke-dasharray:none" />
    <path
       d="M 511.97229,502.55513"
       id="path303-9"
       inkscape:connector-curvature="0"
       style="fill:#b9bbbe;stroke:#000000;stroke-width:4;stroke-linejoin:round;stroke-miterlimit:4;stroke-dasharray:none" />
    <path
       d="M 175.89268,326.72058"
       id="path243-4"
       inkscape:connector-curvature="0"
       style="fill:#cb2243;stroke:#000000;stroke-width:4;stroke-miterlimit:4;stroke-dasharray:none" />
    <rect
       style="fill:#2b5df2;fill-opacity:1;stroke:none"
       id="rect3314"
       width="600"
       height="220"
       x="37.142857"
       y="58.076473" />
    <path
       style="fill:#2b5df2;fill-opacity:1;stroke:none"
       d="M 85.71875 502 L 85.71875 587.71875 L 171.4375 587.71875 L 171.4375 502 L 85.71875 502 z M 171.4375 587.71875 L 171.4375 673.4375 L 257.15625 673.4375 L 257.15625 587.71875 L 171.4375 587.71875 z M 257.15625 587.71875 L 342.84375 587.71875 L 342.84375 502 L 257.15625 502 L 257.15625 587.71875 z M 342.84375 587.71875 L 342.84375 673.4375 L 428.5625 673.4375 L 428.5625 587.71875 L 342.84375 587.71875 z M 428.5625 587.71875 L 514.28125 587.71875 L 514.28125 502 L 428.5625 502 L 428.5625 587.71875 z M 514.28125 587.71875 L 514.28125 670.25 C 537.8278 646.30283 557.37338 618.44654 571.8125 587.71875 L 514.28125 587.71875 z M 428.5625 673.4375 L 428.5625 731.21875 C 459.33021 716.65722 487.21003 697.04618 511.125 673.4375 L 428.5625 673.4375 z M 342.84375 673.4375 L 257.15625 673.4375 L 257.15625 756.96875 C 271.14684 758.96143 285.45571 760 300 760 C 314.54429 760 328.85315 758.96143 342.84375 756.96875 L 342.84375 673.4375 z M 171.4375 673.4375 L 88.875 673.4375 C 112.78603 697.04228 140.67581 716.65795 171.4375 731.21875 L 171.4375 673.4375 z M 85.71875 587.71875 L 28.1875 587.71875 C 42.626623 618.44654 62.172192 646.30283 85.71875 670.25 L 85.71875 587.71875 z "
       transform="translate(37.142857,58.076473)"
       id="rect3314-1" />
    <g
       id="g4153"
       transform="translate(-3.5714339,17.142867)">
      <path
         sodipodi:type="star"
         style="fill:#ffffff;fill-opacity:1;fill-rule:nonzero;stroke:none"
         id="path25460"
         sodipodi:sides="5"
         sodipodi:cx="91.505234"
         sodipodi:cy="152.9651"
         sodipodi:r1="73.356224"
         sodipodi:r2="28.608927"
         sodipodi:arg1="-1.5707963"
         sodipodi:arg2="-0.9424778"
         inkscape:flatsided="false"
         inkscape:rounded="0"
         inkscape:randomized="0"
         d="M 91.505236,79.608879 108.32114,129.82 l 52.95001,0.47679 -42.55721,31.50896 15.909,50.50579 L 91.505234,181.57403 48.387526,212.31153 64.296528,161.80575 21.739319,130.29678 74.689328,129.82 z"
         transform="translate(54.209053,4.9733989)" />
      <path
         sodipodi:type="star"
         style="fill:#ffffff;fill-opacity:1;fill-rule:nonzero;stroke:none"
         id="path25460-4"
         sodipodi:sides="5"
         sodipodi:cx="91.505234"
         sodipodi:cy="152.9651"
         sodipodi:r1="73.356224"
         sodipodi:r2="28.608927"
         sodipodi:arg1="-1.5707963"
         sodipodi:arg2="-0.9424778"
         inkscape:flatsided="false"
         inkscape:rounded="0"
         inkscape:randomized="0"
         d="M 91.505236,79.608879 108.32114,129.82 l 52.95001,0.47679 -42.55721,31.50896 15.909,50.50579 L 91.505234,181.57403 48.387526,212.31153 64.296528,161.80575 21.739319,130.29678 74.689328,129.82 z"
         transform="translate(249.20906,4.9733989)" />
      <path
         sodipodi:type="star"
         style="fill:#ffffff;fill-opacity:1;fill-rule:nonzero;stroke:none"
         id="path25460-0"
         sodipodi:sides="5"
         sodipodi:cx="91.505234"
         sodipodi:cy="152.9651"
         sodipodi:r1="73.356224"
         sodipodi:r2="28.608927"
         sodipodi:arg1="-1.5707963"
         sodipodi:arg2="-0.9424778"
         inkscape:flatsided="false"
         inkscape:rounded="0"
         inkscape:randomized="0"
         d="M 91.505236,79.608879 108.32114,129.82 l 52.95001,0.47679 -42.55721,31.50896 15.909,50.50579 L 91.505234,181.57403 48.387526,212.31153 64.296528,161.80575 21.739319,130.29678 74.689328,129.82 z"
         transform="translate(444.20906,4.9733989)" />
    </g>
    <path
       style="color:#000000;fill:#fcef3c;fill-opacity:1;fill-rule:nonzero;stroke:none;stroke-width:0.77580649;marker:none;visibility:visible;display:inline;overflow:visible"
       d="m 111.70023,304.57671 c -3.28622,-1.05311 -7.46354,0.96215 -8.45044,1.82486 -2.22085,2.12591 -6.786194,11.32993 -4.782105,30.56452 0.152141,1.54272 0.442376,4.08042 1.378059,6.53397 l -2.21574,-0.7486 -0.261053,-7.34989 c -0.11572,-0.93011 -0.02149,-1.85032 -2.078258,-2.88025 -1.567959,-0.53858 -3.619616,-1.83627 -5.701549,-3.23154 -0.841526,-0.69574 -1.416518,-1.15009 -1.048523,-3.25489 -0.357896,-2.12035 -3.17317,-3.46502 -2.96322,0.53808 0.271965,0.55085 -0.434201,1.60937 7.854067,6.87519 2.029407,0.59007 2.614985,1.87109 2.540155,3.46869 l 0.228704,5.38958 -0.764899,-0.26691 c -0.145828,-0.0696 -0.26643,-0.13484 -0.410329,-0.20284 -0.05585,-0.0891 -0.113132,-0.1739 -0.177015,-0.26428 l -0.07532,0.16569 c -3.073399,-1.44524 -5.724956,-2.541 -7.993212,-3.34993 -0.02844,-0.0422 -0.06163,-0.0756 -0.09239,-0.11765 l -0.02322,0.0867 c -3.628993,-1.28603 -6.330772,-1.87253 -8.457333,-2.08027 -0.0025,-0.006 -0.02676,-0.002 -0.02886,-0.008 -3.647747,-0.35162 -5.612975,0.37651 -7.671979,0.42258 l -5.233576,-1.27842 4.501024,2.97182 c 1.371876,1.53878 2.172117,3.47266 4.923493,5.90406 0.0065,-0.002 0.02204,0.01 0.02886,0.008 1.599688,1.4103 3.876994,2.96701 7.280299,4.73881 l -0.05984,0.10789 c 0.05737,-0.007 0.112227,-0.0389 0.167738,-0.048 2.141806,1.10941 4.741776,2.30843 7.902352,3.57342 l -0.07533,0.16569 c 0.126314,-0.0172 0.238874,-0.0356 0.35666,-0.0594 0.136612,0.0544 0.250436,0.11161 0.389156,0.16623 l 0.726178,0.41143 -4.094342,3.48774 c -1.117391,1.14427 -2.475656,1.6048 -4.291254,0.52299 -9.503681,-2.47046 -9.788089,-1.22232 -10.37644,-1.04556 -3.070899,2.57652 -0.153715,3.73056 1.641115,2.54628 1.288403,-1.70459 2.004942,-1.60603 3.08769,-1.46507 2.440304,0.5711 4.767994,1.16904 6.231221,1.94846 2.155955,0.80185 2.768724,0.10092 3.527874,-0.44874 l 5.576304,-4.85643 2.078408,1.1455 c -2.443393,0.98868 -4.519566,2.50124 -5.755801,3.44528 -15.434234,11.65204 -19.030745,21.27637 -19.070977,24.35049 0.06123,1.90566 2.931551,10.44864 9.578445,7.49211 3.07775,-1.79345 6.423228,-3.47397 9.960088,-6.9965 -0.163996,4.9886 0.91186,8.56737 1.69914,12.04124 2.370805,6.87762 10.537825,3.162 11.973305,1.90714 2.22087,-2.12593 6.8151,-11.32219 4.81101,-30.55677 -0.12407,-1.25806 -0.35383,-3.1793 -0.93635,-5.17647 0.43577,0.20043 0.85978,0.38223 1.27534,0.55857 l 0.20491,5.94083 c 0.11573,0.93008 0.0215,1.85032 2.07826,2.88025 1.56795,0.53859 3.61187,1.86518 5.69381,3.26045 0.84151,0.69575 1.38761,1.14233 1.01962,3.24714 0.35791,2.12033 3.20981,3.44384 2.99987,-0.55925 -0.27198,-0.55084 0.4342,-1.60936 -7.85408,-6.87518 -2.0294,-0.59007 -2.61498,-1.87109 -2.54015,-3.46869 l -0.17464,-3.85715 c 1.29822,0.47279 2.45649,0.7685 3.33371,0.73837 0.67156,3.94531 4.30719,4.34211 5.6241,3.52058 2.38972,-1.70786 4.71631,-1.43957 6.91952,-1.42965 l -0.90222,0.13 1.67609,3.91869 c -1.67405,6.56175 2.70301,6.46516 3.72448,5.98552 2.60758,-2.24088 0.28616,-6.18964 -2.46144,-6.42155 l -1.44902,-3.61002 c 0.0407,-9.6e-4 0.0827,0.004 0.12334,0.002 1.7145,-0.22456 1.07992,-0.89183 1.45307,-1.37642 l 0.5973,-1.41986 0.61845,-1.38322 c 0.0999,-0.60339 1.01708,-0.60331 0.0121,-2.01037 -0.0285,-0.0328 -0.0712,-0.0561 -0.10012,-0.0888 l 3.66009,-1.40462 c 2.04342,1.85134 6.50523,0.83502 6.36581,-2.6003 -0.34585,-1.0742 -3.25443,-4.29863 -6.91179,1.40073 l -4.009,1.43505 0.51763,0.72729 c -1.51022,-1.60535 -3.29923,-3.12187 -3.68009,-6.03557 -0.29619,-1.51778 -3.05291,-3.89838 -6.3799,-1.74042 -0.008,0.0102 -0.0287,0.0109 -0.0366,0.0212 -0.57797,-0.66411 -1.56193,-1.29814 -2.79835,-1.927 l 2.93086,-2.49839 c 1.1174,-1.14428 2.46792,-1.57591 4.28352,-0.4941 9.50369,2.47047 9.78809,1.22232 10.37643,1.04556 3.07092,-2.57652 0.15372,-3.73057 -1.64111,-2.54627 -1.2884,1.70459 -1.9972,1.57713 -3.07995,1.43616 -2.44029,-0.57109 -4.77573,-1.14012 -6.23896,-1.91955 -2.15596,-0.80185 -2.76097,-0.12984 -3.52013,0.41984 l -4.52278,3.93055 c -0.40862,-0.18176 -0.83601,-0.3785 -1.27533,-0.55858 1.86594,-0.93762 3.44606,-2.09499 4.45403,-2.86472 15.43424,-11.65206 19.03076,-21.27639 19.07098,-24.35048 -0.0613,-1.90568 -2.93156,-10.44864 -9.57845,-7.49212 -3.07001,1.78895 -6.42528,3.46334 -9.95234,6.96758 0.15826,-4.97177 -0.9213,-8.54593 -1.70689,-12.01233 -0.74087,-2.14925 -2.05802,-3.26106 -3.55177,-3.73975 z"
       id="path1884"
       inkscape:connector-curvature="0" />
    <path
       style="color:#000000;fill:#fcef3c;fill-opacity:1;fill-rule:nonzero;stroke:none;stroke-width:0.77580649;marker:none;visibility:visible;display:inline;overflow:visible"
       d="m 240.12444,377.32448 c 2.55514,-2.31941 2.89854,-6.9447 2.64485,-8.23074 -0.73067,-2.98627 -6.41891,-11.54198 -24.0786,-19.42369 -1.41211,-0.6396 -3.75493,-1.65709 -6.34761,-2.07355 l 1.75617,-1.54458 6.49572,3.44887 c 0.86336,0.36483 1.61317,0.90655 3.5335,-0.3597 1.25041,-1.0886 3.40007,-2.21654 5.64937,-3.32191 1.0233,-0.38091 1.70426,-0.6517 3.34307,0.71939 2.01523,0.75023 4.58738,-1.01553 1.01562,-2.83526 -0.61303,-0.0399 -1.17664,-1.18071 -9.8811,3.36422 -1.52573,1.46248 -2.92792,1.3291 -4.27407,0.4655 l -4.78186,-2.49673 0.61361,-0.52897 c 0.13319,-0.0914 0.24998,-0.16332 0.38082,-0.25394 0.10501,-0.004 0.20717,-0.011 0.31738,-0.0212 l -0.10583,-0.14808 c 2.78831,-1.93903 5.06305,-3.68745 6.89773,-5.24735 0.0507,-0.004 0.0963,-0.0156 0.14807,-0.0212 l -0.0635,-0.0635 c 2.92822,-2.49978 4.78704,-4.54634 6.03023,-6.28413 0.006,6.7e-4 0.0153,-0.0221 0.0212,-0.0212 2.12837,-2.98323 2.48041,-5.04923 3.47002,-6.85542 l 3.72394,-3.8932 -4.82419,2.41209 c -2.01857,0.41869 -4.09348,0.14478 -7.57481,1.31184 -9.6e-4,0.007 -0.0195,0.0142 -0.0212,0.0212 -2.0212,0.68022 -4.508,1.87407 -7.74408,3.93552 l -0.0635,-0.10576 c -0.0227,0.0531 -0.0224,0.11666 -0.0423,0.16923 -2.03167,1.30016 -4.37003,2.95229 -7.04583,5.05693 l -0.10583,-0.14807 c -0.0483,0.11798 -0.0886,0.22465 -0.12695,0.33853 -0.11537,0.0912 -0.22188,0.16108 -0.33854,0.25391 l -0.7194,0.42317 -0.97329,-5.28967 c -0.43228,-1.53983 -0.15197,-2.94639 1.69269,-3.97783 6.89132,-6.99519 5.9526,-7.86557 6.0937,-8.46348 -0.69588,-3.94773 -3.1539,-1.99841 -3.0257,0.14811 0.83202,1.96808 0.38838,2.53935 -0.27506,3.40655 -1.71474,1.82781 -3.39641,3.54469 -4.80302,4.42216 -1.7724,1.46619 -1.47176,2.34733 -1.37531,3.2796 l 1.41763,7.25743 -2.03124,1.22721 c 0.36548,-2.61038 0.0936,-5.16468 -0.10579,-6.70731 -2.37386,-19.19246 -8.91051,-27.11929 -11.55266,-28.69119 -1.68096,-0.8998 -10.51456,-2.68551 -11.27757,4.54912 0.0143,3.56213 -0.20307,7.29966 1.07909,12.12393 -4.23825,-2.63632 -7.87549,-3.49398 -11.27759,-4.54911 -7.1416,-1.38564 -8.00728,7.54502 -7.63829,9.41562 0.73068,2.98629 6.39776,11.56315 24.05744,19.44484 1.15155,0.52158 2.93028,1.28322 4.95114,1.77733 -0.39146,0.27716 -0.76092,0.55347 -1.12142,0.82519 l -5.24736,-2.79295 c -0.86334,-0.36482 -1.61316,-0.90657 -3.5335,0.35969 -1.2504,1.0886 -3.42122,2.19539 -5.67053,3.30077 -1.02329,0.38088 -1.6831,0.63054 -3.32191,-0.74056 -2.01523,-0.75021 -4.58738,1.05786 -1.01562,2.87759 0.61303,0.0398 1.17665,1.1807 9.88111,-3.36424 1.52573,-1.46248 2.92791,-1.32909 4.27406,-0.46549 l 3.42771,1.77733 c -1.05855,0.8879 -1.89378,1.74313 -2.30631,2.51788 -3.75252,-1.39105 -5.91396,1.5591 -5.86095,3.11033 0.28418,2.92349 -1.11146,4.80423 -2.22166,6.70731 l 0.33853,-0.84634 -4.23174,-0.50781 c -4.8456,-4.73065 -6.95048,-0.89172 -7.04584,0.23274 0.63687,3.37866 5.21731,3.34264 6.79194,1.0791 l 3.85089,0.55012 c -0.0195,0.0357 -0.0443,0.0699 -0.0635,0.10576 -0.66277,1.59708 0.2324,1.38115 0.4655,1.9466 l 0.93098,1.2272 0.88867,1.2272 c 0.47259,0.38824 0.014,1.18248 1.73501,1.01562 0.0427,-0.009 0.0843,-0.0336 0.12695,-0.0423 l -0.6136,3.87204 c -2.62503,0.84398 -3.97578,5.21618 -0.93099,6.8131 1.10321,0.23758 5.34993,-0.6691 2.24282,-6.68615 l 0.76172,-4.18942 -0.88867,0.0847 c 2.14538,-0.50522 4.35323,-1.29629 7.06701,-0.16927 1.46253,0.50238 4.90255,-0.69471 4.6972,-4.65496 -0.005,-0.0118 0.005,-0.0303 0,-0.0422 0.86411,-0.16848 1.90518,-0.70361 3.068,-1.45995 l 0.69824,3.7874 c 0.43227,1.53983 0.13082,2.92523 -1.71386,3.95668 -6.89133,6.9952 -5.9526,7.86558 -6.0937,8.46348 0.69588,3.94775 3.15392,1.9984 3.0257,-0.14811 -0.83202,-1.96809 -0.36724,-2.5182 0.29622,-3.38539 1.71473,-1.82781 3.37524,-3.56585 4.78187,-4.44333 1.77239,-1.46619 1.49292,-2.32614 1.39647,-3.25844 l -1.14257,-5.88211 c 0.36171,-0.263 0.7458,-0.53477 1.12141,-0.8252 -0.12096,2.08477 0.0913,4.03188 0.2539,5.28968 2.37386,19.19247 8.91052,27.11931 11.55265,28.69119 1.68099,0.89981 10.51456,2.68552 11.27759,-4.54912 -0.0143,-3.55318 0.21331,-7.29612 -1.05793,-12.10278 4.22655,2.62295 7.86164,3.47511 11.25642,4.52797 2.23175,0.433 3.85318,-0.15177 5.01461,-1.20605 z"
       id="path1884-5"
       inkscape:connector-curvature="0" />
    <path
       style="color:#000000;fill:#fcef3c;fill-opacity:1;fill-rule:nonzero;stroke:none;stroke-width:0.77580649;marker:none;visibility:visible;display:inline;overflow:visible"
       d="m 156.76908,493.37171 c 2.90169,1.86777 7.45826,1.00236 8.63482,0.42446 2.69541,-1.47867 9.48736,-9.18747 12.52984,-28.28536 0.25233,-1.52953 0.62878,-4.05587 0.36001,-6.66799 l 1.94649,1.29656 -1.65014,7.16702 c -0.12894,0.92837 -0.45814,1.79283 1.26198,3.32 1.37514,0.92606 3.02102,2.71052 4.67089,4.59709 0.63277,0.88985 1.07059,1.47753 0.17036,3.41536 -0.20308,2.14073 2.16823,4.16823 3.00152,0.24719 -0.12009,-0.60248 0.83594,-1.44214 -5.807,-8.67368 -1.80754,-1.09522 -2.04161,-2.48416 -1.55585,-4.00796 l 1.17402,-5.26512 0.66976,0.45579 c 0.1228,0.10499 0.22245,0.19919 0.34385,0.30212 0.0309,0.10044 0.0642,0.19726 0.10259,0.30109 l 0.11564,-0.14054 c 2.59462,2.19144 4.8722,3.93614 6.8538,5.30458 0.0169,0.0481 0.04,0.089 0.0588,0.13755 l 0.0449,-0.0777 c 3.17249,2.18145 5.63041,3.44724 7.63075,4.19829 8.3e-4,0.006 0.0254,0.009 0.0259,0.0149 3.43245,1.28374 5.51917,1.08906 7.51994,1.57747 l 4.72436,2.58941 -3.57848,-4.03551 c -0.92688,-1.84142 -1.19932,-3.91652 -3.22765,-6.97718 -0.007,8.2e-4 -0.0188,-0.0152 -0.0259,-0.0149 -1.18017,-1.77627 -2.97697,-3.86935 -5.80573,-6.46161 l 0.0857,-0.0887 c -0.0572,-0.009 -0.11849,0.009 -0.17443,0.003 -1.78169,-1.62594 -3.98273,-3.45703 -6.70821,-5.49693 l 0.11564,-0.14054 c -0.12646,-0.0161 -0.23993,-0.0274 -0.35986,-0.0351 -0.11791,-0.0878 -0.21301,-0.17263 -0.33287,-0.26129 l -0.59496,-0.58536 4.85753,-2.3092 c 1.37548,-0.81608 2.80667,-0.90938 4.2804,0.60547 8.54044,4.84603 9.1382,3.71401 9.75225,3.69556 3.63311,-1.69391 1.11402,-3.56366 -0.92616,-2.88427 -1.68569,1.31304 -2.35231,1.03238 -3.36168,0.61599 -2.20934,-1.18324 -4.30296,-2.36324 -5.51459,-3.49482 -1.87495,-1.33253 -2.64826,-0.81408 -3.52381,-0.47962 l -6.64323,3.24768 -1.7111,-1.6444 c 2.61602,-0.32258 5.01292,-1.24626 6.45138,-1.83816 17.92408,-7.26035 23.88901,-15.62589 24.72351,-18.58484 0.43407,-1.85658 -0.12736,-10.85135 -7.31297,-9.71591 -3.43706,0.93573 -7.10348,1.69315 -11.43152,4.18023 1.44954,-4.77617 1.33659,-8.51145 1.47525,-12.0707 -0.50996,-7.25689 -9.36038,-5.78165 -11.07174,-4.94109 -2.69541,1.47869 -9.51327,9.17252 -12.55573,28.2704 -0.20576,1.2473 -0.48108,3.16255 -0.43532,5.24244 -0.36904,-0.30638 -0.73155,-0.59174 -1.08732,-0.86963 l 1.33967,-5.79143 c 0.12894,-0.92835 0.45816,-1.79284 -1.26198,-3.32 -1.37513,-0.92605 -3.00606,-2.73645 -4.65592,-4.62302 -0.63277,-0.88985 -1.04469,-1.46256 -0.14446,-3.40039 0.20307,-2.14072 -2.20912,-4.15727 -3.0424,-0.23624 0.12019,0.60246 -0.83593,1.44215 5.80702,8.6737 1.80754,1.09522 2.04161,2.48414 1.55584,4.00794 l -0.82962,3.77092 c -1.13161,-0.79267 -2.17388,-1.37809 -3.029,-1.57604 0.37243,-3.9847 -3.03662,-5.30893 -4.52127,-4.85624 -2.75032,1.03116 -4.9282,0.16984 -7.05377,-0.40997 l 0.90512,0.10794 -0.60475,-4.21898 c 3.31533,-5.90488 -0.93759,-6.94444 -2.0484,-6.74552 -3.0987,1.48963 -1.8784,5.90467 0.71555,6.83981 l 0.46531,3.86205 c -0.0395,-0.01 -0.079,-0.0247 -0.11859,-0.034 -1.7142,-0.22683 -1.27394,0.58196 -1.75979,0.95346 l -0.94443,1.21688 -0.95539,1.17601 c -0.25268,0.55697 -1.13856,0.31955 -0.53196,1.93875 0.0194,0.0391 0.0543,0.0727 0.0737,0.11168 l -3.89891,0.40947 c -1.49463,-2.31715 -6.06746,-2.49027 -6.82191,0.86409 0.056,1.12711 2.03097,4.99445 7.03881,0.43589 l 4.24382,-0.34854 -0.31178,-0.83647 c 1.04329,1.94151 2.37882,3.86939 1.99259,6.78239 -0.10673,1.54272 1.93991,4.55569 5.71206,3.33236 0.0101,-0.008 0.0306,-0.003 0.0408,-0.0109 0.38639,0.79107 1.17273,1.65816 2.20426,2.5856 l -3.47763,1.6547 c -1.37548,0.81608 -2.7917,0.88347 -4.26544,-0.63139 -8.54045,-4.84602 -9.13821,-3.71401 -9.75226,-3.69555 -3.63313,1.69391 -1.11401,3.56368 0.92618,2.88426 1.68568,-1.31305 2.33734,-1.00648 3.3467,-0.59007 2.20933,1.18323 4.31792,2.33732 5.52956,3.4689 1.87496,1.33252 2.63328,0.84002 3.50885,0.50555 l 5.38596,-2.62604 c 0.34766,0.28132 0.70957,0.58197 1.08732,0.86962 -2.04504,0.42274 -3.87087,1.13167 -5.04371,1.61432 -17.92411,7.26035 -23.88904,15.62589 -24.72352,18.58482 -0.43408,1.8566 0.12735,10.85136 7.31296,9.71592 3.42842,-0.93341 7.10272,-1.68234 11.41657,-4.15431 -1.43966,4.76141 -1.32195,8.49319 -1.4603,12.0448 0.15937,2.26776 1.14388,3.6826 2.46283,4.53159 z"
       id="path1884-5-0"
       inkscape:connector-curvature="0" />
    <path
       style="color:#000000;fill:#fcef3c;fill-opacity:1;fill-rule:nonzero;stroke:none;stroke-width:0.77580649;marker:none;visibility:visible;display:inline;overflow:visible"
       d="m 58.238188,455.59294 c -2.55514,2.31941 -2.89854,6.94469 -2.644851,8.23074 0.730665,2.98627 6.418911,11.54198 24.078602,19.42369 1.412103,0.6396 3.754928,1.65708 6.347603,2.07354 l -1.756164,1.54459 -6.495724,-3.44887 c -0.86336,-0.36483 -1.613166,-0.90656 -3.533499,0.3597 -1.250414,1.0886 -3.400067,2.21654 -5.64937,3.32191 -1.023297,0.38091 -1.704266,0.6517 -3.343074,-0.7194 -2.015225,-0.75022 -4.58738,1.01554 -1.015618,2.83527 0.613032,0.0399 1.176646,1.18071 9.881103,-3.36423 1.525724,-1.46248 2.927916,-1.32909 4.274064,-0.46549 l 4.781864,2.49673 -0.613606,0.52897 c -0.133193,0.0914 -0.249983,0.16332 -0.380821,0.25394 -0.105012,0.004 -0.207172,0.011 -0.317384,0.0212 l 0.105827,0.14808 c -2.788308,1.93902 -5.063044,3.68744 -6.897725,5.24734 -0.05075,0.004 -0.09628,0.0156 -0.148073,0.0212 l 0.06348,0.0635 c -2.928223,2.49978 -4.787044,4.54634 -6.030229,6.28412 -0.0057,-6.7e-4 -0.01532,0.0221 -0.02116,0.0212 -2.128376,2.98323 -2.480414,5.04923 -3.470024,6.85542 l -3.723933,3.89319 4.824186,-2.41208 c 2.018567,-0.41869 4.093474,-0.14478 7.574807,-1.31184 9.58e-4,-0.007 0.01953,-0.0142 0.02116,-0.0212 2.0212,-0.68022 4.508,-1.87408 7.74408,-3.93552 l 0.06348,0.10576 c 0.02269,-0.0531 0.02241,-0.11666 0.04232,-0.16924 2.031675,-1.30015 4.370039,-2.95228 7.045838,-5.05692 l 0.105826,0.14807 c 0.04826,-0.11798 0.08857,-0.22465 0.12695,-0.33853 0.115373,-0.0912 0.22188,-0.16108 0.338545,-0.25391 l 0.719395,-0.42317 0.973295,5.28967 c 0.432278,1.53983 0.15197,2.94638 -1.69269,3.97783 -6.891329,6.99519 -5.952602,7.86557 -6.093704,8.46347 0.695878,3.94774 3.153905,1.99841 3.025701,-0.1481 -0.832021,-1.96808 -0.388386,-2.53935 0.275061,-3.40656 1.714741,-1.8278 3.396409,-3.54468 4.803016,-4.42215 1.772403,-1.46619 1.471766,-2.34733 1.375314,-3.2796 l -1.417628,-7.25743 2.031235,-1.22721 c -0.365481,2.61038 -0.09365,5.16468 0.105788,6.70731 2.373862,19.19245 8.910519,27.11929 11.552659,28.69119 1.68097,0.8998 10.51457,2.68551 11.27758,-4.54912 -0.0143,-3.56213 0.20306,-7.29966 -1.07909,-12.12393 4.23825,2.63632 7.87549,3.49398 11.27759,4.54911 7.14159,1.38564 8.00727,-7.54502 7.63829,-9.41562 -0.73069,-2.98629 -6.39776,-11.56315 -24.05744,-19.44483 -1.15155,-0.52158 -2.93029,-1.28322 -4.95114,-1.77733 0.39146,-0.27717 0.76091,-0.55347 1.12141,-0.82519 l 5.24736,2.79295 c 0.86334,0.36482 1.61317,0.90656 3.5335,-0.3597 1.25041,-1.08859 3.42123,-2.19538 5.67053,-3.30076 1.0233,-0.38088 1.68311,-0.63054 3.32192,0.74056 2.01522,0.75021 4.58738,-1.05786 1.01561,-2.87759 -0.61303,-0.0398 -1.17664,-1.18071 -9.88111,3.36424 -1.52572,1.46248 -2.9279,1.32909 -4.27405,0.46549 l -3.42771,-1.77733 c 1.05855,-0.8879 1.89378,-1.74314 2.3063,-2.51789 3.75253,1.39106 5.91397,-1.55909 5.86096,-3.11032 -0.28419,-2.92349 1.11145,-4.80423 2.22166,-6.70731 l -0.33854,0.84634 4.23174,0.50781 c 4.84561,4.73065 6.95049,0.89171 7.04585,-0.23274 -0.63688,-3.37866 -5.21731,-3.34264 -6.79195,-1.0791 l -3.85088,-0.55012 c 0.0195,-0.0357 0.0443,-0.0699 0.0635,-0.10576 0.66278,-1.59708 -0.23239,-1.38116 -0.46549,-1.9466 l -0.93098,-1.2272 -0.88867,-1.22721 c -0.47259,-0.38823 -0.014,-1.18247 -1.73501,-1.01561 -0.0427,0.009 -0.0843,0.0336 -0.12695,0.0423 l 0.6136,-3.87204 c 2.62503,-0.84398 3.97578,-5.21619 0.93099,-6.8131 -1.10322,-0.23759 -5.34993,0.6691 -2.24282,6.68615 l -0.76172,4.18942 0.88867,-0.0847 c -2.14539,0.50522 -4.35324,1.29629 -7.06701,0.16927 -1.46253,-0.50238 -4.90255,0.69471 -4.6972,4.65495 0.005,0.0118 -0.005,0.0304 0,0.0422 -0.86412,0.16848 -1.90519,0.70361 -3.068006,1.45995 l -0.698243,-3.78741 c -0.432267,-1.53982 -0.130816,-2.92522 1.71386,-3.95668 6.891329,-6.99519 5.952599,-7.86557 6.093709,-8.46347 -0.69588,-3.94775 -3.15393,-1.9984 -3.0257,0.14811 0.83202,1.96809 0.36724,2.5182 -0.29623,3.38539 -1.71473,1.82781 -3.375235,3.56585 -4.781859,4.44333 -1.772395,1.46619 -1.492929,2.32614 -1.396477,3.25843 l 1.142577,5.88212 c -0.361718,0.263 -0.745804,0.53477 -1.121415,0.82519 0.120965,-2.08477 -0.09125,-4.03187 -0.2539,-5.28967 -2.373862,-19.19247 -8.91052,-27.11931 -11.552652,-28.69119 -1.680988,-0.89981 -10.514559,-2.68552 -11.277588,4.54912 0.01427,3.55318 -0.21331,7.29612 1.05793,12.10278 -4.226552,-2.62296 -7.861645,-3.47511 -11.256426,-4.52797 -2.231742,-0.433 -3.853181,0.15177 -5.014611,1.20604 z"
       id="path1884-5-2"
       inkscape:connector-curvature="0"
       inkscape:transform-center-x="-8.7052878"
       inkscape:transform-center-y="-21.279572" />
    <path
       style="color:#000000;fill:#fcef3c;fill-opacity:1;fill-rule:nonzero;stroke:none;stroke-width:0.77580649;marker:none;visibility:visible;display:inline;overflow:visible"
       d="m 498.39957,308.07819 c -3.28623,-1.0531 -7.46354,0.96215 -8.45044,1.82487 -2.22086,2.1259 -6.7862,11.32992 -4.78211,30.56452 0.15215,1.54272 0.44237,4.08041 1.37806,6.53397 l -2.21575,-0.7486 -0.26105,-7.34989 c -0.11572,-0.93011 -0.0214,-1.85032 -2.07826,-2.88026 -1.56795,-0.53858 -3.61961,-1.83627 -5.70154,-3.23154 -0.84153,-0.69574 -1.41652,-1.15009 -1.04852,-3.25488 -0.3579,-2.12035 -3.17317,-3.46503 -2.96322,0.53807 0.27196,0.55085 -0.4342,1.60937 7.85406,6.87519 2.02941,0.59007 2.61499,1.8711 2.54015,3.46869 l 0.22871,5.38958 -0.7649,-0.26691 c -0.14583,-0.0696 -0.26643,-0.13484 -0.41033,-0.20283 -0.0558,-0.089 -0.11313,-0.17391 -0.17701,-0.26428 l -0.0754,0.16568 c -3.07341,-1.44523 -5.72496,-2.541 -7.99322,-3.34993 -0.0284,-0.0422 -0.0617,-0.0757 -0.0924,-0.11764 l -0.0232,0.0867 c -3.62898,-1.28603 -6.33077,-1.87253 -8.45733,-2.08027 -0.003,-0.006 -0.0268,-0.002 -0.0288,-0.008 -3.64775,-0.35161 -5.61297,0.37652 -7.67197,0.42258 l -5.23358,-1.27842 4.50102,2.97182 c 1.37187,1.53878 2.17212,3.47267 4.9235,5.90406 0.007,-0.002 0.022,0.01 0.0288,0.008 1.59968,1.41031 3.87698,2.96702 7.2803,4.73882 l -0.0598,0.10788 c 0.0574,-0.007 0.11222,-0.0389 0.16773,-0.048 2.14181,1.10942 4.74178,2.30843 7.90236,3.57342 l -0.0754,0.16569 c 0.12631,-0.0172 0.23887,-0.0356 0.35666,-0.0594 0.13661,0.0544 0.25044,0.11161 0.38916,0.16623 l 0.72617,0.41143 -4.09434,3.48774 c -1.11739,1.14427 -2.47566,1.6048 -4.29126,0.523 -9.50368,-2.47047 -9.78808,-1.22232 -10.37643,-1.04556 -3.07091,2.57651 -0.15371,3.73056 1.64112,2.54627 1.28839,-1.70459 2.00494,-1.60602 3.08769,-1.46506 2.4403,0.5711 4.76798,1.16903 6.23121,1.94845 2.15595,0.80185 2.76873,0.10093 3.52788,-0.44874 l 5.5763,-4.85642 2.07841,1.14549 c -2.44339,0.98869 -4.51957,2.50124 -5.7558,3.44529 -15.43424,11.65204 -19.03074,21.27637 -19.07098,24.35048 0.0613,1.90566 2.93155,10.44864 9.57845,7.49211 3.07775,-1.79345 6.42323,-3.47397 9.96009,-6.99649 -0.164,4.98859 0.91185,8.56737 1.69913,12.04124 2.37081,6.87762 10.53783,3.16199 11.97331,1.90714 2.22087,-2.12594 6.8151,-11.32219 4.81101,-30.55678 -0.12407,-1.25805 -0.35383,-3.1793 -0.93635,-5.17647 0.43576,0.20043 0.85978,0.38224 1.27534,0.55858 l 0.20491,5.94082 c 0.11573,0.93008 0.0215,1.85032 2.07826,2.88025 1.56795,0.53859 3.61187,1.86518 5.69381,3.26045 0.84151,0.69575 1.38761,1.14234 1.01962,3.24714 0.35791,2.12033 3.20981,3.44384 2.99986,-0.55925 -0.27197,-0.55084 0.43421,-1.60935 -7.85407,-6.87517 -2.0294,-0.59007 -2.61498,-1.8711 -2.54015,-3.4687 l -0.17465,-3.85714 c 1.29823,0.47278 2.4565,0.7685 3.33371,0.73836 0.67157,3.94532 4.3072,4.34211 5.6241,3.52058 2.38973,-1.70785 4.71632,-1.43956 6.91953,-1.42964 l -0.90222,0.12999 1.67609,3.9187 c -1.67405,6.56174 2.703,6.46516 3.72448,5.98551 2.60757,-2.24088 0.28616,-6.18964 -2.46144,-6.42154 l -1.44902,-3.61003 c 0.0407,-9.6e-4 0.0827,0.004 0.12334,0.002 1.7145,-0.22456 1.07992,-0.89184 1.45307,-1.37643 l 0.5973,-1.41986 0.61845,-1.38321 c 0.0999,-0.60339 1.01708,-0.60332 0.0121,-2.01037 -0.0285,-0.0328 -0.0712,-0.0561 -0.10012,-0.0888 l 3.66009,-1.40462 c 2.04342,1.85134 6.50523,0.83503 6.3658,-2.6003 -0.34584,-1.0742 -3.25442,-4.29862 -6.91178,1.40073 l -4.009,1.43506 0.51762,0.72728 c -1.51022,-1.60534 -3.29922,-3.12186 -3.68008,-6.03557 -0.2962,-1.51778 -3.05292,-3.89838 -6.3799,-1.74041 -0.008,0.0102 -0.0287,0.0109 -0.0366,0.0212 -0.57797,-0.66412 -1.56193,-1.29815 -2.79835,-1.92701 l 2.93086,-2.49839 c 1.1174,-1.14428 2.46792,-1.5759 4.28352,-0.49409 9.50369,2.47046 9.78808,1.22232 10.37643,1.04556 3.07092,-2.57652 0.15371,-3.73058 -1.64111,-2.54628 -1.2884,1.7046 -1.9972,1.57714 -3.07995,1.43616 -2.44029,-0.57109 -4.77573,-1.14011 -6.23896,-1.91955 -2.15596,-0.80184 -2.76097,-0.12984 -3.52013,0.41984 l -4.52278,3.93055 c -0.40862,-0.18176 -0.83601,-0.3785 -1.27534,-0.55857 1.86595,-0.93763 3.44607,-2.095 4.45404,-2.86472 15.43424,-11.65206 19.03076,-21.27639 19.07098,-24.35049 -0.0613,-1.90568 -2.93156,-10.44864 -9.57845,-7.49212 -3.07001,1.78896 -6.42528,3.46334 -9.95234,6.96759 0.15826,-4.97178 -0.9213,-8.54594 -1.70689,-12.01234 -0.74087,-2.14925 -2.05803,-3.26106 -3.55177,-3.73975 z"
       id="path1884-6"
       inkscape:connector-curvature="0" />
    <path
       style="color:#000000;fill:#fcef3c;fill-opacity:1;fill-rule:nonzero;stroke:none;stroke-width:0.77580649;marker:none;visibility:visible;display:inline;overflow:visible"
       d="m 623.94971,350.81906 c 1.86775,-2.90169 1.00233,-7.45826 0.42444,-8.63482 -1.47867,-2.6954 -9.18747,-9.48735 -28.28536,-12.52984 -1.52952,-0.25233 -4.05587,-0.62878 -6.66799,-0.36001 l 1.29657,-1.94649 7.16702,1.65013 c 0.92836,0.12895 1.79282,0.45818 3.31999,-1.26198 0.92605,-1.37513 2.71053,-3.02101 4.5971,-4.67088 0.88984,-0.63279 1.47752,-1.07059 3.41535,-0.17037 2.14074,0.20309 4.16824,-2.16824 0.2472,-3.00151 -0.60246,0.12012 -1.44214,-0.83595 -8.6737,5.80701 -1.09521,1.80753 -2.48415,2.0416 -4.00794,1.55584 l -5.26513,-1.17402 0.45579,-0.66975 c 0.10499,-0.12284 0.1992,-0.22246 0.30213,-0.34385 0.10046,-0.0308 0.19726,-0.0643 0.30108,-0.10258 l -0.14053,-0.11567 c 2.19144,-2.59463 3.93614,-4.87223 5.30458,-6.85383 0.0482,-0.0166 0.089,-0.04 0.13755,-0.0588 l -0.0777,-0.0448 c 2.18147,-3.17249 3.44725,-5.63041 4.19831,-7.63074 0.007,-9.5e-4 0.009,-0.0253 0.0148,-0.0258 1.28373,-3.43246 1.08906,-5.51917 1.57748,-7.51995 l 2.5894,-4.72435 -4.03551,3.57848 c -1.84141,0.92686 -3.91652,1.19931 -6.97718,3.22764 1.1e-4,0.007 -0.0152,0.0187 -0.0148,0.0259 -1.77627,1.18017 -3.86936,2.97696 -6.46162,5.80573 l -0.0888,-0.0857 c -0.009,0.0572 0.009,0.11847 0.003,0.17444 -1.62596,1.78169 -3.45704,3.98274 -5.49694,6.70821 l -0.14054,-0.11567 c -0.0161,0.12647 -0.0274,0.23996 -0.035,0.35987 -0.0879,0.11788 -0.17262,0.21301 -0.26128,0.33288 l -0.58537,0.59494 -2.30919,-4.85752 c -0.81609,-1.37548 -0.90937,-2.80665 0.60547,-4.28039 4.84603,-8.54045 3.71403,-9.13821 3.69555,-9.75226 -1.6939,-3.63312 -3.56365,-1.11402 -2.88426,0.92617 1.31305,1.68568 1.03239,2.35229 0.61599,3.36166 -1.18323,2.20935 -2.36324,4.30297 -3.49481,5.5146 -1.33253,1.87496 -0.81409,2.64827 -0.47964,3.52381 l 3.24769,6.64323 -1.64439,1.71111 c -0.3226,-2.61603 -1.24626,-5.01293 -1.83817,-6.45139 -7.26034,-17.92408 -15.62588,-23.88901 -18.58483,-24.72351 -1.85658,-0.43411 -10.85136,0.12736 -9.71591,7.31297 0.93576,3.43706 1.69314,7.10349 4.18023,11.43153 -4.77617,-1.44955 -8.51145,-1.33661 -12.07071,-1.47526 -7.25689,0.50996 -5.78164,9.36038 -4.94108,11.07173 1.4787,2.69542 9.17252,9.51327 28.27039,12.55575 1.24731,0.20576 3.16255,0.48108 5.24244,0.43532 -0.30638,0.36905 -0.59174,0.73156 -0.86962,1.08732 l -5.79143,-1.33967 c -0.92835,-0.12894 -1.79283,-0.45818 -3.32001,1.26198 -0.92606,1.37513 -2.73645,3.00606 -4.62302,4.65593 -0.88984,0.63276 -1.46254,1.04466 -3.40039,0.14446 -2.14072,-0.20307 -4.15725,2.2091 -0.23622,3.04239 0.60246,-0.12014 1.44213,0.83593 8.67369,-5.80703 1.09521,-1.80753 2.48415,-2.0416 4.00794,-1.55584 l 3.77091,0.82962 c -0.79267,1.13162 -1.3781,2.17389 -1.57603,3.02901 -3.9847,-0.37244 -5.30894,3.03661 -4.85624,4.52127 1.03116,2.75033 0.16983,4.9282 -0.40998,7.05377 l 0.10795,-0.90513 -4.21898,0.60475 c -5.90487,-3.31532 -6.94445,0.9376 -6.74552,2.04841 1.48963,3.0987 5.90467,1.8784 6.8398,-0.71555 l 3.86205,-0.46531 c -0.01,0.0395 -0.0251,0.0789 -0.0338,0.11864 -0.22684,1.71421 0.58195,1.27395 0.95344,1.7598 l 1.21689,0.94444 1.17602,0.95538 c 0.55697,0.25268 0.31951,1.13857 1.93875,0.53197 0.0391,-0.019 0.0726,-0.0543 0.11164,-0.0737 l 0.40946,3.89892 c -2.31713,1.49463 -2.49024,6.06745 0.86411,6.8219 1.1271,-0.056 4.99446,-2.03097 0.4359,-7.0388 l -0.34855,-4.24382 -0.83648,0.31174 c 1.94152,-1.04326 3.8694,-2.37881 6.78239,-1.99256 1.54272,0.10672 4.5557,-1.93992 3.33235,-5.71206 -0.008,-0.0101 -0.003,-0.0306 -0.011,-0.0408 0.79108,-0.38638 1.65817,-1.17272 2.58562,-2.20425 l 1.65469,3.47763 c 0.81608,1.37549 0.88346,2.7917 -0.63139,4.26544 -4.84603,8.54046 -3.71402,9.13821 -3.69555,9.75225 1.69391,3.63313 3.56367,1.11403 2.88426,-0.92617 -1.31305,-1.68567 -1.00648,-2.33733 -0.59008,-3.34669 1.18323,-2.20934 2.33732,-4.31793 3.4689,-5.52957 1.33253,-1.87496 0.84002,-2.63328 0.50555,-3.50885 l -2.62604,-5.38596 c 0.28133,-0.34766 0.58198,-0.70956 0.86963,-1.08731 0.42273,2.04503 1.1317,3.87087 1.61431,5.0437 7.26036,17.92412 15.62589,23.88905 18.58483,24.72353 1.85661,0.43403 10.85136,-0.12736 9.71592,-7.31297 -0.93342,-3.42842 -1.68235,-7.10272 -4.15431,-11.41656 4.7614,1.43965 8.49318,1.32194 12.04479,1.46028 2.26777,-0.15935 3.6826,-1.14387 4.53159,-2.46282 z"
       id="path1884-0"
       inkscape:connector-curvature="0" />
    <path
       style="color:#000000;fill:#fcef3c;fill-opacity:1;fill-rule:nonzero;stroke:none;stroke-width:0.77580649;marker:none;visibility:visible;display:inline;overflow:visible"
       d="m 539.19467,537.21228 c 3.28623,1.05311 7.46354,-0.96215 8.45044,-1.82487 2.22086,-2.1259 6.7862,-11.32992 4.78211,-30.56452 -0.15215,-1.54272 -0.44237,-4.08041 -1.37806,-6.53396 l 2.21575,0.7486 0.26105,7.34989 c 0.11572,0.93011 0.0215,1.85032 2.07826,2.88025 1.56795,0.53858 3.61961,1.83627 5.70154,3.23154 0.84153,0.69574 1.41652,1.15009 1.04852,3.25488 0.3579,2.12036 3.17317,3.46503 2.96322,-0.53807 -0.27196,-0.55085 0.4342,-1.60937 -7.85406,-6.87519 -2.02941,-0.59007 -2.61499,-1.87109 -2.54015,-3.46869 l -0.22871,-5.38958 0.7649,0.26691 c 0.14583,0.0696 0.26643,0.13484 0.41033,0.20283 0.0558,0.0891 0.11313,0.17391 0.17701,0.26428 l 0.0754,-0.16568 c 3.0734,1.44524 5.72495,2.541 7.99322,3.34993 0.0284,0.0422 0.0617,0.0756 0.0924,0.11764 l 0.0232,-0.0866 c 3.62898,1.28603 6.33077,1.87253 8.45733,2.08027 0.003,0.006 0.0268,0.002 0.0288,0.008 3.64775,0.35161 5.61297,-0.37651 7.67198,-0.42258 l 5.23358,1.27842 -4.50103,-2.97182 c -1.37187,-1.53878 -2.17212,-3.47266 -4.9235,-5.90406 -0.007,0.002 -0.022,-0.01 -0.0288,-0.008 -1.59968,-1.41031 -3.87698,-2.96702 -7.2803,-4.73882 l 0.0598,-0.10788 c -0.0574,0.007 -0.11222,0.0389 -0.16773,0.048 -2.14181,-1.10942 -4.74178,-2.30843 -7.90236,-3.57342 l 0.0754,-0.16569 c -0.12631,0.0172 -0.23887,0.0356 -0.35666,0.0594 -0.13661,-0.0544 -0.25044,-0.11161 -0.38916,-0.16623 l -0.72617,-0.41143 4.09434,-3.48774 c 1.11739,-1.14427 2.47566,-1.6048 4.29126,-0.523 9.50368,2.47047 9.78808,1.22232 10.37643,1.04556 3.07091,-2.57651 0.15371,-3.73056 -1.64111,-2.54627 -1.2884,1.70459 -2.00495,1.60602 -3.0877,1.46507 -2.4403,-0.57111 -4.76798,-1.16904 -6.23121,-1.94846 -2.15595,-0.80185 -2.76873,-0.10092 -3.52788,0.44874 l -5.5763,4.85642 -2.07841,-1.14549 c 2.44339,-0.98868 4.51957,-2.50124 5.7558,-3.44528 15.43424,-11.65204 19.03074,-21.27637 19.07098,-24.35049 -0.0613,-1.90566 -2.93155,-10.44864 -9.57845,-7.49211 -3.07775,1.79345 -6.42323,3.47397 -9.96009,6.99649 0.164,-4.98859 -0.91185,-8.56736 -1.69913,-12.04124 -2.37081,-6.87761 -10.53783,-3.16199 -11.97331,-1.90713 -2.22087,2.12593 -6.8151,11.32219 -4.81101,30.55677 0.12407,1.25805 0.35384,3.1793 0.93635,5.17647 -0.43576,-0.20043 -0.85978,-0.38224 -1.27534,-0.55857 l -0.20491,-5.94083 c -0.11573,-0.93008 -0.0214,-1.85032 -2.07826,-2.88025 -1.56795,-0.53859 -3.61187,-1.86518 -5.69381,-3.26045 -0.84151,-0.69575 -1.38761,-1.14234 -1.01962,-3.24714 -0.3579,-2.12033 -3.20981,-3.44384 -2.99986,0.55925 0.27197,0.55084 -0.43421,1.60936 7.85407,6.87518 2.0294,0.59007 2.61498,1.87109 2.54015,3.46869 l 0.17465,3.85714 c -1.29823,-0.47278 -2.4565,-0.76849 -3.33371,-0.73836 -0.67157,-3.94531 -4.3072,-4.34211 -5.6241,-3.52058 -2.38973,1.70786 -4.71632,1.43956 -6.91953,1.42964 l 0.90222,-0.12999 -1.67609,-3.9187 c 1.67405,-6.56174 -2.703,-6.46516 -3.72448,-5.98551 -2.60757,2.24088 -0.28616,6.18964 2.46144,6.42155 l 1.44902,3.61002 c -0.0407,9.6e-4 -0.0827,-0.004 -0.12334,-0.002 -1.7145,0.22456 -1.07992,0.89183 -1.45307,1.37642 l -0.5973,1.41986 -0.61845,1.38321 c -0.0999,0.60339 -1.01708,0.60332 -0.0121,2.01037 0.0285,0.0328 0.0712,0.0561 0.10012,0.0888 l -3.66009,1.40462 c -2.04342,-1.85134 -6.50523,-0.83502 -6.3658,2.6003 0.34584,1.0742 3.25442,4.29862 6.91178,-1.40073 l 4.009,-1.43505 -0.51762,-0.72729 c 1.51022,1.60534 3.29922,3.12187 3.68008,6.03557 0.2962,1.51778 3.05292,3.89838 6.3799,1.74042 0.008,-0.0102 0.0287,-0.0109 0.0366,-0.0212 0.57797,0.66412 1.56193,1.29815 2.79835,1.92701 l -2.93086,2.49839 c -1.11739,1.14428 -2.46792,1.57591 -4.28352,0.49409 -9.50369,-2.47046 -9.78808,-1.22232 -10.37643,-1.04556 -3.07092,2.57653 -0.15371,3.73058 1.64112,2.54628 1.28839,-1.70459 1.99719,-1.57714 3.07994,-1.43616 2.44029,0.57109 4.77574,1.14012 6.23896,1.91955 2.15596,0.80185 2.76097,0.12984 3.52013,-0.41984 l 4.52278,-3.93055 c 0.40862,0.18176 0.83601,0.3785 1.27534,0.55858 -1.86595,0.93762 -3.44607,2.09499 -4.45404,2.86472 -15.43424,11.65206 -19.03076,21.27639 -19.07098,24.35048 0.0613,1.90568 2.93156,10.44864 9.57845,7.49212 3.07001,-1.78896 6.42529,-3.46334 9.95234,-6.96758 -0.15826,4.97177 0.9213,8.54593 1.70689,12.01233 0.74087,2.14925 2.05803,3.26106 3.55177,3.73975 z"
       id="path1884-2"
       inkscape:connector-curvature="0" />
    <path
       style="fill:#fcef3c;fill-opacity:1;fill-rule:evenodd;stroke:none"
       d="m 342.21268,320.81415 c -17.7761,0 -33.55459,2.91162 -42.28125,11.21875 -4.75398,2.01718 -11.47939,1.55388 -16.75,12.5 -8.10384,2.25228 -13.33955,3.08515 -12.125,14.6875 -5.98851,0.98306 -9.21683,4.30524 -8.9375,11.34375 -6.66279,4.33616 -13.39418,9.92899 -8.40625,18.78125 -3.54259,1.75402 -11.64535,8.30101 -4.46875,16.5625 -5.00474,3.28144 -10.14328,12.4636 -3.09375,18.65625 -6.09117,8.74715 -9.51145,19.03822 -3.09375,25.75 -9.40899,10.25259 -9.30864,18.95161 -2.46875,27.3125 -5.91403,10.3048 -11.1091,20.65665 -1.4375,31.03125 32.61078,8.2885 67.4553,11.6875 103.0625,11.6875 35.6072,0 70.4517,-3.399 103.0625,-11.6875 9.6716,-10.3746 4.4787,-20.7504 -1.5625,-31.125 7.19648,-8.29109 7.87844,-17.19073 -2.3125,-27.125 5.45175,-8.25604 2.9589,-17.11599 -3.125,-25.78125 7.0423,-6.27454 1.9046,-15.43917 -3.125,-18.65625 7.2014,-8.32585 -0.8949,-14.86285 -4.4375,-16.40625 4.988,-9.06288 -1.7262,-14.67789 -8,-18.625 -0.1097,-7.42756 -3.35515,-10.71269 -9.34375,-11.65625 1.2146,-11.64185 -4.00205,-12.49342 -12.09375,-14.75 -5.31128,-10.98465 -12.18305,-10.51281 -16.90625,-12.40625 -8.60328,-8.41209 -24.38015,-11.3125 -42.15625,-11.3125 z m 0.78125,172.59375 c 8.29941,-0.1709 14.3866,13.15865 15.375,26.03125 -10.60422,0.3248 -21.55727,0.32225 -32.40625,0.21875 2.87336,-12.7067 8.73351,-26.0792 17.03125,-26.25 z"
       id="path35462"
       inkscape:connector-curvature="0" />
  </g>
</svg>
