<?xml version="1.0" encoding="UTF-8" standalone="no"?>
<!-- Created with Inkscape (http://www.inkscape.org/) -->

<svg
   xmlns:dc="http://purl.org/dc/elements/1.1/"
   xmlns:cc="http://creativecommons.org/ns#"
   xmlns:rdf="http://www.w3.org/1999/02/22-rdf-syntax-ns#"
   xmlns:svg="http://www.w3.org/2000/svg"
   xmlns="http://www.w3.org/2000/svg"
   xmlns:sodipodi="http://sodipodi.sourceforge.net/DTD/sodipodi-0.dtd"
   xmlns:inkscape="http://www.inkscape.org/namespaces/inkscape"
   width="600.00006"
   height="760"
   id="svg10814"
   version="1.1"
   inkscape:version="0.48.4 r9939"
   sodipodi:docname="New document 225">
  <defs
     id="defs10816" />
  <sodipodi:namedview
     id="base"
     pagecolor="#ffffff"
     bordercolor="#666666"
     borderopacity="1.0"
     inkscape:pageopacity="0.0"
     inkscape:pageshadow="2"
     inkscape:zoom="0.35"
     inkscape:cx="300.00005"
     inkscape:cy="380.00002"
     inkscape:document-units="px"
     inkscape:current-layer="layer1"
     showgrid="false"
     fit-margin-top="0"
     fit-margin-left="0"
     fit-margin-right="0"
     fit-margin-bottom="0"
     inkscape:window-width="463"
     inkscape:window-height="423"
     inkscape:window-x="1626"
     inkscape:window-y="26"
     inkscape:window-maximized="0" />
  <metadata
     id="metadata10819">
    <rdf:RDF>
      <cc:Work
         rdf:about="">
        <dc:format>image/svg+xml</dc:format>
        <dc:type
           rdf:resource="http://purl.org/dc/dcmitype/StillImage" />
        <dc:title></dc:title>
      </cc:Work>
    </rdf:RDF>
  </metadata>
  <g
     inkscape:label="Layer 1"
     inkscape:groupmode="layer"
     id="layer1"
     transform="translate(-74.999955,-152.36217)">
    <g
       transform="translate(37.857164,-73.345462)"
       id="g10793">
      <path
         inkscape:connector-curvature="0"
         d="m 37.142791,225.70763 0,458.8679 c 0,166.31063 134.314699,301.13213 300.000099,301.13213 165.68539,0 299.99999,-134.8215 299.99999,-301.13213 l 0,-458.8679 -600.000089,0 z"
         id="path2346-2-0"
         style="fill:#2b5df2;fill-opacity:1" />
      <g
         transform="matrix(0.18963533,0,0,0.18963533,-90.932657,234.952)"
         id="g10789">
        <path
           inkscape:connector-curvature="0"
           style="fill:#ffffff;fill-opacity:1;stroke:none"
           d="m 1955.2366,431.58264 c -36.5598,0 -66.1876,23.57676 -66.1876,52.65625 0,29.07959 29.6278,52.65625 66.1876,52.65625 14.8118,0 28.5023,-3.86896 39.5312,-10.40625 3.745,1.82297 7.5747,3.6572 11.625,5.59375 138.7679,66.34642 111.6343,241.25602 136.5938,331.8125 -9.5807,15.36994 -15,32.88953 -15,51.5 0,24.16752 9.1425,46.52609 24.6562,64.6875 -41.9771,78.41106 6.853,283.76856 -146.25,356.96876 -4.0503,1.9365 -7.88,3.7708 -11.625,5.5937 -11.0289,-6.5373 -24.7194,-10.4063 -39.5312,-10.4063 -36.5598,0 -66.1876,23.5767 -66.1876,52.6563 0,29.0794 29.6278,52.6563 66.1876,52.6563 36.5597,0 66.2187,-23.5768 66.2187,-52.6563 0,-4.0451 -0.6016,-7.9979 -1.6875,-11.7813 12.8998,-3.9094 25.7539,-8.0047 37.7812,-12.125 19.3846,-6.6406 41.2431,-18.6496 63.75,-34.1874 l 0,1640.75 0,16.5937 0.1563,0 c 5.298,252.3034 135.9375,568.5313 135.9375,568.5313 0,0 130.6083,-316.2279 135.9062,-568.5313 l 0.1563,0 0,-1657.3437 c 22.507,15.5378 44.3342,27.5468 63.7187,34.1874 12.0274,4.1204 24.9127,8.2156 37.8126,12.125 -1.086,3.7834 -1.7188,7.7362 -1.7188,11.7813 0,29.0794 29.659,52.6563 66.2188,52.6563 36.5596,0 66.1874,-23.5768 66.1874,-52.6563 0,-29.0795 -29.6278,-52.6563 -66.1874,-52.6563 -14.812,0 -28.4712,3.869 -39.5,10.4063 -3.745,-1.8229 -7.5748,-3.6572 -11.625,-5.5937 -153.1169,-73.2068 -104.2529,-278.6047 -146.25,-357.00001 15.5021,-18.15752 24.625,-40.49852 24.625,-64.65625 0,-18.61047 -5.4194,-36.13006 -15,-51.5 24.9592,-90.55648 -2.1431,-265.466 136.625,-331.8125 4.0502,-1.93647 7.88,-3.77078 11.625,-5.59375 11.0288,6.53729 24.6881,10.40625 39.5,10.40625 36.5596,0 66.1874,-23.57674 66.1874,-52.65625 0,-29.07949 -29.6278,-52.65625 -66.1874,-52.65625 -36.5598,0 -66.2188,23.57676 -66.2188,52.65625 0,4.04508 0.6327,7.96669 1.7188,11.75 -12.8999,3.90935 -25.7852,8.03601 -37.8126,12.15625 -60.9673,20.88587 -146.3204,94.43156 -199.8124,166.28125 -53.4921,-71.84969 -138.845,-145.39538 -199.8126,-166.28125 -12.0272,-4.12016 -24.8814,-8.24682 -37.7812,-12.15625 1.0859,-3.78331 1.6875,-7.70492 1.6875,-11.75 0,-29.07949 -29.6591,-52.65625 -66.2187,-52.65625 z m 302,895.43746 a 7.50075,7.50075 0 0 1 7.625,7.625 l 0,2191.4687 a 7.50075,7.50075 0 1 1 -15,0 l 0,-2191.4687 a 7.50075,7.50075 0 0 1 7.375,-7.625 z"
           id="rect10687" />
        <path
           style="fill:#ffff00;fill-opacity:1;stroke:none"
           d="m 2257.2595,357.51948 c 0,0 -69.2389,58.57634 -96.2812,159.5 -25.3763,94.70567 43.1034,177.53125 96.2812,177.53125 53.1778,0 122.3846,-83.02338 96.2812,-177.53125 -27.0806,-98.04652 -96.2812,-159.5 -96.2812,-159.5 z m -48.375,121.75 96.9688,0 0,15 -40.9688,0 0,158.53125 -15,0 0,-158.53125 -41,0 0,-15 z"
           id="path10740"
           inkscape:connector-curvature="0" />
      </g>
    </g>
  </g>
</svg>
