<?xml version="1.0" encoding="UTF-8" standalone="no"?>
<!-- Created with Inkscape (http://www.inkscape.org/) -->

<svg
   xmlns:dc="http://purl.org/dc/elements/1.1/"
   xmlns:cc="http://creativecommons.org/ns#"
   xmlns:rdf="http://www.w3.org/1999/02/22-rdf-syntax-ns#"
   xmlns:svg="http://www.w3.org/2000/svg"
   xmlns="http://www.w3.org/2000/svg"
   xmlns:xlink="http://www.w3.org/1999/xlink"
   xmlns:sodipodi="http://sodipodi.sourceforge.net/DTD/sodipodi-0.dtd"
   xmlns:inkscape="http://www.inkscape.org/namespaces/inkscape"
   version="1.0"
   width="600"
   height="760"
   id="svg20"
   inkscape:version="0.48.4 r9939"
   sodipodi:docname="le_locle.svg">
  <sodipodi:namedview
     pagecolor="#ffffff"
     bordercolor="#666666"
     borderopacity="1"
     objecttolerance="10"
     gridtolerance="10"
     guidetolerance="10"
     inkscape:pageopacity="0"
     inkscape:pageshadow="2"
     inkscape:window-width="1600"
     inkscape:window-height="1147"
     id="namedview87"
     showgrid="false"
     inkscape:zoom="0.30930537"
     inkscape:cx="-84.849576"
     inkscape:cy="381.5"
     inkscape:window-x="1592"
     inkscape:window-y="-8"
     inkscape:window-maximized="1"
     inkscape:current-layer="svg20" />
  <desc
     id="desc22">Coat of Arms of Canton of Freiburg (Fribourg)</desc>
  <metadata
     id="metadata31">
    <rdf:RDF>
      <cc:Work
         rdf:about="">
        <dc:format>image/svg+xml</dc:format>
        <dc:type
           rdf:resource="http://purl.org/dc/dcmitype/StillImage" />
        <dc:date>07-AUG-2006</dc:date>
        <dc:creator>
          <cc:Agent>
            <dc:title>Jérôme BLUM (wagner51)</dc:title>
          </cc:Agent>
        </dc:creator>
        <cc:license
           rdf:resource="http://creativecommons.org/licenses/GPL/2.0/" />
        <dc:coverage />
        <dc:description>Gabarit pour le Projet:Blasons de WIkipédia</dc:description>
        <dc:subject>
          <rdf:Bag>
            <rdf:li>blason suisse modèle gabarit projet blasons</rdf:li>
          </rdf:Bag>
        </dc:subject>
        <dc:language>fr</dc:language>
        <dc:title />
      </cc:Work>
      <cc:License
         rdf:about="http://creativecommons.org/licenses/GPL/2.0/">
        <cc:permits
           rdf:resource="http://web.resource.org/cc/Reproduction" />
        <cc:permits
           rdf:resource="http://web.resource.org/cc/Distribution" />
        <cc:requires
           rdf:resource="http://web.resource.org/cc/Notice" />
        <cc:permits
           rdf:resource="http://web.resource.org/cc/DerivativeWorks" />
        <cc:requires
           rdf:resource="http://web.resource.org/cc/ShareAlike" />
        <cc:requires
           rdf:resource="http://web.resource.org/cc/SourceCode" />
      </cc:License>
    </rdf:RDF>
  </metadata>
  <defs
     id="defs29">
    <linearGradient
       id="linearGradient2893">
      <stop
         id="stop2895"
         style="stop-color:#ffffff;stop-opacity:0.3137255"
         offset="0" />
      <stop
         id="stop2897"
         style="stop-color:#ffffff;stop-opacity:0.25098041"
         offset="0.19" />
      <stop
         id="stop2901"
         style="stop-color:#6b6b6b;stop-opacity:0.1254902"
         offset="0.60000002" />
      <stop
         id="stop2899"
         style="stop-color:#000000;stop-opacity:0.1254902"
         offset="1" />
    </linearGradient>
    <radialGradient
       cx="858.04236"
       cy="579.93323"
       r="300"
       fx="858.04236"
       fy="579.93323"
       id="radialGradient3236"
       xlink:href="#linearGradient2893"
       gradientUnits="userSpaceOnUse"
       gradientTransform="matrix(1.215027,0,0,1.266667,-839.1924,-490.4894)" />
    <clipPath
       id="clipPath4498">
      <path
         d="m 3.4655652,2.260621 0,394.392059 c 0,142.94217 134.3145448,258.81976 299.9999348,258.81976 165.68547,0 300.00007,-115.87759 300.00007,-258.81976 l 0,-394.392059 -600.0000048,0 z"
         id="path4500"
         style="fill:none;stroke:#000000;stroke-width:3;stroke-miterlimit:4;stroke-opacity:1;stroke-dasharray:none"
         inkscape:connector-curvature="0" />
    </clipPath>
    <clipPath
       id="clipPath4524">
      <path
         d="m 1.5,1.499997 0,458.867943 C 1.5,626.67854 135.81454,761.5 301.49993,761.5 467.1854,761.5 601.5,626.67854 601.5,460.36794 l 0,-458.867943 -600,0 z"
         id="path4526"
         style="fill:none;stroke:#000000;stroke-width:3;stroke-miterlimit:4;stroke-opacity:1;stroke-dasharray:none;display:inline"
         inkscape:connector-curvature="0" />
    </clipPath>
    <clipPath
       id="clipPath4650">
      <path
         d="m 484.89372,-145.351 0,287.57549 c 0,104.22793 96.19082,188.7214 214.84822,188.7214 118.65745,0 214.84831,-84.49347 214.84831,-188.7214 l 0,-287.57549 -429.69653,0 z"
         id="path4652"
         style="fill:none;stroke:#000000;stroke-width:3;stroke-miterlimit:4;stroke-opacity:1;stroke-dasharray:none;display:inline"
         inkscape:connector-curvature="0" />
    </clipPath>
    <clipPath
       id="clipPath4654">
      <path
         d="m 630.08209,-144.65578 0,287.5755 c 0,104.22792 96.19082,188.7214 214.84821,188.7214 118.65745,0 214.8483,-84.49348 214.8483,-188.7214 l 0,-287.5755 -429.69651,0 z"
         id="path4656"
         style="fill:none;stroke:#000000;stroke-width:3;stroke-miterlimit:4;stroke-opacity:1;stroke-dasharray:none;display:inline"
         inkscape:connector-curvature="0" />
    </clipPath>
    <clipPath
       id="clipPath4658">
      <path
         d="m 557.4879,-145.35109 0,287.5755 c 0,104.22792 96.19082,188.7214 214.84822,188.7214 118.65745,0 214.84831,-84.49348 214.84831,-188.7214 l 0,-287.5755 -429.69653,0 z"
         id="path4660"
         style="fill:none;stroke:#000000;stroke-width:3;stroke-miterlimit:4;stroke-opacity:1;stroke-dasharray:none;display:inline"
         inkscape:connector-curvature="0" />
    </clipPath>
  </defs>
  <g
     transform="translate(-37.142835,-225.70763)"
     id="g6376">
    <path
       inkscape:connector-curvature="0"
       d="m 37.142791,225.70762 0,458.8679 c 0,166.31063 134.314699,301.13213 300.000099,301.13213 165.68539,0 299.99999,-134.8215 299.99999,-301.13213 l 0,-458.8679 -600.000089,0 z"
       id="path2346-2-0"
       style="fill:#ffff00;fill-opacity:1" />
    <path
       id="rect5843"
       d="m 87.142836,225.70764 -50,59.0625 50,59.03125 50.000004,-59.03125 -50.000004,-59.0625 z m 50.000004,59.0625 50,59.03125 50,-59.03125 -50,-59.0625 -50,59.0625 z m 100,0 50,59.03125 50,-59.03125 -50,-59.0625 -50,59.0625 z m 100,0 50,59.03125 50,-59.03125 -50,-59.0625 -50,59.0625 z m 100,0 50,59.03125 50,-59.03125 -50,-59.0625 -50,59.0625 z m 100,0 50,59.03125 50,-59.03125 -50,-59.0625 -50,59.0625 z m 50,59.03125 -50,59.03125 50,59.0625 50,-59.0625 -50,-59.03125 z m 0,118.09375 -50,59.03125 50,59.03125 50,-59.03125 -50,-59.03125 z m 0,118.0625 -50,59.0625 50,59.03125 50,-59.03125 -50,-59.0625 z m 0,118.09375 -50,59.0625 50,59.03125 37,-43.6875 c 2.33975,-7.70812 4.36709,-15.54327 6.09375,-23.5 l -43.09375,-50.90625 z m 0,118.09375 -50,59.0625 15.75,18.59375 c 18.12811,-18.83103 33.81923,-40.03624 46.59375,-63.09375 l -12.34375,-14.5625 z m -50,59.0625 -50,-59.0625 -50,59.0625 50,59.03125 50,-59.03125 z m -50,59.03125 -17.34375,20.5 c 8.08886,-4.00979 15.96842,-8.39377 23.625,-13.09375 l -6.28125,-7.40625 z m -50,-59.03125 -50,-59.0625 -50,59.0625 50,59.03125 50,-59.03125 z m -50,59.03125 -43.53125,51.375 c 26.70371,-0.56682 52.54443,-4.61764 77.09375,-11.75 l -33.5625,-39.625 z m -50,-59.03125 -50,-59.0625 -50,59.0625 50,59.03125 50,-59.03125 z m -50,59.03125 -33.5625,39.625 c 24.54932,7.13236 50.39004,11.18318 77.09375,11.75 l -43.53125,-51.375 z m -50,-59.03125 -50,-59.0625 -50,59.0625 50,59.03125 50,-59.03125 z m -50,59.03125 -6.28125,7.40625 c 7.65658,4.69998 15.53613,9.08396 23.625,13.09375 l -17.34375,-20.5 z m -50,-59.03125 -50.000004,-59.0625 -12.34375,14.5625 c 12.774525,23.05751 28.465634,44.26272 46.593754,63.09375 l 15.75,-18.59375 z m -50.000004,-59.0625 50.000004,-59.03125 -50.000004,-59.0625 -43.09375,50.90625 c 1.726666,7.95673 3.753996,15.79188 6.09375,23.5 l 37,43.6875 z m 0,-118.09375 50.000004,-59.03125 -50.000004,-59.0625 -50,59.0625 50,59.03125 z m 0,-118.09375 50.000004,-59.03125 -50.000004,-59.03125 -50,59.03125 50,59.03125 z m 0,-118.0625 50.000004,-59.0625 -50.000004,-59.03125 -50,59.03125 50,59.0625 z m 50.000004,-59.0625 50,59.0625 50,-59.0625 -50,-59.03125 -50,59.03125 z m 100,0 50,59.0625 50,-59.0625 -50,-59.03125 -50,59.03125 z m 100,0 50,59.0625 50,-59.0625 -50,-59.03125 -50,59.03125 z m 100,0 50,59.0625 50,-59.0625 -50,-59.03125 -50,59.03125 z m 50,59.0625 -50,59.03125 50,59.03125 50,-59.03125 -50,-59.03125 z m 0,118.0625 -50,59.0625 50,59.03125 50,-59.03125 -50,-59.0625 z m 0,118.09375 -50,59.0625 50,59.03125 50,-59.03125 -50,-59.0625 z m -50,59.0625 -50,-59.0625 -50,59.0625 50,59.03125 50,-59.03125 z m -100,0 -50,-59.0625 -50,59.0625 50,59.03125 50,-59.03125 z m -100,0 -50,-59.0625 -50,59.0625 50,59.03125 50,-59.03125 z m -50,-59.0625 50,-59.03125 -50,-59.0625 -50,59.0625 50,59.03125 z m 0,-118.09375 50,-59.03125 -50,-59.03125 -50,59.03125 50,59.03125 z m 50,-59.03125 50,59.03125 50,-59.03125 -50,-59.03125 -50,59.03125 z m 100,0 50,59.03125 50,-59.03125 -50,-59.03125 -50,59.03125 z m 50,59.03125 -50,59.0625 50,59.03125 50,-59.03125 -50,-59.0625 z m -50,59.0625 -50,-59.0625 -50,59.0625 50,59.03125 50,-59.03125 z"
       style="fill:#e20909;fill-opacity:1;stroke:none"
       inkscape:connector-curvature="0" />
    <path
       inkscape:connector-curvature="0"
       id="path2346-2-0-0"
       transform="translate(37.142836,225.70764)"
       d="m 0,293.90625 0,121.0625 149.6875,0 0,304.53125 C 193.88861,745.24146 245.21958,760 300,760 c 54.5204,0 105.62875,-14.60977 149.6875,-40.125 l 0,-304.90625 150.3125,0 0,-121.0625 -600,0 z"
       style="fill:#ffffff;fill-opacity:1" />
    <path
       id="use4265-5-7-8"
       d="m 245.86159,640.67639 c 0,0 -11.56975,19.40815 -16.46875,25.1875 -4.89905,5.77938 -12,10.6875 -12,10.6875 l 4.6875,-1.78125 2.4375,1.78125 4.6875,-3.625 2.4375,3.625 4.6875,-5.4375 1.28125,2.90625 c -5.11414,6.64761 -11.35774,14.46638 -15,17.96875 -6.91173,6.64626 -16.90625,12.28125 -16.90625,12.28125 l 6.59375,-2.0625 3.4375,2.0625 6.625,-4.15625 3.4375,4.15625 6.59375,-6.21875 2.03125,3.65625 c -5.06746,6.69065 -10.65159,13.71704 -14.09375,17.125 -7.58868,7.51315 -18.5625,13.90625 -18.5625,13.90625 l 7.25,-2.34375 3.78125,2.34375 7.25,-4.71875 3.75,4.71875 7.28125,-7.0625 2.625,4.90625 c -6.15808,7.86516 -13.22203,16.51839 -17.46875,20.5625 -8.79991,8.38008 -21.53125,15.5 -21.53125,15.5 l 8.4375,-2.625 4.375,2.625 8.40625,-5.28125 4.375,5.28125 8.40625,-7.90625 2.34375,4.21875 c -6.19168,8.03682 -12.90864,16.38513 -17.09375,20.46875 -9.47681,9.24698 -23.15625,17.09375 -23.15625,17.09375 l 9.0625,-2.90625 4.6875,2.90625 9.0625,-5.78125 4.71875,5.78125 9.0625,-8.6875 1.5625,2.875 c -6.33572,8.35288 -13.03029,16.76575 -17.28125,21 -10.1537,10.11387 -24.84375,18.6875 -24.84375,18.6875 l 9.75,-3.15625 5.03125,3.15625 9.6875,-6.34375 5.0625,6.34375 9.71875,-9.5 5.03125,9.5 7.375,-12.65625 c 0.17577,14.5064 0.15164,30.38691 -0.59375,37.25 -0.53535,4.92934 -1.18079,8.57486 -1.8125,11.34375 -23.46749,6.66098 -42.24118,36.85412 -47.65625,75.8125 43.83829,25.16891 94.59825,39.5625 148.71875,39.5625 53.89067,0 104.44555,-14.27923 148.15625,-39.25 -5.32391,-38.9224 -23.9724,-69.15749 -47.34375,-76.03125 -0.54661,-2.77529 -1.12854,-6.46874 -1.59375,-11.4375 -0.62624,-6.68832 -0.67018,-21.92947 -0.53125,-36.125 l 6.71875,11.53125 5.0625,-9.5 9.71875,9.5 5.03125,-6.34375 9.71875,6.34375 5.03125,-3.15625 9.71875,3.15625 c 0,0 -14.69,-8.57359 -24.84375,-18.6875 -4.25039,-4.23373 -10.9158,-12.64816 -17.25,-21 l 1.53125,-2.875 9.09375,8.6875 4.71875,-5.78125 9.0625,5.78125 4.6875,-2.90625 9.0625,2.90625 c 0,0 -13.7107,-7.84677 -23.1875,-17.09375 -4.18507,-4.08362 -10.90295,-12.43193 -17.09375,-20.46875 l 2.375,-4.21875 8.40625,7.90625 4.375,-5.28125 8.40625,5.28125 4.375,-2.625 8.4375,2.625 c 0,0 -12.76263,-7.11992 -21.5625,-15.5 -4.24672,-4.04411 -11.28027,-12.69734 -17.4375,-20.5625 l 2.625,-4.90625 7.25,7.0625 3.78125,-4.71875 7.25,4.71875 3.78125,-2.34375 7.25,2.34375 c 0,0 -10.97387,-6.3931 -18.5625,-13.90625 -3.44196,-3.40772 -9.02728,-10.43475 -14.09375,-17.125 l 2.03125,-3.65625 6.59375,6.21875 3.4375,-4.15625 6.625,4.15625 3.4375,-2.0625 6.59375,2.0625 c 0,0 -9.99448,-5.63499 -16.90625,-12.28125 -3.64162,-3.50181 -9.88703,-11.3218 -15,-17.96875 l 1.28125,-2.90625 4.6875,5.4375 2.4375,-3.625 4.6875,3.625 2.4375,-1.78125 4.6875,1.78125 c 0,0 -7.10099,-4.90812 -12,-10.6875 -4.89905,-5.77935 -16.5,-25.1875 -16.5,-25.1875 0,0 -11.601,19.40815 -16.5,25.1875 -4.89905,5.77938 -11.96875,10.6875 -11.96875,10.6875 l 4.6875,-1.78125 2.40625,1.78125 4.71875,-3.625 2.4375,3.625 4.65625,-5.4375 1.3125,2.90625 c -5.11414,6.64761 -11.38899,14.46638 -15.03125,17.96875 -6.91173,6.64626 -16.90625,12.28125 -16.90625,12.28125 l 6.625,-2.0625 3.4375,2.0625 6.59375,-4.15625 3.4375,4.15625 6.625,-6.21875 2,3.65625 c -5.06746,6.69065 -10.62034,13.71704 -14.0625,17.125 -7.58868,7.51315 -18.59375,13.90625 -18.59375,13.90625 l 7.28125,-2.34375 3.75,2.34375 7.28125,-4.71875 3.75,4.71875 7.28125,-7.0625 2.625,4.90625 c -6.15808,7.86516 -13.22203,16.51839 -17.46875,20.5625 -5.06205,4.82055 -11.35292,9.16131 -15.84375,12.03125 -4.49434,-2.86994 -10.81297,-7.2107 -15.875,-12.03125 -4.24672,-4.04411 -11.28027,-12.69734 -17.4375,-20.5625 l 2.625,-4.90625 7.25,7.0625 3.78125,-4.71875 7.28125,4.71875 3.75,-2.34375 7.25,2.34375 c 0,0 -10.97387,-6.3931 -18.5625,-13.90625 -3.44196,-3.40772 -9.02728,-10.43475 -14.09375,-17.125 l 2.03125,-3.65625 6.59375,6.21875 3.4375,-4.15625 6.625,4.15625 3.4375,-2.0625 6.59375,2.0625 c 0,0 -9.99448,-5.63499 -16.90625,-12.28125 -3.64162,-3.50181 -9.88703,-11.3218 -15,-17.96875 l 1.28125,-2.90625 4.6875,5.4375 2.4375,-3.625 4.6875,3.625 2.4375,-1.78125 4.6875,1.78125 c 0,0 -7.10099,-4.90812 -12,-10.6875 -4.89905,-5.77935 -16.5,-25.1875 -16.5,-25.1875 0,0 -11.601,19.40815 -16.5,25.1875 -4.89905,5.77938 -11.96875,10.6875 -11.96875,10.6875 l 4.6875,-1.78125 2.4375,1.78125 4.6875,-3.625 2.4375,3.625 4.6875,-5.4375 1.28125,2.90625 c -5.11414,6.64761 -11.38899,14.46638 -15.03125,17.96875 -6.91173,6.64626 -16.90625,12.28125 -16.90625,12.28125 l 6.625,-2.0625 3.4375,2.0625 6.59375,-4.15625 3.4375,4.15625 6.625,-6.21875 2,3.65625 c -5.06746,6.69065 -10.62034,13.71704 -14.0625,17.125 -7.58868,7.51315 -18.5625,13.90625 -18.5625,13.90625 l 7.25,-2.34375 3.75,2.34375 7.28125,-4.71875 3.75,4.71875 7.28125,-7.0625 2.625,4.90625 c -6.15808,7.86516 -13.22203,16.51839 -17.46875,20.5625 -5.06205,4.82055 -11.35292,9.16131 -15.84375,12.03125 -4.49434,-2.86994 -10.78172,-7.2107 -15.84375,-12.03125 -4.24672,-4.04411 -11.31152,-12.69734 -17.46875,-20.5625 l 2.625,-4.90625 7.25,7.0625 3.78125,-4.71875 7.28125,4.71875 3.75,-2.34375 7.25,2.34375 c 0,0 -10.97387,-6.3931 -18.5625,-13.90625 -3.44196,-3.40772 -8.99603,-10.43475 -14.0625,-17.125 l 2,-3.65625 6.59375,6.21875 3.4375,-4.15625 6.625,4.15625 3.4375,-2.0625 6.625,2.0625 c 0,0 -10.02573,-5.63499 -16.9375,-12.28125 -3.64162,-3.50181 -9.88703,-11.3218 -15,-17.96875 l 1.28125,-2.90625 4.6875,5.4375 2.4375,-3.625 4.6875,3.625 2.4375,-1.78125 4.6875,1.78125 c 0,0 -7.10099,-4.90812 -12,-10.6875 -4.89905,-5.77935 -16.5,-25.1875 -16.5,-25.1875 z m 17.1875,118.0625 8.40625,7.90625 4.375,-5.28125 8.40625,5.28125 4.375,-2.625 0.9375,0.28125 c -2.3153,1.43336 -3.875,2.34375 -3.875,2.34375 l 5.6875,-1.78125 5.6875,1.78125 c 0,0 -1.55778,-0.91039 -3.875,-2.34375 l 0.9375,-0.28125 4.34375,2.625 8.4375,-5.28125 4.375,5.28125 8.40625,-7.90625 2.34375,4.21875 c -6.19168,8.03682 -12.90864,16.38513 -17.09375,20.46875 -4.2235,4.12107 -9.24838,7.91202 -13.5625,10.90625 -4.31947,-2.99543 -9.33512,-6.78138 -13.5625,-10.90625 -4.18507,-4.08362 -10.90295,-12.43193 -17.09375,-20.46875 l 2.34375,-4.21875 z m 90.96875,0 8.40625,7.90625 4.375,-5.28125 8.40625,5.28125 4.375,-2.625 0.9375,0.28125 c -2.3153,1.43336 -3.875,2.34375 -3.875,2.34375 l 5.6875,-1.78125 5.6875,1.78125 c 0,0 -1.55778,-0.91039 -3.875,-2.34375 l 0.90625,-0.28125 4.375,2.625 8.4375,-5.28125 4.375,5.28125 8.40625,-7.90625 2.34375,4.21875 c -6.19168,8.03682 -12.90864,16.38513 -17.09375,20.46875 -4.2235,4.12107 -9.24838,7.91202 -13.5625,10.90625 -4.31947,-2.99543 -9.33512,-6.78138 -13.5625,-10.90625 -4.18507,-4.08362 -10.90295,-12.43193 -17.09375,-20.46875 l 2.34375,-4.21875 z m -89.65625,33.09375 9.0625,8.6875 4.71875,-5.78125 6.40625,4.09375 c -1.69518,1.05018 -2.8125,1.6875 -2.8125,1.6875 l 3.625,-1.15625 1.84375,1.15625 4.15625,-2.5625 4.15625,2.5625 1.84375,-1.15625 3.625,1.15625 c 0,0 -1.11595,-0.63732 -2.8125,-1.6875 l 6.40625,-4.09375 4.71875,5.78125 9.0625,-8.6875 1.5625,2.875 c -6.33572,8.35288 -13.03029,16.76575 -17.28125,21 -3.48803,3.47435 -7.50134,6.73415 -11.28125,9.5625 -3.77992,-2.82835 -7.82445,-6.08814 -11.3125,-9.5625 -4.25039,-4.23373 -10.9158,-12.64816 -17.25,-21 l 1.5625,-2.875 z m 90.96875,0 9.0625,8.6875 4.71875,-5.78125 6.40625,4.09375 c -1.7049,1.05651 -2.8125,1.6875 -2.8125,1.6875 l 3.625,-1.15625 1.84375,1.15625 4.15625,-2.5625 4.15625,2.5625 1.8125,-1.15625 3.65625,1.15625 c 0,0 -1.11595,-0.63732 -2.8125,-1.6875 l 6.40625,-4.09375 4.71875,5.78125 9.0625,-8.6875 1.5625,2.875 c -6.33572,8.35288 -13.03029,16.76575 -17.28125,21 -3.48803,3.47435 -7.50134,6.73415 -11.28125,9.5625 -3.77992,-2.82835 -7.82445,-6.08814 -11.3125,-9.5625 -4.25039,-4.23373 -10.9158,-12.64816 -17.25,-21 l 1.5625,-2.875 z m -25.875,29.90625 c 0.17577,14.5064 0.15164,30.38691 -0.59375,37.25 -0.53544,4.93012 -1.21195,8.57472 -1.84375,11.34375 -14.27736,4.06485 -26.80832,16.84282 -35.65625,35 -8.78342,-18.02481 -21.19573,-30.74517 -35.34375,-34.90625 -0.54661,-2.77529 -1.12854,-6.46874 -1.59375,-11.4375 -0.62624,-6.68832 -0.67018,-21.92947 -0.53125,-36.125 l 6.75,11.53125 5.03125,-9.5 9.71875,9.5 5.03125,-6.34375 3.625,2.375 c -3.66791,2.44018 -6.25,3.96875 -6.25,3.96875 l 8.25,-2.6875 4.09375,2.6875 1.21875,-0.75 1.1875,0.75 4.125,-2.6875 8.25,2.6875 c 0,0 -2.60204,-1.52028 -6.28125,-3.96875 l 3.625,-2.375 5.0625,6.34375 9.71875,-9.5 5.03125,9.5 7.375,-12.65625 z m 90.96875,0 c 0.17577,14.5064 0.15164,30.38691 -0.59375,37.25 -0.53544,4.93012 -1.21195,8.57472 -1.84375,11.34375 -14.27268,4.05809 -26.80673,16.8263 -35.65625,34.96875 -8.78271,-18.01135 -21.20237,-30.71587 -35.34375,-34.875 -0.54661,-2.77529 -1.12854,-6.46874 -1.59375,-11.4375 -0.62624,-6.68832 -0.67018,-21.92947 -0.53125,-36.125 l 6.75,11.53125 5.03125,-9.5 9.71875,9.5 5.03125,-6.34375 3.625,2.375 c -3.66791,2.44018 -6.25,3.96875 -6.25,3.96875 l 8.25,-2.6875 4.09375,2.6875 1.21875,-0.75 1.1875,0.75 4.125,-2.6875 8.21875,2.6875 c 0,0 -2.57858,-1.52599 -6.25,-3.96875 l 3.625,-2.375 5.0625,6.34375 9.71875,-9.5 5.03125,9.5 7.375,-12.65625 z"
       style="fill:#33a02c;fill-opacity:1;stroke:none"
       inkscape:connector-curvature="0" />
    <path
       sodipodi:nodetypes="czzzzzzzcczzzzzzzcc"
       inkscape:connector-curvature="0"
       id="rect6287"
       d="m 37.142838,564.01553 c 0,0 49.954773,-4.51345 75.000002,-4.51345 25.04523,0 49.95477,4.51345 75,4.51345 25.04523,0 49.95477,-4.51345 75,-4.51345 25.04523,0 49.95477,4.51345 75,4.51345 25.04523,0 49.95477,-4.51345 75,-4.51345 25.04523,0 49.95477,4.51345 75,4.51345 25.04523,0 49.95477,-4.51345 75,-4.51345 25.04523,0 75,4.51345 75,4.51345 l 0,36.76149 c 0,0 -49.95477,-4.51345 -75,-4.51345 -25.04523,0 -49.95477,4.51345 -75,4.51345 -25.04523,0 -49.95477,-4.51345 -75,-4.51345 -25.04523,0 -49.95477,4.51345 -75,4.51345 -25.04523,0 -49.95477,-4.51345 -75,-4.51345 -25.04523,0 -49.95477,4.51345 -75,4.51345 -25.04523,0 -49.95477,-4.51345 -75,-4.51345 -25.045229,0 -75.000002,4.51345 -75.000002,4.51345 z"
       style="fill:#2b5df2;fill-opacity:1;stroke:none" />
  </g>
</svg>
