<?xml version="1.0" encoding="UTF-8" standalone="no"?>
<!-- Created with Inkscape (http://www.inkscape.org/) -->

<svg
   xmlns:dc="http://purl.org/dc/elements/1.1/"
   xmlns:cc="http://creativecommons.org/ns#"
   xmlns:rdf="http://www.w3.org/1999/02/22-rdf-syntax-ns#"
   xmlns:svg="http://www.w3.org/2000/svg"
   xmlns="http://www.w3.org/2000/svg"
   xmlns:sodipodi="http://sodipodi.sourceforge.net/DTD/sodipodi-0.dtd"
   xmlns:inkscape="http://www.inkscape.org/namespaces/inkscape"
   width="600.00012"
   height="760"
   id="svg10203"
   version="1.1"
   inkscape:version="0.48.4 r9939"
   sodipodi:docname="le_landeron.svg">
  <defs
     id="defs10205" />
  <sodipodi:namedview
     id="base"
     pagecolor="#ffffff"
     bordercolor="#666666"
     borderopacity="1.0"
     inkscape:pageopacity="0.0"
     inkscape:pageshadow="2"
     inkscape:zoom="0.35"
     inkscape:cx="300.00005"
     inkscape:cy="380.00002"
     inkscape:document-units="px"
     inkscape:current-layer="layer1"
     showgrid="false"
     fit-margin-top="0"
     fit-margin-left="0"
     fit-margin-right="0"
     fit-margin-bottom="0"
     inkscape:window-width="635"
     inkscape:window-height="423"
     inkscape:window-x="1678"
     inkscape:window-y="78"
     inkscape:window-maximized="0" />
  <metadata
     id="metadata10208">
    <rdf:RDF>
      <cc:Work
         rdf:about="">
        <dc:format>image/svg+xml</dc:format>
        <dc:type
           rdf:resource="http://purl.org/dc/dcmitype/StillImage" />
        <dc:title />
      </cc:Work>
    </rdf:RDF>
  </metadata>
  <g
     inkscape:label="Layer 1"
     inkscape:groupmode="layer"
     id="layer1"
     transform="translate(-74.999945,-152.36217)">
    <path
       inkscape:connector-curvature="0"
       style="fill:#2b5df2;fill-opacity:1"
       d="m 675.00002,553.23447 -600.000035,0 0,58.00266 c 0,166.31066 134.314645,301.12506 300.000035,301.12506 165.68546,0 300,-134.8144 300,-301.12506 z"
       id="path3033-8"
       sodipodi:nodetypes="ccsssc" />
    <path
       style="fill:#000000;fill-opacity:0"
       id="path2346-2-8"
       d="m 74.999945,152.36217 0,458.8679 c 0,166.31063 134.314725,301.13213 300.000115,301.13213 165.6854,0 299.99999,-134.8215 299.99999,-301.13213 l 0,-458.8679 -600.000105,0 z"
       inkscape:connector-curvature="0" />
    <g
       id="g10038"
       transform="translate(-703.24473,-147.45689)">
      <path
         inkscape:connector-curvature="0"
         id="path2346-1"
         d="m 977.74474,299.81908 0,52.3125 96.87496,-52.3125 -96.87496,0 z m 96.87496,0 104.125,53.3125 0,-53.3125 -104.125,0 z m 0,66.1875 -96.87496,55.0625 0,70.9375 96.87496,-52.3125 104.125,53.28125 0,-71.46875 -104.125,-55.5 z m 0,139.875 -96.87496,55.0625 0,70.90625 96.87496,-52.3125 104.125,53.3125 0,-71.46875 -104.125,-55.5 z m 0,139.84375 -96.87496,55.09375 0,2 200.99996,0 0,-1.5625 -104.125,-55.53125 z"
         style="fill:#e20909;fill-opacity:1" />
      <path
         id="path2346-7-2"
         d="m 778.24474,299.81908 0,403 199.5,0 0,-403 -199.5,0 z m 400.49996,0 0,403 199.5,0 0,-403 -199.5,0 z"
         style="fill:#ffff00;fill-opacity:1"
         inkscape:connector-curvature="0" />
    </g>
    <path
       style="fill:#ffffff;fill-opacity:1;stroke:none"
       d="m 360.89259,599.53741 c -18.45354,0 -36.27652,0.76479 -53.06466,2.19506 3.84983,9.5172 5.93006,19.59903 5.93006,30.02592 0,10.42545 -2.05752,20.49029 -5.90654,30.00577 16.78575,1.42967 34.59106,2.21519 53.04114,2.21519 62.23311,0 117.15869,-8.75821 150.06354,-22.11164 12.82115,5.2031 28.97294,9.71327 47.60524,13.27102 l -18.07258,-23.38034 18.07258,-23.40049 c -18.64569,3.5603 -34.80321,8.06908 -47.62876,13.27102 -32.90699,-13.3491 -87.81889,-22.09151 -150.04002,-22.09151 z m -59.04179,2.73878 c -50.3569,4.83223 -90.78774,15.67952 -110.41215,29.4822 19.62615,13.80172 60.05624,24.6305 110.41215,29.46205 3.7752,-9.33526 5.8124,-19.21757 5.8124,-29.46205 0,-10.24449 -2.0372,-20.14638 -5.8124,-29.4822 z m -44.99318,12.64674 c 3.76793,0.0451 7.36575,1.8638 9.15394,4.95397 2.54319,4.3949 0.45261,9.72521 -4.68286,11.90163 -0.34616,0.14667 -0.70442,0.27164 -1.05894,0.38262 1.86365,-2.40047 2.23741,-5.56877 0.63537,-8.33718 -2.39063,-4.13122 -8.25624,-5.81165 -13.08379,-3.76583 -0.22825,0.0968 -0.44339,0.19244 -0.65891,0.30207 0.93262,-1.89524 2.64292,-3.52674 4.96526,-4.51093 1.28391,-0.5441 2.63163,-0.83764 3.97691,-0.90621 0.25223,-0.0128 0.50183,-0.0231 0.75302,-0.0201 z"
       id="path4330-1"
       inkscape:connector-curvature="0" />
    <path
       style="fill:#ffffff;fill-opacity:1;stroke:none"
       d="m 360.89258,682.35545 c -18.45354,0 -36.27651,0.76479 -53.06465,2.19506 3.84983,9.5172 5.93005,19.59903 5.93005,30.02592 0,10.42546 -2.05752,20.49029 -5.90653,30.00578 16.78574,1.42966 34.59106,2.21518 53.04113,2.21518 62.23312,0 117.15869,-8.7582 150.06355,-22.11163 12.82115,5.20309 28.97294,9.71327 47.60524,13.27101 l -18.07258,-23.38034 18.07258,-23.40048 c -18.64569,3.56029 -34.80321,8.06908 -47.62876,13.27101 -32.907,-13.34909 -87.81889,-22.09151 -150.04003,-22.09151 z m -59.04179,2.73878 c -50.35689,4.83223 -90.78774,15.67952 -110.41215,29.4822 19.62615,13.80173 60.05624,24.6305 110.41215,29.46205 3.77521,-9.33526 5.81241,-19.21756 5.81241,-29.46205 0,-10.24449 -2.0372,-20.14638 -5.81241,-29.4822 z m -44.99318,12.64674 c 3.76794,0.0451 7.36575,1.86381 9.15394,4.95398 2.54319,4.3949 0.45261,9.72521 -4.68286,11.90162 -0.34616,0.14667 -0.70442,0.27164 -1.05894,0.38262 1.86366,-2.40047 2.23742,-5.56877 0.63537,-8.33718 -2.39063,-4.13121 -8.25623,-5.81165 -13.08379,-3.76583 -0.22824,0.0968 -0.44339,0.19244 -0.6589,0.30208 0.93262,-1.89525 2.64292,-3.52675 4.96525,-4.51094 1.28391,-0.5441 2.63163,-0.83764 3.97691,-0.90621 0.25223,-0.0128 0.50183,-0.0231 0.75302,-0.0201 z"
       id="path4330-1-5"
       inkscape:connector-curvature="0" />
  </g>
</svg>
