<?xml version="1.0" encoding="UTF-8" standalone="no"?>
<!-- Created with Inkscape (http://www.inkscape.org/) -->

<svg
   xmlns:dc="http://purl.org/dc/elements/1.1/"
   xmlns:cc="http://creativecommons.org/ns#"
   xmlns:rdf="http://www.w3.org/1999/02/22-rdf-syntax-ns#"
   xmlns:svg="http://www.w3.org/2000/svg"
   xmlns="http://www.w3.org/2000/svg"
   xmlns:xlink="http://www.w3.org/1999/xlink"
   xmlns:sodipodi="http://sodipodi.sourceforge.net/DTD/sodipodi-0.dtd"
   xmlns:inkscape="http://www.inkscape.org/namespaces/inkscape"
   width="600"
   height="760"
   id="svg2"
   version="1.1"
   inkscape:version="0.48.5 r10040"
   sodipodi:docname="les_brenets.svg">
  <defs
     id="defs4">
    <radialGradient
       cx="858.04236"
       cy="579.93323"
       r="300"
       fx="858.04236"
       fy="579.93323"
       id="radialGradient3236"
       xlink:href="#linearGradient2893"
       gradientUnits="userSpaceOnUse"
       gradientTransform="matrix(1.215027,0,0,1.266667,-839.1924,-490.4894)" />
    <linearGradient
       id="linearGradient2893">
      <stop
         id="stop2895"
         style="stop-color:#ffffff;stop-opacity:0.3137255"
         offset="0" />
      <stop
         id="stop2897"
         style="stop-color:#ffffff;stop-opacity:0.25098041"
         offset="0.19" />
      <stop
         id="stop2901"
         style="stop-color:#6b6b6b;stop-opacity:0.1254902"
         offset="0.60000002" />
      <stop
         id="stop2899"
         style="stop-color:#000000;stop-opacity:0.1254902"
         offset="1" />
    </linearGradient>
    <clipPath
       id="clipPath3983-1">
      <path
         inkscape:connector-curvature="0"
         d="m 1.5,1.5 0,458.86794 C 1.5,626.67854 135.81454,761.5 301.49993,761.5 467.1854,761.5 601.5,626.67854 601.5,460.36794 L 601.5,1.5 1.5,1.5 z"
         id="path3985-7"
         style="fill:none;stroke:#000000;stroke-width:3;stroke-miterlimit:4;stroke-opacity:1;stroke-dasharray:none;display:inline" />
    </clipPath>
    <clipPath
       id="clipPath3983-1-5">
      <path
         inkscape:connector-curvature="0"
         d="m 1.5,1.5 0,458.86794 C 1.5,626.67854 135.81454,761.5 301.49993,761.5 467.1854,761.5 601.5,626.67854 601.5,460.36794 L 601.5,1.5 1.5,1.5 z"
         id="path3985-7-2"
         style="fill:none;stroke:#000000;stroke-width:3;stroke-miterlimit:4;stroke-opacity:1;stroke-dasharray:none;display:inline" />
    </clipPath>
  </defs>
  <sodipodi:namedview
     id="base"
     pagecolor="#ffffff"
     bordercolor="#666666"
     borderopacity="1.0"
     inkscape:pageopacity="0.0"
     inkscape:pageshadow="2"
     inkscape:zoom="0.49497475"
     inkscape:cx="-181.32782"
     inkscape:cy="389.14005"
     inkscape:document-units="px"
     inkscape:current-layer="layer1"
     showgrid="false"
     fit-margin-top="0"
     fit-margin-left="0"
     fit-margin-right="0"
     fit-margin-bottom="0"
     inkscape:window-width="1600"
     inkscape:window-height="1147"
     inkscape:window-x="-8"
     inkscape:window-y="-8"
     inkscape:window-maximized="1" />
  <metadata
     id="metadata7">
    <rdf:RDF>
      <cc:Work
         rdf:about="">
        <dc:format>image/svg+xml</dc:format>
        <dc:type
           rdf:resource="http://purl.org/dc/dcmitype/StillImage" />
        <dc:title />
      </cc:Work>
    </rdf:RDF>
  </metadata>
  <g
     inkscape:label="Layer 1"
     inkscape:groupmode="layer"
     id="layer1"
     transform="translate(-37.142857,-58.076473)">
    <path
       style="fill:#eeeeee;fill-opacity:1"
       id="path2294"
       d="m -1174.629,619.02491 c 0.1323,-0.87951 0.3364,-1.6083 0.4536,-1.61952 0.3006,-0.0288 -0.045,2.57608 -0.4204,3.16817 -0.3551,0.55997 -0.3545,0.58799 -0.033,-1.54865 z"
       inkscape:connector-curvature="0" />
    <path
       style="fill:#000000;fill-opacity:1"
       id="path2292"
       d="m -1159.6109,603.04809 c 0.1328,0.14842 0.1735,0.56279 0.091,0.92081 -0.092,0.39564 -0.1864,0.2898 -0.2414,-0.26987 -0.05,-0.50644 0.018,-0.79936 0.1508,-0.65094 z"
       inkscape:connector-curvature="0" />
    <path
       style="fill:#000000;fill-opacity:1"
       id="path2290"
       d="m -1149.5089,598.9182 c 0.1241,0.32152 0.1602,0.86363 0.08,1.20468 -0.08,0.34105 -0.1813,0.078 -0.2255,-0.58458 -0.044,-0.66258 0.021,-0.94162 0.1452,-0.6201 z"
       inkscape:connector-curvature="0" />
    <path
       style="fill:#000000;fill-opacity:1"
       id="path2278"
       d="m -1135.008,609.28919 c 0.2225,0.37878 0.4189,0.90553 0.4366,1.17055 0.018,0.26503 -0.1499,0.17197 -0.3723,-0.20681 -0.2225,-0.37877 -0.4189,-0.90552 -0.4366,-1.17055 -0.018,-0.26503 0.1499,-0.17196 0.3723,0.20681 z"
       inkscape:connector-curvature="0" />
    <g
       transform="translate(1.9e-5,-167.63117)"
       id="g5160">
      <path
         id="path2346-7-3-7"
         d="m 37.142836,225.70764 0,279.84375 120.000004,0 120,0 120,0 120,0 120,0 0,-279.84375 -600.000004,0 z"
         style="fill:#e20909;fill-opacity:1"
         inkscape:connector-curvature="0" />
      <path
         id="path3033-1"
         d="m 37.142836,628.70764 0,27.6875 c 26.875454,-0.12618 72.968754,-0.90625 72.968754,-0.90625 l 0.65625,0.0937 -0.40625,0 0,61.65625 C 98.896503,715.36111 87.176529,714.3013 75.236586,714.14509 l 0,-57.71875 -2.5,0 0,57.6875 c -0.209083,-5.5e-4 -0.415793,0 -0.625,0 -4.23772,0 -8.472097,0.12189 -12.65625,0.34375 l 0,-56.90625 -2.5,0 0,57.0625 c -6.103483,0.3886 -12.152448,1.00117 -18.125,1.84375 0.08319,0.79339 0.160685,1.58345 0.25,2.375 10.804765,-1.54086 21.821627,-2.34375 33.03125,-2.34375 80.292084,0 151.464744,40.84952 195.250004,103.6875 l 1.625,0 0,2.5 0.0937,0 c 27.67579,40.75963 43.9375,90.49618 43.9375,144.21875 0,5.97898 -0.19757,11.90763 -0.59375,17.78125 0.86375,0.0707 1.72795,0.15542 2.59375,0.21875 0.40475,-5.95217 0.625,-11.94182 0.625,-18 0,-53.60539 -16.09095,-103.31017 -43.53125,-144.21875 l 108.15625,0 0,-0.0312 c 65.6275,1.72771 124.78015,30.74303 167.28125,76.5625 0.59265,-0.58545 1.19345,-1.15965 1.78125,-1.75 -38.79062,-41.71826 -91.28584,-69.62892 -150,-75.90625 3.58537,-74.65346 78.18526,-134.125 169.5,-134.125 24.17267,0 47.14279,4.17498 67.96875,11.6875 0.22791,-4.81448 0.3438,-9.66013 0.3438,-14.53125 l 0,-55.875 -600.000004,0 z m 75.718754,27.15625 160.71875,22.65625 0,94.15625 2.5,0 0,-93.9375 41.125,-5.40625 0,69.59375 2.5,0 0,-69.9375 1.78125,-0.21875 30.34375,4.96875 0,113.53125 2.5,0 0,-112.9375 31.15625,16.96875 -0.5625,0 0,114.40625 2.5,0 0,-113.625 10.6875,0.34375 0,20.53125 2.5,0 0,-20.4375 60.03125,1.84375 c 0,0 10.67145,1.67319 25.84375,4.125 -51.78967,23.1686 -87.50026,67.4843 -90.0625,118.78125 -5.34165,-0.50454 -10.7201,-0.85915 -16.15625,-1 l 0,-0.0937 -109.84375,0 c -36.65666,-53.26717 -92.74962,-91.1652 -157.5625,-102.5 l 0,-61.8125 z m 80.3125,12.1875 0,56.71875 2.5,0 0,-56.71875 -2.5,0 z m 42.71875,20.65625 0,56.75 2.5,0 0,-56.75 -2.5,0 z"
         style="fill:#2b5df2;fill-opacity:1"
         inkscape:connector-curvature="0" />
      <g
         transform="translate(-207.01059,-75.55611)"
         id="g3609">
        <path
           style="fill:#ffff00;fill-opacity:1"
           d="m 244.15343,581.1075 0,61.5625 120,0 0,-61.5625 -120,0 z m 120,61.5625 0,61.59375 120,0 0,-61.59375 -120,0 z m 120,0 120,0 0,-61.5625 -120,0 0,61.5625 z m 120,0 0,61.59375 120,0 0,-61.59375 -120,0 z m 120,0 120,0 0,-61.5625 -120,0 0,61.5625 z"
           id="path2346-7-3-7-4"
           inkscape:connector-curvature="0" />
        <path
           style="fill:#000000;fill-opacity:1"
           d="m 364.15346,581.1075 0,61.5625 119.99995,0 0,-61.5625 -119.99995,0 z m 119.99995,61.5625 0,61.59375 120,0 0,-61.59375 -120,0 z m 120,0 120,0 0,-61.5625 -120,0 0,61.5625 z m 120,0 0,61.59375 120,0 0,-61.59375 -120,0 z m -359.99995,0 -120,0 0,61.59375 120,0 0,-61.59375 z"
           id="path3446-1"
           inkscape:connector-curvature="0" />
      </g>
      <path
         id="path2346-7-3-7-2"
         d="m 337.14284,225.70764 -300.000004,279.84375 94.625004,0 205.375,-191.5625 205.375,191.5625 94.625,0 -300,-279.84375 z"
         style="fill:#ffffff;fill-opacity:1"
         inkscape:connector-curvature="0" />
      <path
         inkscape:connector-curvature="0"
         id="use4265-5-7-9-3-1-34"
         d="m 557.8875,643.55681 c 0,0 -4.15502,4.9756 -5.91049,6.45647 -1.75548,1.48087 -4.29529,2.73872 -4.29529,2.73872 l 1.68232,-0.46392 0.86801,0.46392 1.68232,-0.93104 0.87247,0.93104 1.67786,-1.39495 0.46084,0.73907 c -1.83255,1.70335 -4.07293,3.71296 -5.37806,4.61039 -2.47669,1.703 -6.05815,3.14825 -6.05815,3.14825 l 2.37136,-0.53431 1.22594,0.53431 2.37136,-1.06542 1.23043,1.06542 2.37136,-1.59973 0.72035,0.93744 c -1.81584,1.71437 -3.81353,3.51959 -5.04697,4.39284 -2.71926,1.92512 -6.65322,3.56096 -6.65322,3.56096 l 2.59955,-0.60468 1.35122,0.60468 2.60402,-1.20618 1.34676,1.20618 2.60402,-1.81088 0.9396,1.25738 c -2.20664,2.01533 -4.73328,4.23004 -6.25502,5.26628 -3.15329,2.14727 -7.71363,3.9705 -7.71363,3.9705 l 3.01565,-0.67189 1.566,0.67189 3.02011,-1.34696 1.566,1.34696 3.01565,-2.01884 0.8367,1.0782 c -2.21869,2.05932 -4.62562,4.19754 -6.12528,5.2439 -3.39584,2.3694 -8.30422,4.38003 -8.30422,4.38003 l 3.24831,-0.74227 1.6868,0.74227 3.24831,-1.48454 1.6868,1.48454 3.24831,-2.22681 0.55928,0.73587 c -2.27029,2.1403 -4.66465,4.29649 -6.18791,5.38146 -3.63839,2.59152 -8.90377,4.79275 -8.90377,4.79275 l 3.48546,-0.81265 1.80311,0.81265 3.48098,-1.6253 1.8076,1.6253 3.48546,-2.43476 1.80312,2.43476 2.64429,-3.24742 c 0.063,3.71703 0.0568,7.78534 -0.2103,9.54391 -0.54912,3.61555 -1.46308,4.71597 -1.46308,4.71597 l 8.6398,0 c 0,0 -0.78375,-1.09954 -1.25726,-4.71597 -0.2244,-1.71379 -0.2377,-5.61857 -0.18792,-9.25596 l 2.41162,2.95947 1.8076,-2.43476 3.48097,2.43476 1.8076,-1.6253 3.48098,1.6253 1.8076,-0.81265 3.48099,0.81265 c 0,0 -5.26538,-2.20121 -8.90379,-4.79275 -1.52305,-1.08484 -3.91368,-3.23822 -6.18343,-5.37826 l 0.55481,-0.73907 3.25279,2.22681 1.68679,-1.48454 3.24832,1.48454 1.6868,-0.74227 3.24831,0.74227 c 0,0 -4.91287,-2.01063 -8.30871,-4.38003 -1.49964,-1.04636 -3.90689,-3.18458 -6.12525,-5.2439 l 0.84115,-1.0782 3.01566,2.01884 1.56599,-1.34696 3.01565,1.34696 1.56599,-0.67189 3.02012,0.67189 c 0,0 -4.56482,-1.82323 -7.71809,-3.9705 -1.52173,-1.03624 -4.04422,-3.25095 -6.25055,-5.26628 l 0.93513,-1.25738 2.60401,1.81088 1.35124,-1.20618 2.60402,1.20618 1.34674,-0.60468 2.60402,0.60468 c 0,0 -3.93397,-1.63584 -6.65322,-3.56096 -1.23336,-0.87318 -3.23149,-2.67856 -5.04697,-4.39284 l 0.72036,-0.93744 2.36688,1.59973 1.23042,-1.06542 2.37136,1.06542 1.23042,-0.53431 2.37136,0.53431 c 0,0 -3.58592,-1.44525 -6.06263,-3.14825 -1.3049,-0.89729 -3.54591,-2.90722 -5.37805,-4.61039 l 0.46085,-0.73907 1.68232,1.39495 0.87248,-0.93104 1.67785,0.93104 0.87247,-0.46392 1.67786,0.46392 c 0,0 -2.53982,-1.25785 -4.29529,-2.73872 -1.75549,-1.48087 -5.91051,-6.45647 -5.91051,-6.45647 z"
         style="fill:#33a02c;fill-opacity:1;stroke:none" />
      <path
         inkscape:connector-curvature="0"
         id="use4265-5-7-9-3-1-1"
         d="m 589.99785,650.49702 c 0,0 -4.57546,5.47908 -6.50857,7.1098 -1.93312,1.63072 -4.72993,3.01586 -4.72993,3.01586 l 1.85255,-0.51087 0.95586,0.51087 1.85255,-1.02526 0.96076,1.02526 1.84763,-1.53612 0.50748,0.81386 c -2.01799,1.87571 -4.48507,4.08868 -5.92227,5.07692 -2.72731,1.87532 -6.67117,3.46682 -6.67117,3.46682 l 2.61131,-0.58838 1.35,0.58838 2.61132,-1.17323 1.35493,1.17323 2.61132,-1.7616 0.79324,1.03229 c -1.99958,1.88785 -4.19941,3.87574 -5.55767,4.83735 -2.99442,2.11993 -7.32646,3.9213 -7.32646,3.9213 l 2.86259,-0.66587 1.48796,0.66587 2.86752,-1.32823 1.48303,1.32823 2.86753,-1.99413 1.03467,1.38462 c -2.42992,2.21926 -5.21224,4.65808 -6.88796,5.79918 -3.47237,2.36455 -8.49417,4.37227 -8.49417,4.37227 l 3.32081,-0.73988 1.72445,0.73988 3.32572,-1.48326 1.72446,1.48326 3.32081,-2.22312 0.92136,1.1873 c -2.44319,2.2677 -5.09368,4.62228 -6.74509,5.77452 -3.73947,2.60916 -9.14453,4.82325 -9.14453,4.82325 l 3.57701,-0.81738 1.85749,0.81738 3.57701,-1.63476 1.85747,1.63476 3.57701,-2.45214 0.61588,0.81033 c -2.50002,2.35688 -5.13667,4.73125 -6.81406,5.92601 -4.00657,2.85376 -9.80475,5.27773 -9.80475,5.27773 l 3.83815,-0.89488 1.98558,0.89488 3.83321,-1.78977 1.99051,1.78977 3.83815,-2.68113 1.98559,2.68113 2.91186,-3.57602 c 0.0693,4.09315 0.0625,8.57313 -0.23158,10.50965 -0.60468,3.98141 -1.61112,5.19318 -1.61112,5.19318 l 9.51405,0 c 0,0 -0.86305,-1.2108 -1.38448,-5.19318 -0.24711,-1.8872 -0.26175,-6.18711 -0.20693,-10.19257 l 2.65565,3.25894 1.99051,-2.68113 3.83321,2.68113 1.99051,-1.78977 3.83322,1.78977 1.99052,-0.89488 3.83322,0.89488 c 0,0 -5.79818,-2.42395 -9.80477,-5.27773 -1.67716,-1.19461 -4.3097,-3.5659 -6.80912,-5.92248 l 0.61094,-0.81386 3.58195,2.45214 1.85747,-1.63476 3.57702,1.63476 1.85748,-0.81738 3.57701,0.81738 c 0,0 -5.40999,-2.21409 -9.14946,-4.82325 -1.65139,-1.15224 -4.30224,-3.50682 -6.74507,-5.77452 l 0.92627,-1.1873 3.32082,2.22312 1.72444,-1.48326 3.32081,1.48326 1.72446,-0.73988 3.32572,0.73988 c 0,0 -5.02673,-2.00772 -8.49909,-4.37227 -1.67571,-1.1411 -4.45345,-3.57992 -6.88304,-5.79918 l 1.02975,-1.38462 2.86752,1.99413 1.48796,-1.32823 2.86753,1.32823 1.48301,-0.66587 2.86753,0.66587 c 0,0 -4.33206,-1.80137 -7.32646,-3.9213 -1.35817,-0.96154 -3.55849,-2.9496 -5.55767,-4.83735 l 0.79325,-1.03229 2.60638,1.7616 1.35493,-1.17323 2.61131,1.17323 1.35494,-0.58838 2.61131,0.58838 c 0,0 -3.94878,-1.5915 -6.6761,-3.46682 -1.43695,-0.98809 -3.90473,-3.20141 -5.92227,-5.07692 l 0.50749,-0.81386 1.85255,1.53612 0.96077,-1.02526 1.84764,1.02526 0.96075,-0.51087 1.84764,0.51087 c 0,0 -2.79683,-1.38514 -4.72993,-3.01586 -1.93313,-1.63072 -6.5086,-7.1098 -6.5086,-7.1098 z"
         style="fill:#33a02c;fill-opacity:1;stroke:none" />
      <path
         inkscape:connector-curvature="0"
         id="use4265-5-7-9-3-1"
         d="m 488.20664,677.31308 c 0,0 -5.30425,6.3518 -7.54527,8.24226 -2.24103,1.89047 -5.48332,3.49623 -5.48332,3.49623 l 2.14763,-0.59224 1.1081,0.59224 2.14763,-1.18856 1.11379,1.18856 2.14193,-1.78079 0.58831,0.94349 c -2.33942,2.17448 -5.19946,4.73993 -6.86558,5.88558 -3.16172,2.17403 -7.73377,4.01902 -7.73377,4.01902 l 3.02725,-0.68209 1.56503,0.68209 3.02725,-1.3601 1.57075,1.3601 3.02726,-2.04219 0.91959,1.19672 c -2.31808,2.18855 -4.86831,4.49308 -6.44291,5.60785 -3.47138,2.4576 -8.49343,4.54589 -8.49343,4.54589 l 3.31855,-0.77193 1.72496,0.77193 3.32426,-1.53979 1.71926,1.53979 3.32427,-2.31175 1.19948,1.60516 c -2.81697,2.57275 -6.04246,5.40003 -7.98509,6.72288 -4.02546,2.74118 -9.84714,5.0687 -9.84714,5.0687 l 3.84975,-0.85773 1.99913,0.85773 3.85545,-1.71952 1.99913,1.71952 3.84975,-2.57723 1.06812,1.37642 c -2.83235,2.6289 -5.90501,5.35853 -7.81946,6.6943 -4.3351,3.02475 -10.60109,5.5915 -10.60109,5.5915 l 4.14676,-0.94757 2.15336,0.94757 4.14676,-1.89514 2.15334,1.89514 4.14676,-2.84272 0.71398,0.9394 c -2.89823,2.73229 -5.95485,5.48486 -7.89942,6.86992 -4.64474,3.30831 -11.36647,6.11838 -11.36647,6.11838 l 4.4495,-1.03742 2.30184,1.03742 4.44378,-2.07485 2.30756,2.07485 4.4495,-3.10819 2.30185,3.10819 3.37567,-4.14562 c 0.0804,4.74512 0.0725,9.93868 -0.26846,12.18365 -0.701,4.61557 -1.86775,6.02036 -1.86775,6.02036 l 11.02947,0 c 0,0 -1.00052,-1.40366 -1.605,-6.02036 -0.28647,-2.1878 -0.30345,-7.17261 -0.2399,-11.81606 l 3.07865,3.77803 2.30756,-3.10819 4.44378,3.10819 2.30756,-2.07485 4.44378,2.07485 2.30757,-1.03742 4.44379,1.03742 c 0,0 -6.72173,-2.81005 -11.36649,-6.11838 -1.94431,-1.38489 -4.99616,-4.13388 -7.8937,-6.86583 l 0.70826,-0.94349 4.15249,2.84272 2.15333,-1.89514 4.14677,1.89514 2.15335,-0.94757 4.14676,0.94757 c 0,0 -6.27171,-2.56675 -10.60681,-5.5915 -1.91442,-1.33577 -4.9875,-4.0654 -7.81943,-6.6943 l 1.07381,-1.37642 3.84976,2.57723 1.99912,-1.71952 3.84975,1.71952 1.99913,-0.85773 3.85545,0.85773 c 0,0 -5.8274,-2.32752 -9.85284,-5.0687 -1.94262,-1.32285 -5.1628,-4.15013 -7.97938,-6.72288 l 1.19377,-1.60516 3.32426,2.31175 1.72497,-1.53979 3.32427,1.53979 1.71923,-0.77193 3.32427,0.77193 c 0,0 -5.02207,-2.08829 -8.49343,-4.54589 -1.5745,-1.11469 -4.12529,-3.41942 -6.44291,-5.60785 l 0.9196,-1.19672 3.02154,2.04219 1.57074,-1.3601 3.02725,1.3601 1.57075,-0.68209 3.02725,0.68209 c 0,0 -4.57775,-1.84499 -7.73949,-4.01902 -1.66583,-1.14547 -4.52668,-3.71133 -6.86557,-5.88558 l 0.58832,-0.94349 2.14763,1.78079 1.1138,-1.18856 2.14193,1.18856 1.11379,-0.59224 2.14193,0.59224 c 0,0 -3.24231,-1.60576 -5.48332,-3.49623 -2.24104,-1.89046 -7.5453,-8.24226 -7.5453,-8.24226 z"
         style="fill:#33a02c;fill-opacity:1;stroke:none" />
      <path
         inkscape:connector-curvature="0"
         id="use4265-5-7-9-3-1-2"
         d="m 460.54708,687.41947 c 0,0 -5.30425,6.3518 -7.54527,8.24226 -2.24103,1.89047 -5.48332,3.49623 -5.48332,3.49623 l 2.14763,-0.59224 1.1081,0.59224 2.14763,-1.18856 1.11379,1.18856 2.14193,-1.78079 0.58831,0.94349 c -2.33942,2.17448 -5.19946,4.73993 -6.86558,5.88558 -3.16172,2.17403 -7.73377,4.01902 -7.73377,4.01902 l 3.02725,-0.68209 1.56503,0.68209 3.02725,-1.3601 1.57075,1.3601 3.02726,-2.04219 0.91959,1.19672 c -2.31808,2.18855 -4.86831,4.49308 -6.44291,5.60785 -3.47138,2.4576 -8.49343,4.54589 -8.49343,4.54589 l 3.31855,-0.77193 1.72496,0.77193 3.32426,-1.53979 1.71926,1.53979 3.32427,-2.31175 1.19948,1.60516 c -2.81697,2.57275 -6.04246,5.40003 -7.98509,6.72288 -4.02546,2.74118 -9.84714,5.0687 -9.84714,5.0687 l 3.84975,-0.85773 1.99913,0.85773 3.85545,-1.71952 1.99913,1.71952 3.84975,-2.57723 1.06812,1.37642 c -2.83235,2.6289 -5.90501,5.35853 -7.81946,6.6943 -4.3351,3.02475 -10.60109,5.5915 -10.60109,5.5915 l 4.14676,-0.94757 2.15336,0.94757 4.14676,-1.89514 2.15334,1.89514 4.14676,-2.84272 0.71398,0.9394 c -2.89823,2.73229 -5.95485,5.48486 -7.89942,6.86992 -4.64474,3.30831 -11.36647,6.11838 -11.36647,6.11838 l 4.4495,-1.03742 2.30184,1.03742 4.44378,-2.07485 2.30756,2.07485 4.4495,-3.10819 2.30185,3.10819 3.37567,-4.14562 c 0.0804,4.74512 0.0725,9.93868 -0.26846,12.18365 -0.701,4.61557 -1.86775,6.02036 -1.86775,6.02036 l 11.02947,0 c 0,0 -1.00052,-1.40366 -1.605,-6.02036 -0.28647,-2.1878 -0.30345,-7.17261 -0.2399,-11.81606 l 3.07865,3.77803 2.30756,-3.10819 4.44378,3.10819 2.30756,-2.07485 4.44378,2.07485 2.30757,-1.03742 4.44379,1.03742 c 0,0 -6.72173,-2.81005 -11.36649,-6.11838 -1.94431,-1.38489 -4.99616,-4.13388 -7.8937,-6.86583 l 0.70826,-0.94349 4.15249,2.84272 2.15333,-1.89514 4.14677,1.89514 2.15335,-0.94757 4.14676,0.94757 c 0,0 -6.27171,-2.56675 -10.60681,-5.5915 -1.91442,-1.33577 -4.9875,-4.0654 -7.81943,-6.6943 l 1.07381,-1.37642 3.84976,2.57723 1.99912,-1.71952 3.84975,1.71952 1.99913,-0.85773 3.85545,0.85773 c 0,0 -5.8274,-2.32752 -9.85284,-5.0687 -1.94262,-1.32285 -5.1628,-4.15013 -7.97938,-6.72288 l 1.19377,-1.60516 3.32426,2.31175 1.72497,-1.53979 3.32427,1.53979 1.71923,-0.77193 3.32427,0.77193 c 0,0 -5.02207,-2.08829 -8.49343,-4.54589 -1.5745,-1.11469 -4.12529,-3.41942 -6.44291,-5.60785 l 0.9196,-1.19672 3.02154,2.04219 1.57074,-1.3601 3.02725,1.3601 1.57075,-0.68209 3.02725,0.68209 c 0,0 -4.57775,-1.84499 -7.73949,-4.01902 -1.66583,-1.14547 -4.52668,-3.71133 -6.86557,-5.88558 l 0.58832,-0.94349 2.14763,1.78079 1.1138,-1.18856 2.14193,1.18856 1.11379,-0.59224 2.14193,0.59224 c 0,0 -3.24231,-1.60576 -5.48332,-3.49623 -2.24104,-1.89046 -7.5453,-8.24226 -7.5453,-8.24226 z"
         style="fill:#33a02c;fill-opacity:1;stroke:none" />
      <path
         inkscape:connector-curvature="0"
         id="use4265-5-7-9-3-1-1-8"
         d="m 613.84791,638.4833 c 0,0 -4.57546,5.47908 -6.50857,7.1098 -1.93312,1.63072 -4.72993,3.01586 -4.72993,3.01586 l 1.85255,-0.51087 0.95586,0.51087 1.85255,-1.02526 0.96076,1.02526 1.84763,-1.53612 0.50748,0.81386 c -2.01799,1.87571 -4.48507,4.08868 -5.92227,5.07692 -2.72731,1.87532 -6.67117,3.46682 -6.67117,3.46682 l 2.61131,-0.58838 1.35,0.58838 2.61132,-1.17323 1.35493,1.17323 2.61132,-1.7616 0.79324,1.03229 c -1.99958,1.88785 -4.19941,3.87574 -5.55767,4.83735 -2.99442,2.11993 -7.32646,3.9213 -7.32646,3.9213 l 2.86259,-0.66587 1.48796,0.66587 2.86752,-1.32823 1.48303,1.32823 2.86753,-1.99413 1.03467,1.38462 c -2.42992,2.21926 -5.21224,4.65808 -6.88796,5.79918 -3.47237,2.36455 -8.49417,4.37227 -8.49417,4.37227 l 3.32081,-0.73988 1.72445,0.73988 3.32572,-1.48326 1.72446,1.48326 3.32081,-2.22312 0.92136,1.1873 c -2.44319,2.2677 -5.09368,4.62228 -6.74509,5.77452 -3.73947,2.60916 -9.14453,4.82325 -9.14453,4.82325 l 3.57701,-0.81738 1.85749,0.81738 3.57701,-1.63476 1.85747,1.63476 3.57701,-2.45214 0.61588,0.81033 c -2.50002,2.35688 -5.13667,4.73125 -6.81406,5.92601 -4.00657,2.85376 -9.80475,5.27773 -9.80475,5.27773 l 3.83815,-0.89488 1.98558,0.89488 3.83321,-1.78977 1.99051,1.78977 3.83815,-2.68113 1.98559,2.68113 2.91186,-3.57602 c 0.0693,4.09315 0.0625,8.57313 -0.23158,10.50965 -0.60468,3.98141 -1.61112,5.19318 -1.61112,5.19318 l 9.51405,0 c 0,0 -0.86305,-1.2108 -1.38448,-5.19318 -0.24711,-1.8872 -0.26175,-6.18711 -0.20693,-10.19257 l 2.65565,3.25894 1.99051,-2.68113 3.83321,2.68113 1.99051,-1.78977 3.83322,1.78977 1.99052,-0.89488 3.83322,0.89488 c 0,0 -5.79818,-2.42395 -9.80477,-5.27773 -1.67716,-1.19461 -4.3097,-3.5659 -6.80912,-5.92248 l 0.61094,-0.81386 3.58195,2.45214 1.85747,-1.63476 3.57702,1.63476 1.85748,-0.81738 3.57701,0.81738 c 0,0 -5.40999,-2.21409 -9.14946,-4.82325 -1.65139,-1.15224 -4.30224,-3.50682 -6.74507,-5.77452 l 0.92627,-1.1873 3.32082,2.22312 1.72444,-1.48326 3.32081,1.48326 1.72446,-0.73988 3.32572,0.73988 c 0,0 -5.02673,-2.00772 -8.49909,-4.37227 -1.67571,-1.1411 -4.45345,-3.57992 -6.88304,-5.79918 l 1.02975,-1.38462 2.86752,1.99413 1.48796,-1.32823 2.86753,1.32823 1.48301,-0.66587 2.86753,0.66587 c 0,0 -4.33206,-1.80137 -7.32646,-3.9213 -1.35817,-0.96154 -3.55849,-2.9496 -5.55767,-4.83735 l 0.79325,-1.03229 2.60638,1.7616 1.35493,-1.17323 2.61131,1.17323 1.35494,-0.58838 2.61131,0.58838 c 0,0 -3.94878,-1.5915 -6.6761,-3.46682 -1.43695,-0.98809 -3.90473,-3.20141 -5.92227,-5.07692 l 0.50749,-0.81386 1.85255,1.53612 0.96077,-1.02526 1.84764,1.02526 0.96075,-0.51087 1.84764,0.51087 c 0,0 -2.79683,-1.38514 -4.72993,-3.01586 -1.93313,-1.63072 -6.5086,-7.1098 -6.5086,-7.1098 z"
         style="fill:#33a02c;fill-opacity:1;stroke:none" />
      <path
         inkscape:connector-curvature="0"
         id="use4265-5-7-9-3-1-3"
         d="m 529.10184,657.63223 c 0,0 -5.8144,6.9627 -8.27096,9.03499 -2.45657,2.07229 -6.01069,3.83249 -6.01069,3.83249 l 2.35418,-0.64921 1.21468,0.64921 2.35418,-1.30288 1.22091,1.30288 2.34794,-1.95207 0.64489,1.03424 c -2.56442,2.38361 -5.69953,5.1958 -7.5259,6.45164 -3.4658,2.38312 -8.47758,4.40556 -8.47758,4.40556 l 3.3184,-0.74769 1.71555,0.74769 3.31841,-1.49091 1.72182,1.49091 3.31841,-2.2386 1.00804,1.31181 c -2.54103,2.39904 -5.33654,4.92522 -7.06258,6.14721 -3.80525,2.69396 -9.31031,4.9831 -9.31031,4.9831 l 3.63772,-0.84617 1.89087,0.84617 3.64398,-1.68788 1.88461,1.68788 3.64399,-2.53409 1.31485,1.75954 c -3.0879,2.82019 -6.62361,5.9194 -8.75308,7.36947 -4.41262,3.00483 -10.79422,5.5562 -10.79422,5.5562 l 4.22001,-0.94022 2.1914,0.94022 4.22626,-1.8849 2.1914,1.8849 4.22002,-2.8251 1.17084,1.5088 c -3.10475,2.88174 -6.47294,5.8739 -8.57151,7.33814 -4.75205,3.31567 -11.62069,6.12928 -11.62069,6.12928 l 4.54559,-1.0387 2.36047,1.0387 4.54558,-2.07741 2.36045,2.07741 4.54558,-3.11612 0.78265,1.02975 c -3.17697,2.99507 -6.52757,6.01238 -8.65917,7.53065 -5.09146,3.6265 -12.45967,6.70683 -12.45967,6.70683 l 4.87744,-1.13719 2.52323,1.13719 4.87117,-2.2744 2.5295,2.2744 4.87744,-3.40713 2.52324,3.40713 3.70034,-4.54433 c 0.0881,5.20149 0.0795,10.89456 -0.29428,13.35544 -0.76842,5.05949 -2.04739,6.59939 -2.04739,6.59939 l 12.09026,0 c 0,0 -1.09675,-1.53866 -1.75936,-6.59939 -0.31403,-2.39821 -0.33264,-7.86245 -0.26298,-12.9525 l 3.37475,4.14139 2.5295,-3.40713 4.87117,3.40713 2.5295,-2.2744 4.87117,2.2744 2.52951,-1.13719 4.87118,1.13719 c 0,0 -7.36821,-3.08031 -12.45969,-6.70683 -2.13131,-1.51809 -5.47668,-4.53147 -8.6529,-7.52617 l 0.77638,-1.03423 4.55186,3.11612 2.36044,-2.07741 4.54559,2.07741 2.36046,-1.0387 4.54559,1.0387 c 0,0 -6.87491,-2.81361 -11.62695,-6.12928 -2.09855,-1.46424 -5.46719,-4.4564 -8.57149,-7.33814 l 1.17709,-1.5088 4.22002,2.8251 2.19139,-1.8849 4.22001,1.8849 2.1914,-0.94022 4.22626,0.94022 c 0,0 -6.38787,-2.55137 -10.80046,-5.5562 -2.12946,-1.45007 -5.65935,-4.54928 -8.74683,-7.36947 l 1.30859,-1.75954 3.64398,2.53409 1.89087,-1.68788 3.644,1.68788 1.88458,-0.84617 3.64399,0.84617 c 0,0 -5.50508,-2.28914 -9.31031,-4.9831 -1.72593,-1.2219 -4.52205,-3.7483 -7.06258,-6.14721 l 1.00805,-1.31181 3.31214,2.2386 1.72181,-1.49091 3.31841,1.49091 1.72182,-0.74769 3.3184,0.74769 c 0,0 -5.01802,-2.02244 -8.48385,-4.40556 -1.82605,-1.25564 -4.96205,-4.06828 -7.52589,-6.45164 l 0.6449,-1.03424 2.35419,1.95207 1.22092,-1.30288 2.34794,1.30288 1.22091,-0.64921 2.34794,0.64921 c 0,0 -3.55415,-1.7602 -6.0107,-3.83249 -2.45658,-2.07229 -8.27099,-9.03499 -8.27099,-9.03499 z"
         style="fill:#33a02c;fill-opacity:1;stroke:none" />
    </g>
  </g>
</svg>
