<?xml version="1.0" encoding="UTF-8"?>
<!DOCTYPE svg PUBLIC "-//W3C//DTD SVG 1.1//EN" "http://www.w3.org/Graphics/SVG/1.1/DTD/svg11.dtd">
<!-- Creator: CorelDRAW -->
<svg xmlns="http://www.w3.org/2000/svg" xml:space="preserve" width="1882px" height="2068px" style="shape-rendering:geometricPrecision; text-rendering:geometricPrecision; image-rendering:optimizeQuality; fill-rule:evenodd; clip-rule:evenodd"
viewBox="0 0 1847.04 2029.49"
 xmlns:xlink="http://www.w3.org/1999/xlink">
 <defs>
  <style type="text/css">
   <![CDATA[
    .str0 {stroke:#161514;stroke-width:9.19998}
    .str1 {stroke:#1F1A17;stroke-width:16.3544}
    .str2 {stroke:#161514;stroke-width:16.3544}
    .fil3 {fill:none}
    .fil0 {fill:#DA251D}
    .fil1 {fill:white}
    .fil4 {fill:#1F1A17;fill-rule:nonzero}
    .fil2 {fill:white;fill-rule:nonzero}
   ]]>
  </style>
 </defs>
 <g id="Ebene_x0020_1">
  <metadata id="CorelCorpID_0Corel-Layer"/>
  <g id="layer3">
   <path id="path2855" class="fil0 str0" d="M923.518 2020.77c0,0 915.34,-344.427 915.34,-1219.75 0,-875.328 0,-792.84 0,-792.84l-1830.68 0 0 792.84c0,875.328 915.34,1219.75 915.34,1219.75z"/>
  </g>
  <g id="layer3_0">
   <path id="path2855_1" class="fil1" d="M923.518 2020.77c0,0 848.585,-319.45 911.513,-1124.67l-1823.03 0c62.928,805.221 911.513,1124.67 911.513,1124.67z"/>
   <path id="_56628728" class="fil2" d="M923.519 2015.86c39.5293,-15.302 845.601,-336.279 906.907,-1119.76l9.23127 0c-62.7414,808.308 -911.95,1127.97 -914.487,1128.95l-1.65271 0.638598 -1.65271 -0.638598c-2.48833,-0.960794 -819.458,-308.497 -910.014,-1082.96l0 -45.986 4.75761 0c61.3066,783.476 867.38,1104.45 906.91,1119.76z"/>
  </g>
  <polygon class="fil1" points="11.8517,896.101 923.518,8.17776 1839.66,896.101 "/>
  <polygon class="fil0" points="311.711,893.689 913.948,318.316 1491.97,893.689 "/>
  <line class="fil3 str1" x1="11.8517" y1="896.101" x2="1839.66" y2= "896.101" />
  <path class="fil4" d="M462.499 1089.99l35.0742 0 0 354.313c0,13.2379 0.966589,20.9671 2.80241,23.0927 1.93202,2.22292 8.69583,3.28571 20.3865,3.28571l45.6059 0 0 7.92279 -232.956 0 0 -7.92279 44.156 0c9.08292,0 14.5904,-1.35253 16.5224,-4.15494 2.02937,-2.70506 2.99596,-10.1457 2.99596,-22.2234l0 -244.551c0,-10.1457 -1.93318,-16.716 -5.70102,-19.7108 -3.76784,-2.89861 -12.0777,-4.34849 -24.8323,-4.34849l-41.933 0 0 -8.50228c25.3144,-0.773039 43.6727,-2.22292 55.0736,-4.54088 11.402,-2.22292 22.6105,-6.76381 33.5281,-13.5276 11.4982,-6.95736 21.7401,-15.8456 30.5333,-26.4746 8.88937,-10.6278 15.1687,-21.5466 18.7442,-32.6577z"/>
  <path id="1" class="fil4" d="M828.311 1255.5c30.1462,14.0097 51.016,27.6336 62.5142,40.7741 18.8415,21.9337 28.3104,46.6686 28.3104,74.206 0,28.8899 -10.2419,53.5286 -30.8219,73.9163 -29.277,29.2758 -70.0511,43.8662 -122.325,43.8662 -51.3057,0 -94.5925,-14.0109 -129.956,-41.9342 -20.58,-16.4262 -30.8219,-34.1076 -30.8219,-53.2389 0,-7.92279 2.02821,-15.7494 6.08696,-23.4786 4.05759,-7.73039 9.37151,-13.9147 16.0391,-18.6491 7.72924,-5.69986 26.7643,-15.9418 57.1041,-30.9181 -25.4118,-11.3058 -43.6738,-23.6733 -54.5926,-37.0074 -14.0097,-17.0046 -20.9659,-37.7793 -20.9659,-62.3207 0,-27.5374 8.50228,-51.0171 25.508,-70.4382 12.2713,-14.0097 27.8271,-24.6388 46.6686,-31.982 22.7056,-8.88822 46.5713,-13.3329 71.5971,-13.3329 41.7407,0 78.7469,10.4343 111.019,31.4014 24.349,15.4596 36.5229,33.2384 36.5229,53.2389 0,17.3928 -9.27531,32.2718 -27.7309,44.7366 -4.15494,2.60886 -18.8415,9.66241 -44.156,21.1607zm-8.21253 -2.80241c22.3196,-24.5426 33.4308,-47.1519 33.4308,-67.9255 0,-22.417 -8.69583,-39.7113 -26.0875,-51.7902 -19.0351,-13.2367 -43.2867,-19.807 -72.7573,-19.807 -22.8029,0 -41.6433,4.83063 -56.3299,14.3968 -16.4262,10.8214 -24.6388,24.6388 -24.6388,41.6445 0,12.8508 5.89341,23.6722 17.5852,32.5615 6.76265,5.31392 13.9136,9.46886 21.353,12.561 7.43949,3.091 23.3824,8.59847 47.7314,16.3289 17.2955,5.60367 37.1998,12.947 59.713,22.0299zm-129.958 70.2446c-9.46886,9.37151 -18.3582,23.2851 -26.8605,41.5471 -8.50343,18.3582 -12.7546,32.8513 -12.7546,43.6727 0,18.262 8.21369,33.6255 24.6388,46.0891 22.6094,17.1993 53.0453,25.7989 91.4053,25.7989 30.3386,0 53.8184,-6.57142 70.437,-19.8081 13.4303,-10.7252 20.0979,-24.4452 20.0979,-41.065 0,-17.9711 -8.50343,-33.141 -25.508,-45.6047 -6.18432,-4.54204 -14.3007,-8.69698 -24.4464,-12.561 -10.0484,-3.8652 -31.982,-11.2085 -65.7999,-21.9337 -33.9141,-11.0149 -51.016,-16.3289 -51.2095,-16.1353z"/>
  <path id="12" class="fil4" d="M1103.2 1089.99l35.0742 0 0 354.313c0,13.2379 0.966589,20.9671 2.80241,23.0927 1.93202,2.22292 8.69583,3.28571 20.3865,3.28571l45.6059 0 0 7.92279 -232.956 0 0 -7.92279 44.156 0c9.08292,0 14.5904,-1.35253 16.5224,-4.15494 2.02937,-2.70506 2.99596,-10.1457 2.99596,-22.2234l0 -244.551c0,-10.1457 -1.93318,-16.716 -5.70102,-19.7108 -3.76784,-2.89861 -12.0777,-4.34849 -24.8323,-4.34849l-41.933 0 0 -8.50228c25.3144,-0.773039 43.6727,-2.22292 55.0736,-4.54088 11.402,-2.22292 22.6105,-6.76381 33.5281,-13.5276 11.4982,-6.95736 21.7401,-15.8456 30.5333,-26.4746 8.88937,-10.6278 15.1687,-21.5466 18.7442,-32.6577z"/>
  <path id="123" class="fil4" d="M1540.03 1327.48l6.18432 0c-0.387099,49.4711 -6.95736,86.6697 -19.8081,111.792 -9.37267,18.5518 -22.7056,31.8859 -39.9048,40.1946 -12.2713,6.08812 -24.6388,9.08292 -37.1024,9.08292 -17.6826,0 -35.751,-5.89457 -54.0119,-17.5852 -8.50343,-5.21773 -15.1699,-10.1457 -19.8081,-14.5904 -4.73443,-4.34733 -17.1981,-17.2955 -37.3922,-38.6485 -11.4982,-12.2713 -23.7695,-18.3582 -36.8138,-18.3582 -13.8162,0 -20.6774,6.37671 -20.6774,19.2275 0,5.12153 0.773039,9.17912 2.22292,12.3675 1.54608,3.09216 5.21773,8.11634 11.1111,15.0737 6.57026,8.11634 9.85596,15.3623 9.85596,21.8363 0,5.21773 -1.64227,9.66241 -4.83179,13.1405 -3.18835,3.4781 -7.24594,5.21773 -12.1739,5.21773 -6.76381,0 -12.2713,-3.28455 -16.4262,-9.75861 -4.15378,-6.47406 -6.18316,-15.0737 -6.18316,-25.6053 0,-19.421 6.76381,-39.3253 20.3876,-59.7118 9.66126,-14.7839 27.44,-33.1422 53.5286,-55.2683 23.5748,-20.1941 40.9676,-36.2332 52.175,-48.1174 11.3058,-11.8853 20.0017,-23.4798 26.1848,-34.7845 11.6918,-21.353 17.5852,-42.0304 17.5852,-62.0321 0,-23.5748 -6.86,-42.6099 -20.58,-57.1029 -13.6238,-14.5904 -31.5961,-21.8363 -53.9157,-21.8363 -18.0685,0 -33.9141,4.83063 -47.2481,14.3957 -5.12037,3.769 -9.46886,8.50343 -12.947,14.2045 -3.4781,5.69986 -5.21773,10.8214 -5.21773,15.5558 0,5.31392 2.12557,9.08292 6.47406,11.4982 4.34733,2.31912 11.788,3.67165 22.1261,4.05759 28.3104,0.57949 42.5137,13.9136 42.5137,39.9048 0,15.4596 -5.70102,28.4078 -17.0057,38.842 -10.9176,9.95216 -24.0581,14.9763 -39.3253,14.9763 -13.8162,0 -25.7015,-4.25114 -35.6537,-12.7534 -14.3957,-12.0777 -21.5466,-28.6975 -21.5466,-49.857 0,-23.3824 9.75861,-44.5431 29.1808,-63.3846 25.4106,-24.5414 60.9681,-36.8127 106.38,-36.8127 47.6352,0 86.9606,11.788 118.072,35.3639 27.3438,20.58 41.065,48.2136 41.065,82.998 0,21.7401 -5.21773,40.1946 -15.7494,55.3645 -10.4355,15.1699 -26.7643,28.1168 -49.084,38.9394 -14.6866,7.14975 -28.118,12.5599 -40.1957,16.1353 -12.0777,3.57545 -38.5523,10.0484 -79.5199,19.5172 -33.8179,9.08292 -58.0695,23.6733 -72.7561,43.8674 22.8029,-7.3433 54.3017,-11.0149 94.3027,-11.0149 8.11634,0 20.2914,0.289745 36.5241,0.869235 21.2568,0.773039 37.4884,1.15898 48.6969,1.15898 19.6146,0 34.3012,-1.64227 43.9636,-4.92682 9.75861,-3.3819 16.6186,-9.08292 20.7736,-17.1993 3.28455,-6.18432 5.41128,-18.262 6.57026,-36.2332z"/>
  <g id="layer3_2">
   <path id="path2855_3" class="fil3 str2" d="M923.518 2020.77c0,0 915.34,-344.427 915.34,-1219.75 0,-875.328 0,-792.84 0,-792.84l-1830.68 0 0 792.84c0,875.328 915.34,1219.75 915.34,1219.75z"/>
  </g>
 </g>
</svg>
