<?xml version="1.0" encoding="UTF-8" standalone="no"?>
<!-- Creator: CorelDRAW -->

<svg
   xmlns:dc="http://purl.org/dc/elements/1.1/"
   xmlns:cc="http://creativecommons.org/ns#"
   xmlns:rdf="http://www.w3.org/1999/02/22-rdf-syntax-ns#"
   xmlns:svg="http://www.w3.org/2000/svg"
   xmlns="http://www.w3.org/2000/svg"
   xmlns:sodipodi="http://sodipodi.sourceforge.net/DTD/sodipodi-0.dtd"
   xmlns:inkscape="http://www.inkscape.org/namespaces/inkscape"
   xml:space="preserve"
   width="600"
   height="760"
   style="fill-rule:evenodd"
   viewBox="0 0 588.85441 745.84739"
   id="svg2"
   version="1.1"
   inkscape:version="0.48.4 r9939"
   sodipodi:docname="les_planchettes.svg"><metadata
   id="metadata30"><rdf:RDF><cc:Work
       rdf:about=""><dc:format>image/svg+xml</dc:format><dc:type
         rdf:resource="http://purl.org/dc/dcmitype/StillImage" /></cc:Work></rdf:RDF></metadata><sodipodi:namedview
   pagecolor="#ffffff"
   bordercolor="#666666"
   borderopacity="1"
   objecttolerance="10"
   gridtolerance="10"
   guidetolerance="10"
   inkscape:pageopacity="0"
   inkscape:pageshadow="2"
   inkscape:window-width="1600"
   inkscape:window-height="1147"
   id="namedview28"
   showgrid="false"
   inkscape:zoom="0.45647969"
   inkscape:cx="679.21398"
   inkscape:cy="1034"
   inkscape:window-x="1592"
   inkscape:window-y="-8"
   inkscape:window-maximized="1"
   inkscape:current-layer="Ebene_x0020_1" />
 <defs
   id="defs4">
  <style
   type="text/css"
   id="style6">
   
    .str0 {stroke:#161514;stroke-width:9.19998}
    .str1 {stroke:#1F1A17;stroke-width:16.3544}
    .str2 {stroke:#161514;stroke-width:16.3544}
    .fil3 {fill:none}
    .fil0 {fill:#DA251D}
    .fil1 {fill:white}
    .fil4 {fill:#1F1A17;fill-rule:nonzero}
    .fil2 {fill:white;fill-rule:nonzero}
   
  </style>
 </defs>
 <g
   id="Ebene_x0020_1"
   transform="translate(0,-1283.7026)">
  <metadata
   id="CorelCorpID_0Corel-Layer" />
  
  
  
  
  
  
  
  
  
  
 <g
   transform="matrix(0.98142402,0,0,0.98142402,-36.452874,1062.1703)"
   id="g6497"><path
     inkscape:connector-curvature="0"
     d="m 37.142786,225.70763 0,458.8679 c 0,166.31063 134.314704,301.13212 300.000104,301.13212 165.6854,0 300,-134.82149 300,-301.13212 l 0,-458.8679 -600.000104,0 z"
     id="path2346-2-1"
     style="fill:#ffffff;fill-opacity:1" /><path
     inkscape:connector-curvature="0"
     id="path2346-7-3-2"
     transform="translate(37.142836,225.70764)"
     d="M 0,0 0,403 300,0 0,0 z M 300,0 600,403 600,0 300,0 z m 0,120 -210.65625,283 421.3125,0 L 300,120 z"
     style="fill:#e20909;fill-opacity:1" /><g
     transform="matrix(0.35557788,0,0,0.35557788,178.6783,515.64439)"
     id="g6491"><path
       inkscape:connector-curvature="0"
       style="fill:#1f1a17;fill-rule:evenodd"
       class="fil4"
       d="m -36.363284,466.69871 35.73806951,0 0,361.01929 c 0,13.48846 0.98488,21.36396 2.85544999,23.52979 1.96859,2.26497 8.8604205,3.34789 20.7723705,3.34789 l 46.46911,0 0,8.07276 -237.365296,0 0,-8.07276 44.99177,0 c 9.25483,0 14.86655,-1.3781 16.83512,-4.23354 2.06778,-2.7563 3.05267,-10.33774 3.05267,-22.64404 l 0,-249.17976 c 0,-10.33774 -1.96977,-17.0324 -5.80893,-20.08388 -3.83915,-2.95346 -12.3063,-4.43081 -25.30231,-4.43081 l -42.72669,0 0,-8.66323 c 25.79354,-0.78763 44.49932,-2.26497 56.11601,-4.62684 11.61781,-2.26498 23.038456,-6.89183 34.162696,-13.78365 11.71584,-7.08898 22.1516,-16.14552 31.11123,-26.9757 9.05762,-10.82896 15.45581,-21.95442 19.09898,-33.27583 z"
       id="path21" /><path
       inkscape:connector-curvature="0"
       style="fill:#1f1a17;fill-rule:evenodd"
       id="1"
       class="fil4"
       d="m 336.37266,635.34141 c 30.7168,14.27487 51.98161,28.15664 63.69744,41.54586 19.19813,22.34885 28.84625,47.55192 28.84625,75.61054 0,29.43672 -10.43575,54.54177 -31.40528,75.31536 -29.83115,29.82992 -71.377,44.69648 -124.64032,44.69648 -52.27679,0 -96.38291,-14.27609 -132.41576,-42.72791 -20.96953,-16.73711 -31.40528,-34.75318 -31.40528,-54.24659 0,-8.07276 2.0666,-16.0475 6.20217,-23.92299 4.13439,-7.87672 9.54889,-14.17807 16.34268,-19.00208 7.87554,-5.80779 27.27089,-16.24354 58.18495,-31.50331 -25.89279,-11.51979 -44.50044,-24.12138 -55.62591,-37.70786 -14.27487,-17.32646 -21.36273,-38.49437 -21.36273,-63.50028 0,-28.05862 8.6632,-51.98273 25.9908,-71.77143 12.50357,-14.27487 28.3538,-25.10515 47.55193,-32.58734 23.13536,-9.05643 47.45278,-13.58526 72.95226,-13.58526 42.53075,0 80.23739,10.63179 113.12032,31.99575 24.80987,15.75221 37.21419,33.86752 37.21419,54.24659 0,17.722 -9.45087,32.88262 -28.25578,45.58335 -4.23358,2.65828 -19.19812,9.84529 -44.99177,21.56122 z m -8.36797,-2.85544 c 22.74205,-25.00713 34.06356,-48.04437 34.06356,-69.21117 0,-22.8413 -8.86042,-40.46294 -26.58127,-52.77046 -19.39539,-13.48724 -44.10601,-20.1819 -74.13442,-20.1819 -23.23451,0 -42.43151,4.92203 -57.39609,14.6693 -16.73711,11.02622 -25.10516,25.10515 -25.10516,42.43273 0,13.09403 6.00496,24.12026 17.91805,33.17781 6.89065,5.41448 14.17695,9.64812 21.75716,12.79875 7.5803,3.1495 23.82497,8.76125 48.63484,16.63796 17.62286,5.70977 37.9039,13.19206 60.84323,22.44688 z m -132.4178,71.57416 c -9.64808,9.54888 -18.70567,23.72583 -27.3689,42.33349 -8.66438,18.70567 -12.99601,33.47309 -12.99601,44.49932 0,18.60765 8.36915,34.26195 25.10515,46.96145 23.03734,17.52485 54.04932,26.28721 93.13538,26.28721 30.91284,0 54.83705,-6.69578 71.77021,-20.18301 13.6845,-10.92821 20.4783,-24.90789 20.4783,-41.84227 0,-18.31125 -8.66438,-33.76828 -25.99081,-46.46788 -6.30137,-4.62808 -14.57137,-8.86162 -24.90911,-12.79875 -10.23859,-3.93836 -32.58734,-11.42065 -67.04533,-22.34886 -34.55601,-11.22338 -51.98161,-16.63796 -52.17877,-16.4407 z" /><path
       inkscape:connector-curvature="0"
       style="fill:#1f1a17;fill-rule:evenodd"
       id="12"
       class="fil4"
       d="m 616.46465,466.69871 35.73807,0 0,361.01929 c 0,13.48846 0.9849,21.36396 2.85544,23.52979 1.96857,2.26497 8.86039,3.34789 20.77237,3.34789 l 46.46913,0 0,8.07276 -237.36531,0 0,-8.07276 44.99176,0 c 9.25482,0 14.86656,-1.3781 16.83513,-4.23354 2.06781,-2.7563 3.05271,-10.33774 3.05271,-22.64404 l 0,-249.17976 c 0,-10.33774 -1.96979,-17.0324 -5.80891,-20.08388 -3.83922,-2.95346 -12.3064,-4.43081 -25.30242,-4.43081 l -42.72664,0 0,-8.66323 c 25.79354,-0.78763 44.49927,-2.26497 56.11596,-4.62684 11.61792,-2.26498 23.03857,-6.89183 34.16281,-13.78365 11.71583,-7.08898 22.15159,-16.14552 31.11122,-26.9757 9.05756,-10.82896 15.45581,-21.95442 19.09899,-33.27583 z" /><path
       inkscape:connector-curvature="0"
       style="fill:#1f1a17;fill-rule:evenodd"
       id="123"
       class="fil4"
       d="m 1061.5628,708.68382 6.3014,0 c -0.3944,50.40747 -7.089,88.31015 -20.183,113.90796 -9.55,18.90294 -23.1354,32.48942 -40.6601,40.95538 -12.50364,6.20334 -25.10524,9.25482 -37.80474,9.25482 -18.0173,0 -36.4277,-6.00607 -55.0342,-17.91805 -8.6643,-5.31645 -15.457,-10.33773 -20.183,-14.86656 -4.824,-4.42958 -17.5236,-17.62286 -38.1,-39.38002 -11.7158,-12.50357 -24.2194,-18.70568 -37.5105,-18.70568 -14.0777,0 -21.0688,6.4974 -21.0688,19.59143 0,5.21854 0.7877,9.35284 2.265,12.60159 1.5753,3.15073 5.3165,8.27002 11.3214,15.35901 6.6946,8.27002 10.0425,15.65307 10.0425,22.24961 0,5.31656 -1.6734,9.84528 -4.9232,13.38922 -3.2487,3.54393 -7.3831,5.31656 -12.4043,5.31656 -6.8919,0 -12.5036,-3.34677 -16.7372,-9.94341 -4.2324,-6.59654 -6.3001,-15.35901 -6.3001,-26.08995 0,-19.78859 6.8918,-40.06963 20.7735,-60.842 9.8441,-15.06372 27.9593,-33.7695 54.5417,-56.3144 24.0211,-20.57632 41.7431,-36.919 53.1626,-49.02814 11.5198,-12.11026 20.3803,-23.92422 26.6804,-35.44289 11.9131,-21.75716 17.918,-42.82593 17.918,-63.20622 0,-24.02101 -6.9898,-43.4164 -20.9695,-58.18372 -13.8817,-14.86656 -32.1941,-22.24961 -54.9362,-22.24961 -18.4105,0 -34.556,4.92213 -48.1424,14.66818 -5.2173,3.84034 -9.6481,8.66445 -13.192,14.47336 -3.5439,5.80778 -5.3166,11.02622 -5.3166,15.85023 0,5.41458 2.1659,9.25492 6.5967,11.71583 4.4296,2.3631 12.0111,3.7412 22.5448,4.1344 28.8463,0.59047 43.3184,14.17695 43.3184,40.6601 0,15.75222 -5.8089,28.9455 -17.3276,39.57719 -11.1242,10.14057 -24.5134,15.25977 -40.0696,15.25977 -14.0777,0 -26.1879,-4.33157 -36.3285,-12.9948 -14.6682,-12.3063 -21.9545,-29.24067 -21.9545,-50.80067 0,-23.82497 9.9434,-45.38619 29.7332,-64.58432 25.8915,-25.00591 62.1221,-37.50947 108.3935,-37.50947 48.5368,0 88.6065,12.01112 120.30684,36.03325 27.8614,20.96953 41.8423,49.12617 41.8423,84.56895 0,22.15159 -5.3165,40.95539 -16.0475,56.41242 -10.633,15.45703 -27.2709,28.64898 -50.0131,39.67643 -14.96454,7.28513 -28.65024,12.79763 -40.95654,16.4407 -12.3063,3.64318 -39.282,10.23859 -81.025,19.88662 -34.458,9.25492 -59.1686,24.12138 -74.1332,44.6977 23.2345,-7.48229 55.3295,-11.22338 96.0876,-11.22338 8.27,0 20.6755,0.29528 37.2154,0.88575 21.6592,0.78763 38.198,1.18083 49.6187,1.18083 19.98584,0 34.95044,-1.67328 44.79574,-5.02005 9.9433,-3.44591 16.9331,-9.25482 21.1668,-17.52484 3.3466,-6.30135 5.5137,-18.60766 6.6945,-36.91901 z" /></g></g></g>
</svg>