<?xml version="1.0" encoding="UTF-8" standalone="no"?>
<!-- Created with Inkscape (http://www.inkscape.org/) -->

<svg
   xmlns:dc="http://purl.org/dc/elements/1.1/"
   xmlns:cc="http://creativecommons.org/ns#"
   xmlns:rdf="http://www.w3.org/1999/02/22-rdf-syntax-ns#"
   xmlns:svg="http://www.w3.org/2000/svg"
   xmlns="http://www.w3.org/2000/svg"
   xmlns:xlink="http://www.w3.org/1999/xlink"
   xmlns:sodipodi="http://sodipodi.sourceforge.net/DTD/sodipodi-0.dtd"
   xmlns:inkscape="http://www.inkscape.org/namespaces/inkscape"
   width="600"
   height="760"
   id="svg2"
   version="1.1"
   inkscape:version="0.48.5 r10040"
   sodipodi:docname="les_ponts-de-martel.svg">
  <defs
     id="defs4">
    <radialGradient
       cx="858.04236"
       cy="579.93323"
       r="300"
       fx="858.04236"
       fy="579.93323"
       id="radialGradient3236"
       xlink:href="#linearGradient2893"
       gradientUnits="userSpaceOnUse"
       gradientTransform="matrix(1.215027,0,0,1.266667,-839.1924,-490.4894)" />
    <linearGradient
       id="linearGradient2893">
      <stop
         id="stop2895"
         style="stop-color:#ffffff;stop-opacity:0.3137255"
         offset="0" />
      <stop
         id="stop2897"
         style="stop-color:#ffffff;stop-opacity:0.25098041"
         offset="0.19" />
      <stop
         id="stop2901"
         style="stop-color:#6b6b6b;stop-opacity:0.1254902"
         offset="0.60000002" />
      <stop
         id="stop2899"
         style="stop-color:#000000;stop-opacity:0.1254902"
         offset="1" />
    </linearGradient>
    <clipPath
       id="clipPath3983-1">
      <path
         inkscape:connector-curvature="0"
         d="m 1.5,1.5 0,458.86794 C 1.5,626.67854 135.81454,761.5 301.49993,761.5 467.1854,761.5 601.5,626.67854 601.5,460.36794 L 601.5,1.5 1.5,1.5 z"
         id="path3985-7"
         style="fill:none;stroke:#000000;stroke-width:3;stroke-miterlimit:4;stroke-opacity:1;stroke-dasharray:none;display:inline" />
    </clipPath>
    <clipPath
       id="clipPath3983-1-5">
      <path
         inkscape:connector-curvature="0"
         d="m 1.5,1.5 0,458.86794 C 1.5,626.67854 135.81454,761.5 301.49993,761.5 467.1854,761.5 601.5,626.67854 601.5,460.36794 L 601.5,1.5 1.5,1.5 z"
         id="path3985-7-2"
         style="fill:none;stroke:#000000;stroke-width:3;stroke-miterlimit:4;stroke-opacity:1;stroke-dasharray:none;display:inline" />
    </clipPath>
  </defs>
  <sodipodi:namedview
     id="base"
     pagecolor="#ffffff"
     bordercolor="#666666"
     borderopacity="1.0"
     inkscape:pageopacity="0.0"
     inkscape:pageshadow="2"
     inkscape:zoom="0.7"
     inkscape:cx="-181.32782"
     inkscape:cy="389.14005"
     inkscape:document-units="px"
     inkscape:current-layer="layer1"
     showgrid="false"
     fit-margin-top="0"
     fit-margin-left="0"
     fit-margin-right="0"
     fit-margin-bottom="0"
     inkscape:window-width="1600"
     inkscape:window-height="1147"
     inkscape:window-x="-8"
     inkscape:window-y="-8"
     inkscape:window-maximized="1" />
  <metadata
     id="metadata7">
    <rdf:RDF>
      <cc:Work
         rdf:about="">
        <dc:format>image/svg+xml</dc:format>
        <dc:type
           rdf:resource="http://purl.org/dc/dcmitype/StillImage" />
        <dc:title />
      </cc:Work>
    </rdf:RDF>
  </metadata>
  <g
     inkscape:label="Layer 1"
     inkscape:groupmode="layer"
     id="layer1"
     transform="translate(-37.142857,-58.076473)">
    <path
       style="fill:#eeeeee;fill-opacity:1"
       id="path2294"
       d="m -1174.629,619.02491 c 0.1323,-0.87951 0.3364,-1.6083 0.4536,-1.61952 0.3006,-0.0288 -0.045,2.57608 -0.4204,3.16817 -0.3551,0.55997 -0.3545,0.58799 -0.033,-1.54865 z"
       inkscape:connector-curvature="0" />
    <path
       style="fill:#000000;fill-opacity:1"
       id="path2292"
       d="m -1159.6109,603.04809 c 0.1328,0.14842 0.1735,0.56279 0.091,0.92081 -0.092,0.39564 -0.1864,0.2898 -0.2414,-0.26987 -0.05,-0.50644 0.018,-0.79936 0.1508,-0.65094 z"
       inkscape:connector-curvature="0" />
    <path
       style="fill:#000000;fill-opacity:1"
       id="path2290"
       d="m -1149.5089,598.9182 c 0.1241,0.32152 0.1602,0.86363 0.08,1.20468 -0.08,0.34105 -0.1813,0.078 -0.2255,-0.58458 -0.044,-0.66258 0.021,-0.94162 0.1452,-0.6201 z"
       inkscape:connector-curvature="0" />
    <path
       style="fill:#000000;fill-opacity:1"
       id="path2278"
       d="m -1135.008,609.28919 c 0.2225,0.37878 0.4189,0.90553 0.4366,1.17055 0.018,0.26503 -0.1499,0.17197 -0.3723,-0.20681 -0.2225,-0.37877 -0.4189,-0.90552 -0.4366,-1.17055 -0.018,-0.26503 0.1499,-0.17196 0.3723,0.20681 z"
       inkscape:connector-curvature="0" />
    <path
       inkscape:connector-curvature="0"
       style="fill:#e20909;fill-opacity:1"
       d="m 637.14286,461.07639 -600.000014,0 0,55.875 c 0,166.31066 134.314624,301.12508 300.000014,301.12508 165.68547,0 300.00001,-134.81442 300.00001,-301.12508 l 0,-55.875 z"
       id="path3033-2" />
    <path
       inkscape:connector-curvature="0"
       style="fill:#2b5df2;fill-opacity:1"
       d="m 637.14285,461.07647 0,-403 -599.999995,0 0,403 z"
       id="path2346-7-3-2"
       sodipodi:nodetypes="ccccc" />
    <path
       style="fill:#cccccc;fill-opacity:1;stroke:none"
       clip-path="none"
       d="M 0 0 L 0 403 L 87.21875 403 L 87.21875 234.46875 L 87.84375 234.46875 C 87.447312 231.00986 87.21875 227.46749 87.21875 223.84375 C 87.21875 188.59153 106.75473 160 130.84375 160 C 154.93277 160 174.46875 188.59153 174.46875 223.84375 C 174.46875 227.46749 174.27144 231.00986 173.875 234.46875 L 174.46875 234.46875 L 174.46875 403 L 279.84375 403 L 279.84375 280.875 L 280.40625 280.875 C 280.05082 277.77397 279.84375 274.59258 279.84375 271.34375 C 279.84375 239.73873 297.34074 214.09375 318.9375 214.09375 C 340.53428 214.09375 358.0625 239.73873 358.0625 271.34375 C 358.0625 274.59258 357.88668 277.77397 357.53125 280.875 L 358.0625 280.875 L 358.0625 403 L 445.875 403 L 445.875 301.5 L 446.28125 301.5 C 446.02152 299.23397 445.875 296.90528 445.875 294.53125 C 445.875 271.43636 458.65599 252.6875 474.4375 252.6875 C 490.21902 252.6875 503.03125 271.43636 503.03125 294.53125 C 503.03125 296.90528 502.91598 299.23397 502.65625 301.5 L 503.03125 301.5 L 503.03125 403 L 600 403 L 600 144.84375 L 548.1875 130.09375 L 547.8125 110.65625 L 523.84375 98.03125 L 491.84375 114.03125 L 271.28125 51.25 L 270.8125 27.3125 L 242.21875 12.28125 L 203.09375 31.84375 L 91.25 0 L 0 0 z "
       transform="translate(37.142857,58.076473)"
       id="path4904" />
    <path
       style="fill:#604100;fill-opacity:1;stroke:none"
       d="m 421.66478,489.61958 c 6.12802,21.88191 14.42637,48.93264 20.06798,75.61804 -1.38642,2.7866 -2.2121,6.45749 -2.33795,10.52665 -29.22881,7.69111 -77.22499,25.5225 -110.55469,35.51606 l -76.43784,22.92341 c -6.28689,1.88506 -12.37946,3.97622 -18.21691,6.20811 -40.86231,15.62333 -69.41524,38.29941 -67.53658,47.93854 2.14702,11.01617 45.26175,10.41015 93.50518,-14.37372 l 74.6366,-38.34283 c 31.72241,-16.29661 78.95564,-32.93393 106.98241,-45.54378 1.38139,3.57866 3.24576,6.42217 5.31555,8.22623 2.33554,23.28481 0.72243,44.30964 -8.55647,58.79844 l -16.84242,6.43925 4.29954,9.70597 95.65068,-36.56956 0.18238,-11.41954 -15.62859,5.97518 c -10.61234,-6.3003 -21.7313,-22.41583 -32.96381,-42.42943 1.88517,-4.59272 2.42665,-11.1018 1.12854,-17.76182 -2.14697,-11.01616 -8.46751,-18.13822 -14.17174,-15.95736 l -3.85176,1.47256 c -11.78263,-23.50977 -23.4862,-48.06315 -34.6701,-66.9504 z"
       id="rect4971"
       inkscape:connector-curvature="0" />
  </g>
</svg>
