<?xml version="1.0" encoding="UTF-8" standalone="no"?>
<!-- Created with Inkscape (http://www.inkscape.org/) -->

<svg
   xmlns:dc="http://purl.org/dc/elements/1.1/"
   xmlns:cc="http://creativecommons.org/ns#"
   xmlns:rdf="http://www.w3.org/1999/02/22-rdf-syntax-ns#"
   xmlns:svg="http://www.w3.org/2000/svg"
   xmlns="http://www.w3.org/2000/svg"
   xmlns:sodipodi="http://sodipodi.sourceforge.net/DTD/sodipodi-0.dtd"
   xmlns:inkscape="http://www.inkscape.org/namespaces/inkscape"
   width="600.00012"
   height="760.00006"
   id="svg10413"
   version="1.1"
   inkscape:version="0.48.4 r9939"
   sodipodi:docname="New document 215">
  <defs
     id="defs10415" />
  <sodipodi:namedview
     id="base"
     pagecolor="#ffffff"
     bordercolor="#666666"
     borderopacity="1.0"
     inkscape:pageopacity="0.0"
     inkscape:pageshadow="2"
     inkscape:zoom="0.35"
     inkscape:cx="300.00005"
     inkscape:cy="380"
     inkscape:document-units="px"
     inkscape:current-layer="layer1"
     showgrid="false"
     fit-margin-top="0"
     fit-margin-left="0"
     fit-margin-right="0"
     fit-margin-bottom="0"
     inkscape:window-width="463"
     inkscape:window-height="423"
     inkscape:window-x="1782"
     inkscape:window-y="182"
     inkscape:window-maximized="0" />
  <metadata
     id="metadata10418">
    <rdf:RDF>
      <cc:Work
         rdf:about="">
        <dc:format>image/svg+xml</dc:format>
        <dc:type
           rdf:resource="http://purl.org/dc/dcmitype/StillImage" />
        <dc:title></dc:title>
      </cc:Work>
    </rdf:RDF>
  </metadata>
  <g
     inkscape:label="Layer 1"
     inkscape:groupmode="layer"
     id="layer1"
     transform="translate(-74.999945,-152.36216)">
    <g
       transform="translate(37.857164,-73.345457)"
       id="g10388">
      <path
         inkscape:connector-curvature="0"
         d="m 37.142801,225.70763 0,458.8679 c 0,166.31063 134.314699,301.13213 300.000099,301.13213 165.68539,0 299.99997,-134.8215 299.99997,-301.13214 l 0,-458.8679 -600.000069,0 z"
         id="path2346-2-0"
         style="fill:#ffffff;fill-opacity:1" />
      <path
         inkscape:connector-curvature="0"
         d="m 37.142781,225.70762 0,458.8679 c 0,166.31063 134.314719,301.13213 300.000119,301.13213 165.68539,0 299.99999,-134.8215 299.99999,-301.13213 l 0,-458.8679 -600.000109,0 z"
         id="path2346-2-8"
         style="fill:#000000;fill-opacity:0" />
      <path
         inkscape:connector-curvature="0"
         id="path10261"
         d="M 637.14284,227.11389 380.42409,488.52014 607.58034,815.11389 c 18.95303,-39.48636 29.5625,-83.76159 29.5625,-130.53125 l 0,-457.46875 z"
         style="fill:#33a02c;fill-opacity:1" />
      <path
         inkscape:connector-curvature="0"
         id="path10259"
         d="m 337.20534,532.52014 -95.96875,97.71875 336.40625,234.375 c 9.52298,-12.79523 18.03964,-26.37437 25.46875,-40.625 L 337.20534,532.52014 z"
         style="fill:#e20909;fill-opacity:1" />
      <path
         inkscape:connector-curvature="0"
         id="path2346-2-7"
         d="M 195.89284,676.39514 64.455336,810.23889 c 47.445674,103.55227 151.695424,175.46875 272.687504,175.46875 92.75387,0 175.65777,-42.282 230.6875,-108.65625 L 195.89284,676.39514 z"
         style="fill:#2b5df2;fill-opacity:1" />
      <path
         inkscape:connector-curvature="0"
         id="path10263"
         d="m 172.20575,235.73557 c -44.80654,0 -81.133588,36.31197 -81.133588,81.11851 0,44.80655 36.327048,81.1336 81.133588,81.1336 44.80653,0 81.11849,-36.32705 81.11849,-81.1336 0,-44.80654 -36.31196,-81.11851 -81.11849,-81.11851 z m 0,25.15911 c 30.91084,0 55.9594,25.04856 55.9594,55.9594 0,30.91085 -25.04856,55.97449 -55.9594,55.97449 -30.91083,0 -55.97448,-25.06364 -55.97448,-55.97449 0,-30.91084 25.06365,-55.9594 55.97448,-55.9594 z M 96.834022,408.77231 c -18.149491,0 -32.866719,14.71723 -32.866719,32.86672 0,18.14948 14.717228,32.85164 32.866719,32.85164 18.149498,0 32.851638,-14.70216 32.851638,-32.85164 0,-18.14949 -14.70214,-32.86672 -32.851638,-32.86672 z m 75.371728,0 c -18.14944,0 -32.86672,14.71723 -32.86672,32.86672 0,18.14948 14.71728,32.85164 32.86672,32.85164 18.14951,0 32.86676,-14.70216 32.86676,-32.85164 0,-18.14949 -14.71725,-32.86672 -32.86676,-32.86672 z m 75.38686,0 c -18.14955,0 -32.86673,14.71723 -32.86673,32.86672 0,18.14948 14.71718,32.85164 32.86673,32.85164 18.1494,0 32.85161,-14.70216 32.85161,-32.85164 0,-18.14949 -14.70221,-32.86672 -32.85161,-32.86672 z m -113.08027,65.71836 c -18.1495,0 -32.85163,14.71723 -32.85163,32.86672 0,18.14949 14.70213,32.86672 32.85163,32.86672 18.14951,0 32.86673,-14.71723 32.86673,-32.86672 0,-18.14949 -14.71722,-32.86672 -32.86673,-32.86672 z m 75.38685,0 c -18.1495,0 -32.86675,14.71723 -32.86675,32.86672 0,18.14949 14.7172,32.86672 32.86675,32.86672 18.14947,0 32.86668,-14.71723 32.86668,-32.86672 0,-18.14949 -14.71721,-32.86672 -32.86668,-32.86672 z m -37.69344,65.73344 c -18.14944,0 -32.86672,14.70215 -32.86672,32.85164 0,18.14949 14.71728,32.86672 32.86672,32.86672 18.14951,0 32.86676,-14.71723 32.86676,-32.86672 0,-18.14949 -14.71725,-32.85164 -32.86676,-32.85164 z"
         style="fill:#ffff00;fill-opacity:1;stroke:none" />
    </g>
  </g>
</svg>
