<?xml version="1.0" encoding="UTF-8" standalone="no"?>
<!-- Created with Inkscape (http://www.inkscape.org/) -->

<svg
   xmlns:dc="http://purl.org/dc/elements/1.1/"
   xmlns:cc="http://creativecommons.org/ns#"
   xmlns:rdf="http://www.w3.org/1999/02/22-rdf-syntax-ns#"
   xmlns:svg="http://www.w3.org/2000/svg"
   xmlns="http://www.w3.org/2000/svg"
   xmlns:sodipodi="http://sodipodi.sourceforge.net/DTD/sodipodi-0.dtd"
   xmlns:inkscape="http://www.inkscape.org/namespaces/inkscape"
   width="600.00006"
   height="760"
   id="svg8778"
   version="1.1"
   inkscape:version="0.48.4 r9939"
   sodipodi:docname="New document 164">
  <defs
     id="defs8780" />
  <sodipodi:namedview
     id="base"
     pagecolor="#ffffff"
     bordercolor="#666666"
     borderopacity="1.0"
     inkscape:pageopacity="0.0"
     inkscape:pageshadow="2"
     inkscape:zoom="0.35"
     inkscape:cx="243.57147"
     inkscape:cy="311.42859"
     inkscape:document-units="px"
     inkscape:current-layer="layer1"
     showgrid="false"
     fit-margin-top="0"
     fit-margin-left="0"
     fit-margin-right="0"
     fit-margin-bottom="0"
     inkscape:window-width="463"
     inkscape:window-height="423"
     inkscape:window-x="1860"
     inkscape:window-y="260"
     inkscape:window-maximized="0" />
  <metadata
     id="metadata8783">
    <rdf:RDF>
      <cc:Work
         rdf:about="">
        <dc:format>image/svg+xml</dc:format>
        <dc:type
           rdf:resource="http://purl.org/dc/dcmitype/StillImage" />
        <dc:title></dc:title>
      </cc:Work>
    </rdf:RDF>
  </metadata>
  <g
     inkscape:label="Layer 1"
     inkscape:groupmode="layer"
     id="layer1"
     transform="translate(-131.42853,-83.79074)">
    <g
       transform="translate(94.285736,-141.91688)"
       id="g8759">
      <path
         inkscape:connector-curvature="0"
         d="m 37.142791,225.70762 0,458.8679 c 0,166.31063 134.314699,301.13213 300.000099,301.13213 165.68539,0 299.99999,-134.8215 299.99999,-301.13213 l 0,-458.8679 -600.000089,0 z"
         id="path2346-2-8"
         style="fill:#ffffff;fill-opacity:1" />
      <path
         inkscape:connector-curvature="0"
         id="path2346-2-3"
         transform="translate(37.142836,225.70764)"
         d="m 247.25,222.0625 c -7.27049,0.0445 -13.29493,1.5023 -16.875,5.71875 -4.53875,5.34549 -6.24844,14.24775 -6.09375,25 L 197.5,239.25 l 5.84375,28.46875 c -10.85268,-3.91447 -20.47917,-5.30728 -27.3125,-2.5 -15.59275,6.40584 -13.74098,42.37559 -20.625,63.5625 -5.2434,16.13756 -19.60759,36.21147 -22.25,51.21875 L 0,380 0,458.875 C 0,625.18562 134.31459,760 300,760 465.68539,760 600,625.18562 600,458.875 L 600,380 466.875,380 c -2.64239,-15.00728 -17.00655,-35.08119 -22.25,-51.21875 -6.88396,-21.18691 -5.0635,-57.15666 -20.65625,-63.5625 -8.38876,-3.44628 -20.99427,-0.5638 -34.90625,5.53125 l 4.90625,-31.5 -23.84375,13.53125 c 0.15682,-10.75414 -1.55412,-19.65356 -6.09375,-25 -10.91072,-12.85016 -44.56657,0 -66.84375,0 -14.96751,0 -35.05011,-5.80945 -49.9375,-5.71875 z m 50.78125,72.25 3.4375,34.0625 c 21.00063,1.36139 38.63587,15.09893 45.65625,34 l 34.125,-7.59375 -32.15625,14.15625 c 0.80891,3.55905 1.23835,7.26875 1.28125,11.0625 l -104.65625,0 c 0.0428,-3.8603 0.47672,-7.63353 1.3125,-11.25 l -32.21875,-13.96875 34.21875,7.40625 c 7.08381,-18.86639 24.73331,-32.5541 45.75,-33.84375 l 3.25,-34.03125 z"
         style="fill:#e20909;fill-opacity:1" />
      <path
         inkscape:connector-curvature="0"
         id="path6875-4-5-1"
         d="m 170.28348,605.70764 c -0.82679,4.69569 -0.5153,8.89313 1.59375,12.3125 3.70542,6.0074 11.72202,10.3815 22.09375,13.5625 l -20.03125,20.1875 31.28125,3.53125 c -9.09403,10.6342 -14.92572,20.9343 -14.28125,29.4375 1.27385,16.8092 36.03984,26.18715 54.0625,39.28125 18.02265,13.0943 37.68239,43.26395 54.0625,39.28125 7.56869,-1.8403 14.87981,-9.3162 21.65625,-19.6875 l 12.15625,23.65625 12.53125,-27.65625 c 7.46679,12.4481 15.67011,21.6165 24.18751,23.6875 16.3801,3.9827 36.0399,-26.18695 54.0625,-39.28125 18.0226,-13.0942 52.7887,-22.47205 54.0624,-39.28125 0.6254,-8.2517 -4.8337,-18.2006 -13.4687,-28.5 l 27.5625,-4.46875 -19.75,-18 c 14.2886,-3.2544 25.7093,-8.2363 30.3438,-15.75 2.109,-3.41937 2.4205,-7.61681 1.5937,-12.3125 l -116.5,0 c 0,0.19751 0,0.39572 0,0.59375 0,16.4256 -7.5693,31.05965 -19.4062,40.65625 l 18.5,31.34375 -24.3125,-27.21875 c -7.9079,4.7979 -17.19986,7.53125 -27.12501,7.53125 -9.99466,0 -19.33739,-2.79615 -27.28125,-7.65625 l -24.15625,27.34375 18.34375,-31.46875 c -11.74631,-9.5987 -19.25,-24.17865 -19.25,-40.53125 0,-0.19944 0.029,-0.39484 0.0312,-0.59375 l -112.5625,0 z"
         style="fill:#ffffff;fill-opacity:1;stroke:none" />
    </g>
  </g>
</svg>
