<?xml version="1.0" encoding="UTF-8" standalone="no"?>
<!-- Created with Inkscape (http://www.inkscape.org/) -->

<svg
   xmlns:dc="http://purl.org/dc/elements/1.1/"
   xmlns:cc="http://creativecommons.org/ns#"
   xmlns:rdf="http://www.w3.org/1999/02/22-rdf-syntax-ns#"
   xmlns:svg="http://www.w3.org/2000/svg"
   xmlns="http://www.w3.org/2000/svg"
   xmlns:sodipodi="http://sodipodi.sourceforge.net/DTD/sodipodi-0.dtd"
   xmlns:inkscape="http://www.inkscape.org/namespaces/inkscape"
   width="600.00012"
   height="760"
   id="svg10624"
   version="1.1"
   inkscape:version="0.48.4 r9939"
   sodipodi:docname="New document 219">
  <defs
     id="defs10626" />
  <sodipodi:namedview
     id="base"
     pagecolor="#ffffff"
     bordercolor="#666666"
     borderopacity="1.0"
     inkscape:pageopacity="0.0"
     inkscape:pageshadow="2"
     inkscape:zoom="0.35"
     inkscape:cx="300.00005"
     inkscape:cy="380.00003"
     inkscape:document-units="px"
     inkscape:current-layer="layer1"
     showgrid="false"
     fit-margin-top="0"
     fit-margin-left="0"
     fit-margin-right="0"
     fit-margin-bottom="0"
     inkscape:window-width="463"
     inkscape:window-height="423"
     inkscape:window-x="1860"
     inkscape:window-y="260"
     inkscape:window-maximized="0" />
  <metadata
     id="metadata10629">
    <rdf:RDF>
      <cc:Work
         rdf:about="">
        <dc:format>image/svg+xml</dc:format>
        <dc:type
           rdf:resource="http://purl.org/dc/dcmitype/StillImage" />
        <dc:title></dc:title>
      </cc:Work>
    </rdf:RDF>
  </metadata>
  <g
     inkscape:label="Layer 1"
     inkscape:groupmode="layer"
     id="layer1"
     transform="translate(-74.999948,-152.36217)">
    <g
       transform="translate(37.857162,-73.345457)"
       id="g10581">
      <path
         inkscape:connector-curvature="0"
         d="m 37.142786,225.70763 0,458.86789 c 0,166.31063 134.314714,301.13213 300.000104,301.13213 165.6854,0 300,-134.8215 300,-301.13213 l 0,-458.86789 -600.000104,0 z"
         id="path2346-2-7"
         style="fill:#ffff00;fill-opacity:1" />
      <path
         sodipodi:nodetypes="cccc"
         inkscape:connector-curvature="0"
         id="path2987"
         d="m 267.79303,340.93959 c -29.56979,-30.73838 5.45603,-42.10659 37.98271,-37.98271 19.53432,15.15991 37.42281,47.32382 23.09444,61.21895 -4.20867,-25.19471 -47.22174,-51.66518 -61.07715,-23.23624 z"
         style="fill:#b20f18;fill-opacity:1;stroke:none" />
      <path
         sodipodi:nodetypes="ccscc"
         inkscape:connector-curvature="0"
         id="path3767"
         d="m 328.87018,364.17583 c -35.60148,-41.90393 -64.72791,14.08784 -80.54053,-24.72355 -9.07396,19.9124 1.85878,25.90937 10.41165,25.99407 21.52219,0.21314 43.47698,-27.59143 63.10902,0.60212 4.11504,1.40444 6.05633,0.32462 7.01986,-1.87264 z"
         style="fill:#b20f18;fill-opacity:1;stroke:none" />
      <path
         sodipodi:nodetypes="csscccccccccccssccscc"
         inkscape:connector-curvature="0"
         id="path3901"
         d="m 223.89052,673.01035 c -7.25754,12.84331 -23.49463,36.51981 -40.99331,34.61658 -16.60257,-1.80577 -40.92113,-26.92524 -65.36155,-26.19018 -29.013141,0.87258 -20.123631,35.64641 -11.38703,40.08235 -1.49846,-4.87204 -2.08794,-10.75407 1.82193,-21.63535 8.33501,17.55232 25.9226,11.01993 29.83401,4.09932 5.35457,-0.39045 18.14565,8.284 29.83402,14.80315 -12.7853,10.43739 -83.355696,12.70927 -31.54207,56.25193 -4.65072,-7.2595 -3.41503,-10.96927 -5.3519,-16.39734 18.69232,7.96753 27.04147,-5.67002 27.5566,-13.20895 8.3706,-8.30122 19.52376,-9.27364 28.46758,-11.8425 -21.99661,25.15775 -56.76166,54.55578 -1.59419,73.10473 -11.07249,-8.62267 -9.95997,-13.84647 -13.1975,-18.55751 22.75061,2.4294 24.07578,-17.16155 18.66328,-32.22866 8.65831,-8.40871 16.58001,-18.98181 28.92306,-18.67473 16.86918,0.41967 20.47215,19.39015 31.13031,19.81594 7.65771,0.30593 11.76592,-5.20624 13.73458,-14.35015 5.69584,0.58407 11.20988,8.91867 13.05937,17.53602 11.50259,-54.04475 -58.64656,-25.46826 -58.64656,-43.10969 0,-11.96085 20.96473,-27.1604 31.08324,-42.81522 -7.75189,-3.21144 -16.14299,-4.50525 -26.03387,-1.29974 z"
         style="fill:#b20f18;fill-opacity:1;stroke:none" />
      <path
         style="fill:#b20f18;fill-opacity:1;stroke:none"
         d="m 450.39502,673.01035 c 7.25755,12.84331 23.49463,36.51981 40.9933,34.61658 16.60258,-1.80577 40.92113,-26.92524 65.36155,-26.19018 29.01313,0.87258 20.12365,35.64641 11.38704,40.08235 1.49845,-4.87204 2.08792,-10.75407 -1.82193,-21.63535 -8.33501,17.55232 -25.9226,11.01993 -29.83402,4.09932 -5.35457,-0.39045 -18.14565,8.284 -29.83401,14.80315 12.7853,10.43739 83.3557,12.70927 31.54206,56.25193 4.65073,-7.2595 3.41504,-10.96927 5.35191,-16.39734 -18.69234,7.96753 -27.04148,-5.67002 -27.55662,-13.20895 -8.37059,-8.30122 -19.52373,-9.27364 -28.46757,-11.8425 21.99662,25.15775 56.76167,54.55578 1.59419,73.10473 11.07251,-8.62267 9.95996,-13.84647 13.19751,-18.55751 -22.75063,2.4294 -24.07577,-17.16155 -18.6633,-32.22866 -8.6583,-8.40871 -16.57998,-18.98181 -28.92303,-18.67473 -16.86921,0.41967 -20.47217,19.39015 -31.13033,19.81594 -7.65769,0.30593 -11.76592,-5.20624 -13.73459,-14.35015 -5.69582,0.58407 -11.20986,8.91867 -13.05935,17.53602 -11.5026,-54.04475 58.64654,-25.46826 58.64654,-43.10969 0,-11.96085 -20.96471,-27.1604 -31.08323,-42.81522 7.75191,-3.21144 16.14301,-4.50525 26.03388,-1.29974 z"
         id="path3911"
         inkscape:connector-curvature="0"
         sodipodi:nodetypes="csscccccccccccssccscc" />
      <path
         inkscape:connector-curvature="0"
         id="path3999"
         transform="translate(37.142836,225.70764)"
         d="m 117.9375,61.25 c -39.37484,23.00017 -13.56232,64.54162 4.3125,91.4375 -0.63002,0.83666 -1.17221,1.76322 -1.65625,2.65625 C 105.14758,141.32295 90.05595,127.19964 74.65625,69.5625 74.4946,68.90333 73.79565,68.42696 73.125,68.53125 72.32627,68.63968 71.74089,69.54922 72,70.3125 c 15.69672,58.74883 31.67415,73.4682 47.3125,87.6875 -0.86137,2.24458 -1.37074,4.57175 -1.625,6.78125 C 84.95715,145.31112 61.884909,99.98931 51.875,67.25 c -45.409238,68.30648 30.06614,107.35263 64.28125,130.96875 -1.04346,1.5172 -2.05554,3.01405 -3,4.53125 -19.76077,-10.22591 -35.094896,-15.73061 -75.09375,-48.59375 -0.297081,-0.26989 -0.727589,-0.39994 -1.125,-0.34375 -1.087804,0.14614 -1.495107,1.84247 -0.59375,2.46875 40.105896,32.95109 55.93844,38.65201 75.53125,48.78125 -0.80633,1.48757 -1.53087,2.98118 -1.96875,4.46875 C 84.89915,205.5663 62.094183,197.05852 37.5625,179.875 c -7.161049,53.78094 80.06858,56.71086 83.3125,64.78125 0.0806,0.2005 0.10977,0.39598 0.15625,0.59375 -22.58593,0.32141 -47.357041,-1.50668 -80.21875,-11.46875 -0.216321,-0.0861 -0.456623,-0.12407 -0.6875,-0.0937 -1.180284,0.25993 -1.25483,2.32079 -0.09375,2.65625 32.859368,9.96137 57.87651,11.93237 80.5,11.65625 -5.32503,8.90045 -46.069325,14.19516 -79.46875,12 6.670243,52.03003 87.40492,14.21742 94.1875,21 0.27434,0.27434 0.53435,0.55654 0.6875,0.875 -20.8775,12.06498 -48.711304,17.76483 -81.65625,18.84375 -0.718051,0.0225 -1.334938,0.65695 -1.3125,1.375 0.02249,0.71806 0.656949,1.39744 1.375,1.375 32.405945,-1.06127 60.25624,-6.5381 81.53125,-18.34375 -4.75736,12.0792 -51.709256,37.92353 -91.625,46.53125 33.126714,57.82027 111.65359,-23.46713 127.28125,-38.5625 1.12118,2.11036 3.01975,4.56149 5.125,6.9375 -22.19119,26.27842 -58.17081,50.3624 -111.9375,71.3125 -0.67318,0.26934 -1.05052,1.13932 -0.78125,1.8125 0.26925,0.67318 1.13933,1.01926 1.8125,0.75 53.83447,-20.97648 90.10443,-45.16797 112.71875,-71.8125 0.98178,1.01116 2.02433,1.949 3,2.8125 -20.99688,31.48806 -64.12965,74.02976 -105.4375,89.90625 65.42159,21.58754 96.98709,-38.40906 129.4375,-73.34375 -8.2413,22.23807 -15.8891,39.47411 -55.8125,76.53125 -1.07708,0.98731 0.82917,3.0498 1.90625,2.0625 35.61353,-33.05668 45.96629,-50.9826 53.65625,-70.21875 -3.14482,26.56408 -18.40267,46.79754 -31.5625,68.84375 29.24658,-13.85256 46.60426,-26.60024 55.8125,-59.0625 3.70711,44.19289 2.71484,83.44113 -88.03125,119.90625 25.04767,-0.10751 44.07949,-3.29194 62.75,-5.3125 8.05562,10.16637 11.88392,17.1791 17.90625,28.21875 6.65527,-56.08191 21.96655,-64.70927 35.8125,-81 6.93832,29.16045 -45.36889,103.76962 28.03125,88.53125 0.99622,14.36499 -12.6055,22.08181 -29.125,17.46875 5.67086,18.80024 20.51481,15.50623 31.875,13.03125 7.07052,82.8041 -72.75042,46.07964 -97.375,57 -37.29044,16.53739 -19.71833,80.17995 22.96875,54.78125 -19.03238,-11.2208 -7.45424,-29.32076 3.59375,-29.65625 19.27455,-0.58533 49.3878,-3.61069 67.5625,-23.65625 -4.64068,16.11873 -26.10961,70.26546 -50.25,35.8125 -13.71878,24.48447 2.60035,39.96875 16.03125,39.96875 24.18561,0 38.06799,-46.5232 43.125,-66.6875 11.14244,31.46941 -30.08103,55.98589 5.65625,110.71875 35.73727,-54.73286 -5.48619,-79.24934 5.65625,-110.71875 5.05701,20.1643 18.93939,66.6875 43.125,66.6875 13.43089,0 29.75001,-15.48428 16.03125,-39.96875 -24.14039,34.45296 -45.60931,-19.69377 -50.25,-35.8125 18.17471,20.04556 48.28795,23.07092 67.5625,23.65625 11.04801,0.33549 22.62614,18.43545 3.59375,29.65625 42.68709,25.3987 60.25919,-38.24386 22.96875,-54.78125 -24.6246,-10.92036 -104.44552,25.8041 -97.375,-57 11.36019,2.47498 26.20413,5.76899 31.875,-13.03125 -16.5195,4.61306 -30.12123,-3.10376 -29.125,-17.46875 73.40015,15.23837 21.09293,-59.3708 28.03125,-88.53125 13.84594,16.29073 29.15724,24.91809 35.8125,81 6.02235,-11.03965 9.85062,-18.05238 17.90625,-28.21875 18.67048,2.02056 37.70234,5.20499 62.75,5.3125 -90.74608,-36.46512 -91.73836,-75.71336 -88.03125,-119.90625 9.20822,32.46226 26.5659,45.20994 55.8125,59.0625 -13.15985,-22.04621 -28.41769,-42.27967 -31.5625,-68.84375 7.68997,19.23615 18.04273,37.16207 53.65625,70.21875 1.07708,0.9873 2.98333,-1.07519 1.90625,-2.0625 -39.92341,-37.05714 -47.57121,-54.29318 -55.8125,-76.53125 32.45038,34.93469 64.01591,94.93129 129.4375,73.34375 -41.30784,-15.87649 -84.44064,-58.41819 -105.4375,-89.90625 0.97565,-0.8635 2.01823,-1.80134 3,-2.8125 22.61432,26.64453 58.88428,50.83602 112.71875,71.8125 0.67318,0.26934 1.54316,-0.0768 1.8125,-0.75 0.26934,-0.67318 -0.10805,-1.54316 -0.78125,-1.8125 -53.76669,-20.9501 -89.74631,-45.03406 -111.9375,-71.3125 2.10526,-2.37601 4.00381,-4.82714 5.125,-6.9375 15.62764,15.09537 94.15453,96.38277 127.28125,38.5625 -39.91575,-8.60772 -86.86763,-34.45205 -91.625,-46.53125 21.27503,11.80565 49.12519,17.28248 81.53125,18.34375 0.71729,0.0211 1.35306,-0.65775 1.375,-1.375 0.0219,-0.71724 -0.59529,-1.35141 -1.3125,-1.375 -32.94495,-1.07897 -60.77875,-6.77882 -81.65625,-18.8438 0.15305,-0.31846 0.41317,-0.60066 0.6875,-0.875 6.78259,-6.78258 87.51726,31.03003 94.1875,-21 -33.39943,2.19516 -74.14372,-3.09955 -79.46875,-12 22.62348,0.27612 47.64061,-1.69488 80.5,-11.65625 1.16109,-0.3354 1.0864,-2.39626 -0.0937,-2.65625 -0.23094,-0.0303 -0.47109,0.008 -0.6875,0.0937 -32.86168,9.96207 -57.63282,11.79016 -80.21875,11.46875 0.0463,-0.19775 0.0756,-0.39327 0.15625,-0.59375 3.24391,-8.07039 90.47356,-11.00031 83.3125,-64.78125 -24.53166,17.18352 -47.33665,25.6913 -72.34375,29.65625 -0.59276,-1.48273 -1.23594,-2.98602 -1.96875,-4.46875 19.59281,-10.12924 35.42537,-15.83016 75.53125,-48.78125 0.90135,-0.62628 0.49406,-2.32261 -0.59375,-2.46875 -0.39742,-0.0562 -0.82793,0.0739 -1.125,0.34375 -39.99886,32.86314 -55.33297,38.36784 -75.09375,48.59375 -0.87063,-1.51214 -1.79272,-3.01911 -3,-4.53125 34.2151,-23.61612 109.6905,-62.66227 64.28125,-130.96875 -10.0099,32.73931 -33.08216,78.06112 -65.8125,97.53125 -0.25425,-2.2095 -0.76361,-4.53667 -1.625,-6.78125 15.63834,-14.2193 31.61576,-28.93867 47.3125,-87.6875 0.25919,-0.76328 -0.32625,-1.67282 -1.125,-1.78125 -0.67063,-0.1043 -1.3697,0.37208 -1.53125,1.03125 -15.39969,57.63714 -30.49134,71.76045 -45.9375,85.78125 -0.48404,-0.89303 -1.02621,-1.81959 -1.65625,-2.65625 17.87481,-26.89588 43.68733,-68.43733 4.3125,-91.4375 -5.28916,40.44966 -19.93221,75.04949 -39.4375,87.6875 -1.10942,-1.49707 -2.5822,-2.68336 -4.125,-3.6875 9.52839,-17.10289 18.87423,-35.15557 22.375,-66.6875 0.11218,-0.64843 -0.30936,-1.36642 -0.9375,-1.5625 -0.78844,-0.26179 -1.75078,0.39027 -1.8125,1.21875 -3.45233,31.09573 -12.53992,48.62681 -22.03125,65.65625 -1.17099,-0.52896 -2.41793,-0.95762 -3.59375,-1.21875 0.19775,0.37454 30.6702,-63.64397 -12.15625,-76.03125 0,73.34093 -30.6875,72.65118 -30.6875,102.6875 0,11.785 8.87184,25.79987 29.65625,26.65625 -4.92445,9.77798 -7.00094,29.89117 -2.75,39.59375 -14.43684,-8.63917 -29.94084,-9.40107 -43.78125,0.53125 -4.11207,-9.39089 -8.46915,-17.64046 -13.21875,-23.84375 22.54967,0.87374 24.75443,-15.65773 24.78125,-32.5625 -13.44276,22.30801 -35.80398,10.67342 -37.03125,-27.25 17.21836,3.26355 24.22793,-4.49075 28.125,-15.5 -13.17543,6.31508 -28.10685,12.01868 -28.21875,-28.46875 19.17943,-5.42637 24.6456,-12.87217 31.46875,-21.6875 -39.01772,19.68584 -60.46112,-44.19775 -110.0625,-9.5 18.46834,16.96323 25.8363,36.44542 23.0625,61.1875 -32.2941,-6.24248 -47.81399,1.67547 -50.75,9.15625 77.6833,-6.37612 26.13231,65.11548 -2.3125,27.625 -8.11122,19.93046 7.56303,31.21513 34.28125,24.34375 -0.86432,3.19134 -1.38905,6.425 -0.34375,10.09375 -12.02142,3.39181 -22.10574,11.01392 -30.75,22.125 -18.76246,-17.98632 -38.11714,-16.97013 -54.34375,-6.09375 0.96969,-11.19406 -1.85677,-19.97202 -6.78125,-29.75 20.7844,-0.85638 29.65625,-14.87125 29.65625,-26.65625 0,-30.03632 -30.6875,-29.34657 -30.6875,-102.6875 -42.82647,12.38728 -12.3539,76.40579 -12.15625,76.03125 -1.17582,0.26113 -2.42274,0.68979 -3.59375,1.21875 -9.49138,-17.02939 -18.57897,-34.56047 -22.0313,-65.6562 -0.0616,-0.82848 -1.02407,-1.48054 -1.8125,-1.21875 -0.62816,0.19608 -1.04957,0.91407 -0.9375,1.5625 3.50077,31.53193 12.84662,49.58461 22.375,66.6875 -1.5428,1.00414 -3.01557,2.19043 -4.125,3.6875 C 137.8697,136.29949 123.22667,101.69966 117.9375,61.25 z m 75.9375,103.4375 c 1.74069,0.0137 3.47977,0.25623 5.15625,0.4375 0.71809,0.0673 1.3173,0.78192 1.25,1.5 -0.0673,0.71808 -0.78192,1.3174 -1.5,1.25 -3.35602,-0.36287 -6.52514,-0.71872 -9.25,0.15625 -2.72486,0.87498 -5.27052,2.87312 -7.46875,7.71875 -0.25063,0.53366 -0.88651,0.87395 -1.46875,0.78125 -4.84126,-0.9917 -8.61439,-0.66666 -11.375,1.09375 -2.76061,1.76041 -4.73234,5.02564 -5.65625,10.625 -0.0852,0.52875 -0.51099,0.99787 -1.03125,1.125 -3.63917,1.04927 -5.94954,3.27022 -6.875,6.1875 -0.92546,2.91727 -0.48553,6.69307 2.15625,10.78125 0.21103,0.32473 0.25992,0.75186 0.15625,1.125 -1.74206,5.07182 -1.88122,10.02696 -0.40625,13.875 1.47497,3.84805 4.50027,6.7179 9.75,7.875 0.65916,0.16167 1.13561,0.89186 1.03125,1.5625 -0.83946,4.77768 -0.45871,8.95811 1.46875,11.5625 1.92745,2.6044 5.51323,4.05211 12.15625,3.25 0.64441,-0.0602 1.3097,0.40387 1.46875,1.03125 1.07967,4.26571 2.59351,8.18617 5.5625,11.15625 2.96899,2.97007 7.51707,5.16922 15.1875,5.90625 0.71809,0.0673 1.28605,0.78191 1.21875,1.5 -0.0673,0.71808 -0.78192,1.3173 -1.5,1.25 -8.09516,-0.77785 -13.38653,-3.2915 -16.875,-6.78125 -3.23436,-3.23553 -4.78929,-7.28822 -5.90625,-11.40625 -6.43127,0.4935 -11.02273,-0.97617 -13.46875,-4.28125 -2.43609,-3.29165 -2.74997,-7.82266 -2.0625,-12.59375 -5.26576,-1.53037 -8.97973,-4.70769 -10.625,-9 -1.72236,-4.49344 -1.39953,-9.88986 0.34375,-15.25 -2.62114,-4.37558 -3.46888,-8.69852 -2.3125,-12.34375 1.12497,-3.54619 4.10258,-6.23526 7.96875,-7.625 1.06628,-5.64086 3.35829,-9.66097 6.78125,-11.84375 3.34677,-2.1342 7.61825,-2.36904 12.4375,-1.53125 2.34412,-4.61853 5.24884,-7.27856 8.46875,-8.3125 1.73127,-0.55593 3.47807,-0.79495 5.21875,-0.78125 z m 212.25,0 c 1.74069,-0.0137 3.48749,0.22532 5.21875,0.78125 3.21991,1.03394 6.12462,3.69397 8.46875,8.3125 4.81927,-0.83779 9.09073,-0.60295 12.4375,1.53125 3.42295,2.18278 5.71498,6.20289 6.78125,11.84375 3.86619,1.38974 6.84379,4.07881 7.96875,7.625 1.1564,3.64523 0.30865,7.96817 -2.3125,12.34375 1.7433,5.36014 2.06612,10.75656 0.34375,15.25 -1.64527,4.29231 -5.35924,7.46963 -10.625,9 0.68748,4.77109 0.37358,9.3021 -2.0625,12.59375 -2.44602,3.30508 -7.03749,4.77475 -13.46875,4.28125 -1.11696,4.11803 -2.67188,8.17072 -5.90625,11.40625 -3.48846,3.48975 -8.77984,6.0034 -16.875,6.78125 -0.71923,0.0697 -1.46383,-0.53056 -1.53125,-1.25 -0.0675,-0.71945 0.53035,-1.43477 1.25,-1.5 7.67044,-0.73703 12.21852,-2.93618 15.1875,-5.90625 2.96901,-2.97008 4.48285,-6.89054 5.5625,-11.15625 0.15908,-0.62738 0.82434,-1.09148 1.46875,-1.03125 6.64304,0.80211 10.2288,-0.6456 12.15625,-3.25 1.92747,-2.60439 2.30822,-6.78482 1.46875,-11.5625 -0.10423,-0.67064 0.37208,-1.40083 1.03125,-1.5625 5.24974,-1.1571 8.27503,-4.02695 9.75,-7.875 1.47497,-3.84804 1.33581,-8.80318 -0.40625,-13.875 -0.10368,-0.37314 -0.0547,-0.80027 0.15625,-1.125 2.64179,-4.08818 3.08171,-7.86398 2.15625,-10.78125 -0.92546,-2.91728 -3.23583,-5.13823 -6.875,-6.1875 -0.5203,-0.12713 -0.94606,-0.59621 -1.03125,-1.125 -0.9239,-5.59936 -2.89564,-8.86459 -5.65625,-10.625 -2.76061,-1.76041 -6.53373,-2.08545 -11.375,-1.09375 -0.58223,0.0927 -1.21811,-0.24759 -1.46875,-0.78125 -2.1982,-4.84563 -4.74388,-6.84377 -7.46875,-7.71875 -2.72485,-0.87497 -5.89396,-0.51912 -9.25,-0.15625 -0.71923,0.0696 -1.43258,-0.53055 -1.5,-1.25 -0.0675,-0.71944 0.53036,-1.43479 1.25,-1.5 1.67649,-0.18127 3.41556,-0.42381 5.15625,-0.4375 z"
         style="fill:#000000;stroke:#000000;stroke-width:1;stroke-linecap:butt;stroke-linejoin:miter;stroke-miterlimit:4;stroke-opacity:1;stroke-dasharray:none;stroke-dashoffset:0" />
      <path
         sodipodi:nodetypes="ccc"
         inkscape:connector-curvature="0"
         id="path3814-4"
         d="m 356.96891,319.71585 c -5.51949,11.32024 -33.33032,12.49259 -27.37626,-10.62844 11.74681,-0.79183 21.9342,3.41253 27.37626,10.62844 z"
         style="fill:#ffffff;fill-opacity:1;stroke:#000000;stroke-width:1;stroke-linecap:butt;stroke-linejoin:miter;stroke-miterlimit:4;stroke-opacity:1;stroke-dasharray:none;stroke-dashoffset:0" />
      <path
         inkscape:connector-curvature="0"
         id="path3841"
         d="m 336.17189,309.24161 c -0.57348,0.94754 -0.94282,2.06863 -0.94282,3.25703 0,3.46859 2.78831,6.25691 6.25691,6.25691 3.46859,0 6.34262,-2.78832 6.34262,-6.25691 0,-0.0284 3.8e-4,-0.0574 0,-0.0857 -3.43248,-1.67828 -7.38794,-2.76065 -11.65671,-3.17131 z"
         style="fill:#000000;fill-opacity:1;stroke:#000000;stroke-width:1;stroke-linecap:butt;stroke-linejoin:miter;stroke-miterlimit:4;stroke-opacity:1;stroke-dasharray:none;stroke-dashoffset:0" />
      <path
         inkscape:connector-curvature="0"
         id="path3848"
         d="m 331.40013,301.34755 -2.74276,0.17142 0.42856,5.48551 2.65704,-0.17142 c 10.50716,-0.67384 23.17716,4.60549 30.9417,15.17086 l 1.62852,2.22849 4.37126,-3.25702 -1.62851,-2.22849 c -8.90789,-12.12116 -23.09433,-18.20495 -35.65581,-17.39935 z"
         style="font-size:medium;font-style:normal;font-variant:normal;font-weight:normal;font-stretch:normal;text-indent:0;text-align:start;text-decoration:none;line-height:normal;letter-spacing:normal;word-spacing:normal;text-transform:none;direction:ltr;block-progression:tb;writing-mode:lr-tb;text-anchor:start;baseline-shift:baseline;color:#000000;fill:#ffffff;fill-opacity:1;stroke:#000000;stroke-width:1;stroke-miterlimit:4;stroke-opacity:1;stroke-dasharray:none;marker:none;visibility:visible;display:inline;overflow:visible;enable-background:accumulate;font-family:Sans;-inkscape-font-specification:Sans" />
      <g
         transform="translate(-736.83143,98)"
         id="g10574">
        <path
           style="fill:#ffffff;fill-opacity:1;stroke:none"
           d="m 971.13047,373.77444 0,124.8125 c 0,42.87819 26.235,79.55794 63.53133,95 l 0,0.34375 c 12.1342,4.81308 25.388,7.5 39.2813,7.5 13.9139,0 27.1946,-2.67309 39.3437,-7.5 l 0,-0.375 c 37.2798,-15.44945 63.5313,-52.10245 63.5313,-94.96875 l 0,-124.8125 -63.5313,0 -0.1563,0 -39.1562,0 c -15.977,0 -18.3579,0 -39.25,0 l -0.062,0 z"
           id="path3756-6-8"
           inkscape:connector-curvature="0"
           sodipodi:nodetypes="csccsccsccccccc" />
        <g
           id="g10535"
           transform="translate(63.188266,33.098616)">
          <path
             inkscape:connector-curvature="0"
             id="path3756-6"
             d="m 971.47126,340.67639 0,38.5 39.31474,-38.5 -39.31474,0 z m 39.31474,0 39.3147,38.53125 0,-38.53125 -39.3147,0 z m 0,39.15625 -39.31474,38.5625 0,31.46875 39.31474,-38.5625 39.3147,38.59375 0,-31.46875 -39.3147,-38.59375 z m 0,70.8125 -39.31474,38.5625 0,31.46875 39.31474,-38.5625 39.3147,38.5625 0,-31.4375 -39.3147,-38.59375 z m 0,70.625 -39.31474,38.5625 0,1 c 12.1342,4.81308 25.38978,7.5 39.28284,7.5 13.9141,0 27.1975,-2.67309 39.3466,-7.5 l 0,-0.90625 -39.3147,-38.65625 z"
             style="fill:#e20909;fill-opacity:1;stroke:none" />
          <g
             id="g10532">
            <path
               sodipodi:nodetypes="cccccccccc"
               inkscape:connector-curvature="0"
               style="fill:#ffff00;fill-opacity:1;stroke:none"
               d="m 907.9327,340.67526 0,124.79533 c 0,42.90294 26.26705,79.6272 63.59763,95.0536 l 0,-219.84894 z m 142.0233,0 0,219.84894 c 37.3625,-15.41173 63.6833,-52.12759 63.6833,-95.0536 l 0,-124.79534 z"
               id="path3847" />
          </g>
        </g>
      </g>
    </g>
  </g>
</svg>
