<?xml version="1.0" encoding="UTF-8" standalone="no"?>
<!-- Created with Inkscape (http://www.inkscape.org/) -->

<svg
   xmlns:dc="http://purl.org/dc/elements/1.1/"
   xmlns:cc="http://creativecommons.org/ns#"
   xmlns:rdf="http://www.w3.org/1999/02/22-rdf-syntax-ns#"
   xmlns:svg="http://www.w3.org/2000/svg"
   xmlns="http://www.w3.org/2000/svg"
   xmlns:xlink="http://www.w3.org/1999/xlink"
   xmlns:sodipodi="http://sodipodi.sourceforge.net/DTD/sodipodi-0.dtd"
   xmlns:inkscape="http://www.inkscape.org/namespaces/inkscape"
   version="1.0"
   width="600"
   height="760"
   id="svg20"
   inkscape:version="0.48.4 r9939"
   sodipodi:docname="saint-aubin-sauges.svg">
  <sodipodi:namedview
     pagecolor="#ffffff"
     bordercolor="#666666"
     borderopacity="1"
     objecttolerance="10"
     gridtolerance="10"
     guidetolerance="10"
     inkscape:pageopacity="0"
     inkscape:pageshadow="2"
     inkscape:window-width="1600"
     inkscape:window-height="1147"
     id="namedview78"
     showgrid="false"
     inkscape:zoom="0.61861075"
     inkscape:cx="146.55582"
     inkscape:cy="381.5"
     inkscape:window-x="1592"
     inkscape:window-y="-8"
     inkscape:window-maximized="1"
     inkscape:current-layer="svg20" />
  <desc
     id="desc22">Coat of Arms of Canton of Freiburg (Fribourg)</desc>
  <metadata
     id="metadata31">
    <rdf:RDF>
      <cc:Work
         rdf:about="">
        <dc:format>image/svg+xml</dc:format>
        <dc:type
           rdf:resource="http://purl.org/dc/dcmitype/StillImage" />
        <dc:date>07-AUG-2006</dc:date>
        <dc:creator>
          <cc:Agent>
            <dc:title>Jérôme BLUM (wagner51)</dc:title>
          </cc:Agent>
        </dc:creator>
        <cc:license
           rdf:resource="http://creativecommons.org/licenses/GPL/2.0/" />
        <dc:coverage />
        <dc:description>Gabarit pour le Projet:Blasons de WIkipédia</dc:description>
        <dc:subject>
          <rdf:Bag>
            <rdf:li>blason suisse modèle gabarit projet blasons</rdf:li>
          </rdf:Bag>
        </dc:subject>
        <dc:language>fr</dc:language>
        <dc:title />
      </cc:Work>
      <cc:License
         rdf:about="http://creativecommons.org/licenses/GPL/2.0/">
        <cc:permits
           rdf:resource="http://web.resource.org/cc/Reproduction" />
        <cc:permits
           rdf:resource="http://web.resource.org/cc/Distribution" />
        <cc:requires
           rdf:resource="http://web.resource.org/cc/Notice" />
        <cc:permits
           rdf:resource="http://web.resource.org/cc/DerivativeWorks" />
        <cc:requires
           rdf:resource="http://web.resource.org/cc/ShareAlike" />
        <cc:requires
           rdf:resource="http://web.resource.org/cc/SourceCode" />
      </cc:License>
    </rdf:RDF>
  </metadata>
  <defs
     id="defs29">
    <linearGradient
       id="linearGradient2893">
      <stop
         id="stop2895"
         style="stop-color:#ffffff;stop-opacity:0.3137255"
         offset="0" />
      <stop
         id="stop2897"
         style="stop-color:#ffffff;stop-opacity:0.25098041"
         offset="0.19" />
      <stop
         id="stop2901"
         style="stop-color:#6b6b6b;stop-opacity:0.1254902"
         offset="0.60000002" />
      <stop
         id="stop2899"
         style="stop-color:#000000;stop-opacity:0.1254902"
         offset="1" />
    </linearGradient>
    <radialGradient
       cx="858.04236"
       cy="579.93323"
       r="300"
       fx="858.04236"
       fy="579.93323"
       id="radialGradient3236"
       xlink:href="#linearGradient2893"
       gradientUnits="userSpaceOnUse"
       gradientTransform="matrix(1.215027,0,0,1.266667,-839.1924,-490.4894)" />
    <clipPath
       id="clipPath3051">
      <path
         d="m 1.5,1.49999 0,458.86794 C 1.5,626.67853 135.81454,761.5 301.49993,761.5 467.1854,761.5 601.5,626.67853 601.5,460.36793 l 0,-458.86794 -600,0 z"
         id="path3053"
         style="fill:none;stroke:#000000;stroke-width:3;stroke-miterlimit:4;stroke-opacity:1;stroke-dasharray:none;display:inline"
         inkscape:connector-curvature="0" />
    </clipPath>
    <clipPath
       id="clipPath3055">
      <path
         d="m 1.5,1.49999 0,458.86794 C 1.5,626.67853 135.81454,761.5 301.49993,761.5 467.1854,761.5 601.5,626.67853 601.5,460.36793 l 0,-458.86794 -600,0 z"
         id="path3057"
         style="fill:none;stroke:#000000;stroke-width:3;stroke-miterlimit:4;stroke-opacity:1;stroke-dasharray:none;display:inline"
         inkscape:connector-curvature="0" />
    </clipPath>
    <radialGradient
       inkscape:collect="always"
       xlink:href="#linearGradient2893"
       id="radialGradient3056"
       gradientUnits="userSpaceOnUse"
       gradientTransform="matrix(1.215027,0,0,1.266667,-839.1924,-490.4894)"
       cx="858.04236"
       cy="579.93323"
       fx="858.04236"
       fy="579.93323"
       r="300" />
  </defs>
  <g
     transform="translate(-37.142838,-225.70764)"
     id="g7425">
    <path
       inkscape:connector-curvature="0"
       d="m 37.142786,225.70762 0,458.86791 c 0,166.31063 134.314714,301.13213 300.000114,301.13213 165.68539,0 299.99999,-134.8215 299.99999,-301.13213 l 0,-458.86791 -600.000104,0 z"
       id="path2346-2-4"
       style="fill:#ffffff;fill-opacity:1" />
    <path
       inkscape:connector-curvature="0"
       id="rect3029-98-1"
       transform="translate(37.142836,225.70764)"
       d="m 150,0 0,719.71875 C 194.1222,745.33353 245.3639,760 300,760 l 0,-184 150,0 0,143.71875 C 539.67271,667.65435 600,570.3381 600,458.875 L 600,0 450,0 450,96 300,96 300,0 150,0 z m 150,192 150,0 0,96 -150,0 0,-96 z m 0,192 150,0 0,96 -150,0 0,-96 z"
       style="fill:#e20909;fill-opacity:1;stroke:none" />
    <path
       inkscape:connector-curvature="0"
       id="path6875-7"
       transform="translate(37.142836,225.70764)"
       d="m 122.9375,238.03125 c -3.7305,0.0228 -6.81931,0.77402 -8.65625,2.9375 -2.32888,2.74281 -3.20436,7.29549 -3.125,12.8125 l -13.75,-6.9375 3,14.625 c -5.56856,-2.00853 -10.49379,-2.75292 -14,-1.3125 -8.00072,3.28688 -7.06154,21.7539 -10.59375,32.625 -3.53223,10.87111 -15.165732,25.26317 -10.625,32.625 1.90127,3.08244 6.02197,5.30532 11.34375,6.9375 l -10.28125,10.375 16.0625,1.8125 c -4.6662,5.45645 -7.67443,10.73069 -7.34375,15.09375 0.65361,8.62485 18.50249,13.43758 27.75,20.15625 9.24748,6.71871 19.34528,22.19984 27.75,20.15625 3.88358,-0.94426 7.64795,-4.77219 11.125,-10.09375 l 6.21875,12.125 6.4375,-14.1875 c 3.8313,6.38721 8.036,11.09363 12.40625,12.15625 8.40472,2.04359 18.50257,-13.43754 27.75,-20.15625 9.24757,-6.71871 27.09642,-11.5314 27.75,-20.15625 0.32085,-4.23401 -2.50683,-9.34032 -6.9375,-14.625 l 14.15625,-2.28125 -10.125,-9.25 c 7.33157,-1.66985 13.18454,-4.20718 15.5625,-8.0625 4.54072,-7.36183 -7.09267,-21.75389 -10.625,-32.625 -3.53218,-10.8711 -2.59308,-29.33812 -10.59375,-32.625 -4.30437,-1.76829 -10.76795,-0.25241 -17.90625,2.875 l 2.53125,-16.1875 -12.25,6.96875 c 0.0804,-5.51801 -0.79569,-10.10046 -3.125,-12.84375 -5.59836,-6.59347 -22.85076,0 -34.28125,0 -7.6799,0 -17.9862,-2.98401 -25.625,-2.9375 z m 300,0 c -3.73052,0.0228 -6.8193,0.77402 -8.65625,2.9375 -2.32885,2.7428 -3.20437,7.29548 -3.125,12.8125 l -13.75,-6.9375 3,14.625 c -5.56856,-2.00853 -10.4938,-2.75292 -14,-1.3125 -8.00071,3.28688 -7.06153,21.75391 -10.59375,32.625 -3.53222,10.8711 -15.16573,25.26318 -10.625,32.625 1.90127,3.08244 6.02196,5.30531 11.34375,6.9375 l -10.28125,10.375 16.0625,1.8125 c -4.6662,5.45645 -7.67443,10.73069 -7.34375,15.09375 0.65361,8.62484 18.50249,13.43758 27.75,20.15625 9.24751,6.71872 19.34529,22.19984 27.75,20.15625 3.88353,-0.94426 7.64798,-4.77219 11.125,-10.09375 l 6.21875,12.125 6.4375,-14.1875 c 3.83124,6.38721 8.03593,11.09363 12.40625,12.15625 8.40471,2.04359 18.50253,-13.43753 27.75,-20.15625 9.24751,-6.7187 27.09642,-11.53141 27.75,-20.15625 0.32088,-4.23401 -2.50684,-9.34033 -6.9375,-14.625 l 14.15625,-2.28125 -10.125,-9.25 c 7.33155,-1.66986 13.18457,-4.20718 15.5625,-8.0625 4.54073,-7.36182 -7.09274,-21.7539 -10.625,-32.625 -3.53219,-10.87109 -2.59304,-29.33812 -10.59375,-32.625 -4.30431,-1.7683 -10.76795,-0.2524 -17.90625,2.875 l 2.53125,-16.1875 -12.25,6.96875 c 0.0805,-5.518 -0.7957,-10.10047 -3.125,-12.84375 -5.59835,-6.59347 -22.85071,0 -34.28125,0 -7.6799,0 -17.9862,-2.98403 -25.625,-2.9375 z M 149,275.09375 l 1.75,17.46875 c 10.77548,0.69853 19.83529,7.77052 23.4375,17.46875 l 17.5,-3.90625 -16.5,7.28125 c 0.43688,1.92224 0.65625,3.91428 0.65625,5.96875 0,8.42807 -3.86394,15.95093 -9.9375,20.875 l 9.46875,16.0625 -12.46875,-13.96875 c -4.05754,2.46183 -8.81361,3.875 -13.90625,3.875 -5.12835,0 -9.92394,-1.41251 -14,-3.90625 l -12.40625,14 L 132,340.1875 c -6.02711,-4.92515 -9.875,-12.42191 -9.875,-20.8125 0,-2.08832 0.23658,-4.11125 0.6875,-6.0625 l -16.53125,-7.1875 17.5625,3.8125 c 3.63476,-9.68044 12.68501,-16.71326 23.46875,-17.375 L 149,275.09375 z m 300,0 1.75,17.46875 c 10.77554,0.69854 19.83531,7.77052 23.4375,17.46875 l 17.5,-3.90625 -16.5,7.28125 c 0.43689,1.92224 0.65625,3.91429 0.65625,5.96875 0,8.42807 -3.86396,15.95094 -9.9375,20.875 l 9.46875,16.0625 -12.46875,-13.96875 c -4.05757,2.46183 -8.8136,3.875 -13.90625,3.875 -5.12831,0 -9.92397,-1.41251 -14,-3.90625 l -12.40625,14 L 432,340.1875 c -6.02709,-4.92515 -9.875,-12.42191 -9.875,-20.8125 0,-2.08832 0.23657,-4.11126 0.6875,-6.0625 l -16.53125,-7.1875 17.5625,3.8125 c 3.63474,-9.68044 12.68499,-16.71328 23.46875,-17.375 L 449,275.09375 z"
       style="fill:#ffffff;fill-opacity:1;stroke:none" />
    <path
       inkscape:connector-curvature="0"
       transform="translate(37.142836,225.70764)"
       id="path6875-7-1"
       d="m 122.9375,238.03125 c -3.7305,0.0228 -6.81931,0.77402 -8.65625,2.9375 -2.32888,2.74281 -3.20436,7.29549 -3.125,12.8125 l -13.75,-6.9375 3,14.625 c -5.56856,-2.00853 -10.49379,-2.75292 -14,-1.3125 -8.00072,3.28688 -7.06154,21.7539 -10.59375,32.625 -3.53223,10.87111 -15.165737,25.26317 -10.625,32.625 1.90127,3.08244 6.02197,5.30532 11.34375,6.9375 l -10.28125,10.375 16.0625,1.8125 c -4.6662,5.45645 -7.67443,10.73069 -7.34375,15.09375 0.65361,8.62485 18.50249,13.43758 27.75,20.15625 9.24748,6.71871 19.34528,22.19984 27.75,20.15625 3.88358,-0.94426 7.64795,-4.77219 11.125,-10.09375 l 6.21875,12.125 2.1875,-4.8125 0,-50.96875 c -0.33093,0.012 -0.66607,0.0312 -1,0.0312 -5.12835,0 -9.92394,-1.41251 -14,-3.90625 l -12.40625,14 L 132,340.1875 c -6.02711,-4.92515 -9.875,-12.42191 -9.875,-20.8125 0,-2.08832 0.23658,-4.11125 0.6875,-6.0625 l -16.53125,-7.1875 17.5625,3.8125 c 3.63476,-9.68044 12.68501,-16.71326 23.46875,-17.375 L 149,275.09375 l 1,9.96875 0,-44.125 c -0.4807,0.0203 -0.97473,0.0312 -1.4375,0.0312 -7.6799,0 -17.9862,-2.98401 -25.625,-2.9375 z m 300,0 c -3.73052,0.0228 -6.8193,0.77402 -8.65625,2.9375 -2.32885,2.7428 -3.20437,7.29548 -3.125,12.8125 l -13.75,-6.9375 3,14.625 c -5.56856,-2.00853 -10.4938,-2.75292 -14,-1.3125 -6.91661,2.84151 -7.15608,17.02763 -9.375,27.84375 l 70.71875,0 1.25,-12.90625 1,9.96875 0,-44.125 c -0.4807,0.0203 -0.97473,0.0312 -1.4375,0.0312 -7.6799,0 -17.9862,-2.98403 -25.625,-2.9375 z M 407.65625,384 c 7.80549,7.40773 15.88335,17.62231 22.8125,15.9375 3.88353,-0.94426 7.64798,-4.77219 11.125,-10.09375 l 6.21875,12.125 L 450,397.15625 450,384 l -42.34375,0 z"
       style="fill:#e20909;fill-opacity:1;stroke:none" />
  </g>
</svg>
