<?xml version="1.0" encoding="utf-8"?>
<!-- Generator: Adobe Illustrator 12.0.0, SVG Export Plug-In  -->
<!DOCTYPE svg PUBLIC "-//W3C//DTD SVG 1.0//EN" "http://www.w3.org/TR/2001/REC-SVG-20010904/DTD/svg10.dtd" [
	<!ENTITY ns_flows "http://ns.adobe.com/Flows/1.0/">
	<!ENTITY ns_svg "http://www.w3.org/2000/svg">
	<!ENTITY ns_xlink "http://www.w3.org/1999/xlink">
]>
<svg  version="1.0" xmlns="&ns_svg;" xmlns:xlink="&ns_xlink;" xmlns:a="http://ns.adobe.com/AdobeSVGViewerExtensions/3.0/"
	 width="522" height="661" viewBox="-6.396 -7.377 522 661" enable-background="new -6.396 -7.377 522 661" xml:space="preserve">
<defs>
</defs>
<path id="path1899_10_" fill="#E2150A" d="M1.959,0.643v389.868c0,141.302,113.101,255.849,252.617,255.849
	c139.518,0,252.619-114.547,252.619-255.849V0.643H1.959z"/>
<path fill="#FFDB00" stroke="#000000" stroke-width="2" d="M170.029,2.003l170.079-0.997l0.106,628.552
	c0,0-81.269,33.28-170.144,0.031L170.029,2.003z"/>
<g id="path1899_9_">
	<path d="M510.236,0.516H0v390.218c0,141.431,114.219,256.08,255.117,256.08c140.897,0,255.119-114.649,255.119-256.08V0.516
		L510.236,0.516z M2.5,3.016h505.236v387.718c0,139.824-113.324,253.58-252.619,253.58C115.824,644.313,2.5,530.558,2.5,390.733
		V3.016L2.5,3.016z"/>
</g>
<polygon stroke="#000000" stroke-width="2" points="170,629.516 255,524.849 340.127,629.524 340.09,524.975 255,420.516 
	170.098,524.973 "/>
<polygon stroke="#000000" stroke-width="2" points="170.098,420.531 255,316.016 340.157,420.563 340.157,316.112 255,211.683 
	170.069,316.128 "/>
<polygon stroke="#000000" stroke-width="2" points="170.098,211.761 255.083,107.433 340.157,211.746 340.157,107.351 255.083,3.1 
	170.069,107.337 "/>
</svg>
