<?xml version="1.0" encoding="UTF-8" standalone="no"?>
<!-- Created with Inkscape (http://www.inkscape.org/) -->

<svg
   xmlns:dc="http://purl.org/dc/elements/1.1/"
   xmlns:cc="http://creativecommons.org/ns#"
   xmlns:rdf="http://www.w3.org/1999/02/22-rdf-syntax-ns#"
   xmlns:svg="http://www.w3.org/2000/svg"
   xmlns="http://www.w3.org/2000/svg"
   xmlns:xlink="http://www.w3.org/1999/xlink"
   xmlns:sodipodi="http://sodipodi.sourceforge.net/DTD/sodipodi-0.dtd"
   xmlns:inkscape="http://www.inkscape.org/namespaces/inkscape"
   width="600"
   height="760"
   id="svg2"
   version="1.1"
   inkscape:version="0.48.5 r10040"
   sodipodi:docname="la_cote-aux-fees.svg">
  <defs
     id="defs4">
    <radialGradient
       cx="858.04236"
       cy="579.93323"
       r="300"
       fx="858.04236"
       fy="579.93323"
       id="radialGradient3236"
       xlink:href="#linearGradient2893"
       gradientUnits="userSpaceOnUse"
       gradientTransform="matrix(1.215027,0,0,1.266667,-839.1924,-490.4894)" />
    <linearGradient
       id="linearGradient2893">
      <stop
         id="stop2895"
         style="stop-color:#ffffff;stop-opacity:0.3137255"
         offset="0" />
      <stop
         id="stop2897"
         style="stop-color:#ffffff;stop-opacity:0.25098041"
         offset="0.19" />
      <stop
         id="stop2901"
         style="stop-color:#6b6b6b;stop-opacity:0.1254902"
         offset="0.60000002" />
      <stop
         id="stop2899"
         style="stop-color:#000000;stop-opacity:0.1254902"
         offset="1" />
    </linearGradient>
    <clipPath
       id="clipPath3983-1">
      <path
         inkscape:connector-curvature="0"
         d="m 1.5,1.5 0,458.86794 C 1.5,626.67854 135.81454,761.5 301.49993,761.5 467.1854,761.5 601.5,626.67854 601.5,460.36794 L 601.5,1.5 1.5,1.5 z"
         id="path3985-7"
         style="fill:none;stroke:#000000;stroke-width:3;stroke-miterlimit:4;stroke-opacity:1;stroke-dasharray:none;display:inline" />
    </clipPath>
    <clipPath
       id="clipPath3983-1-5">
      <path
         inkscape:connector-curvature="0"
         d="m 1.5,1.5 0,458.86794 C 1.5,626.67854 135.81454,761.5 301.49993,761.5 467.1854,761.5 601.5,626.67854 601.5,460.36794 L 601.5,1.5 1.5,1.5 z"
         id="path3985-7-2"
         style="fill:none;stroke:#000000;stroke-width:3;stroke-miterlimit:4;stroke-opacity:1;stroke-dasharray:none;display:inline" />
    </clipPath>
  </defs>
  <sodipodi:namedview
     id="base"
     pagecolor="#ffffff"
     bordercolor="#666666"
     borderopacity="1.0"
     inkscape:pageopacity="0.0"
     inkscape:pageshadow="2"
     inkscape:zoom="0.7"
     inkscape:cx="-181.32782"
     inkscape:cy="389.14005"
     inkscape:document-units="px"
     inkscape:current-layer="layer1"
     showgrid="false"
     fit-margin-top="0"
     fit-margin-left="0"
     fit-margin-right="0"
     fit-margin-bottom="0"
     inkscape:window-width="1600"
     inkscape:window-height="1147"
     inkscape:window-x="-8"
     inkscape:window-y="-8"
     inkscape:window-maximized="1" />
  <metadata
     id="metadata7">
    <rdf:RDF>
      <cc:Work
         rdf:about="">
        <dc:format>image/svg+xml</dc:format>
        <dc:type
           rdf:resource="http://purl.org/dc/dcmitype/StillImage" />
        <dc:title />
      </cc:Work>
    </rdf:RDF>
  </metadata>
  <g
     inkscape:label="Layer 1"
     inkscape:groupmode="layer"
     id="layer1"
     transform="translate(-37.142857,-58.076473)">
    <path
       style="fill:#eeeeee;fill-opacity:1"
       id="path2294"
       d="m -1174.629,619.02491 c 0.1323,-0.87951 0.3364,-1.6083 0.4536,-1.61952 0.3006,-0.0288 -0.045,2.57608 -0.4204,3.16817 -0.3551,0.55997 -0.3545,0.58799 -0.033,-1.54865 z"
       inkscape:connector-curvature="0" />
    <path
       style="fill:#000000;fill-opacity:1"
       id="path2292"
       d="m -1159.6109,603.04809 c 0.1328,0.14842 0.1735,0.56279 0.091,0.92081 -0.092,0.39564 -0.1864,0.2898 -0.2414,-0.26987 -0.05,-0.50644 0.018,-0.79936 0.1508,-0.65094 z"
       inkscape:connector-curvature="0" />
    <path
       style="fill:#000000;fill-opacity:1"
       id="path2290"
       d="m -1149.5089,598.9182 c 0.1241,0.32152 0.1602,0.86363 0.08,1.20468 -0.08,0.34105 -0.1813,0.078 -0.2255,-0.58458 -0.044,-0.66258 0.021,-0.94162 0.1452,-0.6201 z"
       inkscape:connector-curvature="0" />
    <path
       style="fill:#000000;fill-opacity:1"
       id="path2278"
       d="m -1135.008,609.28919 c 0.2225,0.37878 0.4189,0.90553 0.4366,1.17055 0.018,0.26503 -0.1499,0.17197 -0.3723,-0.20681 -0.2225,-0.37877 -0.4189,-0.90552 -0.4366,-1.17055 -0.018,-0.26503 0.1499,-0.17196 0.3723,0.20681 z"
       inkscape:connector-curvature="0" />
    <g
       transform="translate(2.25e-5,-167.63116)"
       id="g4408">
      <path
         inkscape:connector-curvature="0"
         d="m 37.142789,225.70762 0,458.86791 c 0,166.31062 134.314701,301.13212 300.000101,301.13212 165.68539,0 299.99999,-134.82149 299.99999,-301.13212 l 0,-458.86791 -600.000091,0 z"
         id="path2346-2-4"
         style="fill:#2b5df2;fill-opacity:1" />
      <path
         inkscape:connector-curvature="0"
         id="path7901"
         d="m 240.31893,348.0063 c -4.82038,-0.0784 -9.6221,3.59968 -10.22102,7.84644 -19.68661,-1.18654 -25.70929,0.25133 -27.08399,7.81203 l 1.30774,-0.13766 c 0.58621,6.50551 2.54901,9.99281 5.12772,12.25146 2.57871,2.25865 5.97802,3.34712 9.70481,4.3706 0.69747,0.1801 1.23172,0.86275 1.23891,1.58306 l 0,10.28985 6.36663,3.51025 c 0.92642,0.50407 1.097,1.98251 0.30973,2.68431 -4.45047,4.03988 -6.32228,7.35278 -6.67636,10.01453 -0.35408,2.66176 0.66618,4.92294 2.78755,7.29582 l -2.47782,2.20251 c -2.50578,-2.80285 -4.08185,-6.16618 -3.57908,-9.94571 0.43531,-3.27247 2.6303,-6.69925 6.22897,-10.35868 l -5.43744,-2.99404 c -0.50365,-0.29078 -0.83112,-0.86385 -0.82594,-1.44539 l 0,-10.01454 c -3.4125,-0.96774 -6.92343,-2.12359 -9.84247,-4.68033 -3.12973,-2.74129 -5.3838,-7.03704 -6.12573,-13.62803 -18.05583,4.59488 -63.32629,32.83134 -64.07927,47.25071 -2.37172,5.57287 -4.58566,11.10135 4.54268,12.49237 l 17.6889,-0.4818 c -2.07872,5.12583 -22.40571,3.92682 -17.48242,9.9457 2.79389,3.85522 7.96666,11.59134 18.75575,5.02448 6.51298,-2.03086 11.7497,-4.77425 19.3752,5.12772 14.07349,1.93858 17.33459,3.74184 21.02709,6.19456 -4.16203,9.90994 -3.37514,11.59291 -5.88483,16.17468 -6.84526,2.51456 -13.07262,8.88225 -5.60952,18.44602 l -0.79153,4.81799 c -7.05488,-0.0118 -10.58639,11.78726 -3.23493,17.24152 l 0,4.02646 c -6.36631,4.29483 -7.98908,12.0751 0.41297,18.44602 l 0,3.20052 c -7.6411,3.31236 -12.70142,15.75247 1.61747,20.88943 l 0,2.409 c -7.04085,3.66295 -10.93787,16.62254 3.61349,19.65051 l 0.37856,6.02249 c -8.63558,5.91273 -4.98906,16.88191 1.20449,16.41558 9.1396,3.07913 1.84555,5.399 2.51224,12.87092 0.24796,0.95742 0.49554,1.99759 0.7227,3.20052 -0.41344,-1.1649 -0.63569,-2.22536 -0.7227,-3.20052 -3.12123,-12.05183 -7.65492,-5.68347 -7.70878,-6.02249 -3.59593,20.60689 -23.77332,28.23084 -38.92248,40.09256 -12.92765,16.0214 -10.90642,31.77183 -10.42751,50.14151 3.02008,18.72041 7.93144,16.60983 11.21904,46.56243 4.41418,20.94774 13.50286,14.31145 15.24549,27.25606 0.24592,8.11528 2.76558,11.26139 7.53672,9.4295 l 0.34414,5.67834 c 7.01899,5.4711 20.18733,20.03765 27.70344,4.40502 1.83421,-19.32864 1.67514,-34.90465 -13.93776,-40.47111 0.0123,-0.23333 0.0247,-0.45096 0.0344,-0.68829 9.10267,-1.69868 8.10125,-8.99056 -0.82594,-12.8365 -52.12681,-40.63938 -10.40079,-75.45789 14.041,-77.01901 7.08915,13.59302 19.67474,0.71988 23.29842,-8.43149 l -2.92521,6.74519 c 5.50039,8.01425 8.7583,15.59611 8.91328,22.54131 0.16029,20.17788 12.66788,15.13405 12.83651,31.28252 -0.93746,13.90804 -1.83176,22.96783 3.61349,32.89999 8.00721,24.21808 -3.57978,45.89427 -12.18263,69.92969 -0.0133,-0.008 -0.0211,-0.0261 -0.0344,-0.0344 -2.98269,6.70273 -12.43205,12.22563 -4.81799,20.85502 12.97055,6.36578 25.9519,6.18953 38.92248,0.79152 10.72909,-6.97416 8.96337,-13.15865 4.26736,-19.16871 9.48697,-8.54456 2.48397,-9.86681 7.53672,-21.02709 8.09714,-22.40778 -13.01436,-27.63441 -7.60555,-52.96348 4.67924,-5.92783 4.00583,-10.2052 2.409,-14.041 0.75046,-12.99997 -0.68811,-27.33677 4.81799,-32.48702 6.94895,1.02412 14.09774,-2.34739 13.62803,-14.041 1.40382,-4.04483 0.68002,-7.01163 0,-10.01453 8.84498,-7.97343 4.73775,-13.70274 -0.79153,-18.48044 l 7.22699,-2.37458 c 4.88272,6.6994 13.59574,9.86068 23.26401,2.37458 l 8.01851,0 c 9.27539,8.073 16.397,6.06852 22.47248,-0.79152 l 3.20052,8.01851 c -6.23814,17.59864 6.25238,23.84288 12.42353,23.26401 l 2.82197,4.81799 c -1.66706,3.91342 -7.18101,10.90721 6.02249,17.24152 4.92046,17.62241 1.4805,41.32804 -29.69947,70.205 -6.18953,4.88122 -15.58677,5.99028 -11.49435,23.02311 -10.22291,13.10121 -18.90367,35.59864 6.67636,32.96882 26.42258,-5.21147 29.75081,-14.50692 30.07802,-24.53734 5.93415,-0.62399 11.44793,-0.41411 8.84446,-10.56516 2.12617,-18.28034 8.59795,-37.36506 22.47248,-57.78147 11.24611,-8.53393 8.57227,-14.28183 3.99205,-19.65052 -10.57751,-27.46177 7.20361,-36.54712 16.03702,-48.93701 l 3.61349,4.40502 c -0.66253,14.647 5.64674,19.53463 15.65847,19.23755 -3.58589,11.42059 -0.48538,20.52534 13.24948,21.68095 18.28001,26.40645 14.47592,67.20472 -1.2045,81.42403 -6.85134,6.518 -8.38568,11.79035 -6.71077,15.76171 -13.49438,13.6574 -17.82057,24.26641 0.27531,27.39372 6.6611,-0.60576 48.40156,1.64189 32.24612,-19.89142 0.48398,-0.12075 0.97305,-0.24082 1.4454,-0.37855 9.90529,-4.9999 7.65749,-8.84612 7.22698,-12.45795 -0.70991,-7.16967 0.30858,-8.8462 3.20052,-11.21903 7.10932,-8.40825 4.68964,-15.47446 4.81799,-22.88546 -0.76214,-12.07328 -1.82469,-24.54169 -1.58305,-37.68356 4.02046,-36.63003 -1.37641,-26.77005 -13.66244,-39.33545 l 0.41297,-17.65449 c 9.44764,-6.38396 7.95873,-11.91851 3.61349,-17.24152 l 0,-5.19655 c 8.02303,-5.08122 7.86981,-12.17109 3.99205,-16.44999 l 0.82594,-4.40502 c 10.14574,-10.41191 7.07866,-14.72903 3.61349,-18.85899 l 0.37856,-5.60952 c 7.43727,-7.03166 4.35655,-10.18338 2.82196,-15.2455 l 0.41297,-6.02248 c 10.35597,-11.09851 -2.2539,-14.58109 -0.82594,-20.06349 24.65179,-3.51582 23.02633,14.17631 20.47646,37.68356 -2.04557,11.02098 0.68293,12.59971 3.54467,16.51883 -1.46134,11.65892 1.63979,15.18737 10.73723,17.03503 1.6623,9.60806 5.02782,18.02115 19.27196,9.32625 11.21456,6.89151 23.93961,-1.9052 14.55721,-16.17468 9.92515,-6.94289 9.36321,-26.45913 -10.53075,-21.0615 l -2.6843,-5.29978 c 4.47792,-6.49071 4.71121,-13.74491 -3.6135,-19.16872 l 0.41297,-5.60952 c 4.81382,-5.88356 3.20502,-11.25764 -4.81799,-16.07144 l -2.40899,-6.02249 c 1.26488,-12.69588 -5.39954,-14.84023 -13.66245,-14.83252 l -6.40104,-3.61349 c -6.28471,-7.76278 -12.57431,-5.34412 -18.85899,-0.37856 l -2.78755,-2.03044 c 0.83187,-6.82429 -1.75899,-7.94289 -4.02646,-9.60157 1.94648,-12.56765 -10.61859,-13.94199 -14.45397,-11.632 l -1.58306,-1.61747 c 1.09901,-10.48848 -10.36077,-13.9842 -18.48043,-7.63995 2.53562,-10.14742 -13.75948,-14.67847 -19.23755,-6.40105 l -3.20052,-0.79153 c -1.79546,-6.80139 -17.30798,-12.91878 -21.68095,-1.61746 l -3.20053,0 c -7.22126,-8.68272 -14.973,-8.84603 -23.26401,-0.41297 l -6.43545,0 c -9.43156,-8.13322 -16.18103,-3.85921 -22.43807,2.82196 -6.68582,-6.41839 -12.86432,-6.41839 -18.48044,0 l -8.01851,0 c -8.42418,-5.85169 -14.43663,-4.67709 -20.85501,0.79153 l -2.409,0 c -3.68956,-8.25212 -9.49514,-13.37008 -21.64654,-6.81402 l -1.61747,-1.99602 c 5.70209,-9.2106 -0.38389,-13.27708 -5.60951,-16.03702 7.90103,-5.0963 8.41265,-13.51066 0.41297,-17.6545 l -0.41297,-3.61349 c 9.495,-12.64656 -12.41155,-10.94103 13.62803,-22.88545 15.26561,-8.60186 24.00606,-13.461 -2.409,-24.84707 -11.85006,-7.60578 -5.5355,-1.36568 -3.99205,-8.43148 12.0296,0.57946 15.34191,0.56717 24.05554,-9.63598 11.03593,-13.71497 7.88013,-18.87137 -4.81799,-17.24152 -13.23798,4.03948 -24.06806,3.45626 -38.50951,-4.40502 1.4438,-9.36633 -6.52544,-17.26792 -16.82855,-9.25742 l -5.60952,-3.20053 c -1.80204,-6.08629 -5.57706,-8.40488 -9.32625,-8.46589 z m -52.79141,39.33545 c 0.30265,0.011 0.59496,0.0372 0.89477,0.0688 1.19927,0.12637 2.36038,0.40908 3.54467,0.75712 4.73715,1.39216 9.65092,3.85885 15.96819,3.95763 l -0.0688,3.30377 c -2.10401,-0.0329 -4.03078,-0.2712 -5.85042,-0.65387 -1.95113,2.80116 -3.87427,4.55125 -5.816,5.47186 -2.2299,1.05722 -4.55388,0.7916 -6.22898,-0.34415 -1.67509,-1.13574 -2.74983,-2.91179 -3.37259,-4.8524 -0.4423,-1.37828 -0.64765,-2.85274 -0.58504,-4.30178 -0.1641,0.0238 -0.35468,0.0335 -0.51621,0.0688 -1.64311,0.35944 -3.32186,1.31079 -5.23096,3.61349 l -2.51224,-2.09926 c 2.23383,-2.69438 4.57415,-4.214 7.0205,-4.74917 0.91738,-0.20065 1.84519,-0.27297 2.75313,-0.24089 z m 1.78954,3.57907 c -0.0433,1.01273 0.0911,2.09414 0.41297,3.09728 0.45362,1.41353 1.26505,2.6005 2.09927,3.16611 0.83422,0.56556 1.60146,0.74722 2.95962,0.10324 1.01863,-0.48294 2.32408,-1.55501 3.78557,-3.44142 -2.8501,-0.86393 -5.36062,-1.87273 -7.53672,-2.51224 -0.61154,-0.17972 -1.16413,-0.30084 -1.72071,-0.41297 z m -36.37582,17.31035 c -1.48077,2.39698 -4.533,3.22116 -9.22301,2.409 l 1.2045,-0.79153 8.01851,-1.61747 z"
         style="fill:#ffffff;fill-opacity:1;fill-rule:evenodd;stroke:none" />
      <path
         inkscape:connector-curvature="0"
         transform="translate(37.142836,225.70764)"
         id="path3391"
         d="m 563.6875,602.5625 -527.375,0 C 87.140341,696.34521 186.15615,760 300,760 413.84385,760 512.85969,696.34521 563.6875,602.5625 z"
         style="fill:#33a02c;fill-opacity:1;stroke:none" />
    </g>
  </g>
</svg>
