<?xml version="1.0" encoding="UTF-8" standalone="no"?>
<!-- Created with Inkscape (http://www.inkscape.org/) -->

<svg
   xmlns:dc="http://purl.org/dc/elements/1.1/"
   xmlns:cc="http://creativecommons.org/ns#"
   xmlns:rdf="http://www.w3.org/1999/02/22-rdf-syntax-ns#"
   xmlns:svg="http://www.w3.org/2000/svg"
   xmlns="http://www.w3.org/2000/svg"
   xmlns:xlink="http://www.w3.org/1999/xlink"
   xmlns:sodipodi="http://sodipodi.sourceforge.net/DTD/sodipodi-0.dtd"
   xmlns:inkscape="http://www.inkscape.org/namespaces/inkscape"
   width="600"
   height="760"
   id="svg2"
   version="1.1"
   inkscape:version="0.91 r13725"
   sodipodi:docname="les_brenets.svg">
  <defs
     id="defs4">
    <radialGradient
       cx="858.04236"
       cy="579.93323"
       r="300"
       fx="858.04236"
       fy="579.93323"
       id="radialGradient3236"
       xlink:href="#linearGradient2893"
       gradientUnits="userSpaceOnUse"
       gradientTransform="matrix(1.215027,0,0,1.266667,-839.1924,-490.4894)" />
    <linearGradient
       id="linearGradient2893">
      <stop
         id="stop2895"
         style="stop-color:#ffffff;stop-opacity:0.3137255"
         offset="0" />
      <stop
         id="stop2897"
         style="stop-color:#ffffff;stop-opacity:0.25098041"
         offset="0.19" />
      <stop
         id="stop2901"
         style="stop-color:#6b6b6b;stop-opacity:0.1254902"
         offset="0.60000002" />
      <stop
         id="stop2899"
         style="stop-color:#000000;stop-opacity:0.1254902"
         offset="1" />
    </linearGradient>
    <clipPath
       id="clipPath3983-1">
      <path
         inkscape:connector-curvature="0"
         d="m 1.5,1.5 0,458.86794 C 1.5,626.67854 135.81454,761.5 301.49993,761.5 467.1854,761.5 601.5,626.67854 601.5,460.36794 L 601.5,1.5 1.5,1.5 z"
         id="path3985-7"
         style="fill:none;stroke:#000000;stroke-width:3;stroke-miterlimit:4;stroke-opacity:1;stroke-dasharray:none;display:inline" />
    </clipPath>
    <clipPath
       id="clipPath3983-1-5">
      <path
         inkscape:connector-curvature="0"
         d="m 1.5,1.5 0,458.86794 C 1.5,626.67854 135.81454,761.5 301.49993,761.5 467.1854,761.5 601.5,626.67854 601.5,460.36794 L 601.5,1.5 1.5,1.5 z"
         id="path3985-7-2"
         style="fill:none;stroke:#000000;stroke-width:3;stroke-miterlimit:4;stroke-opacity:1;stroke-dasharray:none;display:inline" />
    </clipPath>
  </defs>
  <sodipodi:namedview
     id="base"
     pagecolor="#ffffff"
     bordercolor="#666666"
     borderopacity="1.0"
     inkscape:pageopacity="0.0"
     inkscape:pageshadow="2"
     inkscape:zoom="1.4"
     inkscape:cx="350.32754"
     inkscape:cy="184.23797"
     inkscape:document-units="px"
     inkscape:current-layer="layer1"
     showgrid="false"
     fit-margin-top="0"
     fit-margin-left="0"
     fit-margin-right="0"
     fit-margin-bottom="0"
     inkscape:window-width="1920"
     inkscape:window-height="1017"
     inkscape:window-x="1912"
     inkscape:window-y="-8"
     inkscape:window-maximized="1" />
  <metadata
     id="metadata7">
    <rdf:RDF>
      <cc:Work
         rdf:about="">
        <dc:format>image/svg+xml</dc:format>
        <dc:type
           rdf:resource="http://purl.org/dc/dcmitype/StillImage" />
        <dc:title />
      </cc:Work>
    </rdf:RDF>
  </metadata>
  <g
     inkscape:label="Layer 1"
     inkscape:groupmode="layer"
     id="layer1"
     transform="translate(-37.142857,-58.076473)">
    <path
       style="fill:#eeeeee;fill-opacity:1"
       id="path2294"
       d="m -1174.629,619.02491 c 0.1323,-0.87951 0.3364,-1.6083 0.4536,-1.61952 0.3006,-0.0288 -0.045,2.57608 -0.4204,3.16817 -0.3551,0.55997 -0.3545,0.58799 -0.033,-1.54865 z"
       inkscape:connector-curvature="0" />
    <path
       style="fill:#000000;fill-opacity:1"
       id="path2292"
       d="m -1159.6109,603.04809 c 0.1328,0.14842 0.1735,0.56279 0.091,0.92081 -0.092,0.39564 -0.1864,0.2898 -0.2414,-0.26987 -0.05,-0.50644 0.018,-0.79936 0.1508,-0.65094 z"
       inkscape:connector-curvature="0" />
    <path
       style="fill:#000000;fill-opacity:1"
       id="path2290"
       d="m -1149.5089,598.9182 c 0.1241,0.32152 0.1602,0.86363 0.08,1.20468 -0.08,0.34105 -0.1813,0.078 -0.2255,-0.58458 -0.044,-0.66258 0.021,-0.94162 0.1452,-0.6201 z"
       inkscape:connector-curvature="0" />
    <path
       style="fill:#000000;fill-opacity:1"
       id="path2278"
       d="m -1135.008,609.28919 c 0.2225,0.37878 0.4189,0.90553 0.4366,1.17055 0.018,0.26503 -0.1499,0.17197 -0.3723,-0.20681 -0.2225,-0.37877 -0.4189,-0.90552 -0.4366,-1.17055 -0.018,-0.26503 0.1499,-0.17196 0.3723,0.20681 z"
       inkscape:connector-curvature="0" />
    <path
       inkscape:connector-curvature="0"
       style="fill:#ffffff;fill-opacity:1"
       d="m 637.14287,461.07642 -600.000023,0 0,55.87499 c 0,166.31066 134.314643,301.12506 300.000033,301.12506 165.68547,0 299.99999,-134.8144 299.99999,-301.12506 l 0,-55.87499 z"
       id="path3033" />
    <path
       inkscape:connector-curvature="0"
       style="fill:#e20909;fill-opacity:1"
       d="m 37.142855,58.07647 0,279.84375 120.000005,0 120,0 120,0 120,0 120,0 0,-279.84375 -600.000005,0 z"
       id="path2346-7-3-7" />
    <path
       inkscape:connector-curvature="0"
       style="fill:#2b5df2;fill-opacity:1"
       d="m 37.142855,461.07647 0,27.6875 c 26.875454,-0.12618 72.968755,-0.90625 72.968755,-0.90625 l 0.65625,0.0937 -0.40625,0 0,61.65625 c -11.465088,-1.87773 -23.185062,-2.93754 -35.125005,-3.09375 l 0,-57.71875 -2.5,0 0,57.6875 c -0.209083,-5.5e-4 -0.415793,0 -0.625,0 -4.23772,0 -8.472097,0.12189 -12.65625,0.34375 l 0,-56.90625 -2.5,0 0,57.0625 c -6.103483,0.3886 -12.152448,1.00117 -18.125,1.84375 0.08319,0.79339 0.160685,1.58345 0.25,2.375 10.804765,-1.54086 21.821627,-2.34375 33.03125,-2.34375 80.292085,0 151.464745,40.84952 195.250005,103.6875 l 1.625,0 0,2.5 0.0937,0 c 27.67579,40.75963 43.9375,90.49618 43.9375,144.21875 0,5.97898 -0.19757,11.90763 -0.59375,17.78125 0.86375,0.0707 1.72795,0.15542 2.59375,0.21875 0.40475,-5.95217 0.625,-11.94182 0.625,-18 0,-53.60539 -16.09095,-103.31017 -43.53125,-144.21875 l 108.15625,0 0,-0.0312 c 65.6275,1.72771 124.78015,30.74303 167.28125,76.5625 0.59265,-0.58545 1.19345,-1.15965 1.78125,-1.75 -38.79062,-41.71826 -91.28584,-69.62892 -150,-75.90625 3.58537,-74.65346 78.18526,-134.125 169.5,-134.125 24.17267,0 47.14279,4.17498 67.96875,11.6875 0.22791,-4.81448 0.3438,-9.66013 0.3438,-14.53125 l 0,-55.875 -600.000005,0 z m 75.718755,27.15625 160.71875,22.65625 0,94.15625 2.5,0 0,-93.9375 41.125,-5.40625 0,69.59375 2.5,0 0,-69.9375 1.78125,-0.21875 30.34375,4.96875 0,113.53125 2.5,0 0,-112.9375 31.15625,16.96875 -0.5625,0 0,114.40625 2.5,0 0,-113.625 10.6875,0.34375 0,20.53125 2.5,0 0,-20.4375 60.03125,1.84375 c 0,0 10.67145,1.67319 25.84375,4.125 -51.78967,23.1686 -87.50026,67.4843 -90.0625,118.78125 -5.34165,-0.50454 -10.7201,-0.85915 -16.15625,-1 l 0,-0.0937 -109.84375,0 c -36.65666,-53.26717 -92.74962,-91.1652 -157.5625,-102.5 l 0,-61.8125 z m 80.3125,12.1875 0,56.71875 2.5,0 0,-56.71875 -2.5,0 z m 42.71875,20.65625 0,56.75 2.5,0 0,-56.75 -2.5,0 z"
       id="path3033-1" />
    <g
       id="g3609"
       transform="translate(-207.01057,-243.18728)">
      <path
         inkscape:connector-curvature="0"
         id="path2346-7-3-7-4"
         d="m 244.15343,581.1075 0,61.5625 120,0 0,-61.5625 -120,0 z m 120,61.5625 0,61.59375 120,0 0,-61.59375 -120,0 z m 120,0 120,0 0,-61.5625 -120,0 0,61.5625 z m 120,0 0,61.59375 120,0 0,-61.59375 -120,0 z m 120,0 120,0 0,-61.5625 -120,0 0,61.5625 z"
         style="fill:#ffff00;fill-opacity:1" />
      <path
         inkscape:connector-curvature="0"
         id="path3446-1"
         d="m 364.15346,581.1075 0,61.5625 119.99995,0 0,-61.5625 -119.99995,0 z m 119.99995,61.5625 0,61.59375 120,0 0,-61.59375 -120,0 z m 120,0 120,0 0,-61.5625 -120,0 0,61.5625 z m 120,0 0,61.59375 120,0 0,-61.59375 -120,0 z m -359.99995,0 -120,0 0,61.59375 120,0 0,-61.59375 z"
         style="fill:#000000;fill-opacity:1" />
    </g>
    <path
       inkscape:connector-curvature="0"
       style="fill:#ffffff;fill-opacity:1"
       d="m 337.14286,58.07647 -300.000005,279.84375 94.625005,0 205.375,-191.5625 205.375,191.5625 94.625,0 -300,-279.84375 z"
       id="path2346-7-3-7-2" />
    <g
       id="g8165"
       transform="translate(-196.42857,2.8571428)">
      <path
         id="path8363"
         d="m 811.83809,469.2824 -6.08446,9.31512 -6.08447,9.31514 7.81255,0 -3.74025,5.74931 -7.77438,11.95054 9.56105,0 -2.61853,4.03232 -8.87612,13.66797 14.39816,0 0,14.25301 6.98069,0 0,-14.25301 14.12562,0 -8.87612,-13.66797 -2.61854,-4.03232 9.02172,0 -7.77437,-11.95054 -3.74026,-5.74931 8.45664,0 -6.08446,-9.31514 -6.08447,-9.31512 z"
         style="opacity:1;fill:#33a02c;fill-opacity:1;stroke:none;stroke-width:4.25457716;stroke-linecap:round;stroke-miterlimit:4;stroke-dasharray:none;stroke-dashoffset:0;stroke-opacity:1"
         inkscape:connector-curvature="0" />
      <path
         id="path8363-4"
         d="m 790.76666,482.50619 -6.08446,9.31512 -6.08447,9.31514 7.81255,0 -3.74025,5.74931 -7.77438,11.95054 9.56105,0 -2.61853,4.03232 -8.87612,13.66797 14.39816,0 0,14.25301 6.98069,0 0,-14.25301 14.12562,0 -8.87612,-13.66797 -2.61854,-4.03232 9.02172,0 -7.77437,-11.95054 -3.74026,-5.74931 8.45664,0 -6.08446,-9.31514 -6.08447,-9.31512 z"
         style="opacity:1;fill:#33a02c;fill-opacity:1;stroke:none;stroke-width:4.25457716;stroke-linecap:round;stroke-miterlimit:4;stroke-dasharray:none;stroke-dashoffset:0;stroke-opacity:1"
         inkscape:connector-curvature="0" />
      <path
         id="path8363-5"
         d="m 759.33809,475.36334 -6.08446,9.31512 -6.08447,9.31514 7.81255,0 -3.74025,5.74931 -7.77438,11.95054 9.56105,0 -2.61853,4.03232 -8.87612,13.66797 14.39816,0 0,14.25301 6.98069,0 0,-14.25301 14.12562,0 -8.87612,-13.66797 -2.61854,-4.03232 9.02172,0 -7.77437,-11.95054 -3.74026,-5.74931 8.45664,0 -6.08446,-9.31514 -6.08447,-9.31512 z"
         style="opacity:1;fill:#33a02c;fill-opacity:1;stroke:none;stroke-width:4.25457716;stroke-linecap:round;stroke-miterlimit:4;stroke-dasharray:none;stroke-dashoffset:0;stroke-opacity:1"
         inkscape:connector-curvature="0" />
      <path
         id="path8363-1"
         d="m 728.27825,490.36334 -7.43095,11.06907 -7.43096,11.0691 9.54146,0 -4.56796,6.83185 -9.49485,14.20072 11.67691,0 -3.19801,4.79157 -10.84041,16.24152 17.58447,0 0,16.93672 8.52552,0 0,-16.93672 17.25162,0 -10.8404,-16.24152 -3.19803,-4.79157 11.01823,0 -9.49484,-14.20072 -4.56798,-6.83185 10.3281,0 -7.43095,-11.0691 -7.43097,-11.06907 z"
         style="opacity:1;fill:#33a02c;fill-opacity:1;stroke:none;stroke-width:4.25457716;stroke-linecap:round;stroke-miterlimit:4;stroke-dasharray:none;stroke-dashoffset:0;stroke-opacity:1"
         inkscape:connector-curvature="0" />
      <path
         id="path8363-2"
         d="m 690.05237,511.07763 -6.08446,9.31512 -6.08447,9.31514 7.81255,0 -3.74025,5.74931 -7.77438,11.95054 9.56105,0 -2.61853,4.03232 -8.87612,13.66796 14.39816,0 0,14.25301 6.98069,0 0,-14.25301 14.12562,0 -8.87612,-13.66796 -2.61854,-4.03232 9.02172,0 -7.77437,-11.95054 -3.74026,-5.74931 8.45664,0 -6.08446,-9.31514 -6.08447,-9.31512 z"
         style="opacity:1;fill:#33a02c;fill-opacity:1;stroke:none;stroke-width:4.25457716;stroke-linecap:round;stroke-miterlimit:4;stroke-dasharray:none;stroke-dashoffset:0;stroke-opacity:1"
         inkscape:connector-curvature="0" />
      <path
         id="path8363-9"
         d="m 660.76666,520.36334 -6.08446,9.31512 -6.08447,9.31514 7.81255,0 -3.74025,5.74931 -7.77438,11.95054 9.56105,0 -2.61853,4.03232 -8.87612,13.66797 14.39816,0 0,14.25301 6.98069,0 0,-14.25301 14.12562,0 -8.87612,-13.66797 -2.61854,-4.03232 9.02172,0 -7.77437,-11.95054 -3.74026,-5.74931 8.45664,0 -6.08446,-9.31514 -6.08447,-9.31512 z"
         style="opacity:1;fill:#33a02c;fill-opacity:1;stroke:none;stroke-width:4.25457716;stroke-linecap:round;stroke-miterlimit:4;stroke-dasharray:none;stroke-dashoffset:0;stroke-opacity:1"
         inkscape:connector-curvature="0" />
    </g>
  </g>
</svg>
