<?xml version="1.0" encoding="UTF-8" standalone="no"?>
<!-- Created with Inkscape (http://www.inkscape.org/) -->

<svg
   xmlns:dc="http://purl.org/dc/elements/1.1/"
   xmlns:cc="http://creativecommons.org/ns#"
   xmlns:rdf="http://www.w3.org/1999/02/22-rdf-syntax-ns#"
   xmlns:svg="http://www.w3.org/2000/svg"
   xmlns="http://www.w3.org/2000/svg"
   xmlns:sodipodi="http://sodipodi.sourceforge.net/DTD/sodipodi-0.dtd"
   xmlns:inkscape="http://www.inkscape.org/namespaces/inkscape"
   width="600.00012"
   height="760"
   id="svg10624"
   version="1.1"
   inkscape:version="0.91 r13725"
   sodipodi:docname="neuchatel.svg">
  <defs
     id="defs10626" />
  <sodipodi:namedview
     id="base"
     pagecolor="#ffffff"
     bordercolor="#666666"
     borderopacity="1.0"
     inkscape:pageopacity="0.0"
     inkscape:pageshadow="2"
     inkscape:zoom="0.98994949"
     inkscape:cx="485.47574"
     inkscape:cy="422.85717"
     inkscape:document-units="px"
     inkscape:current-layer="layer1"
     showgrid="false"
     fit-margin-top="0"
     fit-margin-left="0"
     fit-margin-right="0"
     fit-margin-bottom="0"
     inkscape:window-width="1920"
     inkscape:window-height="1017"
     inkscape:window-x="1912"
     inkscape:window-y="-8"
     inkscape:window-maximized="1" />
  <metadata
     id="metadata10629">
    <rdf:RDF>
      <cc:Work
         rdf:about="">
        <dc:format>image/svg+xml</dc:format>
        <dc:type
           rdf:resource="http://purl.org/dc/dcmitype/StillImage" />
        <dc:title></dc:title>
      </cc:Work>
    </rdf:RDF>
  </metadata>
  <g
     inkscape:label="Layer 1"
     inkscape:groupmode="layer"
     id="layer1"
     transform="translate(-74.999948,-152.36217)">
    <path
       style="fill:#ffff00;fill-opacity:1"
       id="path2346-2-7"
       d="m 74.999959,152.36216 0,458.86789 c 0,166.31063 134.314701,301.13213 300.000101,301.13213 165.6854,0 300,-134.8215 300,-301.13213 l 0,-458.86789 -600.000101,0 z"
       inkscape:connector-curvature="0" />
    <path
       style="fill:#e20909;fill-opacity:1;stroke:none;stroke-width:3.3146646;stroke-linecap:butt;stroke-linejoin:miter;stroke-miterlimit:3.86400008;stroke-dasharray:none;stroke-opacity:1"
       d="m 290.84343,626.71575 -7.48737,4.03145 -42.59841,92.34673 -54.70064,-55.49855 c 0,0 -33.96937,-12.0898 -19.57387,21.87345 l -0.57817,-9.21662 c 0,0 9.78824,-5.74907 10.36511,0.58339 0,0 2.29944,9.21015 10.36248,8.06292 0,0 3.45443,10.93541 11.51096,10.93541 0,0 -0.5758,10.94837 16.70399,15.55027 0,0 7.94787,5.26412 8.57305,12.32196 l -67.87807,5.52788 c 0,0 -26.48356,9.78533 0,23.59748 0,0 -4.03307,-17.27311 12.08651,-8.63322 0,0 2.88541,2.88565 10.3651,-2.29958 0,0 8.63828,4.60838 16.11797,-1.15371 0,0 12.67104,5.76078 23.03501,0.57555 l 6.91181,0.57816 2.62921,7.70451 -22.20569,48.13938 c 0,0 -4.0316,14.38859 2.87773,22.45162 0,0 6.33348,9.7949 17.2743,-1.72927 l -8.0629,-1.14848 c 0,0 -7.48493,-6.90772 1.14847,-13.81055 0,0 4.03152,-2.87762 2.30744,-10.94065 0,0 10.94065,-1.14827 8.63322,-14.39654 0,0 16.12589,-3.45429 12.09435,-20.72759 0,0 3.45436,-15.54386 16.69614,-9.2114 0,0 10.94047,3.44818 19.57388,-3.46113 0,0 2.30081,-5.17863 5.75547,-3.44806 0,0 7.48599,3.44961 13.24808,-5.17732 0,0 9.78022,6.90807 21.29791,-5.76333 0,0 10.36522,-3.1e-4 3.45591,17.84984 0,0 25.91188,-23.02834 0.57555,-30.51451 l -71.9697,11.5188 53.01585,-90.91832 -11.56068,-15.59997 z"
       id="path8381"
       inkscape:connector-curvature="0" />
    <path
       inkscape:connector-curvature="0"
       style="fill:#e20909;fill-opacity:1;stroke:none;stroke-width:3.3146646;stroke-linecap:butt;stroke-linejoin:miter;stroke-miterlimit:3.86400008;stroke-dasharray:none;stroke-opacity:1"
       d="m 447.10155,626.71575 7.48737,4.03145 42.59842,92.34673 54.70063,-55.49855 c 0,0 33.96938,-12.0898 19.57388,21.87345 l 0.57816,-9.21662 c 0,0 -9.78824,-5.74907 -10.3651,0.58339 0,0 -2.29945,9.21015 -10.36249,8.06292 0,0 -3.45442,10.93541 -11.51095,10.93541 0,0 0.57579,10.94837 -16.70399,15.55027 0,0 -7.94788,5.26412 -8.57306,12.32196 l 67.87808,5.52788 c 0,0 26.48356,9.78533 0,23.59748 0,0 4.03306,-17.27311 -12.08652,-8.63322 0,0 -2.88541,2.88565 -10.3651,-2.29958 0,0 -8.63827,4.60838 -16.11797,-1.15371 0,0 -12.67104,5.76078 -23.035,0.57555 l -6.91182,0.57816 -2.62921,7.70451 22.2057,48.13938 c 0,0 4.03159,14.38859 -2.87774,22.45162 0,0 -6.33347,9.7949 -17.2743,-1.72927 l 8.06291,-1.14848 c 0,0 7.48493,-6.90772 -1.14848,-13.81055 0,0 -4.03152,-2.87762 -2.30743,-10.94065 0,0 -10.94065,-1.14827 -8.63322,-14.39654 0,0 -16.1259,-3.45429 -12.09436,-20.72759 0,0 -3.45435,-15.54386 -16.69614,-9.2114 0,0 -10.94046,3.44818 -19.57387,-3.46113 0,0 -2.30082,-5.17863 -5.75548,-3.44806 0,0 -7.48599,3.44961 -13.24808,-5.17732 0,0 -9.78021,6.90807 -21.2979,-5.76333 0,0 -10.36523,-3.1e-4 -3.45591,17.84984 0,0 -25.91188,-23.02834 -0.57555,-30.51451 l 71.9697,11.5188 -53.01585,-90.91832 11.56067,-15.59997 z"
       id="path8381-3" />
    <path
       style="fill:#231f20;fill-opacity:1;fill-rule:nonzero;stroke:none"
       d="M 340.41602 34.498047 C 299.08374 34.740077 267.16211 60.037109 267.16211 60.037109 C 265.7297 65.799199 262.26758 67.525391 262.26758 67.525391 C 212.75512 96.601561 236.64648 113.29688 236.64648 113.29688 C 241.83171 117.3284 240.67969 110.41797 240.67969 110.41797 C 242.11859 96.599319 261.98242 101.49219 261.98242 101.49219 C 281.27149 113.0099 299.69336 113.01172 299.69336 113.01172 C 314.08887 118.48213 302 123.08789 302 123.08789 C 296.81477 127.68977 293.35937 123.08789 293.35938 123.08789 C 279.8324 114.1628 261.98242 117.61328 261.98242 117.61328 C 232.90625 127.69207 217.6483 122.2207 217.64844 122.2207 C 211.89281 122.2207 216.21094 125.96094 216.21094 125.96094 C 229.7444 137.77029 251.32617 132.00781 251.32617 132.00781 C 274.64673 121.64383 286.45117 125.67578 286.45117 125.67578 C 293.0753 127.11468 287.88867 129.99219 287.88867 129.99219 C 284.14882 134.02371 267.16211 137.48047 267.16211 137.48047 C 263.71393 139.78142 266.87695 141.79688 266.87695 141.79688 C 276.37889 143.52744 284.72801 141.79534 291.63086 139.49414 C 298.54665 137.19319 294.51367 145.82812 294.51367 145.82812 C 257.08927 182.67566 262.26758 204.55469 262.26758 204.55469 C 245.43836 195.9096 231.62759 194.47754 226.51172 194.24805 C 225.52297 194.45421 224.27344 194.19336 224.27344 194.19336 C 224.27344 194.19336 225.15317 194.18815 226.51172 194.24805 C 228.02705 193.93208 228.92172 192.50765 223.69727 187.2832 C 215.05738 178.64979 203.53711 183.25195 203.53711 183.25195 C 190.87219 189.01405 161.51172 194.76758 161.51172 194.76758 C 161.51172 194.76758 148.27102 195.91587 144.81641 188.42969 C 141.36172 180.95 155.75586 174.61914 155.75586 174.61914 L 181.08594 169.43359 C 214.47883 161.37703 193.17969 141.22656 193.17969 141.22656 C 193.17969 141.22656 161.05924 102.27139 143.08594 61.191406 C 139.06089 51.981146 140.78516 43.345703 140.78516 43.345703 C 140.78516 43.345703 141.93742 42.194048 133.88086 41.617188 C 125.81784 41.040337 133.30475 41.617188 133.30469 41.617188 C 133.30471 41.617188 115.45476 43.918184 110.26953 50.833984 C 105.09078 57.736814 102.78446 61.190886 103.36133 79.041016 C 103.73077 90.364276 140.78516 148.12695 140.78516 148.12695 C 140.78516 148.12695 103.35901 160.79989 109.12109 193.03906 C 114.8767 225.28471 125.81814 229.88627 177.05469 236.21875 C 177.63154 236.29005 181.08594 237.24825 181.08594 242.55664 C 181.08594 243.70388 176.48452 398.0028 135.60547 491.85547 C 135.43047 492.2638 133.48692 496.80106 136.24805 499.93164 L 136.95508 499.93164 C 137.74823 500.58543 138.80897 501.14436 140.20898 501.54297 C 140.54494 501.63457 149.25199 503.32321 159.64453 499.93164 L 161.56445 499.93164 C 167.69598 497.59829 174.24865 493.40946 179.93945 486.0918 C 180.43853 485.45662 187.41859 484.36989 197.78906 434.85742 C 197.78906 434.85742 199.51214 430.25035 202.9668 434.27539 C 206.42146 438.30691 209.30078 444.06055 209.30078 444.06055 C 209.30078 444.06055 210.45449 444.06197 209.30078 452.125 C 208.14706 460.18803 208.7234 454.42572 197.78906 475.16016 C 197.51683 475.66572 191.45122 483.79097 200.66797 484.95117 C 209.87823 486.09192 216.21094 480.91992 216.21094 480.91992 C 216.21094 480.91992 222.99584 491.77138 228.49219 499.93164 L 228.94336 499.93164 C 230.42855 502.11822 231.81751 504.12584 232.9082 505.57422 C 238.08695 512.48354 238.0871 510.17553 240.39453 504.41992 C 240.45083 504.27387 240.67865 502.23996 240.93164 499.94531 L 241.01562 499.94531 C 241.70916 493.63876 242.69336 483.79297 242.69336 483.79297 C 242.69336 483.79297 244.9932 478.0376 249.60156 480.92188 C 250.08768 481.22651 262.8457 486.0957 262.8457 486.0957 C 262.8457 486.0957 267.4544 488.97818 268.03125 493.58008 C 268.21922 495.07731 268.34153 497.44273 268.42578 499.93164 L 268.43945 499.93164 C 268.59161 504.90063 268.60156 510.17969 268.60156 510.17969 C 268.60156 510.17969 264.57211 529.17383 247.29883 519.38672 C 247.29883 519.38672 235.78795 510.74746 232.91016 529.75781 C 230.03236 548.75519 245.57213 566.59799 266.87695 552.20898 C 267.55103 551.74879 273.7878 548.17857 273.21094 555.08789 C 272.63409 561.99721 279.54102 624.18164 279.54102 624.18164 C 279.54102 624.18164 275.51271 644.90244 260.83203 643.17188 C 248.21247 641.69407 248.45117 635.98242 248.45117 635.98242 C 247.88079 633.67499 248.16602 627.91992 248.16602 627.91992 C 248.45122 624.18007 244.41992 625.03711 244.41992 625.03711 C 226.28459 627.33806 217.36328 633.09961 217.36328 633.09961 C 188.2871 652.10347 201.52344 671.96289 201.52344 671.96289 C 210.74018 683.19539 229.73828 673.40234 229.73828 673.40234 C 232.90776 672.82549 231.75586 675.41016 231.75586 675.41016 L 225.71484 682.32031 C 221.39814 686.35184 226.86133 686.93555 226.86133 686.93555 C 238.66422 689.23001 257.95312 682.04297 257.95312 682.04297 C 261.11613 679.72906 260.25391 684.63477 260.25391 684.63477 C 259.68353 699.88582 264.86328 701.90234 264.86328 701.90234 C 267.44941 707.94314 271.47843 701.90234 271.47852 701.90234 C 272.05536 699.60788 275.80273 700.17773 275.80273 700.17773 C 276.66478 714.28156 281.27344 719.17383 281.27344 719.17383 C 290.76887 732.12394 298.83398 721.19141 298.83398 721.19141 C 310.63685 714.56078 309.19531 699.88477 309.19531 699.88477 C 307.46475 695.28289 313.51172 699.88477 313.51172 699.88477 C 318.98213 705.06353 318.40596 705.93204 322.72266 699.88477 C 327.03937 693.84399 326.17773 687.79883 326.17773 687.79883 C 323.5916 681.46637 331.35742 683.76758 331.35742 683.76758 C 346.32977 691.53895 360.72461 690.67578 360.72461 690.67578 C 373.67471 691.53783 361.58594 679.16602 361.58594 679.16602 C 361.00909 677.43544 363.60352 677.72656 363.60352 677.72656 C 387.50095 688.9461 394.40906 675.14048 391.53125 657.86719 C 388.64697 640.58741 363.60226 630.50726 353.23828 629.06836 C 342.87429 627.62945 347.76758 634.53906 347.76758 634.53906 C 350.36019 642.60209 346.04227 648.65022 337.11719 650.07617 C 328.19212 651.52155 314.37375 643.74879 313.51172 632.81445 C 312.64967 621.86713 321.28516 559.4043 321.28516 559.4043 C 320.70831 553.64221 326.4707 556.52539 326.4707 556.52539 C 344.60605 566.88289 356.97852 552.20898 356.97852 552.20898 C 368.21102 538.67553 359.28467 523.99044 356.11523 521.4043 C 352.95222 518.81817 349.78125 521.98828 349.78125 521.98828 C 334.52372 533.49302 328.76953 515.64062 328.76953 515.64062 C 327.86585 510.21232 328.47948 504.6848 329.37109 499.94531 L 329.48828 499.94531 C 330.56421 494.47488 331.95111 490.20989 331.64648 488.69336 C 331.06963 485.80258 343.16406 482.35352 343.16406 482.35352 C 347.77243 481.20628 347.18945 484.95508 347.18945 484.95508 C 347.95396 485.85119 347.74284 492.85969 347.38281 499.26953 L 347.35156 499.26953 C 347.02749 504.73994 346.61914 509.60547 346.61914 509.60547 C 346.32747 515.93145 351.2207 511.60938 351.2207 511.60938 C 354.96703 510.46862 356.69141 507.57812 356.69141 507.57812 C 356.69141 507.57812 359.04295 503.99887 361.6875 499.94531 L 362.13477 499.94531 C 365.44684 494.89618 369.40853 488.83609 371.37891 485.80273 C 375.11876 480.04712 380.58984 488.97852 380.58984 488.97852 L 392.10156 490.41602 C 398.43402 490.98639 396.13275 486.0957 396.13281 486.0957 C 394.40871 480.92344 390.66211 476.30859 390.66211 476.30859 C 387.49912 465.95109 384.04297 459.04102 384.04297 459.04102 C 382.88926 451.55485 384.32813 452.41797 384.32812 452.41797 C 384.32812 452.41797 384.32909 452.98635 384.62109 450.68555 C 384.90628 448.3846 391.23828 442.33789 391.23828 442.33789 C 392.96237 438.30638 395.26953 442.91992 395.26953 442.91992 C 396.99363 453.27095 403.91016 477.45313 403.91016 477.45312 C 410.43707 488.40693 417.0651 495.45938 423.20312 499.93164 L 424.1875 499.93164 C 439.22603 510.33854 451.11523 505.57422 451.11523 505.57422 C 456.50139 506.1446 456.86392 502.79478 455.83984 499.25586 L 455.61523 499.25586 C 454.47408 495.82191 452.26953 492.42578 452.26953 492.42578 C 421.17756 391.0999 418.875 248.59766 418.875 248.59766 C 416.28238 241.11797 427.22266 242.8418 427.22266 242.8418 C 443.34225 239.38714 465.79455 235.93218 481.34375 218.08203 C 496.88648 200.23836 487.96867 176.3418 487.96875 176.3418 C 480.19086 159.06851 462.3457 153.02734 462.3457 153.02734 C 458.88455 151.58196 462.91602 146.69727 462.91602 146.69727 C 490.84497 113.2979 500.33984 78.179688 500.33984 78.179688 C 506.67878 48.818348 472.70312 47.947266 472.70312 47.947266 C 461.19191 45.069476 462.91602 53.996094 462.91602 53.996094 C 463.20769 73.285174 405.05664 150.14453 405.05664 150.14453 C 402.17884 155.32978 404.48047 159.93164 404.48047 159.93164 C 404.77214 168.57153 421.17578 175.47852 421.17578 175.47852 C 445.07321 180.0804 447.08398 181.52734 447.08398 181.52734 C 460.32576 186.13571 456.87695 193.03906 456.87695 193.03906 C 456.2936 201.10209 443.05859 199.36914 443.05859 199.36914 C 417.1454 192.7515 404.77148 188.42969 404.77148 188.42969 C 377.41939 184.40466 374.82617 193.32812 374.82617 193.32812 C 375.40953 200.52263 371.66406 197.35547 371.66406 197.35547 C 363.31585 195.63138 349.20312 196.78516 349.20312 196.78516 C 342.00862 198.50925 344.88672 193.32812 344.88672 193.32812 C 348.63305 181.81043 353.23633 156.48438 353.23633 156.48438 C 356.98266 157.6316 357.26758 153.59766 357.26758 153.59766 C 359.56853 144.3874 357.26758 129.42188 357.26758 129.42188 C 362.45281 129.1302 361.30078 124.8125 361.30078 124.8125 C 361.87763 115.88742 360.14648 107.82617 360.14648 107.82617 C 358.99276 104.94837 362.74023 104.37109 362.74023 104.37109 C 365.61802 104.37109 365.61727 100.33789 365.61719 100.33789 C 365.33203 84.509981 360.72266 80.480469 360.72266 80.480469 C 357.84486 76.163769 361.87695 75.302734 361.87695 75.302734 C 366.19367 72.995284 362.74023 68.392578 362.74023 68.392578 C 357.26981 56.589718 348.05859 50.833984 348.05859 50.833984 C 342.01131 47.087654 349.78711 45.070333 349.78711 45.070312 C 373.39288 38.160992 353.5214 35.283203 353.52148 35.283203 C 349.06926 34.716263 344.69177 34.473007 340.41602 34.498047 z M 292.20898 56.875 L 285.87695 64.068359 C 281.84544 70.115639 289.61523 68.099609 289.61523 68.099609 C 307.46538 57.735639 316.3926 57.160156 316.39258 57.160156 L 313.51367 60.90625 C 310.62939 63.2072 312.93555 64.9375 312.93555 64.9375 C 317.54391 67.81531 315.23828 75.009786 315.23828 75.009766 C 312.93733 84.796906 302.85937 81.917969 302.85938 81.917969 C 294.22596 81.341119 295.37891 73.285156 295.37891 73.285156 C 294.80207 69.253636 292.20898 71.556641 292.20898 71.556641 C 288.75432 74.149251 283 72.994141 283 72.994141 C 274.65177 68.392251 283 62.054688 283 62.054688 L 292.20898 56.875 z M 75.726562 65.798828 C 72.732092 65.798828 47.514519 69.25208 44.636719 96.3125 C 41.784839 123.10718 91.729431 163.09961 105.08789 163.09961 C 105.08789 163.09961 113.15258 151.0103 128.69531 142.94727 C 118.79152 127.9814 99.528113 112.21388 93.539062 103.23047 C 76.265772 77.894149 84.016452 65.798828 75.726562 65.798828 z M 305.59766 66.666016 C 302.17541 66.666016 299.40625 69.239445 299.40625 72.421875 C 299.40625 75.597825 302.17541 78.177734 305.59766 78.177734 C 309.01344 78.177734 311.78711 75.597825 311.78711 72.421875 C 311.78711 69.239445 309.01344 66.666016 305.59766 66.666016 z M 265.34961 73.169922 C 266.52997 73.160922 267.81145 73.390574 268.89062 74.146484 C 270.78972 75.481684 272.34444 77.317482 291.05664 89.982422 C 291.05664 89.982422 302.57666 99.189804 304.58594 104.08984 C 304.58594 104.08984 307.75307 110.7098 300.84375 108.11719 C 300.84375 108.11719 284.14661 104.95182 282.13086 104.66016 C 280.1151 104.36848 275.22307 101.20582 269.17578 100.05859 C 269.17578 100.05859 251.90916 88.542688 237.51367 102.36133 C 237.51367 102.36133 232.62164 96.890636 243.84766 87.103516 C 243.84766 87.103516 257.66575 76.162268 261.69727 73.861328 C 261.69727 73.861328 263.38236 73.184792 265.34961 73.169922 z M 527.72852 73.291016 C 519.43863 73.291016 524.27198 84.806859 506.99219 110.13672 C 501.00326 119.12013 482.32238 132.58234 472.41211 147.55469 C 486.23723 153.31029 494.87305 169.43164 494.87305 169.43164 C 508.2315 169.43164 557.63281 131.31876 557.63281 104.375 C 557.63281 83.64703 530.72299 73.291016 527.72852 73.291016 z M 261.11914 123.37109 C 261.11914 123.37109 260.82666 126.54023 244.42188 128.84766 L 234.06055 127.97852 C 234.06055 127.97852 248.73854 126.53989 254.49414 123.94727 L 261.11914 123.37109 z M 33.699219 140.07031 C 23.795428 147.67316 20.455078 166.78552 20.455078 174.61523 C 20.455078 197.64413 41.605776 204.56836 73.384766 204.56836 C 76.612566 204.56836 99.905562 206.28399 100.48242 203.97656 C 100.48242 203.97656 95.883173 187.85966 99.908203 174.04102 C 61.680083 170.81322 40.608549 145.82592 33.699219 140.07031 z M 568.0293 149.29102 C 554.444 162.87633 537.1389 177.14977 498.9043 180.37109 C 502.90341 196.48419 497.17969 207.43359 497.17969 207.43359 C 501.78157 216.07348 521.93282 213.76574 526.58008 213.78516 C 558.35906 213.88236 581.84766 197.66431 581.84766 174.62891 C 581.84766 166.79922 577.9331 156.88738 568.0293 149.29102 z M 102.17383 211.71094 C 102.0794 211.70455 101.97695 211.70796 101.86523 211.7207 C 95.162154 212.4855 57.734911 247.12673 21.033203 246.58594 C 16.424838 263.85923 18.726562 263.51425 18.726562 267.88281 C 18.726562 291.61173 37.308571 296.07849 46.363281 292.06641 C 86.665481 274.21626 115.48137 241.38623 119.48047 230.46484 C 119.64252 230.03058 110.84819 225.28084 102.78516 212.03906 C 102.6618 211.83611 102.45712 211.73011 102.17383 211.71094 z M 497.19531 216.9375 C 497.10648 216.93524 497.0246 216.94394 496.95117 216.96289 C 496.79955 217.00199 496.68016 217.08876 496.5957 217.22266 C 489.69285 228.15701 478.02023 235.2148 478.17578 235.64258 C 482.17489 246.57046 535.55739 300.1543 549.60938 300.1543 C 559.51316 300.1543 578.35547 296.21206 578.35547 272.49609 C 578.35547 268.11459 580.66109 275.38002 576.05273 258.09375 C 538.71402 258.65003 502.79158 217.07992 497.19531 216.9375 z M 124.66602 235.07227 C 124.66602 235.07227 55.572153 356.54812 20.455078 376.69922 C 18.147647 393.97252 33.121491 407.22187 46.363281 409.5293 C 79.762651 409.5293 140.21083 262.12382 141.94141 241.40234 L 124.66602 235.07227 z M 471.8457 237.94531 L 453.99609 244.86133 C 466.61261 289.60023 511.83001 416.61931 545.19336 417.58984 C 560.31475 417.10233 573.71629 402.32758 571.44727 385.3418 C 542.08591 364.61384 471.8457 237.94531 471.8457 237.94531 z M 545.19336 417.58984 C 544.93741 417.59784 544.68071 417.61328 544.42383 417.61328 L 545.57812 417.61328 C 545.45047 417.61328 545.32139 417.59364 545.19336 417.58984 z M 152.30078 241.97656 C 143.66737 266.73604 133.46728 302.50049 115.45508 357.69727 C 79.761258 467.09916 61.332031 473.54373 61.332031 474.00391 C 61.332031 474.00391 63.056396 495.885 95.878906 493.01367 C 138.98762 489.22197 167.26731 291.48915 171.29883 269.03711 L 173.02734 245.43164 C 163.26614 244.84182 152.30078 241.97656 152.30078 241.97656 z M 445.62695 248.88086 C 445.53615 248.86876 445.44356 248.86997 445.35352 248.88867 C 433.45342 251.2674 436.11666 251.17581 426.35547 251.76562 L 426.35547 265.58398 C 430.38699 288.03603 448.2314 499.33483 504.11523 498.79688 C 527.61079 498.57002 530.57227 480.33594 530.57227 480.33594 C 530.57227 479.87576 513.07444 474.12737 476.44727 364.04492 C 458.53786 310.30397 451.34361 249.66236 445.62695 248.88086 z "
       transform="translate(74.999948,152.36217)"
       id="path8750" />
    <path
       style="fill:#ffffff;fill-opacity:1;stroke:none"
       d="m 266.33312,362.44024 0,148.45384 c 0,50.99996 27.72045,94.6274 67.12853,112.99442 l 0,0.40886 c 12.82125,5.72475 26.82549,8.92061 41.50544,8.92061 14.70172,0 28.73439,-3.17941 41.57138,-8.92061 l 0,-0.44603 c 39.39062,-18.37581 67.1285,-61.97143 67.1285,-112.95725 l 0,-148.45384 -67.1285,0 -0.16515,0 -41.37326,0 c -16.88163,0 -19.39734,0 -41.47237,0 l -0.0655,0 z"
       id="path3756-6-8"
       inkscape:connector-curvature="0"
       sodipodi:nodetypes="csccsccsccccccc" />
    <path
       style="fill:#e20909;fill-opacity:1;stroke:none"
       d="m 333.45925,362.44091 0,45.79247 41.54077,-45.79247 -41.54077,0 z m 41.54077,0 41.54074,45.82964 0,-45.82964 -41.54074,0 z m 0,46.57303 -41.54077,45.86681 0,37.4294 41.54077,-45.86681 41.54074,45.90398 0,-37.4294 -41.54074,-45.90398 z m 0,84.22544 -41.54077,45.86681 0,37.4294 41.54077,-45.86681 41.54074,45.86681 0,-37.39223 -41.54074,-45.90398 z m 0,84.00243 -41.54077,45.86681 0,1.18941 c 12.82125,5.72475 26.82737,8.92062 41.50707,8.92062 14.70193,0 28.73744,-3.17942 41.57444,-8.92062 l 0,-1.0779 -41.54074,-45.97832 z"
       id="path3756-6"
       inkscape:connector-curvature="0" />
    <g
       id="g10532"
       transform="matrix(1.0566209,0,0,1.1894149,-693.01759,-42.764664)">
      <path
         id="path3847"
         d="m 907.9327,340.67526 0,124.79533 c 0,42.90294 26.26705,79.6272 63.59763,95.0536 l 0,-219.84894 z m 142.0233,0 0,219.84894 c 37.3625,-15.41173 63.6833,-52.12759 63.6833,-95.0536 l 0,-124.79534 z"
         style="fill:#ffff00;fill-opacity:1;stroke:none"
         inkscape:connector-curvature="0"
         sodipodi:nodetypes="cccccccccc" />
    </g>
  </g>
</svg>
