<?xml version="1.0" encoding="UTF-8" standalone="no"?>
<!-- Created with Inkscape (http://www.inkscape.org/) -->

<svg
   xmlns:dc="http://purl.org/dc/elements/1.1/"
   xmlns:cc="http://creativecommons.org/ns#"
   xmlns:rdf="http://www.w3.org/1999/02/22-rdf-syntax-ns#"
   xmlns:svg="http://www.w3.org/2000/svg"
   xmlns="http://www.w3.org/2000/svg"
   xmlns:sodipodi="http://sodipodi.sourceforge.net/DTD/sodipodi-0.dtd"
   xmlns:inkscape="http://www.inkscape.org/namespaces/inkscape"
   width="600.00012"
   height="760.00006"
   id="svg9346"
   version="1.1"
   inkscape:version="0.48.4 r9939"
   sodipodi:docname="New document 186">
  <defs
     id="defs9348" />
  <sodipodi:namedview
     id="base"
     pagecolor="#ffffff"
     bordercolor="#666666"
     borderopacity="1.0"
     inkscape:pageopacity="0.0"
     inkscape:pageshadow="2"
     inkscape:zoom="0.35"
     inkscape:cx="300.00006"
     inkscape:cy="380.00002"
     inkscape:document-units="px"
     inkscape:current-layer="layer1"
     showgrid="false"
     fit-margin-top="0"
     fit-margin-left="0"
     fit-margin-right="0"
     fit-margin-bottom="0"
     inkscape:window-width="463"
     inkscape:window-height="423"
     inkscape:window-x="1756"
     inkscape:window-y="156"
     inkscape:window-maximized="0" />
  <metadata
     id="metadata9351">
    <rdf:RDF>
      <cc:Work
         rdf:about="">
        <dc:format>image/svg+xml</dc:format>
        <dc:type
           rdf:resource="http://purl.org/dc/dcmitype/StillImage" />
        <dc:title></dc:title>
      </cc:Work>
    </rdf:RDF>
  </metadata>
  <g
     inkscape:label="Layer 1"
     inkscape:groupmode="layer"
     id="layer1"
     transform="translate(-74.999936,-152.36216)">
    <g
       transform="translate(37.857165,-73.345457)"
       id="g9309">
      <path
         inkscape:connector-curvature="0"
         d="m 37.142772,225.70762 0,458.8679 c 0,166.31064 134.314698,301.13214 300.000098,301.13214 165.68543,0 300.00003,-134.8215 300.00003,-301.13213 l 0,-458.8679 -600.000129,0 z"
         id="path2346-2-9"
         style="fill:#000000;fill-opacity:1" />
      <g
         transform="translate(-1312.8125,-698.95306)"
         id="g9168">
        <path
           style="fill:#e20909;fill-opacity:1"
           id="path2346-2-9-5"
           d="m 1449.9553,1051.3274 0,305.9118 c 0,110.8738 89.5431,200.7548 200,200.7548 110.457,0 200,-89.881 200,-200.7547 l 0,-305.9119 -400,0 z"
           inkscape:connector-curvature="0" />
        <path
           inkscape:connector-curvature="0"
           style="fill:#ffff00;fill-opacity:1;stroke:none"
           d="m 1412.8125,825.625 0,220.2188 200,0 0,-220.2188 -200,0 z m 200,220.2188 0,286.4374 c 110.4568,0 200,-89.876 200,-200.75 l 0,-85.6874 -200,0 z"
           transform="translate(37.142836,225.70764)"
           id="rect9053" />
      </g>
      <path
         transform="matrix(0.875,0,0,0.875,4.5778995,211.95746)"
         d="m 141.42136,89.000793 c 0,26.588887 -21.55456,48.143437 -48.143444,48.143437 -26.588888,0 -48.14344,-21.55455 -48.14344,-48.143437 0,-26.588887 21.554552,-48.14344 48.14344,-48.14344 26.588884,0 48.143444,21.554553 48.143444,48.14344 z"
         sodipodi:ry="48.14344"
         sodipodi:rx="48.14344"
         sodipodi:cy="89.000793"
         sodipodi:cx="93.277916"
         id="path9172"
         style="fill:#ffff00;fill-opacity:1;stroke:none"
         sodipodi:type="arc" />
      <path
         transform="matrix(0.875,0,0,0.875,255.52466,211.95746)"
         d="m 141.42136,89.000793 c 0,26.588887 -21.55456,48.143437 -48.143444,48.143437 -26.588888,0 -48.14344,-21.55455 -48.14344,-48.143437 0,-26.588887 21.554552,-48.14344 48.14344,-48.14344 26.588884,0 48.143444,21.554553 48.143444,48.14344 z"
         sodipodi:ry="48.14344"
         sodipodi:rx="48.14344"
         sodipodi:cy="89.000793"
         sodipodi:cx="93.277916"
         id="path9172-9"
         style="fill:#ffff00;fill-opacity:1;stroke:none"
         sodipodi:type="arc" />
      <path
         transform="matrix(0.875,0,0,0.875,506.47143,211.95746)"
         d="m 141.42136,89.000793 c 0,26.588887 -21.55456,48.143437 -48.143444,48.143437 -26.588888,0 -48.14344,-21.55455 -48.14344,-48.143437 0,-26.588887 21.554552,-48.14344 48.14344,-48.14344 26.588884,0 48.143444,21.554553 48.143444,48.14344 z"
         sodipodi:ry="48.14344"
         sodipodi:rx="48.14344"
         sodipodi:cy="89.000793"
         sodipodi:cx="93.277916"
         id="path9172-5"
         style="fill:#ffff00;fill-opacity:1;stroke:none"
         sodipodi:type="arc" />
      <path
         transform="matrix(0.875,0,0,0.875,4.5778995,497.40641)"
         d="m 141.42136,89.000793 c 0,26.588887 -21.55456,48.143437 -48.143444,48.143437 -26.588888,0 -48.14344,-21.55455 -48.14344,-48.143437 0,-26.588887 21.554552,-48.14344 48.14344,-48.14344 26.588884,0 48.143444,21.554553 48.143444,48.14344 z"
         sodipodi:ry="48.14344"
         sodipodi:rx="48.14344"
         sodipodi:cy="89.000793"
         sodipodi:cx="93.277916"
         id="path9172-3"
         style="fill:#ffff00;fill-opacity:1;stroke:none"
         sodipodi:type="arc" />
      <path
         transform="matrix(0.875,0,0,0.875,506.47142,497.40641)"
         d="m 141.42136,89.000793 c 0,26.588887 -21.55456,48.143437 -48.143444,48.143437 -26.588888,0 -48.14344,-21.55455 -48.14344,-48.143437 0,-26.588887 21.554552,-48.14344 48.14344,-48.14344 26.588884,0 48.143444,21.554553 48.143444,48.14344 z"
         sodipodi:ry="48.14344"
         sodipodi:rx="48.14344"
         sodipodi:cy="89.000793"
         sodipodi:cx="93.277916"
         id="path9172-5-2"
         style="fill:#ffff00;fill-opacity:1;stroke:none"
         sodipodi:type="arc" />
      <path
         transform="matrix(0.875,0,0,0.875,36.577899,716.76811)"
         d="m 141.42136,89.000793 c 0,26.588887 -21.55456,48.143437 -48.143444,48.143437 -26.588888,0 -48.14344,-21.55455 -48.14344,-48.143437 0,-26.588887 21.554552,-48.14344 48.14344,-48.14344 26.588884,0 48.143444,21.554553 48.143444,48.14344 z"
         sodipodi:ry="48.14344"
         sodipodi:rx="48.14344"
         sodipodi:cy="89.000793"
         sodipodi:cx="93.277916"
         id="path9172-3-2"
         style="fill:#ffff00;fill-opacity:1;stroke:none"
         sodipodi:type="arc" />
      <path
         transform="matrix(0.875,0,0,0.875,474.47142,716.76811)"
         d="m 141.42136,89.000793 c 0,26.588887 -21.55456,48.143437 -48.143444,48.143437 -26.588888,0 -48.14344,-21.55455 -48.14344,-48.143437 0,-26.588887 21.554552,-48.14344 48.14344,-48.14344 26.588884,0 48.143444,21.554553 48.143444,48.14344 z"
         sodipodi:ry="48.14344"
         sodipodi:rx="48.14344"
         sodipodi:cy="89.000793"
         sodipodi:cx="93.277916"
         id="path9172-5-2-5"
         style="fill:#ffff00;fill-opacity:1;stroke:none"
         sodipodi:type="arc" />
      <path
         transform="matrix(0.875,0,0,0.875,255.52466,846.81066)"
         d="m 141.42136,89.000793 c 0,26.588887 -21.55456,48.143437 -48.143444,48.143437 -26.588888,0 -48.14344,-21.55455 -48.14344,-48.143437 0,-26.588887 21.554552,-48.14344 48.14344,-48.14344 26.588884,0 48.143444,21.554553 48.143444,48.14344 z"
         sodipodi:ry="48.14344"
         sodipodi:rx="48.14344"
         sodipodi:cy="89.000793"
         sodipodi:cx="93.277916"
         id="path9172-9-8"
         style="fill:#ffff00;fill-opacity:1;stroke:none"
         sodipodi:type="arc" />
    </g>
  </g>
</svg>
