<?xml version="1.0" encoding="UTF-8" standalone="no"?>
<!-- Created with Inkscape (http://www.inkscape.org/) -->

<svg
   xmlns:dc="http://purl.org/dc/elements/1.1/"
   xmlns:cc="http://creativecommons.org/ns#"
   xmlns:rdf="http://www.w3.org/1999/02/22-rdf-syntax-ns#"
   xmlns:svg="http://www.w3.org/2000/svg"
   xmlns="http://www.w3.org/2000/svg"
   xmlns:xlink="http://www.w3.org/1999/xlink"
   xmlns:sodipodi="http://sodipodi.sourceforge.net/DTD/sodipodi-0.dtd"
   xmlns:inkscape="http://www.inkscape.org/namespaces/inkscape"
   width="600"
   height="760"
   id="svg2"
   version="1.1"
   inkscape:version="0.48.4 r9939"
   sodipodi:docname="bevaix.svg">
  <defs
     id="defs4">
    <radialGradient
       cx="858.04236"
       cy="579.93323"
       r="300"
       fx="858.04236"
       fy="579.93323"
       id="radialGradient3236"
       xlink:href="#linearGradient2893"
       gradientUnits="userSpaceOnUse"
       gradientTransform="matrix(1.215027,0,0,1.266667,-839.1924,-490.4894)" />
    <linearGradient
       id="linearGradient2893">
      <stop
         id="stop2895"
         style="stop-color:#ffffff;stop-opacity:0.3137255"
         offset="0" />
      <stop
         id="stop2897"
         style="stop-color:#ffffff;stop-opacity:0.25098041"
         offset="0.19" />
      <stop
         id="stop2901"
         style="stop-color:#6b6b6b;stop-opacity:0.1254902"
         offset="0.60000002" />
      <stop
         id="stop2899"
         style="stop-color:#000000;stop-opacity:0.1254902"
         offset="1" />
    </linearGradient>
    <clipPath
       id="clipPath3983-1">
      <path
         inkscape:connector-curvature="0"
         d="m 1.5,1.5 0,458.86794 C 1.5,626.67854 135.81454,761.5 301.49993,761.5 467.1854,761.5 601.5,626.67854 601.5,460.36794 L 601.5,1.5 1.5,1.5 z"
         id="path3985-7"
         style="fill:none;stroke:#000000;stroke-width:3;stroke-miterlimit:4;stroke-opacity:1;stroke-dasharray:none;display:inline" />
    </clipPath>
    <clipPath
       id="clipPath3983-1-5">
      <path
         inkscape:connector-curvature="0"
         d="m 1.5,1.5 0,458.86794 C 1.5,626.67854 135.81454,761.5 301.49993,761.5 467.1854,761.5 601.5,626.67854 601.5,460.36794 L 601.5,1.5 1.5,1.5 z"
         id="path3985-7-2"
         style="fill:none;stroke:#000000;stroke-width:3;stroke-miterlimit:4;stroke-opacity:1;stroke-dasharray:none;display:inline" />
    </clipPath>
  </defs>
  <sodipodi:namedview
     id="base"
     pagecolor="#ffffff"
     bordercolor="#666666"
     borderopacity="1.0"
     inkscape:pageopacity="0.0"
     inkscape:pageshadow="2"
     inkscape:zoom="0.7"
     inkscape:cx="-10.613536"
     inkscape:cy="389.14005"
     inkscape:document-units="px"
     inkscape:current-layer="layer1"
     showgrid="false"
     fit-margin-top="0"
     fit-margin-left="0"
     fit-margin-right="0"
     fit-margin-bottom="0"
     inkscape:window-width="1600"
     inkscape:window-height="1147"
     inkscape:window-x="1592"
     inkscape:window-y="-8"
     inkscape:window-maximized="1" />
  <metadata
     id="metadata7">
    <rdf:RDF>
      <cc:Work
         rdf:about="">
        <dc:format>image/svg+xml</dc:format>
        <dc:type
           rdf:resource="http://purl.org/dc/dcmitype/StillImage" />
        <dc:title />
      </cc:Work>
    </rdf:RDF>
  </metadata>
  <g
     inkscape:label="Layer 1"
     inkscape:groupmode="layer"
     id="layer1"
     transform="translate(-37.142857,-58.076473)">
    <path
       style="fill:#eeeeee;fill-opacity:1"
       id="path2294"
       d="m -1174.629,619.02491 c 0.1323,-0.87951 0.3364,-1.6083 0.4536,-1.61952 0.3006,-0.0288 -0.045,2.57608 -0.4204,3.16817 -0.3551,0.55997 -0.3545,0.58799 -0.033,-1.54865 z"
       inkscape:connector-curvature="0" />
    <path
       style="fill:#000000;fill-opacity:1"
       id="path2292"
       d="m -1159.6109,603.04809 c 0.1328,0.14842 0.1735,0.56279 0.091,0.92081 -0.092,0.39564 -0.1864,0.2898 -0.2414,-0.26987 -0.05,-0.50644 0.018,-0.79936 0.1508,-0.65094 z"
       inkscape:connector-curvature="0" />
    <path
       style="fill:#000000;fill-opacity:1"
       id="path2290"
       d="m -1149.5089,598.9182 c 0.1241,0.32152 0.1602,0.86363 0.08,1.20468 -0.08,0.34105 -0.1813,0.078 -0.2255,-0.58458 -0.044,-0.66258 0.021,-0.94162 0.1452,-0.6201 z"
       inkscape:connector-curvature="0" />
    <path
       style="fill:#000000;fill-opacity:1"
       id="path2278"
       d="m -1135.008,609.28919 c 0.2225,0.37878 0.4189,0.90553 0.4366,1.17055 0.018,0.26503 -0.1499,0.17197 -0.3723,-0.20681 -0.2225,-0.37877 -0.4189,-0.90552 -0.4366,-1.17055 -0.018,-0.26503 0.1499,-0.17196 0.3723,0.20681 z"
       inkscape:connector-curvature="0" />
    <g
       transform="translate(1.965e-5,-167.63117)"
       id="g4709">
      <path
         inkscape:connector-curvature="0"
         d="m 37.14284,225.70764 0,458.8679 c 0,166.31064 134.31455,301.1321 299.99994,301.1321 165.68545,0 300.00005,-134.82146 300.00005,-301.1321 l 0,-458.8679 -599.99999,0 z"
         id="path2346-6"
         style="fill:#ffff00;fill-opacity:1;stroke:none" />
      <path
         inkscape:connector-curvature="0"
         d="m 37.142835,225.70764 0,458.8679 c 0,166.31064 134.314535,301.1321 299.999925,301.1321 165.68547,0 300.00007,-134.82146 300.00007,-301.1321 l 0,-458.8679 -599.999995,0 z"
         id="path2346-1"
         style="fill:#000000;fill-opacity:1" />
      <path
         inkscape:connector-curvature="0"
         id="rect3029-7"
         d="m 37.142835,225.70764 0,458.875 c 0,166.31064 134.314635,301.125 299.999995,301.125 l 0,-760 -299.999995,0 z"
         style="fill:#2b5df2;fill-opacity:1;stroke:none" />
      <path
         inkscape:connector-curvature="0"
         id="path4330-4"
         d="m 237.14283,561.259 c 0,-24.5059 -1.18679,-48.17445 -3.40625,-70.46875 -14.76865,5.1125 -30.41347,7.875 -46.59375,7.875 -16.17806,0 -31.79653,-2.73235 -46.5625,-7.84375 -2.21854,22.2911 -3.4375,45.9362 -3.4375,70.4375 0,82.64428 13.59085,155.5843 34.3125,199.28125 -8.07408,17.02621 -15.0729,38.4754 -20.59375,63.2187 l 36.28125,-24 36.3125,24 c -5.52481,-24.761 -12.52147,-46.21789 -20.59375,-63.24995 20.71491,-43.69979 34.28125,-116.62164 34.28125,-199.25 z m -4.25,-78.40625 c -7.49857,-66.8729 -24.33123,-120.5642 -45.75,-146.625 -21.41731,26.0631 -38.22124,79.7534 -45.71875,146.625 14.4863,5.0134 29.82152,7.71875 45.71875,7.71875 15.89723,0 31.26283,-2.70535 45.75,-7.71875 z m -19.625,-59.75 c -0.07,5.00374 -2.89223,9.78156 -7.6875,12.15625 -6.81994,3.3773 -15.09143,0.60105 -18.46875,-6.21875 -0.22761,-0.4597 -0.42154,-0.93545 -0.59375,-1.40625 3.72501,2.4749 8.64152,2.97125 12.9375,0.84375 6.41075,-3.1747 9.01843,-10.9641 5.84375,-17.375 -0.15018,-0.3031 -0.29861,-0.5888 -0.46875,-0.875 2.94101,1.2385 5.47274,3.50975 7,6.59375 0.84433,1.705 1.29984,3.49475 1.40625,5.28125 0.0199,0.33497 0.0359,0.66642 0.0312,1 z"
         style="fill:#ffffff;fill-opacity:1;stroke:none" />
      <rect
         width="330.83203"
         height="131.14062"
         x="-31.294922"
         y="282.20312"
         transform="matrix(1.4984998,0,0,1,34.895085,232.21991)"
         clip-path="url(#clipPath3983-1-5)"
         id="rect3963-7"
         style="fill:#ffff00;fill-opacity:1;fill-rule:nonzero;stroke:none;display:inline" />
      <path
         id="rect3029-9-1"
         d="m 637.14284,225.70764 0,458.875 c 0,166.31064 -134.31465,301.125 -300.00001,301.125 l 0,-760 300.00001,0 z"
         style="fill:#e20909;fill-opacity:1;stroke:none"
         inkscape:connector-curvature="0" />
      <g
         transform="translate(-2.2268352,0)"
         id="g4509">
        <path
           sodipodi:type="star"
           style="fill:#f9f9f9;fill-opacity:1;stroke:none"
           id="path4130-2"
           sodipodi:sides="5"
           sodipodi:cx="-251.42857"
           sodipodi:cy="324.28571"
           sodipodi:r1="100.73474"
           sodipodi:r2="265.09143"
           sodipodi:arg1="0.96934162"
           sodipodi:arg2="1.5976602"
           inkscape:flatsided="false"
           inkscape:rounded="0"
           inkscape:randomized="0"
           d="m -194.42858,407.34284 -64.12052,181.93865 -54.25754,-185.1195 -192.84826,-4.76011 159.2926,-108.80705 -55.06626,-184.88056 152.70578,117.87304 158.815446,-109.50236 -64.915236,181.6566 153.2195985,117.20438 z"
           transform="matrix(-0.05623992,0.20989023,-0.20989023,-0.05623992,623.63394,368.16804)"
           inkscape:transform-center-x="-9.0427494"
           inkscape:transform-center-y="-1.5326502" />
        <path
           sodipodi:type="star"
           style="fill:#f9f9f9;fill-opacity:1;stroke:none"
           id="path4130-2-2"
           sodipodi:sides="5"
           sodipodi:cx="-251.42857"
           sodipodi:cy="324.28571"
           sodipodi:r1="100.73474"
           sodipodi:r2="265.09143"
           sodipodi:arg1="0.96934162"
           sodipodi:arg2="1.5976602"
           inkscape:flatsided="false"
           inkscape:rounded="0"
           inkscape:randomized="0"
           d="m -194.42858,407.34284 -64.12052,181.93865 -54.25754,-185.1195 -192.84826,-4.76011 159.2926,-108.80705 -55.06626,-184.88056 152.70578,117.87304 158.815446,-109.50236 -64.915236,181.6566 153.2195985,117.20438 z"
           transform="matrix(-0.05623992,0.20989023,-0.20989023,-0.05623992,463.86113,368.16804)"
           inkscape:transform-center-x="-9.0427494"
           inkscape:transform-center-y="-1.5326502" />
      </g>
      <path
         inkscape:connector-curvature="0"
         id="rect4513"
         transform="translate(37.142836,225.70764)"
         d="m 448.9375,168.5 c -9.98807,0 -18.09375,8.10568 -18.09375,18.09375 0,9.98807 8.10568,18.09375 18.09375,18.09375 9.98807,0 18.09375,-8.10568 18.09375,-18.09375 0,-9.98807 -8.10568,-18.09375 -18.09375,-18.09375 z m 0,36.1875 -18.09375,0 0,84.40625 -41.6875,0 c -17.0726,23.35212 -27.75,56.58955 -27.75,93.46875 0,5.48153 0.23008,10.85695 0.6875,16.15625 l -24.875,0 0,23.40625 18.09375,0 0,113.78125 187.25,0 0,-113.78125 18.0625,0 0,-23.40625 -24.84375,0 c 0.45742,-5.2993 0.6875,-10.67472 0.6875,-16.15625 0,-36.87845 -10.66887,-70.12133 -27.75,-93.46875 l -41.6875,0 0,-84.40625 -18.09375,0 z m -34.03125,101.375 c -6.27501,23.02735 -10.0625,42.52228 -10.0625,74.6875 0,6.09942 0.14097,12.08856 0.40625,17.96875 l -24.53125,0 c 0.24458,-43.73369 13.91908,-72.16237 34.1875,-92.65625 z M 483,306.125 c 20.21889,20.51286 33.88048,48.91448 34.125,92.59375 l -24.53125,0 C 492.85901,392.83925 493,386.8519 493,380.75 c 0,-32.13017 -3.74304,-51.60865 -10,-74.625 z m -52.15625,21.3125 0,71.28125 -7.90625,0 c 0.5319,-27.92287 3.47769,-52.92948 7.90625,-71.28125 z m 36.1875,0 c 4.4224,18.35177 7.34427,43.35838 7.875,71.28125 l -7.875,0 0,-71.28125 z"
         style="fill:#ffffff;fill-opacity:1;stroke:none" />
    </g>
  </g>
</svg>
