<?xml version="1.0" encoding="UTF-8" standalone="no"?>
<!-- Created with Inkscape (http://www.inkscape.org/) -->

<svg
   xmlns:dc="http://purl.org/dc/elements/1.1/"
   xmlns:cc="http://creativecommons.org/ns#"
   xmlns:rdf="http://www.w3.org/1999/02/22-rdf-syntax-ns#"
   xmlns:svg="http://www.w3.org/2000/svg"
   xmlns="http://www.w3.org/2000/svg"
   xmlns:xlink="http://www.w3.org/1999/xlink"
   xmlns:sodipodi="http://sodipodi.sourceforge.net/DTD/sodipodi-0.dtd"
   xmlns:inkscape="http://www.inkscape.org/namespaces/inkscape"
   width="600"
   height="760"
   id="svg2"
   version="1.1"
   inkscape:version="0.48.5 r10040"
   sodipodi:docname="vaumarcus.svg">
  <defs
     id="defs4">
    <radialGradient
       cx="858.04236"
       cy="579.93323"
       r="300"
       fx="858.04236"
       fy="579.93323"
       id="radialGradient3236"
       xlink:href="#linearGradient2893"
       gradientUnits="userSpaceOnUse"
       gradientTransform="matrix(1.215027,0,0,1.266667,-839.1924,-490.4894)" />
    <linearGradient
       id="linearGradient2893">
      <stop
         id="stop2895"
         style="stop-color:#ffffff;stop-opacity:0.3137255"
         offset="0" />
      <stop
         id="stop2897"
         style="stop-color:#ffffff;stop-opacity:0.25098041"
         offset="0.19" />
      <stop
         id="stop2901"
         style="stop-color:#6b6b6b;stop-opacity:0.1254902"
         offset="0.60000002" />
      <stop
         id="stop2899"
         style="stop-color:#000000;stop-opacity:0.1254902"
         offset="1" />
    </linearGradient>
    <clipPath
       id="clipPath3983-1">
      <path
         inkscape:connector-curvature="0"
         d="m 1.5,1.5 0,458.86794 C 1.5,626.67854 135.81454,761.5 301.49993,761.5 467.1854,761.5 601.5,626.67854 601.5,460.36794 L 601.5,1.5 1.5,1.5 z"
         id="path3985-7"
         style="fill:none;stroke:#000000;stroke-width:3;stroke-miterlimit:4;stroke-opacity:1;stroke-dasharray:none;display:inline" />
    </clipPath>
    <clipPath
       id="clipPath3983-1-5">
      <path
         inkscape:connector-curvature="0"
         d="m 1.5,1.5 0,458.86794 C 1.5,626.67854 135.81454,761.5 301.49993,761.5 467.1854,761.5 601.5,626.67854 601.5,460.36794 L 601.5,1.5 1.5,1.5 z"
         id="path3985-7-2"
         style="fill:none;stroke:#000000;stroke-width:3;stroke-miterlimit:4;stroke-opacity:1;stroke-dasharray:none;display:inline" />
    </clipPath>
  </defs>
  <sodipodi:namedview
     id="base"
     pagecolor="#ffffff"
     bordercolor="#666666"
     borderopacity="1.0"
     inkscape:pageopacity="0.0"
     inkscape:pageshadow="2"
     inkscape:zoom="0.7"
     inkscape:cx="-181.32782"
     inkscape:cy="389.14005"
     inkscape:document-units="px"
     inkscape:current-layer="layer1"
     showgrid="false"
     fit-margin-top="0"
     fit-margin-left="0"
     fit-margin-right="0"
     fit-margin-bottom="0"
     inkscape:window-width="1600"
     inkscape:window-height="1147"
     inkscape:window-x="-8"
     inkscape:window-y="-8"
     inkscape:window-maximized="1" />
  <metadata
     id="metadata7">
    <rdf:RDF>
      <cc:Work
         rdf:about="">
        <dc:format>image/svg+xml</dc:format>
        <dc:type
           rdf:resource="http://purl.org/dc/dcmitype/StillImage" />
        <dc:title />
      </cc:Work>
    </rdf:RDF>
  </metadata>
  <g
     inkscape:label="Layer 1"
     inkscape:groupmode="layer"
     id="layer1"
     transform="translate(-37.142857,-58.076473)">
    <path
       style="fill:#eeeeee;fill-opacity:1"
       id="path2294"
       d="m -1174.629,619.02491 c 0.1323,-0.87951 0.3364,-1.6083 0.4536,-1.61952 0.3006,-0.0288 -0.045,2.57608 -0.4204,3.16817 -0.3551,0.55997 -0.3545,0.58799 -0.033,-1.54865 z"
       inkscape:connector-curvature="0" />
    <path
       style="fill:#000000;fill-opacity:1"
       id="path2292"
       d="m -1159.6109,603.04809 c 0.1328,0.14842 0.1735,0.56279 0.091,0.92081 -0.092,0.39564 -0.1864,0.2898 -0.2414,-0.26987 -0.05,-0.50644 0.018,-0.79936 0.1508,-0.65094 z"
       inkscape:connector-curvature="0" />
    <path
       style="fill:#000000;fill-opacity:1"
       id="path2290"
       d="m -1149.5089,598.9182 c 0.1241,0.32152 0.1602,0.86363 0.08,1.20468 -0.08,0.34105 -0.1813,0.078 -0.2255,-0.58458 -0.044,-0.66258 0.021,-0.94162 0.1452,-0.6201 z"
       inkscape:connector-curvature="0" />
    <path
       style="fill:#000000;fill-opacity:1"
       id="path2278"
       d="m -1135.008,609.28919 c 0.2225,0.37878 0.4189,0.90553 0.4366,1.17055 0.018,0.26503 -0.1499,0.17197 -0.3723,-0.20681 -0.2225,-0.37877 -0.4189,-0.90552 -0.4366,-1.17055 -0.018,-0.26503 0.1499,-0.17196 0.3723,0.20681 z"
       inkscape:connector-curvature="0" />
    <g
       transform="translate(2.15e-5,-167.63116)"
       id="g3680">
      <path
         inkscape:connector-curvature="0"
         d="m 37.142771,225.70762 0,458.8679 c 0,166.31064 134.314699,301.13213 300.000099,301.13213 165.68543,0 300.00003,-134.82149 300.00003,-301.13213 l 0,-458.8679 -600.000129,0 z"
         id="path2346-2-1"
         style="fill:#2b5df2;fill-opacity:1" />
      <path
         inkscape:connector-curvature="0"
         id="path2346-2-1-4"
         transform="translate(37.142836,225.70764)"
         d="M 300,0 31,592.25 c 18.836573,38.20174 45.503442,71.83985 77.90625,98.75 L 300,270.28125 491.09375,691 C 523.49655,664.08985 550.16344,630.45174 569,592.25 L 300,0 z"
         style="fill:#ffffff;fill-opacity:1" />
      <path
         inkscape:connector-curvature="0"
         id="path6875-4"
         d="m 211.01337,567.79598 c -1.83357,0.0112 -3.35395,0.37693 -4.25681,1.44029 -1.14465,1.3481 -1.57106,3.59484 -1.53205,6.30648 l -6.75485,-3.41378 1.47319,7.1807 c -2.73697,-0.9872 -5.16308,-1.3433 -6.88641,-0.63533 -3.93238,1.61552 -3.4711,10.687 -5.2072,16.03019 -1.73611,5.34319 -7.44075,12.41183 -5.20896,16.03019 0.93448,1.51504 2.96027,2.6202 5.57595,3.42243 l -5.0566,5.09123 7.89218,0.88634 c -2.29346,2.68186 -3.76844,5.27859 -3.60592,7.42305 0.32125,4.23915 9.09084,6.60321 13.63604,9.90547 4.54519,3.30227 9.5051,10.91165 13.63605,9.90721 1.90878,-0.4641 3.75272,-2.34582 5.46169,-4.96139 l 3.06234,5.96026 3.16624,-6.97468 c 1.88308,3.13934 3.94898,5.45353 6.09701,5.97581 4.13095,1.00444 9.09086,-6.60494 13.63604,-9.90721 4.54519,-3.30227 13.31482,-5.66632 13.63605,-9.90547 0.15771,-2.08104 -1.22569,-4.58673 -3.40338,-7.18417 l 6.95044,-1.12522 -4.9735,-4.5442 c 3.60349,-0.82075 6.47761,-2.07456 7.64636,-3.96946 2.2318,-3.61836 -3.47283,-10.687 -5.20895,-16.03019 -1.73608,-5.34319 -1.27655,-14.41467 -5.20893,-16.03019 -2.11559,-0.86912 -5.28906,-0.13492 -8.79757,1.40221 l 1.23256,-7.94758 -6.01565,3.41551 c 0.0395,-2.71212 -0.38718,-4.95987 -1.53204,-6.30821 -2.75162,-3.24072 -11.23777,0 -16.85593,0 -3.77471,0 -8.84289,-1.46316 -12.59739,-1.44029 z m 12.80857,18.21832 0.86729,8.5881 c 5.29623,0.34334 9.74148,3.80926 11.51197,8.57598 l 8.60888,-1.91463 -8.11551,3.57304 c 0.21473,0.94478 0.32892,1.92795 0.32892,2.93772 0,4.14244 -1.9087,7.83842 -4.89388,10.25861 l 4.66364,7.90433 -6.13335,-6.86911 c -1.99433,1.21001 -4.3349,1.90596 -6.83796,1.90596 -2.52059,0 -4.87607,-0.70623 -6.87946,-1.93191 l -6.09184,6.89506 4.62557,-7.93721 c -2.96233,-2.42073 -4.85406,-6.10172 -4.85406,-10.22573 0,-1.02642 0.11593,-2.02541 0.33757,-2.98446 l -8.12589,-3.5263 8.62618,1.87136 c 1.78649,-4.75799 6.24113,-8.21094 11.54139,-8.53618 l 0.82054,-8.58463 z"
         style="fill:#e20909;fill-opacity:1;stroke:none" />
      <path
         inkscape:connector-curvature="0"
         id="path6875-4-5"
         d="m 436.66149,567.79598 c -1.83357,0.0112 -3.35395,0.37693 -4.25681,1.44029 -1.14465,1.3481 -1.57106,3.59484 -1.53205,6.30648 l -6.75485,-3.41378 1.47319,7.18069 c -2.73697,-0.9872 -5.16308,-1.3433 -6.88641,-0.63533 -3.93238,1.61552 -3.4711,10.687 -5.2072,16.03019 -1.73611,5.34319 -7.44075,12.41183 -5.20896,16.03019 0.93448,1.51504 2.96027,2.6202 5.57595,3.42243 l -5.0566,5.09123 7.89218,0.88634 c -2.29346,2.68186 -3.76844,5.27859 -3.60592,7.42305 0.32125,4.23915 9.09084,6.60321 13.63604,9.90547 4.54519,3.30227 9.5051,10.91165 13.63605,9.90721 1.90878,-0.4641 3.75272,-2.34582 5.46169,-4.96139 l 3.06234,5.96027 3.16624,-6.97469 c 1.88308,3.13934 3.94898,5.45353 6.09701,5.97581 4.13095,1.00444 9.09086,-6.60494 13.63604,-9.90721 4.54519,-3.30226 13.31482,-5.66632 13.63605,-9.90547 0.15771,-2.08104 -1.22569,-4.58673 -3.40338,-7.18417 l 6.95044,-1.12522 -4.9735,-4.5442 c 3.60349,-0.82075 6.47761,-2.07456 7.64636,-3.96946 2.2318,-3.61836 -3.47283,-10.687 -5.20895,-16.03019 -1.73608,-5.34319 -1.27655,-14.41467 -5.20893,-16.03019 -2.11559,-0.86912 -5.28906,-0.13492 -8.79757,1.40221 l 1.23256,-7.94757 -6.01565,3.41551 c 0.0395,-2.71212 -0.38718,-4.95987 -1.53204,-6.30821 -2.75162,-3.24072 -11.23777,0 -16.85593,0 -3.77471,0 -8.84289,-1.46316 -12.59739,-1.44029 z m 12.80857,18.21831 0.86729,8.5881 c 5.29623,0.34334 9.74148,3.80926 11.51197,8.57598 l 8.60888,-1.91463 -8.11551,3.57304 c 0.21473,0.94478 0.32892,1.92795 0.32892,2.93772 0,4.14244 -1.9087,7.83842 -4.89388,10.25861 l 4.66364,7.90433 -6.13335,-6.86911 c -1.99433,1.21001 -4.3349,1.90596 -6.83796,1.90596 -2.52059,0 -4.87607,-0.70623 -6.87946,-1.93191 l -6.09184,6.89506 4.62557,-7.93721 c -2.96233,-2.42073 -4.85406,-6.10172 -4.85406,-10.22573 0,-1.02642 0.11593,-2.02541 0.33757,-2.98446 l -8.12589,-3.5263 8.62618,1.87136 c 1.78649,-4.75799 6.24113,-8.21094 11.54139,-8.53618 l 0.82054,-8.58463 z"
         style="fill:#e20909;fill-opacity:1;stroke:none" />
      <path
         inkscape:connector-curvature="0"
         id="path6875-4-51"
         d="m 323.83743,354.65499 c -1.83357,0.0112 -3.35395,0.37693 -4.25681,1.44029 -1.14465,1.3481 -1.57106,3.59484 -1.53205,6.30648 l -6.75485,-3.41378 1.47319,7.18069 c -2.73697,-0.9872 -5.16308,-1.3433 -6.88641,-0.63533 -3.93238,1.61552 -3.4711,10.687 -5.2072,16.03019 -1.73611,5.34319 -7.44075,12.41183 -5.20896,16.03019 0.93448,1.51504 2.96027,2.6202 5.57595,3.42243 l -5.0566,5.09123 7.89218,0.88634 c -2.29346,2.68186 -3.76844,5.27859 -3.60592,7.42305 0.32125,4.23915 9.09084,6.60321 13.63604,9.90547 4.54519,3.30227 9.5051,10.91165 13.63605,9.90721 1.90878,-0.4641 3.75272,-2.34582 5.46169,-4.96139 l 3.06234,5.96027 3.16624,-6.97469 c 1.88308,3.13934 3.94898,5.45353 6.09701,5.97581 4.13095,1.00444 9.09086,-6.60494 13.63604,-9.90721 4.54519,-3.30226 13.31482,-5.66632 13.63605,-9.90547 0.15771,-2.08104 -1.22569,-4.58673 -3.40338,-7.18417 l 6.95044,-1.12522 -4.9735,-4.5442 c 3.60349,-0.82075 6.47761,-2.07456 7.64636,-3.96946 2.2318,-3.61836 -3.47283,-10.687 -5.20895,-16.03019 -1.73608,-5.34319 -1.27655,-14.41467 -5.20893,-16.03019 -2.11559,-0.86912 -5.28906,-0.13492 -8.79757,1.40221 l 1.23256,-7.94757 -6.01565,3.41551 c 0.0395,-2.71212 -0.38718,-4.95987 -1.53204,-6.30821 -2.75162,-3.24072 -11.23777,0 -16.85593,0 -3.77471,0 -8.84289,-1.46316 -12.59739,-1.44029 z m 12.80857,18.21831 0.86729,8.5881 c 5.29623,0.34334 9.74148,3.80926 11.51197,8.57598 l 8.60888,-1.91463 -8.11551,3.57304 c 0.21473,0.94478 0.32892,1.92795 0.32892,2.93772 0,4.14244 -1.9087,7.83842 -4.89388,10.25861 l 4.66364,7.90433 -6.13335,-6.86911 c -1.99433,1.21001 -4.3349,1.90596 -6.83796,1.90596 -2.52059,0 -4.87607,-0.70623 -6.87946,-1.93191 l -6.09184,6.89506 4.62557,-7.93721 c -2.96233,-2.42073 -4.85406,-6.10172 -4.85406,-10.22573 0,-1.02642 0.11593,-2.02541 0.33757,-2.98446 l -8.12589,-3.5263 8.62618,1.87136 c 1.78649,-4.75799 6.24113,-8.21094 11.54139,-8.53618 l 0.82054,-8.58463 z"
         style="fill:#e20909;fill-opacity:1;stroke:none" />
      <g
         transform="translate(-2.027715,0)"
         id="g3676">
        <path
           style="fill:#ffffff;fill-opacity:1;stroke:none"
           d="m 132.67895,257.52923 c -0.41874,0 -0.75,0.33126 -0.75,0.75 l 0,63.9375 -63.937498,0 c -0.418738,0 -0.75,0.36251 -0.75,0.78125 l 0,39.09375 c 0,0.41874 0.331262,0.75 0.75,0.75 l 63.937498,0 0,63.9375 c 0,0.41874 0.33126,0.75 0.75,0.75 l 39.125,0 c 0.41874,0 0.75,-0.33126 0.75,-0.75 l 0,-63.9375 63.9375,0 c 0.41874,0 0.75,-0.33126 0.75,-0.75 l 0,-39.09375 c 0,-0.41874 -0.33126,-0.78125 -0.75,-0.78125 l -63.9375,0 0,-63.9375 c 0,-0.41874 -0.33126,-0.75 -0.75,-0.75 l -39.125,0 z"
           id="rect3630"
           inkscape:connector-curvature="0" />
        <path
           style="fill:#ffffff;fill-opacity:1;stroke:none"
           d="m 506.53714,257.52923 c -0.41874,0 -0.75,0.33126 -0.75,0.75 l 0,63.9375 -63.93749,0 c -0.41874,0 -0.75,0.36251 -0.75,0.78125 l 0,39.09375 c 0,0.41874 0.33126,0.75 0.75,0.75 l 63.93749,0 0,63.9375 c 0,0.41874 0.33126,0.75 0.75,0.75 l 39.12501,0 c 0.41874,0 0.75,-0.33126 0.75,-0.75 l 0,-63.9375 63.9375,0 c 0.41874,0 0.75,-0.33126 0.75,-0.75 l 0,-39.09375 c 0,-0.41874 -0.33126,-0.78125 -0.75,-0.78125 l -63.9375,0 0,-63.9375 c 0,-0.41874 -0.33126,-0.75 -0.75,-0.75 l -39.12501,0 z"
           id="rect3630-1"
           inkscape:connector-curvature="0" />
      </g>
      <path
         inkscape:connector-curvature="0"
         id="rect3630-15"
         d="m 317.58033,703.358 c -0.41874,0 -0.75,0.33126 -0.75,0.75 l 0,63.9375 -63.93749,0 c -0.41874,0 -0.75,0.36251 -0.75,0.78125 l 0,39.09375 c 0,0.41874 0.33126,0.75 0.75,0.75 l 63.93749,0 0,63.9375 c 0,0.41874 0.33126,0.75 0.75,0.75 l 39.12501,0 c 0.41874,0 0.75,-0.33126 0.75,-0.75 l 0,-63.9375 63.9375,0 c 0.41874,0 0.75,-0.33126 0.75,-0.75 l 0,-39.09375 c 0,-0.41874 -0.33126,-0.78125 -0.75,-0.78125 l -63.9375,0 0,-63.9375 c 0,-0.41874 -0.33126,-0.75 -0.75,-0.75 l -39.12501,0 z"
         style="fill:#ffffff;fill-opacity:1;stroke:none" />
    </g>
  </g>
</svg>
